<svg width="512" xmlns="http://www.w3.org/2000/svg" height="512" fill="none"><g data-testid="aardwolf"><defs><clipPath id="a" class="frame-clip frame-clip-def"><rect rx="20" ry="20" width="512" height="512"/></clipPath></defs><g clip-path="url(#a)"><g class="fills"><rect rx="20" ry="20" width="512" height="512" class="frame-background"/></g><g data-testid="aardwolf" style="fill: rgb(0, 0, 0);" class="frame-children"><path d="M197.965.197c-3.798.51-7.1 2.175-8.791 4.403-.308.43-.751 1.115-.98 1.531-.228.443-1.073 1.503-2.026 2.51-3.315 3.571-6.375 7.759-10.589 14.498-11.811 18.889-29.406 54.087-48.222 96.455-1.436 3.208-3.114 6.833-3.744 8.054-1.946 3.773-3.933 8.646-5.382 13.183l-.631 1.974-2.51 2.268c-25.956 23.533-45.349 52.369-57.119 84.936-10.348 28.675-14.307 59.457-11.596 90.28 3.825 43.575 21.272 84.936 49.872 118.242 3.852 4.483 6.308 7.115 10.965 11.786 4.698 4.685 7.315 7.115 11.851 11.022 23.245 19.975 50.879 34.756 80.231 42.931 28.184 7.853 57.844 9.746 86.914 5.571 37.163-5.356 71.722-20.365 101.315-44.018 6.107-4.874 11.207-9.465 17.26-15.506 4.657-4.671 7.113-7.303 10.964-11.786 21.313-24.822 36.6-54.369 44.451-85.916 5.315-21.332 7.261-43.509 5.771-65.552-3.208-47.294-22.078-91.648-53.979-126.928a266.888 266.888 0 0 0-4.926-5.235l-3.046-3.155.08-1.074c.04-.59.175-2.188.282-3.557.456-5.665.389-15.331-.148-21.748-1.892-22.432-8.737-45.173-20.494-68.061-3.315-6.431-5.556-10.431-7.408-13.156a47.811 47.811 0 0 1-1.557-2.417c-.899-1.557-2.872-4.47-4.187-6.188-4.55-6.001-8.804-9.344-12.602-9.908-2.376-.362-4.617.537-6.523 2.605-.51.537-1.101 1.06-1.329 1.181-.215.121-1.49.524-2.818.9-6.63 1.892-9.73 3.262-11.676 5.154-2.027 2.001-2.269 4.108-.765 6.954 1.717 3.262 4.549 5.665 8.535 7.236.537.201.953.43.94.497-.014.067-3.154 4.886-6.993 10.712-17.138 26.084-24.815 37.642-24.976 37.642-.081 0-1.396-.335-2.926-.738-14.038-3.705-28.6-5.907-44.128-6.658-6.12-.296-17.501-.161-23.554.282-.926.067-1.57.053-1.624-.014-.04-.067-.335-1.342-.644-2.846-.658-3.087-.792-3.624-1.745-7.142-2.429-8.94-4.482-14.995-7.395-21.814-1.771-4.135-3.274-7.169-6.469-13.022-4.281-7.84-5.408-10.041-9.649-18.593-3.852-7.772-4.711-9.316-6.255-11.142l-.805-.953 1.289-1.772c4.066-5.585 4.898-9.357 2.563-11.666-1.168-1.168-3.436-2-6.335-2.309-1.744-.201-5.1-.161-6.737.067Zm6.549 5.128c.658.39.953.9.94 1.678-.014.94-.416 1.813-1.289 2.725-.926.98-1.865 1.611-3.744 2.511-2.443 1.168-3.342 2.175-3.342 3.732 0 1.141.765 2.175 2.094 2.859.282.134.59.51.926 1.114a362.248 362.248 0 0 1 14.24 28.729c.697 1.57 1.261 2.886 1.261 2.926 0 .04-.496-.322-1.1-.805-2.617-2.068-5.771-3.048-7.288-2.269-.698.362-1.315 1.289-1.745 2.618-.188.59-.644 2.738-1.006 4.792-.873 4.766-1.396 7.102-2.429 10.807l-.833 2.98-1.234 1.678c-.671.926-3.101 4.215-5.382 7.316-13.166 17.855-24.708 34.286-31.244 44.476-3.718 5.785-5.342 8.658-9.985 17.545-7.221 13.827-10.939 24.392-12.187 34.635-.295 2.457-.402 7.518-.201 9.894.752 8.739 3.785 16.284 9.354 23.264 2.443 3.061 7.57 7.854 9.865 9.223 1.194.698 2.201.846 2.63.376.712-.738.51-2.779-.563-6.095l-.497-1.503.497-1.866c1.557-5.947 4.952-14.526 9.421-23.829 7.248-15.075 17.917-30.5 21.809-31.56 1.45-.39 2.094 1.275 1.732 4.457-.282 2.389-.322 2.483-1.544 4.067-3.449 4.457-7.059 10.162-9.086 14.378-3.355 7.021-3.677 11.813-.98 14.632.672.698 1.772 1.276 2.43 1.276 1.489 0 3.382-1.356 5.194-3.746.322-.429 1.154-1.181 2.08-1.866a64.89 64.89 0 0 0 9.462-8.659c2.791-3.101 3.503-3.624 5.972-4.456 2.604-.86 4.509-2.189 7.784-5.37 4.268-4.162 9.905-10.82 12.441-14.7 1.947-2.994 2.805-5.061 2.712-6.605-.068-1.208-.417-1.597-1.49-1.691-2.148-.175-5.624 1.946-8.509 5.208-1.087 1.235-1.463 1.759-3.959 5.572-3.517 5.356-8.375 10.162-14.844 14.672-2.671 1.853-2.496 1.772-2.241 1.141.966-2.215 1.932-5.275 2.536-7.987.698-3.101.806-4.135.806-7.491.013-2.846-.027-3.275-.296-4.363-.818-3.222-2.456-5.195-5.086-6.121-1.664-.591-5.047-.457-7.556.308-3.892 1.195-8.241 5.088-12.535 11.237-6.228 8.927-12.992 23.694-19.085 41.669-.644 1.906-1.208 3.41-1.262 3.356-.201-.215-3.18-6.175-3.811-7.625-3.302-7.531-4.389-14.633-3.49-22.62.819-7.209 3.127-14.378 7.301-22.687 2.322-4.591 5.302-9.545 13.22-21.949 12.428-19.466 15.582-24.473 19.89-31.548 3.972-6.537 8.442-14.149 10.321-17.612.416-.766.63-1.021 1.02-1.195 2.04-.913 5.247-6.699 8.173-14.727.403-1.087.765-1.973.805-1.973.094 0 12.24 13.371 12.884 14.176.39.497 3.597 9.961 5.355 15.814 6.778 22.634 10.348 43.253 11.274 65.162.067 1.732.161 3.182.188 3.235.04.054-.215.336-.55.618-.671.564-1.181 1.517-1.316 2.483-.201 1.423.873 4.283 2.282 6.082 1.812 2.282 2.818 1.637 4.053-2.632l.47-1.637-.094-2.215c-.134-2.954-.148-2.752.255-3.853.201-.537.443-1.598.564-2.363l.214-1.383 1.973-1.288c5.516-3.625 9.717-5.665 12.025-5.84l.94-.067.309.483c.161.269.295.618.295.792 0 .484-.926 1.92-1.919 2.994-1.101 1.181-2.054 1.799-4.537 2.926-2.576 1.182-2.993 1.625-2.469 2.618.335.671 2.067 2.135 4.12 3.504 2.456 1.638 3.516 2.175 4.483 2.255l.724.054.725-.738c.389-.417.859-.779 1.034-.819 2.013-.416 6.871.174 12.172 1.463 6.161 1.504 11.086 3.262 16.039 5.719l1.986.993.939 1.155c1.087 1.369 2.282 2.362 3.557 2.98.859.403 1.02.43 2.335.43s1.476-.027 2.362-.443l.94-.443 4.026 1.986c6.563 3.262 12.092 5.665 15.488 6.713 1.194.375 1.825.496 2.791.523l1.249.04.577.779c1.006 1.342 1.905 2.054 2.59 2.054.523 0 .913-.336 1.248-1.128.483-1.074.604-2.282.604-5.92-.013-3.92-.201-5.625-.886-8.068-.214-.792-.389-1.597-.362-1.785.054-.47 1.168-1.222 1.798-1.222 1.436 0 3.839 4.39 6.926 12.686 1.06 2.819 3.194 9.182 3.892 11.532 1.14 3.893 2.227 5.96 3.516 6.618.604.309 1.221.121 1.892-.577.685-.699.671-.712.806 1.127.161 2.081.858 2.94 2.268 2.792 1.208-.134 2.362-1.033 3.046-2.389.94-1.866 2.013-5.558 2.483-8.565.363-2.215.363-7.007.014-8.524-.51-2.202-1.678-4.081-3.114-5.061-1.423-.953-2.778-.967-3.825-.027-1.034.94-1.195 2.47-.55 5.021.496 1.906.684 3.289.684 4.832 0 1.249-.282 3.705-.577 4.967l-.174.739-.309-1.678c-1.409-7.531-5.905-18.002-10.24-23.829-3.181-4.269-6.04-5.974-8.456-5.02-1.811.711-3.61 2.349-4.455 4.054-1.329 2.698-1.329 5.719 0 11.035.08.349-.041.268-1.114-.752-1.275-1.235-2.51-2.188-4.349-3.383-4.724-3.061-12.387-6.605-21.017-9.706l-2.563-.926-.161-1.141c-.081-.631-.175-1.396-.215-1.719-.121-1.02-.081-6.349.08-7.88 1.222-12.203 6.51-26.056 16.012-41.951 7.475-12.498 17.903-26.567 28.372-38.273.832-.94 1.516-1.759 1.53-1.812 0-.067 1.207-1.047 2.684-2.175l2.671-2.054.711.148.711.147-.121 1.168c-.174 1.692-.026 8.847.229 11.438 1.275 12.807 3.771 25.479 11.219 56.852 4.819 20.325 6.402 27.561 7.006 32.085.403 3.06.43 9.249.054 11.947-.604 4.43-1.584 8.015-3.302 12.19l-.711 1.731-.523-.617c-1.007-1.181-2.121-1.557-3.141-1.074-.671.322-1.651 1.463-2.295 2.685-.309.577-.859 1.96-1.235 3.074-1.436 4.296-1.61 7.155-.536 8.86.51.806 1.53 1.316 2.55 1.262l.671-.04.389.711c.872 1.598 2.348 2.833 3.382 2.833 1.852 0 3.852-2.725 6.429-8.753 1.436-3.356 4.241-10.605 4.522-11.719 2.295-8.82 1.544-25.238-1.932-42.113-1.007-4.886-1.825-7.974-3.892-14.471-4.08-12.915-10.724-52.57-11.73-70.009-.242-4.081-.618-5.517-1.799-6.725-.724-.739-1.301-.994-2.308-.994-1.49 0-3.959 1.235-6.013 2.994-.55.483-.778.604-.724.43.228-.792 3.664-9.572 4.831-12.324.738-1.759 1.315-3.235 1.275-3.276-.04-.04-.845-.147-1.798-.255-3.235-.349-6.348-1.02-8.039-1.704-1.544-.618-2.443-1.383-2.255-1.893.322-.833 3.61-1.678 8.254-2.108l1.825-.161.282-.644c.402-.86 1.342-1.866 2.094-2.242 1.328-.672 2.979-.457 4.697.577 2.657 1.597 6.522 5.423 9.126 9.035.282.389.685 1.235.913 1.879.496 1.477 1.879 4.296 4.133 8.417 2.121 3.88 5.704 11.035 7.208 14.378 8.119 17.988 12.937 36.219 14.454 54.556.738 8.793.738 18.405 0 27.923-.309 4.041-.846 9.531-1.141 11.679-1.865 13.385-6.697 26.54-13.407 36.434-2.322 3.423-3.544 4.86-7.436 8.739-3.878 3.853-4.858 5.048-5.865 7.129-.657 1.356-.979 2.792-.859 3.839.041.43.041.779-.013.779s-.953-.832-1.986-1.853c-3.57-3.503-5.342-4.671-6.026-3.987-.443.43-.282.833.832 2.068 2.134 2.389 4.402 5.436 4.885 6.591.107.255.336.953.497 1.544.577 2.134 1.838 4.591 4.831 9.451l1.517 2.456.429 2.175c.698 3.423.926 5.746.926 9.276 0 5.249-.805 9.37-2.644 13.572-3.288 7.518-10.213 13.868-18.413 16.902-.738.268-1.423.59-1.503.711-.094.121-.175.416-.175.658 0 1.342 2.523.752 7.731-1.759 4.912-2.389 8.884-4.859 10.589-6.578 1.664-1.664 2.496-3.436 3.288-6.94.349-1.49.47-1.839.926-2.443 1.221-1.638 2.067-3.491 2.684-5.894.711-2.765.872-4.349.872-8.457.014-2.054.041-3.732.081-3.732.107 0 3.369 5.504 4.416 7.451 1.113 2.054 2.16 4.47 2.657 6.094.309.994.362 1.383.349 2.833-.027 6.148-2.631 12.592-10.173 25.171-6.684 11.128-9.623 15.183-16.36 22.553-3.463 3.785-4.362 5.101-4.483 6.591-.054.765-.014.953.362 1.718.269.564.698 1.114 1.208 1.584 1.302 1.222 2.47 1.343 4.214.457l.913-.47-.067.362c-.134.658-.738 5.276-1.007 7.813-2.55 23.52-1.449 51.282 3.356 84.44a538.89 538.89 0 0 0 5.771 32.608c.429 2.094.791 3.893.791 3.987 0 .309-6.979 5.383-11.407 8.269-24.252 15.868-51.779 25.681-80.459 28.688-10.737 1.128-22.48 1.302-33.486.47-28.573-2.121-56.475-11.129-80.995-26.137-10.509-6.431-20.83-14.311-29.862-22.808-2.751-2.591-7.945-7.867-10.294-10.458l-1.785-1.96 1.409-2.094c12.146-18.056 22.695-40.77 28.855-62.182 3.879-13.478 6.577-28.648 7.127-40.139.054-1.034.134-1.973.174-2.094.067-.175.752.403 2.899 2.389l2.819 2.618 2.55 1.249c2.603 1.288 7.583 3.477 7.663 3.383.04-.027-.067-.215-.215-.403-.469-.591-1.315-2.511-1.691-3.866-.617-2.148-1.597-3.786-4.013-6.699-1.409-1.692-6.361-6.981-6.522-6.981-.336 0-19.139-21.13-24.212-27.184-3.878-4.632-4.294-5.209-4.778-6.565-1.167-3.356-.026-6.819 3.852-11.692 1.503-1.88 3.288-3.8 7.905-8.525 4.805-4.927 6.415-6.658 8.12-8.806 6.764-8.471 10.522-18.244 8.334-21.694-1.1-1.745-3.207-1.369-5.542.993l-1.168 1.182-.416-.591c-.846-1.235-1.839-1.853-4.496-2.766-4.389-1.516-7.677-3.678-11.301-7.423-3.543-3.665-6.267-7.692-9.032-13.317-2.563-5.222-4.281-10.136-5.556-15.881-.604-2.712-.806-4.793-.698-7.343.537-12.579 5.677-32.434 16.186-62.558.51-1.49 3.986-11.062 4.992-13.76 6.12-16.526 19.085-40.287 34.868-63.9 2.026-3.034 3.194-4.954 4.952-8.189 2.242-4.108 6.925-13.317 8.026-15.787.51-1.155.564-1.222.899-1.168.591.121.886-.094 5.785-4.054 2.697-2.175 3.999-2.94 5.636-3.289.698-.148 1.638-.041 2.134.241Zm58.462 113.598c9.033.362 17.354 1.275 25.903 2.819 2.791.51 7.354 1.45 8.468 1.745l.497.134-1.047 2.457c-4.415 10.363-6.992 20.579-7.502 29.829-.067 1.154-.134 2.107-.161 2.134-.027.027-.685-.188-1.463-.483-4-1.477-10.978-3.396-16.441-4.524a122.68 122.68 0 0 1-2.711-.591c-.013-.027.121-.523.309-1.101.912-2.993 1.167-6.148.617-7.92-.711-2.322-2.322-3.316-5.328-3.316-2.308.014-4.966.645-8.522 2.068-1.839.725-5.677 2.55-7.221 3.436-.55.309-1.047.564-1.114.564-.067 0-.121-.376-.121-.846 0-1.463-1.154-13.411-2.093-21.828-.376-3.41-.443-4.242-.295-4.322.094-.067.603-.121 1.113-.135.524-.013 1.906-.067 3.087-.12 3.436-.135 10.455-.148 14.025 0Zm135.7 68.545c4.845 6.014 9.569 12.793 13.877 19.921 4.577 7.572 9.234 16.875 12.616 25.171 13.85 33.991 17.098 71.901 9.261 107.932-8.322 38.233-28.641 72.519-58.503 98.737l-1.744 1.53-.51-1.544c-2.523-7.464-5.006-18.646-6.469-29.184-3.758-26.97-3.785-61.148-.067-99.005.483-4.967.577-5.612.832-5.974.161-.228 1.369-1.92 2.697-3.759 8.992-12.538 15.582-24.204 18.307-32.353 1.744-5.222 2.066-8.927 1.06-12.35-2.483-8.471-9.918-21.466-20.226-35.333-.174-.242-.295-.457-.255-.483.027-.027.819-.417 1.772-.873 3.1-1.517 5.623-3.383 8.683-6.457 4.886-4.887 9.086-11.357 12.844-19.721.886-2 2.523-6.067 3.208-8.001.349-.993.376-1.033.577-.778.121.134 1.033 1.275 2.04 2.524Zm-284.27 3.141c3.033 16.888 13.367 30.527 28.788 38.004 1.329.645 3.114 1.423 3.972 1.746l1.557.577-.872 1.678c-1.611 3.087-7.999 12.068-12.119 17.022-.832 1.007-2.684 2.98-4.12 4.39-2.805 2.752-3.866 3.973-4.725 5.45-1.543 2.631-2.496 6.35-3.1 11.921-.215 2.067-.107 3.182.483 4.94 1.893 5.692 8.308 14.297 19.42 26.111l1.839 1.96.201 1.933c.484 4.685.551 6.309.551 13.142 0 7.035-.081 8.941-.618 14.23-1.436 14.203-5.046 27.856-10.656 40.206-2.322 5.115-9.583 19.465-13.783 27.252-3.436 6.349-7.825 14.028-8.026 14.028-.067 0-.617-.644-1.248-1.436-31.217-40.018-44.236-90.803-36.25-141.4 2.389-15.183 6.911-30.459 13.313-44.971 1.544-3.477 5.396-11.21 7.315-14.633 4.684-8.404 9.81-16.109 15.917-23.949l1.557-2 .161 1.127c.094.618.295 1.826.443 2.672Z" style="fill: rgb(0, 0, 0);" class="fills" data-testid="svg-path"/><path d="M229.853 158.001c-1.141.577-2.348 2.349-3.503 5.142-1.14 2.792-1.503 4.725-1.006 5.436.201.282.308.309.939.255 2.134-.174 4.59-2.51 5.852-5.571.389-.926.443-1.194.443-2.322 0-1.168-.041-1.342-.403-2-.631-1.155-1.342-1.437-2.322-.94ZM222.109 189.629c-4.08.242-7.958.94-10.562 1.866-3.476 1.248-10.965 6.081-13.743 8.847-1.637 1.651-2.04 2.738-1.289 3.49.457.47.833.604 1.598.604 1.14 0 1.583-.228 2.415-1.235 2.94-3.611 8.214-6.887 13.931-8.686 1.651-.523 4-.738 10.496-.966 4.549-.161 10.24-.04 13.689.295 1.745.161 4.563.806 8.67 1.947 10.039 2.805 17.528 5.383 26.05 8.94 2.282.94 4.697 1.907 5.355 2.121 3.57 1.209 6.469 1.048 14.119-.738 7.502-1.745 18.83-3.45 28.117-4.229 2.724-.228 8.871-.322 10.737-.147 2.04.174 3.113.51 6.187 1.946 4.026 1.88 6.335 3.262 7.959 4.779.778.712 1.154.967 1.838 1.195 1.302.43 2.241.577 2.564.403.724-.389-.202-2.041-2.363-4.202-3.932-3.933-9.515-7.195-13.219-7.732-.483-.068-1.705-.256-2.698-.403-3.516-.524-4.509-.591-8.388-.591-5.234 0-7.1.228-14.495 1.799-3.892.819-8.602 1.92-15.34 3.544-6.214 1.504-7.703 1.705-10.871 1.423-5.918-.51-10.025-2.067-17.299-6.591-1.088-.685-2.443-1.437-3.007-1.678-2.416-1.021-7.167-2.323-11.73-3.195-1.396-.269-2.724-.551-2.952-.618-1.222-.376-7.65-1.329-11.744-1.732-4.831-.483-10.602-.671-14.025-.456ZM183.296 214.182c-.926.457-2.362 1.812-3.704 3.464-1.651 2.027-3.154 3.691-6.791 7.464-3.973 4.107-5.449 5.759-6.926 7.719-2.603 3.463-4.026 6.39-4.845 10.028-1.503 6.672-1.664 13.693-.429 19.438 1.1 5.182 3.811 9.961 7.462 13.196 2.013 1.772 10.764 7.384 12.012 7.679.416.108.443.04.161-.725-.175-.51-.175-.617.067-1.235.148-.362.268-.832.268-1.047 0-.899-1.046-1.718-2.576-2.027-.591-.107-1.007-.309-1.692-.832-3.65-2.752-7.327-6.713-9.421-10.176-3.181-5.236-4.389-11.035-3.422-16.391.684-3.84 2.912-10.324 5.019-14.687 3.181-6.551 6.885-11.061 12.629-15.37 2.537-1.907 4.161-4.108 4.161-5.652 0-1.195-.698-1.49-1.973-.846ZM217.748 215.176c-9.838 1.208-15.945 3.49-19.85 7.41-1.128 1.141-1.866 2.215-3.57 5.262-1.852 3.289-3.047 6.31-3.718 9.37-.241 1.155-.295 1.799-.308 3.934 0 3.047.228 4.175 1.275 6.309 1.852 3.786 5.261 6.39 10.844 8.256 8.683 2.9 16.306 1.759 23.325-3.49 3.812-2.86 8.791-8.941 9.932-12.176 1.208-3.356 1.436-8.269.577-12.243-1.49-6.833-5.395-11.035-11.596-12.431-1.127-.255-5.422-.376-6.911-.201Zm-8.496 7.517c1.517.202 2.376.752 2.711 1.732.228.698.175 2.51-.107 3.705-.9 3.732-3.839 7.894-6.536 9.249-.98.484-2.591.98-3.718 1.142-1.812.255-3.114-.148-4.093-1.262-.671-.752-.806-1.437-.577-2.752.496-2.739 3.489-7.102 6.388-9.303.59-.457 1.57-1.235 2.188-1.732 1.114-.913 1.114-.913 1.946-.913.456 0 1.275.067 1.798.134ZM323.773 218.585c-2.295.497-3.757 1.289-5.435 2.967-3.047 3.061-4.563 7.531-4.724 13.841-.135 4.967.402 7.92 1.973 10.887 3.382 6.444 7.314 10.753 11.716 12.86 4.375 2.108 9.046 1.96 14.146-.402 3.717-1.732 6.455-4.484 7.744-7.76.724-1.852 1.154-4.175 1.154-6.336 0-3.557-1.195-8.699-2.926-12.619-1.597-3.611-1.919-4.255-2.483-5.141-2.617-4.041-7.703-6.833-14.79-8.095-2.053-.363-5.153-.457-6.375-.202Zm.202 5.182c1.06.161 1.919.604 2.362 1.222.268.376.282.51.201 1.772-.268 3.866-1.06 6.873-2.295 8.752-.55.819-1.047 1.289-1.865 1.719-.833.443-2.591.416-3.503-.054-1.866-.953-2.054-3.544-.524-7.531.993-2.604 1.477-3.45 2.778-4.779 1.343-1.356 1.249-1.329 2.846-1.101ZM281.229 246.817c-12.039.443-26.037 3.705-38.317 8.9-5.731 2.43-12.16 5.773-15.77 8.189-.402.269-1.248.725-1.879 1.007-2.093.926-6.885 3.396-8.589 4.403-3.208 1.906-4.644 3.115-5.811 4.86a64.11 64.11 0 0 1-1.839 2.55c-1.812 2.35-1.973 2.752-1.074 2.752.564 0 2.845-.765 3.476-1.168.215-.134 2.067-1.369 4.134-2.738 13.824-9.25 28.265-16.619 40.612-20.727 10.629-3.544 19.407-4.632 26.882-3.356 14.079 2.416 21.903 4.591 27.017 7.504 3.905 2.228 6.616 4.698 13.206 11.988 3.986 4.416 5.731 6 6.335 5.759 1.234-.47-2.792-7.316-7.436-12.592-2.496-2.846-4.59-4.591-7.448-6.175-.819-.443-2.698-1.611-4.174-2.565-1.477-.966-3.463-2.228-4.429-2.805-5.986-3.638-11.556-5.289-19.286-5.746-2.188-.121-3.248-.134-5.61-.04ZM189.416 286.123c-1.664.403-2.188.752-4.04 2.685-2 2.081-3.087 2.994-5.556 4.645-3.302 2.202-4.094 3.209-4.188 5.357-.067 1.342.363 3.879.806 4.805.792 1.679 2.55 1.276 5.127-1.194l1.409-1.343.322.578c.174.322.671 1.235 1.1 2.053 1.235 2.336 3.973 7.236 5.718 10.23 13.756 23.533 28.627 42.3 42.128 53.147 4.268 3.423 14.387 11.115 18.521 14.082 15.837 11.33 24.923 13.868 41.672 11.599 9.073-1.222 16.038-3.893 22.279-8.578 5.691-4.269 10.2-9.867 13.931-17.318 4.456-8.887 7.033-18.23 8.939-32.554 1.986-14.847 2.952-26.419 2.59-30.943-.081-.994-.134-1.826-.108-1.853.027-.027.43.202.886.497.98.631 2.121 1.087 2.725 1.087.698 0 1.691-.59 2.738-1.624 1.328-1.289 1.516-2.027.832-3.37-.644-1.275-2.201-2.752-6.214-5.893a448.784 448.784 0 0 1-3.557-2.779c-3.825-3.007-7.677-3.799-9.435-1.946-.939.993-1.261 2.846-.684 4.081.563 1.248 2.228 2.631 4.013 3.342.443.175.805.323.832.336.013.014-.067.242-.175.51-.255.618-.255 1.92 0 4.189.671 6.148.671 13.021 0 20.069-.765 7.907-2.805 20.231-4.241 25.627-2.63 9.921-8.898 22.446-16.561 33.132l-1.181 1.651-2.027.792c-4.831 1.893-10.119 3.141-16.118 3.799-2.51.269-10.106.228-12.549-.067-7.328-.913-13.515-2.806-19.796-6.054-12.374-6.417-24.091-17.009-36.545-33.065-3.664-4.725-6.335-8.39-12.911-17.76-2.457-3.504-5.503-7.8-6.765-9.532-6.455-8.913-9.69-13.666-12.481-18.297l-1.034-1.705.39-.577c1.369-1.987 2.805-6.028 3.046-8.552.269-2.725-1.154-3.933-3.838-3.289Z" style="fill: rgb(0, 0, 0);" class="fills" data-testid="svg-path"/><path d="M292.368 325.551c-2.697.255-10.039 1.624-14.226 2.658-9.932 2.457-16.494 5.544-20.4 9.612-1.382 1.436-1.959 2.215-2.684 3.624-1.168 2.269-1.57 4.31-1.423 7.156.054 1.006.094 1.946.094 2.094.014.148.067 1.007.134 1.893.43 5.41 3.114 10.645 7.382 14.404 3.946 3.49 8.858 5.867 15.488 7.464 4.308 1.047 7.556 1.517 11.542 1.638 11.931.376 20.802-4.135 26.372-13.384 2.054-3.41 3.745-7.921 4.389-11.68.308-1.785.295-5.41-.014-7.182-2.147-12.055-13.099-19.572-26.654-18.297Zm-14.655 10.377c2.509.336 3.69 3.007 3.274 7.383-.349 3.759-1.463 7.062-3.113 9.236-1.517 2.001-3.221 2.726-6.711 2.873-2.818.121-5.529-.389-7.905-1.503l-1.329-.631-.416-.9c-1.758-3.826-1.288-7.772 1.222-10.43 1.181-1.249 2.147-1.88 4.872-3.249 2.456-1.222 4.039-1.88 5.771-2.376 1.154-.336 2.925-.604 3.489-.524.148.014.537.067.846.121ZM295.724 404.876c-.631.255-.806.523-.806 1.248 0 .859.081.98 2.322 3.799 4.402 5.531 9.059 12.136 11.931 16.955.886 1.49 6.013 11.035 6.013 11.196 0 .041-.832-.496-1.839-1.194-5.22-3.558-9.22-5.988-12.79-7.773-2.845-1.41-4.711-2.081-6.133-2.188-.9-.068-1.02-.054-1.316.228-.832.778-.791 1.57.323 6.457.442 1.947.926 4.148 1.073 4.886 2.107 10.485 2.295 20.244.537 29.574-.201 1.061-.349 1.544-.497 1.611-.335.121-1.677-.657-4.804-2.805-5.946-4.095-8.375-5.357-10.267-5.357-1.678 0-1.906.376-2.43 3.947-.51 3.558-1.033 6.135-1.919 9.478-1.073 4-1.006 4.671.497 4.537.631-.067.765-.134 1.288-.725 1.114-1.235 2.483-4.564 3.852-9.383.416-1.477.779-2.752.805-2.846.027-.094 2.282 1.261 5.53 3.342 6.469 4.148 7.234 4.511 8.616 4.135 1.731-.456 2.47-2.269 2.832-6.846.872-11.505.537-28.125-.698-32.984-.081-.322-.107-.618-.081-.658.041-.04 5.074 2.671 11.194 6.028 12.132 6.645 11.407 6.309 12.146 5.517.416-.443.402-1.41 0-2.604-.873-2.524-5.785-11.814-10.724-20.271-4.254-7.29-7.556-12.337-9.797-14.995-.711-.846-2.188-1.96-2.845-2.162-.739-.214-1.651-.281-2.013-.147Z" style="fill: rgb(0, 0, 0);" class="fills" data-testid="svg-path"/></g></g></g></svg>