<svg width="512" xmlns="http://www.w3.org/2000/svg" height="512" fill="none"><g data-testid="bluesky"><defs><clipPath id="a" class="frame-clip frame-clip-def"><rect rx="20" ry="20" width="512" height="512"/></clipPath></defs><g clip-path="url(#a)"><g class="fills"><rect rx="20" ry="20" width="512" height="512" class="frame-background"/></g><g class="frame-children"><path d="M110.983 60.942c58.699 44.068 121.837 133.42 145.019 181.371 23.182-47.948 86.317-137.304 145.018-181.371C443.375 29.145 512 4.541 512 82.83c0 15.635-8.964 131.345-14.222 150.13-18.276 65.31-84.871 81.967-144.11 71.885 103.547 17.623 129.889 75.998 73.002 134.373-108.041 110.865-155.286-27.817-167.397-63.352-2.219-6.514-3.258-9.562-3.273-6.97-.015-2.592-1.054.456-3.273 6.97-12.106 35.535-59.35 174.22-167.397 63.352-56.888-58.375-30.547-116.753 73.002-134.373-59.24 10.082-125.837-6.576-144.11-71.885C8.964 214.173 0 98.464 0 82.83 0 4.541 68.627 29.145 110.983 60.942Z" style="fill: rgb(0, 0, 0); fill-opacity: 1;" class="fills" data-testid="svg-path"/></g></g></g></svg>