<svg width="512" xmlns="http://www.w3.org/2000/svg" height="512" fill="none"><g data-testid="catodon"><defs><clipPath id="a" class="frame-clip frame-clip-def"><rect rx="20" ry="20" width="512" height="512"/></clipPath></defs><g clip-path="url(#a)"><g class="fills"><rect rx="20" ry="20" width="512" height="512" class="frame-background"/></g><g class="frame-children"><path d="M479.81.029a5.321 5.321 0 0 1 5.844 4.739c13.946 134.33 20.919 219.529 20.919 255.595C506.573 428.606 403.331 512 256 512 108.669 512 5.427 428.606 5.427 260.363c0-12.049.53-27.396 1.591-46.042 1.737 1.18 2.863 1.937 3.177 2.151 10.443 7.127 21.049 13.262 31.741 18.374-1.543 71.008 21.769 126.041 75.783 136.173 55.347 10.383 104.144-60.651 123.065-151.76 59.268-29.127 109.271-72.604 156.764-126.996.256-.293.478-.605.666-.93l.055.024 78.084-89.531A5.311 5.311 0 0 1 479.81.029ZM188.12 363.332a5.32 5.32 0 0 0-5.32 5.321c0 12.155 4.246 24.275 12.451 31.927 15.176 14.151 38.214 13.779 52.2-1.219l.457-.498c2.283-2.521 4.482-5.506 6.609-8.955l.284-.466.189.426c6.718 14.887 18.664 22.367 35.064 21.733 20.923-.809 33.326-15.167 36.659-41.209a5.32 5.32 0 0 0-10.554-1.351c-2.729 21.322-11.385 31.343-26.516 31.928-13.231.511-21.705-5.588-26.443-19.23-.699-2.007-2.165-5.019-2.716-9.389-.14-1.108-.099-4.838-1.232-6.668-1.285-2.075-3.792-2.194-4.53-2.164-2.168.091-3.963 1.836-4.565 2.847-1.776 2.984.119 8.731-2.661 14.446l-.408.832-.387.776c-2.512 4.989-3.703 6.416-5.029 7.709l-.2.194c-.537.515-1.107 1.036-1.803 1.782-9.916 10.635-26.219 10.898-37.161.694-5.811-5.419-9.068-14.716-9.068-24.145a5.32 5.32 0 0 0-5.32-5.321Zm210.989-133.826c-36.434 0-65.969 29.536-65.969 65.969 0 36.433 29.535 65.968 65.969 65.968 36.433 0 65.968-29.535 65.968-65.968 0-36.433-29.535-65.969-65.968-65.969Zm0 14.897c28.206 0 51.072 22.865 51.072 51.072 0 28.206-22.866 51.072-51.072 51.072-28.207 0-51.073-22.866-51.073-51.072 0-28.207 22.866-51.072 51.073-51.072Zm26.6 23.408c-7.052 0-12.768 5.716-12.768 12.768 0 7.051 5.716 12.768 12.768 12.768 7.052 0 12.768-5.717 12.768-12.768 0-7.052-5.716-12.768-12.768-12.768ZM45.789 23.28a7.439 7.439 0 0 1 9.324 1.641c38.223 44.673 57.486 66.942 57.788 66.806C153.472 73.52 202.8 64.054 256 64.054c47.986 0 92.821 7.713 130.922 22.576-49.782 56.644-102.247 100.992-165.845 128.894l-172.108 9.7c-10.814-5.03-21.569-11.18-32.177-18.419-.603-.412-3.983-2.924-8.916-6.498 2.618-40.258 7.338-93.582 14.159-159.97a7.451 7.451 0 0 1 3.739-5.718Zm417.333 30.722-36.319 45.806 41.966 14.666-5.647-60.472Zm-415.583.66L40.962 114.4l42.361-14.361-35.784-45.377Z" fill-rule="evenodd" style="fill: rgb(0, 0, 0);" class="fills" data-testid="catodon"/></g></g></g></svg>