<svg width="512" xmlns="http://www.w3.org/2000/svg" height="512" fill="none"><g data-testid="chuckya"><defs><clipPath id="a" class="frame-clip frame-clip-def"><rect rx="20" ry="20" width="512" height="512"/></clipPath></defs><g clip-path="url(#a)"><g class="fills"><rect rx="20" ry="20" width="512" height="512" class="frame-background"/></g><g class="frame-children"><path d="M162.212 0c46.229 0 83.76 30.131 83.76 67.244s-37.531 67.244-83.76 67.244c-46.229 0-83.76-30.131-83.76-67.244S115.983 0 162.212 0Zm249.512 350.378c41.996 0 76.092 27.752 76.092 61.935 0 34.183-34.096 61.936-76.092 61.936-41.997 0-76.093-27.753-76.093-61.936s34.096-61.935 76.093-61.935ZM212.35 134.488c100.012 0 181.088 64.703 181.088 144.517 0 40.054-20.42 76.303-53.404 102.478 2.888-5.969 5.402-12.691 7.343-19.927 7.892-29.426 3.306-56.22-10.242-59.847-13.548-3.627-30.928 17.287-38.82 46.713-6.53 24.349-4.517 46.896 4.048 56.006-26.513 12.148-57.247 19.093-90.013 19.093-12.261 0-24.238-.973-35.816-2.826 4.442 8.039 6.913 16.996 6.913 26.42 0 35.811-35.682 64.885-79.631 64.885-43.95 0-79.632-29.074-79.632-64.885 0-24.34 16.485-45.569 40.846-56.67-2.706-4.225-4.274-9.031-4.274-14.113 0-4.859 1.433-9.466 3.996-13.588-21.085-23.614-33.489-52.521-33.489-83.739 0-79.814 81.075-144.517 181.087-144.517Zm-7.843 220.776c-6.036 26.12 5.93 51.184 26.727 55.981 20.797 4.797 42.55-12.489 48.586-38.61 6.036-26.121-5.93-51.185-26.727-55.981-20.797-4.797-42.55 12.489-48.586 38.61Z" style="fill: rgb(0, 0, 0);" class="fills" data-testid="chuckya"/></g></g></g></svg>