<svg width="512" xmlns="http://www.w3.org/2000/svg" height="512" fill="none"><g data-testid="clubsall"><defs><clipPath id="a" class="frame-clip frame-clip-def"><rect rx="20" ry="20" width="512" height="512"/></clipPath></defs><g clip-path="url(#a)"><g class="fills"><rect rx="20" ry="20" width="512" height="512" class="frame-background"/></g><g class="frame-children"><path d="M222.495 459.424c-.428 9.927-3.447 20.354-7.872 29.233-2.39 4.795-7.308 10.58-4.733 16.219 5.775 12.646 31.082 5.21 40.755 2.212 3.897-1.208 8.482-2.103 10.979-5.67 5.447-7.78-6.747-27.541-9.897-35.498 14.483.299 28.743 2.761 43.308 2.123 40.512-1.774 80.576-11.268 116.931-29.457 6.919-3.462 13.939-7.046 19.3-12.769 23.258-24.825 9.406-58.413-13.888-77.404-33.176-27.048-75.32 3.035-112.599.479-79.607-5.456-99.995-100.581-84.575-165.554 10.383-43.751 46.717-75.922 92.154-77.912 32.882-1.44 68.287 17.206 90.845-18.448 29.144-46.063-32.261-75.505-68.108-83.139-67.412-14.356-128.897 12.82-176.479 60.402-56.846 56.846-89.864 133.963-89.864 214.373 0 66.725 36.721 123.442 93.112 157.207 17.325 10.374 40.205 21.935 60.631 23.603ZM238.734 27.96c7.933-.036 11.561 9.994 5.254 14.949-7.167 5.631-19.679 6.526-27.99 10.786-17.066 8.748-31.508 21.393-44.39 35.449-5.905 6.443-16.155 27.405-25.98 26.702-5.788-.415-8.438-6.477-6.819-11.545 2.741-8.58 10.902-17.165 16.727-23.819C174.467 58.86 207.355 28.1 238.734 27.96Zm-111.5 88.737c15.617-3.89 9.637 21.251-1.115 23.929-15.664 3.902-9.88-21.191 1.115-23.929Zm255.499 307.34c6.997-.789 13.724 5.708 8.94 12.506-2.913 4.139-10.595 6.456-15.436 7.061-6.556.818-12.714-5.757-9.234-12.126 2.708-4.956 10.534-6.855 15.73-7.441Zm-33.563 9.756c8.457-1.351 16.565 7.454 8.501 14.252-8.098 6.825-32.597 12.905-43.148 13.427-8.175.404-13.918-9.504-6.248-14.948 9.269-6.579 29.672-10.939 40.895-12.731Z" style="display: inline; stroke: none; fill: rgb(0, 0, 0); fill-opacity: 1;" class="fills" data-testid="clubsall"/></g></g></g></svg>