<svg width="512" xmlns="http://www.w3.org/2000/svg" height="512" fill="none"><g data-testid="diaspora"><defs><clipPath id="a" class="frame-clip frame-clip-def"><rect rx="20" ry="20" width="512" height="512"/></clipPath></defs><g clip-path="url(#a)"><g class="fills"><rect rx="20" ry="20" width="512" height="512" class="frame-background"/></g><g class="frame-children"><path d="m325.57 467.152-49.743-69.453c-13.267-18.557-24.039-32.998-24.615-32.998-.576 0-21.459 28.028-49.402 66.402-26.621 36.561-48.634 66.424-48.954 66.424-.704 0-95.945-67.064-96.201-67.768-.128-.341 21.437-31.953 47.823-70.241 26.45-38.289 48.08-70.178 48.08-70.946 0-1.173-8.703-4.117-75.873-26.557L.065 236.44c-.64-.384 3.328-13.652 16.915-56.526 9.812-30.844 18.003-56.313 18.238-56.633.299-.341 36.475 11.177 80.459 25.703 44.005 14.505 80.31 26.322 80.8 26.322.47 0 .982-.64 1.131-1.493.213-.64.64-38.096.853-83.189.427-44.795.853-81.91 1.067-82.55.426-.64 12.798-.64 58.232-.64 31.655 0 57.87.32 58.297.64.533.341 1.386 25.298 2.901 80.63 2.346 91.188 2.346 92.468 3.839 92.468.534 0 35.409-11.518 77.431-26.023 42.085-14.078 76.619-25.597 76.896-25.298.64.938 35.196 113.265 34.876 113.585-.363.342-35.558 12.479-78.07 26.877-58.873 19.837-77.793 26.556-77.793 27.516-.298.64 19.838 31.036 45.776 68.472 25.255 37.115 45.711 67.511 45.711 67.831-.32.981-94.708 70.434-95.625 70.434-.32 0-12.478-16.34-26.557-36.156l.107-1.429Z" style="fill: rgb(0, 0, 0); fill-opacity: 1;" class="fills" data-testid="svg-path"/></g></g></g></svg>