<svg width="512" xmlns="http://www.w3.org/2000/svg" height="512" fill="none"><g data-testid="go-fed"><defs><clipPath id="a" class="frame-clip frame-clip-def"><rect rx="20" ry="20" width="512" height="512"/></clipPath></defs><g clip-path="url(#a)"><g class="fills"><rect rx="20" ry="20" width="512" height="512" class="frame-background"/></g><g class="frame-children"><path d="M465.455 0H46.545C20.839 0 0 20.839 0 46.545v418.91C0 491.161 20.839 512 46.545 512h418.91C491.161 512 512 491.161 512 465.455V46.545C512 20.839 491.161 0 465.455 0ZM330.243 135.6h124.813c5.326 0 7.873-2.779 7.873-7.41V93.918c0-37.513-26.629-59.512-71.784-59.512-44.229 0-68.543 20.61-68.543 58.818v34.734c0 4.4 2.779 7.642 7.641 7.642Zm128.055 21.998H327.696c-17.83 0-25.009-7.178-25.009-23.619V92.76c0-51.175 32.419-81.278 88.226-81.278 57.66 0 92.162 30.566 92.162 81.278v41.219c0 16.441-7.178 23.619-24.777 23.619Zm-59.743 128.055h56.964c5.326 0 7.41-3.474 7.41-8.568v-82.9c0-6.02 4.169-9.262 9.958-9.262 5.557 0 10.188 3.242 10.188 9.262V283.8c0 16.441-7.178 23.62-24.777 23.62H327.696c-17.83 0-25.009-7.179-25.009-23.62v-87.531c0-6.02 4.169-9.262 9.958-9.262 5.789 0 10.188 3.242 10.188 9.262v81.511c0 5.557 2.548 7.873 8.105 7.873h47.934V206.69c0-5.789 4.168-9.031 9.957-9.031 5.326 0 9.726 3.473 9.726 9.031v78.963Zm1.389 150.979h74.795c6.484 0 9.726 4.632 9.726 11.115 0 6.253-3.242 10.884-9.957 10.884H327.465c-17.831 0-24.778-7.178-24.778-23.62v-91.93c0-6.252 4.169-9.494 9.958-9.494 5.789 0 10.188 3.242 10.188 9.494v86.373c0 4.4 2.779 7.178 7.41 7.178h50.018v-80.584c0-6.02 4.168-9.031 9.957-9.031 5.326 0 9.726 3.242 9.726 9.031v80.584Zm-198.388-87.381c-22.684 0-35.706 17.434-35.706 45.368 0 26.675 12.602 44.948 34.236 44.948 22.894 0 34.866-17.853 34.866-45.788 0-26.464-11.972-44.528-33.396-44.528Zm-.63-16.172c33.606 0 53.349 24.364 53.349 60.91 0 36.547-20.163 61.751-52.929 61.751-34.656 0-54.819-24.364-54.819-61.751 0-36.336 20.373-60.91 54.399-60.91ZM70.074 349.251c-21.424 0-34.026 17.434-34.026 44.528 0 26.675 14.282 42.848 33.816 42.848 21.423 0 34.446-18.274 34.446-44.318 0-24.994-12.813-43.058-34.236-43.058Zm33.815-.63v-6.301c0-4.41 2.941-7.561 9.032-7.561 5.671 0 9.032 2.73 9.032 8.401v97.247c0 48.309-25.415 59.231-53.14 59.231-22.684 0-37.176-7.562-45.157-17.854-1.051-1.47-1.681-2.94-1.681-4.62 0-2.731 1.471-5.461 3.991-7.352 1.68-1.26 3.991-2.1 6.091-2.1 2.31 0 4.411.84 6.091 2.73 7.771 9.032 17.013 13.443 29.825 13.443 26.255 0 35.706-13.232 35.916-44.318 0-2.52.421-7.141.841-10.082-6.932 13.233-18.904 22.474-37.387 22.474-29.825 0-50.619-23.104-50.619-58.18 0-36.126 18.694-60.49 51.039-60.49 19.114 0 31.086 10.502 36.967 23.944-.21-2.311-.841-6.301-.841-8.612Z" style="fill: rgb(0, 0, 0); fill-opacity: 1;" class="fills" data-testid="go-fed"/></g></g></g></svg>