<svg width="512" xmlns="http://www.w3.org/2000/svg" height="512" fill="none"><g data-testid="kitsune"><defs><clipPath id="a" class="frame-clip frame-clip-def"><rect rx="20" ry="20" width="512" height="512"/></clipPath></defs><g clip-path="url(#a)"><g class="fills"><rect rx="20" ry="20" width="512" height="512" class="frame-background"/></g><g class="frame-children"><path d="m334.548 54.946 2.759 22.485-19.132 4.558.944 7.67c.639 5.204 5.258 8.947 10.432 8.554l.458-.046c5.357-.657 9.166-5.533 8.509-10.89l-1.211-9.846 43.459-10.352 39.165-16.732-19.186 49.312-89.573 105.985 91.247-59.368L512 132.623l-25.788 36.366-25.402 26.844 3.658 3.658a5.428 5.428 0 1 1-7.677 7.678l-3.447-3.449 7.466-7.887-5.555-5.556a5.429 5.429 0 0 0-7.394-.264l-.284.264a5.43 5.43 0 0 0 0 7.678l5.767 5.765-8.371 8.85 5.194 5.193a5.43 5.43 0 0 1-7.678 7.678l-4.982-4.982 7.466-7.889-7.091-7.091a5.43 5.43 0 0 0-7.394-.265l-.284.265a5.428 5.428 0 0 0 0 7.677l7.303 7.303-36.762 38.85 10.444 1.792-30.423 22.692 19.979 11.75h-24.323v25.326l12.639-10.013-5.138 21.633 6.68-2.001-21.205 39.975 6.266 5.168-12.193 9.625 17.295 26.973-62.323 53.407-104.186-14.586-70.272-17.436L83.507 443.7l20.737-25.521H89.099l9.205-9.985-18.124-5.084-54.456-27.479 46.721-16.697-53.226-23.498 25.175-4.948L0 239.094l34.96-7.374h40.085l-2.6-26.076 16.654 16.055-8.919-71.42 45.298 55.365L225.91 103.976l61.949-14.762-3.112-25.371c-.658-5.357 3.151-10.233 8.508-10.891 5.357-.657 10.233 3.152 10.891 8.509l2.845 23.192-19.132 4.561.858 6.96c.638 5.204 5.258 8.947 10.432 8.554l.458-.046c5.357-.657 9.166-5.533 8.508-10.89l-1.124-9.139 11.184-2.664-3.026-24.661c-.658-5.357 3.152-10.233 8.509-10.891 5.356-.657 10.232 3.152 10.89 8.509Zm59.357 35.974-105.513 55.609-18.075 22.97-38.131-7.686a6.514 6.514 0 0 0-7.3 3.878l-.139.362-7.707 22.095a6.515 6.515 0 0 0 7.688 8.477l29.969-7.273-4.97 6.317 28.33-3.553-17.382 15.811 47.499-5.742L393.905 90.92Zm-158.294 80.955 22.074 4.45a2.172 2.172 0 0 1 .084 4.239l-25.813 6.264a2.172 2.172 0 0 1-2.562-2.825l3.737-10.714a2.172 2.172 0 0 1 2.48-1.414Zm-16.279 195.886a8.686 8.686 0 0 0 8.686-8.686 8.686 8.686 0 1 0-8.686 8.686Zm99.588 64.513 6.937 4.961h12.883l12.466-3.4-6.767 5.953-20.62 1.286-4.899-8.8Zm58.345-20.155-15.009 13.204-9.008-13.204h24.017Zm-164.448-36.878a4.343 4.343 0 1 1 0 8.686 4.343 4.343 0 0 1 0-8.686Zm2.512-65.967 23.361 22.032 55.258 11.307 21.797 21.687-21.797-11.446-55.258-10.241-23.361-33.339Zm168.077 25.831-10.359 17.714-18.706 8.222 9.099-16.256 19.966-9.68Zm104.87-179.112-14.608 20.751-76.303 81.248-46.159-11.966 65.84-59.587 71.23-30.446Z" fill-rule="evenodd" style="fill: rgb(0, 0, 0); fill-opacity: 1;" class="fills" data-testid="kitsune"/></g></g></g></svg>