<svg width="512" xmlns="http://www.w3.org/2000/svg" height="512" fill="none"><g data-testid="kmyblue"><defs><clipPath id="a" class="frame-clip frame-clip-def"><rect rx="20" ry="20" width="512" height="512"/></clipPath></defs><g clip-path="url(#a)"><g class="fills"><rect rx="20" ry="20" width="512" height="512" class="frame-background"/></g><g class="frame-children"><path d="M258.607 133.364c5.041-37.501 55.571-19.497 61.414-15.82 60.937 38.347 51.102 102.438 51.954 129.82.779 25.023 2.748 46.078 5.043 43.484 8.07-9.118 21.092-11.465 41.031-11.464 40.299 0 72.969 66.237 72.969 121.945s-41.65 103.219-72.969 108.64a78.71 78.71 0 0 0-.267.045l-.619.104c-10.931 1.786-65.833 8.99-79.522-24.687-4.941-12.153-17.62 29.339-65.961 19.117-24.484-5.177-14.226-37.283-13.073-40.152 3.593-8.942 9.388-19.438 15.259-29.933l1.678-2.996c6.984-12.476 13.789-24.739 16.831-34.163 15.873-49.187 17.637-83.438 17.637-100.547 0-3.136-10.987-111.438-27.319-124.988-15.238-12.642-26.673-19.163-24.086-38.405ZM164.803 0c28.447 0 51.508 23.061 51.508 51.507 0 10.993-9.536 28.1-22.878 44.953-7.854 9.919-21.137 30.47-35.635 52.408-8.231 12.456-17.899 31.1-27.532 50.4-3.429 6.869-11.586 26.995-19.726 47.161l-1.017 2.52c-6.945 17.209-13.733 34.046-17.409 42.274-5.907 13.226-10.393 49.392-4.294 76.6 11.885 53.014 15.879 102.701-3.185 102.701-30.337 0-61.536-59.257-63.518-128.699-1.661-58.175 12.384-121.328 24.879-159.369C57.223 148.273 79.2 81.321 107.959 39.599 126.826 12.228 153.534 0 164.803 0Zm244.661 332.495c-20.15 0-36.484 33.661-36.484 53.811s-20.15 44.141 0 44.141c.753 0 1.571.003 2.446.004h1.353c10.457-.018 27.632-.505 41.042-7.47 16.669-8.659 31.326-26.135 31.326-36.675 0-20.15-19.533-53.811-39.683-53.811ZM215.238 208.176c40.262 0 60.598 31.651 60.598 66.024 0 8.418-15.675 16.696-43.595 21.358-6.036 1.008-12.809 1.584-19.693 2.097l-1.88.139-2.824.206-1.881.138c-18.796 1.391-36.941 3.185-41.758 12.863-9.847 19.781 22.716 52.793 40.072 75.654 14.443 19.024 19.027 32.159 0 32.159s-32.512-4.891-50.873-19.227c-18.145-14.166-34.144-37.015-44.46-56.37-12.508-23.467-6.001-49.675-6.001-62.6 0-34.373 72.033-72.441 112.295-72.441Z" fill-rule="evenodd" style="fill: rgb(0, 0, 0);" class="fills" data-testid="svg-path"/></g></g></g></svg>