<svg width="512" xmlns="http://www.w3.org/2000/svg" height="512" fill="none"><g data-testid="kookie"><defs><clipPath id="a" class="frame-clip frame-clip-def"><rect rx="20" ry="20" width="512" height="512"/></clipPath></defs><g clip-path="url(#a)"><g class="fills"><rect rx="20" ry="20" width="512" height="512" class="frame-background"/></g><g class="frame-children"><path d="M385.299 50.584C351.009 18.196 304.498 0 256 0c-48.496 0-95.007 18.196-129.299 50.584-34.293 32.388-53.558 76.318-53.558 122.121v232.898c0 33.056 43.747 48.036 66.177 22.659 19.831-22.433 58.283-13.751 65.223 14.731l8.901 36.528c10.518 43.161 75.532 43.362 86.346.259l5.033-20.07c7.598-30.285 50.73-35.767 66.533-8.459 17.855 30.855 67.501 18.878 67.501-16.285V172.705c0-45.803-19.266-89.733-53.558-122.121Z" style="fill: rgb(0, 0, 0); fill-opacity: 1;" class="fills" data-testid="svg-path"/></g></g></g></svg>