<svg width="512" xmlns="http://www.w3.org/2000/svg" height="512" fill="none"><g data-testid="loops"><defs><clipPath id="a" class="frame-clip frame-clip-def"><rect rx="20" ry="20" width="512" height="512"/></clipPath></defs><g clip-path="url(#a)"><g class="fills"><rect rx="20" ry="20" width="512" height="512" class="frame-background"/></g><g class="frame-children"><path d="M256 0c141.385 0 256 114.615 256 256S397.385 512 256 512 0 397.385 0 256 114.615 0 256 0Zm235.426 254.579-48.329 4.228-.006.793c-1.647 101.634-84.55 183.516-186.577 183.516-31.837 0-61.812-7.973-88.037-22.031l-25.821 41.324c33.623 18.503 72.254 29.029 113.344 29.029 130.029 0 235.438-105.409 235.438-235.438l-.012-1.421ZM20.562 256c0 81.581 41.494 153.471 104.528 195.717l25.827-41.332c-48.925-33.64-81.005-90.009-81.005-153.871 0-66.432 34.714-124.756 86.993-157.821l-26.259-42.021C64.505 98.354 20.562 172.045 20.562 256ZM256.514 90.474c-91.701 0-166.04 74.339-166.04 166.04 0 91.702 74.339 166.04 166.04 166.04 91.702 0 166.04-74.338 166.04-166.04 0-91.701-74.338-166.04-166.04-166.04Zm-15.186 98.647a42.156 42.156 0 0 1 21.281 5.637l42.971 24.78c20.167 11.63 27.088 37.407 15.458 57.574a42.155 42.155 0 0 1-15.854 15.683l-44.235 24.877c-19.796 11.133-44.87 4.109-56.003-15.687a41.126 41.126 0 0 1-5.279-19.94l-.268-50.548c-.123-23.28 18.649-42.252 41.929-42.376Zm.109 20.562c-11.924.064-21.539 9.781-21.476 21.705l.268 50.548a20.567 20.567 0 0 0 2.64 9.97c5.566 9.898 18.103 13.41 28.001 7.843l44.235-24.876a21.592 21.592 0 0 0 8.12-8.033c5.957-10.33 2.412-23.532-7.917-29.489l-42.971-24.781a21.592 21.592 0 0 0-10.9-2.887ZM256 20.562c-38.721 0-75.26 9.348-107.481 25.91l26.367 42.193c24.657-12.013 52.355-18.753 81.628-18.753 96.893 0 176.537 73.848 185.719 168.331l48.193-4.217C479.344 114.3 378.619 20.562 256 20.562Z" style="fill: rgb(0, 0, 0);" class="fills" data-testid="loops"/></g></g></g></svg>