<svg width="512" xmlns="http://www.w3.org/2000/svg" height="512" fill="none"><g data-testid="newsmast"><defs><clipPath id="a" class="frame-clip frame-clip-def"><rect rx="20" ry="20" width="512" height="512"/></clipPath></defs><g clip-path="url(#a)"><g class="fills"><rect rx="20" ry="20" width="512" height="512" class="frame-background"/></g><g class="frame-children"><path d="m191.357 422.499 62.507-117.772 63.126 118.942c81.791-25.341 140.783-100.354 140.783-189.052 0-109.549-89.986-198.209-201.773-198.209-111.787 0-201.76 88.66-201.76 198.209 0 87.372 57.233 161.464 137.117 187.882Zm142.912 33.726L363.87 512H143.856l30.275-57.044c-91.11-32.934-156.39-119.201-156.39-220.339C17.741 105.119 124.765 0 256 0c131.235 0 238.259 105.119 238.259 234.617 0 102.465-67.005 189.667-159.99 221.608Zm-81.477-163.69c30.377 0 55.004-24.565 55.004-54.867 0-30.301-24.627-54.866-55.004-54.866-30.378 0-55.004 24.565-55.004 54.866 0 30.302 24.626 54.867 55.004 54.867Z" style="fill: rgb(0, 0, 0); fill-opacity: 1;" class="fills" data-testid="newsmast"/></g></g></g></svg>