<svg width="512" xmlns="http://www.w3.org/2000/svg" height="512" fill="none"><g data-testid="piefed"><defs><clipPath id="a" class="frame-clip frame-clip-def"><rect rx="20" ry="20" width="512" height="512"/></clipPath></defs><g clip-path="url(#a)"><g class="fills"><rect rx="20" ry="20" width="512" height="512" class="frame-background"/></g><g class="frame-children"><path d="M243.005 20.14c65.92.05 131.848 27.366 180.724 71.338L218.47 269.954a18.812 18.812 0 0 0-3.059 3.392c-5.979 8.518-3.921 20.27 4.596 26.249L409.38 432.533c-47.132 36.913-107.012 59.327-167.025 59.327C112.095 491.86 0 386.262 0 256.002 0 125.741 113.396 20.05 243.005 20.14Zm222.439 111.886C494.62 169.468 512 216.553 512 267.697c0 60.603-24.403 115.506-63.918 155.419l-198.103-139.56 215.465-151.53ZM127.325 353.34l-26.78 21.073c-4.287 3.374-5.028 9.584-1.654 13.872l.371.471c3.374 4.287 9.584 5.028 13.871 1.654l26.78-21.073c4.287-3.374 5.028-9.585 1.654-13.872l-.371-.471c-3.374-4.288-9.584-5.028-13.871-1.654Zm321.293-172.758c.156 1.387 1.04 3.68 2.652 6.879 11.471 22.762 18.029 47.054 19.672 72.877 0 14.687 1.567 32.827-7.079 62.031-3.52 11.893-8.614 23.28-14.092 33.279-1.181 2.156-2.613 4.608-4.124 6.715-2.294 3.199-4.685 6.022-5.984 9.108-1.816 4.311-1.563 8.573 2.926 12.093 2.923 2.292 7.884 1.821 11.363-.44 3.855-2.504 6.799-7.809 10.565-14.521 2.048-3.652 3.563-6.162 4.972-8.696l.272-.491.09-.164.181-.331.18-.333.179-.336c.299-.561.597-1.136.899-1.734l.273-.546c2.437-4.918 5.19-11.635 10.468-26.173 9.848-27.123 8.92-67.968 8.311-72.141-1.799-27.154-8.841-53.131-21.125-77.929-1.912-3.852-4.536-7.948-8.95-8.763-6.186-1.153-12.427 2.868-11.649 9.616ZM196.202 322.711l-10.077 22.741a9.129 9.129 0 0 0 4.648 12.044l.634.281a9.13 9.13 0 0 0 12.044-4.648l10.077-22.741a9.127 9.127 0 0 0-4.648-12.043l-.634-.281a9.128 9.128 0 0 0-12.044 4.647Zm166.376-13.154-.2.625c-1.681 5.234 1.2 10.839 6.434 12.519l37.674 12.096c5.234 1.681 10.839-1.2 12.52-6.434l.2-.624c1.681-5.234-1.2-10.839-6.434-12.52l-37.674-12.096c-5.234-1.68-10.839 1.201-12.52 6.434ZM75.552 270.518l-33.78 4.627c-5.256.72-8.934 5.565-8.214 10.821l.153 1.115c.72 5.256 5.565 8.933 10.821 8.213l33.78-4.627a9.606 9.606 0 0 0 8.214-10.821l-.153-1.114a9.606 9.606 0 0 0-10.821-8.214Zm36.281-38.154-.109 1.252a8.612 8.612 0 0 0 7.829 9.33l23.341 2.042a8.612 8.612 0 0 0 9.331-7.829l.109-1.251a8.612 8.612 0 0 0-7.829-9.331l-23.341-2.042a8.613 8.613 0 0 0-9.331 7.829Zm54.691-81.082-.503.36a9.11 9.11 0 0 0-2.104 12.71l18.058 25.224a9.11 9.11 0 0 0 12.71 2.104l.503-.36a9.11 9.11 0 0 0 2.104-12.71l-18.058-25.224a9.11 9.11 0 0 0-12.71-2.104ZM65.017 139.083l-.323.414c-3.333 4.266-2.577 10.427 1.69 13.761l30.368 23.726c4.266 3.333 10.427 2.577 13.76-1.69l.324-.413c3.333-4.267 2.576-10.427-1.69-13.761l-30.368-23.726c-4.267-3.333-10.428-2.577-13.761 1.689Zm243.069-56.232-15.285 27.574a9.325 9.325 0 0 0 3.635 12.677l.655.364c4.505 2.497 10.181.869 12.677-3.635l15.285-27.575a9.325 9.325 0 0 0-3.635-12.677l-.656-.363c-4.504-2.497-10.18-.87-12.676 3.635ZM204.758 64.399l-.836.11c-5.163.68-8.797 5.416-8.117 10.578l5.307 40.309c.679 5.162 5.415 8.796 10.578 8.117l.836-.11a9.428 9.428 0 0 0 8.117-10.579l-5.307-40.308a9.427 9.427 0 0 0-10.578-8.117Z" style="fill: rgb(0, 0, 0); fill-opacity: 1;" class="fills" data-testid="piefed"/></g></g></g></svg>