<svg width="512" xmlns="http://www.w3.org/2000/svg" height="512" fill="none"><g data-testid="sakura"><defs><clipPath id="a" class="frame-clip frame-clip-def"><rect rx="20" ry="20" width="512" height="512"/></clipPath></defs><g clip-path="url(#a)"><g class="fills"><rect rx="20" ry="20" width="512" height="512" class="frame-background"/></g><g class="frame-children"><path d="M232.881 10.769c-33.584.737-75.962 71.352-75.962 119.135 0 2.92-1.939 4.329-4.716 3.426-53.476-17.375-155.152 11.293-135.597 53.377 2.373 5.108.954 9.476-3.969 12.213-6.091 3.386-9.792 8.133-11.502 13.818-9.676 32.168 44.386 94.294 89.831 109.06 2.777.902 3.518 3.181 1.802 5.543-33.05 45.49-37.204 151.047 8.863 145.454 5.592-.679 9.307 2.021 10.388 7.549 1.338 6.839 4.708 11.825 9.586 15.208C149.209 514.696 225 482.478 253.087 443.82c1.716-2.363 4.112-2.363 5.829 0 33.05 45.49 132.158 82.058 141.074 36.518 1.082-5.528 4.797-8.228 10.389-7.548 6.918.842 12.702-.823 17.427-4.417 26.737-20.337 19.515-102.374-8.572-141.032-1.716-2.362-.975-4.641 1.802-5.543 53.476-17.376 118.883-100.333 78.327-122.885-4.923-2.738-6.342-7.106-3.968-12.214 2.938-6.319 3.141-12.335 1.183-17.939-11.079-31.712-91.334-50.196-136.779-35.43-2.776.903-4.714-.506-4.714-3.426 0-56.228-58.685-144.067-92.667-112.465-4.125 3.836-8.717 3.836-12.841-.001-5.102-4.747-10.761-6.8-16.696-6.669Zm3.448 36.577c5.05-.111 9.865 1.636 14.206 5.675 3.509 3.265 7.416 3.265 10.926.001 28.913-26.889 78.845 47.849 78.845 95.69 0 2.485 1.648 3.683 4.011 2.915 38.667-12.563 106.951 3.163 116.378 30.145 1.666 4.769 1.492 9.887-1.007 15.264-2.02 4.346-.813 8.062 3.376 10.392 34.507 19.188-21.144 89.772-66.644 104.556-2.363.767-2.993 2.706-1.533 4.716 23.897 32.892 30.042 102.692 7.293 119.996-4.02 3.058-8.942 4.475-14.827 3.759-4.758-.579-7.919 1.718-8.84 6.421-7.586 38.748-91.912 7.634-120.032-31.07-1.461-2.011-3.499-2.011-4.96 0-23.897 32.891-88.383 60.304-111.87 44.016-4.15-2.879-7.018-7.122-8.156-12.94-.92-4.704-4.081-7.001-8.839-6.423-39.195 4.759-35.662-85.054-7.541-123.759 1.46-2.01.83-3.949-1.533-4.716-38.667-12.564-84.666-65.423-76.432-92.793 1.455-4.837 4.604-8.877 9.786-11.757 4.189-2.329 5.397-6.045 3.377-10.392-16.638-35.806 69.872-60.198 115.372-45.415 2.363.768 4.013-.43 4.013-2.915 0-40.656 36.056-100.738 64.631-101.366ZM256 180.78c-2.416 0-4.374 7.832-4.373 17.493 0 9.66 1.957 17.491 4.373 17.492 2.415.001 4.373-7.83 4.373-17.492.001-9.663-1.958-17.495-4.373-17.493Zm-19.245 2.527a1.291 1.291 0 0 0-.224.036c-2.332.626-2.197 8.697.304 18.028 2.5 9.332 6.418 16.39 8.751 15.766 2.333-.625 2.198-8.697-.303-18.029-2.422-9.04-6.175-15.946-8.528-15.801Zm38.49 0c-2.353-.145-6.106 6.76-8.528 15.801-2.501 9.332-2.636 17.404-.304 18.029 2.334.624 6.252-6.434 8.752-15.766 2.5-9.331 2.636-17.402.303-18.028a1.179 1.179 0 0 0-.223-.036Zm-56.286 7.395c-.213.009-.403.06-.569.155-2.092 1.207.128 8.969 4.959 17.336 4.83 8.366 10.441 14.169 12.533 12.963 2.093-1.207-.128-8.969-4.958-17.336-3.959-6.857-8.575-12.194-11.256-13.013a2.132 2.132 0 0 0-.709-.105Zm74.082 0a2.132 2.132 0 0 0-.709.105c-2.681.819-7.297 6.156-11.256 13.013-4.83 8.367-7.051 16.129-4.958 17.336 2.092 1.206 7.703-4.597 12.533-12.963 4.831-8.367 7.051-16.129 4.959-17.336a1.221 1.221 0 0 0-.569-.155Zm-89.008 11.73c-.541-.018-.951.109-1.221.379-1.709 1.707 2.444 8.63 9.276 15.462 6.831 6.831 13.753 10.984 15.461 9.277 1.708-1.708-2.445-8.63-9.276-15.461-5.599-5.599-11.439-9.559-14.24-9.657Zm103.934 0c-2.801.098-8.641 4.058-14.24 9.657-6.83 6.83-10.983 13.752-9.277 15.461 1.707 1.708 8.63-2.445 15.462-9.277 6.832-6.832 10.985-13.755 9.276-15.462-.27-.27-.68-.397-1.221-.379Zm-115.122 15.174c-1.021.021-1.7.285-1.987.784-1.207 2.092 4.596 7.703 12.962 12.533 8.366 4.83 16.126 7.05 17.335 4.96 1.21-2.091-4.594-7.703-12.962-12.534-5.412-3.125-10.831-5.291-14.213-5.681a8.621 8.621 0 0 0-1.135-.062Zm126.31 0a8.621 8.621 0 0 0-1.135.062c-3.382.39-8.801 2.556-14.213 5.681-8.368 4.83-14.172 10.442-12.963 12.534 1.208 2.091 8.97-.13 17.336-4.96 8.366-4.83 14.169-10.441 12.962-12.533-.287-.499-.966-.763-1.987-.784ZM256 225.388c-16.907 0-30.612 13.705-30.613 30.612.001 16.907 13.706 30.612 30.613 30.612 16.906 0 30.612-13.705 30.612-30.612 0-16.907-13.706-30.612-30.612-30.612Zm-66.908 9.482c-3.381-.056-5.45.541-5.749 1.662-.625 2.333 6.433 6.251 15.765 8.752 9.333 2.5 17.404 2.636 18.028.302.625-2.333-6.433-6.251-15.764-8.752-4.482-1.2-8.899-1.907-12.28-1.964Zm133.816 0c-3.381.057-7.798.764-12.28 1.964-9.331 2.501-16.389 6.419-15.764 8.752.624 2.334 8.695 2.198 18.028-.302 9.332-2.501 16.39-6.419 15.765-8.752-.299-1.121-2.368-1.718-5.749-1.662Zm-124.636 16.757c-9.66 0-17.492 1.958-17.492 4.373s7.832 4.373 17.492 4.373c9.661 0 17.493-1.958 17.493-4.373s-7.832-4.373-17.493-4.373Zm115.456 0c-9.661 0-17.493 1.958-17.493 4.373s7.832 4.373 17.493 4.373c9.66 0 17.492-1.958 17.492-4.373s-7.832-4.373-17.492-4.373Zm-102.341 13.125c-3.381.057-7.798.764-12.279 1.964-9.332 2.501-16.39 6.419-15.765 8.752.623 2.334 8.696 2.198 18.029-.302 9.331-2.501 16.389-6.419 15.764-8.752-.299-1.121-2.368-1.718-5.749-1.662Zm89.226 0c-3.381-.056-5.45.541-5.749 1.662-.625 2.333 6.433 6.251 15.764 8.752 9.333 2.5 17.406 2.636 18.029.302.625-2.333-6.433-6.251-15.765-8.752-4.481-1.2-8.898-1.907-12.279-1.964Zm-81.446 10.582a8.594 8.594 0 0 0-1.134.061c-3.383.392-8.801 2.557-14.213 5.682-8.366 4.83-14.169 10.441-12.962 12.533 1.207 2.092 8.968-.128 17.335-4.959 8.368-4.831 14.172-10.443 12.962-12.534-.288-.498-.966-.763-1.988-.783Zm73.665 0c-1.022.02-1.7.285-1.988.783-1.209 2.092 4.595 7.704 12.963 12.534 8.367 4.831 16.128 7.051 17.335 4.959 1.207-2.092-4.596-7.703-12.962-12.533-5.412-3.125-10.83-5.29-14.213-5.682a8.44 8.44 0 0 0-1.135-.061Zm-66.504 8.738c-2.8.096-8.641 4.056-14.24 9.655-6.832 6.832-10.985 13.755-9.276 15.462 1.708 1.707 8.63-2.446 15.461-9.277 6.831-6.832 10.985-13.754 9.276-15.462-.27-.27-.68-.397-1.221-.378Zm59.344 0c-.541-.019-.952.108-1.222.378-1.708 1.708 2.446 8.631 9.277 15.462 6.831 6.831 13.753 10.984 15.461 9.277 1.709-1.707-2.444-8.63-9.276-15.462-5.599-5.599-11.44-9.559-14.24-9.655Zm-50.359 6.617a2.169 2.169 0 0 0-.709.106c-2.68.819-7.296 6.156-11.255 13.012-4.831 8.367-7.051 16.129-4.959 17.336 2.092 1.207 7.703-4.597 12.534-12.963 4.83-8.367 7.051-16.129 4.958-17.336a1.214 1.214 0 0 0-.569-.155Zm41.374 0c-.214.008-.404.06-.569.155-2.093 1.207.128 8.969 4.958 17.336 4.831 8.366 10.442 14.17 12.534 12.963 2.092-1.207-.128-8.969-4.959-17.336-3.959-6.856-8.575-12.193-11.255-13.012a2.169 2.169 0 0 0-.709-.106Zm-31.324 4.139c-2.353-.145-6.106 6.761-8.528 15.801-2.5 9.331-2.636 17.402-.304 18.028 2.333.625 6.252-6.433 8.752-15.765 2.5-9.331 2.636-17.402.303-18.028a1.179 1.179 0 0 0-.223-.036Zm21.274 0c-.076.004-.15.016-.224.035-2.332.626-2.197 8.697.304 18.028 2.5 9.332 6.418 16.39 8.751 15.765 2.333-.626 2.197-8.697-.303-18.028-2.422-9.041-6.175-15.946-8.528-15.8ZM256 296.235c-2.416.001-4.373 7.832-4.373 17.492-.001 9.661 1.957 17.493 4.373 17.493 2.415.002 4.374-7.83 4.373-17.493 0-9.662-1.958-17.493-4.373-17.492Z" xml:space="preserve" style="fill: rgb(0, 0, 0); fill-opacity: 1;" class="fills" data-testid="sakura"/></g></g></g></svg>