<svg width="512" xmlns="http://www.w3.org/2000/svg" height="512" fill="none"><g data-testid="shadowfacts"><defs><clipPath id="a" class="frame-clip frame-clip-def"><rect rx="20" ry="20" width="512" height="512"/></clipPath></defs><g clip-path="url(#a)"><g class="fills"><rect rx="20" ry="20" width="512" height="512" class="frame-background"/></g><g class="frame-children"><path d="M255.571 142.39c50.388 0 91.236 40.848 91.236 91.237 0 20.231-11.031 62.159-33.094 125.783a12.064 12.064 0 0 1 4.918 9.729c0 6.215-4.695 11.334-10.733 12.002v12.223c6.038.668 10.733 5.786 10.733 12.001s-4.695 11.334-10.733 12.002v12.223c6.038.668 10.733 5.786 10.733 12.001 0 6.669-5.406 12.076-12.075 12.076l-27.883.001a26.833 26.833 0 0 1-13.518 11.414c-12.412 4.746-26.166-.335-32.692-11.415h-27.877c-6.669 0-12.075-5.407-12.075-12.076 0-6.215 4.696-11.334 10.734-12.001v-12.223c-6.038-.667-10.734-5.786-10.734-12.002 0-6.215 4.696-11.334 10.734-12.001v-12.223c-6.038-.667-10.734-5.786-10.734-12.002 0-3.99 1.935-7.529 4.919-9.727-22.064-63.626-33.095-105.554-33.095-125.785 0-50.389 40.848-91.237 91.236-91.237ZM134.689 303.686c6.152-5.347 15.474-4.696 20.821 1.456 5.348 6.152 4.696 15.474-1.456 20.821L24.442 438.634c-6.152 5.348-15.474 4.696-20.822-1.456-5.347-6.152-4.695-15.474 1.456-20.821Zm242.622 0 129.613 112.671c6.151 5.347 6.803 14.669 1.456 20.821-5.348 6.152-14.67 6.804-20.822 1.456L357.946 325.963c-6.152-5.347-6.804-14.669-1.456-20.821 5.347-6.152 14.669-6.803 20.821-1.456ZM234.762 244.36l-15.417 12.937 27.065 32.255.001 67.302h20.125l-.001-69.414 24.767-29.515-15.417-12.937-20.299 24.19-20.824-24.818Zm-111.287-19.894c8.151 0 14.759 6.607 14.759 14.758s-6.608 14.759-14.759 14.759H17.48c-8.151 0-14.759-6.608-14.759-14.759s6.608-14.758 14.759-14.758Zm370.311 0c8.151 0 14.759 6.607 14.759 14.758s-6.608 14.759-14.759 14.759H387.791c-8.151 0-14.758-6.608-14.758-14.759s6.607-14.758 14.758-14.758ZM24.442 48.762l129.612 112.67c6.152 5.348 6.804 14.67 1.456 20.821-5.347 6.152-14.669 6.804-20.821 1.456L5.076 71.039c-6.151-5.348-6.803-14.67-1.456-20.821 5.348-6.152 14.67-6.804 20.822-1.456Zm463.116 0c6.152-5.348 15.474-4.696 20.822 1.456 5.347 6.151 4.695 15.473-1.456 20.821l-129.613 112.67c-6.152 5.348-15.474 4.696-20.821-1.456-5.348-6.151-4.696-15.473 1.456-20.821Z" fill-rule="evenodd" style="fill: rgb(0, 0, 0);" class="fills" data-testid="shadowfacts"/></g></g></g></svg>