<svg width="512" xmlns="http://www.w3.org/2000/svg" height="512" fill="none"><g data-testid="smilodon"><defs><clipPath id="a" class="frame-clip frame-clip-def"><rect rx="20" ry="20" width="512" height="512"/></clipPath></defs><g clip-path="url(#a)"><g class="fills"><rect rx="20" ry="20" width="512" height="512" class="frame-background"/></g><g class="frame-children"><path d="M51.2 50.723v17.106H17.067v34.213h17.066v17.106H51.2v17.107h17.067v51.319H51.2v17.107H0v17.106h68.267v-17.106h17.066v-85.533H51.2v-17.106H34.133V84.936h34.134V67.829h17.066V50.723H51.2Zm85.333 34.213v119.745H153.6v-85.533h17.067v34.213h17.066v34.213H204.8v17.107h34.133v-34.213H256v-17.107h17.067v-34.213h17.066v102.639H307.2V102.042h-17.067V84.936h-17.066v17.106H256v34.213h-17.067v34.213H204.8v-34.213h-17.067v-34.213h-17.066V84.936h-34.134Zm221.867 0v34.212h17.067v102.639h17.066V102.042h-17.066V84.936H358.4Zm68.267 0v136.851H512v-17.106h-68.267V102.042H460.8V84.936h-34.133Zm68.266 188.17v136.852h-17.066v-34.213H460.8v-17.106h-17.067v-34.213h-17.066v-17.107H409.6v153.958h17.067V358.639h17.066v34.213H460.8v17.106h17.067v17.106h17.066v17.107H512V273.106h-17.067ZM153.6 307.319v17.107h17.067v119.745H153.6v17.106h85.333v-17.106H256V341.532h-17.067v-17.106h-17.066v-17.107H153.6ZM17.067 324.426v17.106H0v102.639h34.133v17.106H102.4v-17.106h17.067v-34.213h17.066v-34.213h-17.066v-34.213H85.333v-17.106H17.067Zm187.733 0v17.106h17.067v17.107h17.066v68.425h-17.066v17.107h-34.134V324.426H204.8Zm119.467 0v17.106h-51.2v102.639H307.2v17.106h51.2v-17.106h17.067v-17.107h17.066v-51.319h-17.066v-34.213h-34.134v-17.106h-17.066Zm-256 17.106v17.107H102.4v68.425H85.333v17.107h-51.2v-17.107H17.067v-68.425h17.066v-17.107h34.134ZM358.4 358.639v17.106h17.067v51.319H358.4v17.107h-51.2v-17.107h-17.067v-68.425H358.4Z" style="stroke: none; fill: rgb(0, 0, 0); fill-opacity: 1;" class="fills" data-testid="smilodon"/></g></g></g></svg>