<svg width="512" xmlns="http://www.w3.org/2000/svg" height="512" fill="none"><g data-testid="sutty"><defs><clipPath id="a" class="frame-clip frame-clip-def"><rect rx="20" ry="20" width="512" height="512"/></clipPath></defs><g clip-path="url(#a)"><g class="fills"><rect rx="20" ry="20" width="512" height="512" class="frame-background"/></g><g class="frame-children"><path d="M250.551 512h-75.599L418.948 0h77.302ZM120.466 214.71h77.302l-7.833-16.516h-77.472ZM23.923 16.516h80.197L96.287 0H15.75Zm16.005 33.032h79.857l-7.833-16.516H31.926Zm16.176 33.033h79.175l-7.662-16.516H47.931Zm16.005 33.032h78.835l-7.833-16.516H64.106Zm16.176 33.032h78.324l-7.833-16.516H80.112Zm16.005 33.032h77.813l-7.662-16.516H96.287Zm32.181 66.065h76.962l-7.833-16.516h-77.132Zm8.173 16.516 4.086 8.684-3.746 7.832h76.451l3.746-7.832-3.916-8.684Zm-14.814 49.038-.34.51h76.11l8.003-16.516h-76.281Zm-16.175 33.543h76.11l8.003-16.516h-76.111ZM97.99 379.871h75.94l8.003-16.516h-76.111Zm-15.665 33.032h75.94l7.833-16.516h-75.94ZM66.49 445.935h75.94l7.833-16.516h-75.94Zm-15.665 33.033h75.77l7.833-16.516h-75.77ZM110.76 512l7.833-16.516h-75.77L34.99 512Z" style="fill: rgb(0, 0, 0); fill-opacity: 1;" class="fills" data-testid="sutty"/></g></g></g></svg>