<svg width="512" xmlns="http://www.w3.org/2000/svg" height="512" fill="none"><g data-testid="vidzy"><defs><clipPath id="a" class="frame-clip frame-clip-def"><rect rx="20" ry="20" width="512" height="512"/></clipPath></defs><g clip-path="url(#a)"><g class="fills"><rect rx="20" ry="20" width="512" height="512" class="frame-background"/></g><g class="frame-children"><path d="M252.874 512c74.324 0 144.506-70.032 134.575-178.849-6.62-72.545-26.854-123.896-60.699-154.052 7.231 102.701-2.479 151.816-29.131 147.346-39.977-6.706 16.785-136.992-14.31-233.905-13.354-41.623-36.56-72.469-69.618-92.54 6.043 63.101 5.135 107.222-2.724 132.361-11.788 37.709-50.052 105.252-71.161 151.359-19.327 42.213-19.194 92.469-10.83 122.148C145.34 463.936 197.223 512 252.874 512Z" fill-rule="evenodd" style="fill: rgb(0, 0, 0); fill-opacity: 1;" class="fills" data-testid="svg-path"/></g></g></g></svg>