<?xml version="1.0" encoding="UTF-8"?>
<svg width="511px" height="512px" viewBox="0 0 511 512" version="1.1" xmlns="http://www.w3.org/2000/svg" xmlns:xlink="http://www.w3.org/1999/xlink">
    <title>Wordpress</title>
    <g id="All-Fediverse-Symbols" stroke="none" stroke-width="1" fill="none" fill-rule="evenodd">
        <g id="Wordpress" fill="#000000" fill-rule="nonzero">
            <path d="M255.476483,0 C301.735599,0 344.630416,11.5741882 384.160933,34.7225647 C422.850376,57.4500617 453.549607,88.1742704 476.258628,126.895191 C499.388186,166.457871 510.952965,209.387587 510.952965,255.68434 C510.952965,301.981093 499.388186,345.121249 476.258628,385.104809 C453.549607,423.82573 422.850376,454.549938 384.160933,477.277435 C344.630416,500.425812 301.735599,512 255.476483,512 C209.217366,512 166.112281,500.425812 126.161226,477.277435 C87.8923208,454.549938 57.4033578,423.82573 34.6943371,385.104809 C11.564779,345.121249 2.84217094e-14,301.981093 2.84217094e-14,255.68434 C2.84217094e-14,209.387587 11.564779,166.457871 34.6943371,126.895191 C57.4033578,88.1742704 87.8923208,57.4500617 126.161226,34.7225647 C166.112281,11.5741882 209.217366,0 255.476483,0 Z M255.240852,26.1758691 C215.70563,26.1758691 178.693933,35.6312341 144.205761,54.541964 C110.979351,73.0324555 83.8514593,98.0366429 62.8220859,129.554526 L77.9632347,130.184884 C88.0573339,130.184884 101.305839,129.554526 117.70875,128.293811 L139.158711,127.033095 C142.943998,126.612857 145.782964,127.978632 147.675607,131.13042 C149.568251,134.282209 149.883692,137.433997 148.621929,140.585785 C147.360167,143.737574 144.626348,145.523587 140.420474,145.943825 L132.849899,146.574183 C126.1205,147.41466 120.021981,148.045018 114.554344,148.465256 L197.830663,396.826176 L248.301159,246.170694 L212.340931,148.465256 L188.367445,145.943825 C184.582158,145.523587 182.058633,143.737574 180.796871,140.585785 C179.535108,137.433997 179.745402,134.282209 181.427752,131.13042 C183.110102,127.978632 185.84392,126.612857 189.629207,127.033095 L211.710049,128.293811 C228.112961,129.554526 241.151172,130.184884 250.824684,130.184884 C260.498196,130.184884 273.536407,129.554526 289.939318,128.293811 L312.02016,127.033095 C315.805448,126.612857 318.539266,127.978632 320.221616,131.13042 C321.903966,134.282209 322.11426,137.433997 320.852497,140.585785 C319.590735,143.737574 317.06721,145.523587 313.281923,145.943825 L305.080467,146.574183 C298.771655,147.41466 292.673137,148.045018 286.784912,148.465256 L370.061231,394.935103 L395.296479,312.358249 C400.764116,294.287996 404.33911,281.680842 406.021459,274.536789 C408.965572,262.770113 410.437628,252.68439 410.437628,244.279621 C410.437628,231.672468 408.33469,219.485553 404.128816,207.718877 C401.605291,200.154585 397.399416,191.119458 391.511192,180.613497 L388.987667,176.200993 C381.83768,165.274794 377.211218,157.080144 375.108281,151.617044 C370.902406,142.792037 368.799469,134.597387 368.799469,127.033095 C368.799469,116.106896 372.479609,106.546471 379.83989,98.3518217 C387.20017,90.1571721 396.347948,86.0598473 407.283222,86.0598473 L410.437628,86.6902049 C389.828842,67.3592365 366.275944,52.4407718 339.778933,41.9348107 C312.861335,31.4288497 284.681975,26.1758691 255.240852,26.1758691 Z M457.347086,145.537832 C458.190851,153.102124 458.612733,160.876535 458.612733,168.861066 C458.612733,194.495611 452.917324,222.021229 441.526506,251.43792 L370.650307,454.413088 C405.666524,433.821404 433.510746,406.295786 454.18297,371.836234 C475.277077,336.115966 485.824131,297.24391 485.824131,255.220066 C485.824131,216.137891 476.331783,179.577146 457.347086,145.537832 Z M45.2969603,162.290389 C31.851543,192.109295 25.1288344,223.188155 25.1288344,255.526969 C25.1288344,300.46532 37.3137438,341.62381 61.6835627,379.002439 C84.7928736,415.961084 115.885401,443.890059 154.961145,462.789366 L45.2969603,162.290389 Z M259.342098,275.370143 L190.560327,476.344222 C212.015191,482.664161 233.680397,485.824131 255.555945,485.824131 C281.638329,485.824131 307.089687,481.400173 331.91002,472.552258 L330.64797,469.392288 L259.342098,275.370143 Z"></path>
        </g>
    </g>
</svg>