<svg xmlns="http://www.w3.org/2000/svg" xmlns:xlink="http://www.w3.org/1999/xlink" xml:space="preserve" width="512" height="512"><defs><linearGradient id="c" x1="37.069" x2="37.069" y1="0" y2="79" gradientUnits="userSpaceOnUse"><stop stop-color="#6364FF"/><stop offset="1" stop-color="#563ACC"/></linearGradient><clipPath id="b" clipPathUnits="userSpaceOnUse"><use xlink:href="#a"/></clipPath></defs><g transform="translate(-11.99 -3.903) scale(1.06504)"><path fill="#818181" fill-rule="evenodd" stroke="#000" stroke-dashoffset="320" stroke-width="20" d="m254.042 255.63 92.27 129.43-119.782 85.39-92.27-129.43z"/><circle cx="208" cy="62.444" r="62.826" fill="#d83e42" fill-rule="evenodd" stroke="#000" stroke-dashoffset="320" stroke-width="21.704" transform="rotate(31.8)"/><circle cx="262.407" cy="266.159" r="152.204" fill="#7a56ac" fill-rule="evenodd" stroke="#000" stroke-dashoffset="320" stroke-width="27.432"/><ellipse cx="292.265" cy="175.39" fill-opacity=".183" fill-rule="evenodd" rx="72.145" ry="23.822"/><g fill="#f8f7fb" fill-rule="evenodd"><path d="M288.438 234.545c-2.084 22.428-119.582 11.527-118.246-9.159 1.463-22.643 120.437-14.417 118.246 9.16z"/><path d="M287.135 229.297c13.449 18.068-81.199 88.54-94.04 72.267-14.054-17.813 79.902-91.26 94.04-72.267z"/></g><g fill="#f8f7fb" fill-rule="evenodd" clip-path="url(#b)" transform="translate(-58.737 -13.118) scale(1.21464)"><ellipse id="a" cx="264.291" cy="230.6" fill-opacity="0" stroke-dashoffset="320" stroke-width="65.847" rx="114.33" ry="113.9"/><path d="M316.355 205.666c2.304 18.026 96.745 5.97 95.092-10.672-1.809-18.218-97.514-8.278-95.092 10.672z"/><path d="M317.26 201.398c-10.343 14.943 67.935 69.137 77.837 55.658 10.838-14.754-66.966-71.367-77.838-55.658z"/></g><g fill-rule="evenodd" stroke="#000" stroke-dashoffset="320" transform="rotate(-9.525 225.32 627.956) scale(1.26408)"><rect width="122.587" height="52.79" x="185.856" y="313.267" fill="#7955ab" stroke-width="14.707" ry="26.395" transform="matrix(.14181 .9899 .95931 -.28234 0 0)"/><circle cx="355.528" cy="103.547" r="44.809" fill="#d83e42" stroke-width="15.48"/></g><g fill-rule="evenodd" stroke="#000" stroke-dashoffset="320" transform="rotate(15.9 330.696 -45.95) scale(1.2517)"><rect width="122.479" height="54.04" x="27.582" y="-253.628" fill="#7955ab" stroke-width="14.874" ry="27.02" transform="matrix(-.1456 .98934 -.96133 -.27541 0 0)"/><circle cx="209.219" cy="101.34" r="45.965" fill="#d83e42" stroke-width="15.88"/></g><g fill="none"><path fill="url(#c)" stroke="#000" stroke-width="8.182" d="M73.84 17.49C72.696 9.002 65.3 2.312 56.53 1.016 55.05.797 49.444 0 36.458 0h-.097c-12.99 0-15.776.797-17.256 1.016-8.525 1.26-16.311 7.271-18.2 15.86-.909 4.23-1.006 8.919-.837 13.22.24 6.17.288 12.327.848 18.47a86.879 86.879 0 0 0 2.022 12.115c1.795 7.361 9.064 13.487 16.185 15.986a43.41 43.41 0 0 0 23.68 1.25 34.565 34.565 0 0 0 2.562-.701c1.91-.607 4.147-1.285 5.792-2.477a.187.187 0 0 0 .075-.144v-5.953a.175.175 0 0 0-.215-.17 65.637 65.637 0 0 1-15.367 1.796c-8.906 0-11.301-4.226-11.987-5.985a18.554 18.554 0 0 1-1.042-4.718.171.171 0 0 1 .135-.178.173.173 0 0 1 .08.002 64.383 64.383 0 0 0 15.116 1.795c1.225 0 2.446 0 3.67-.032 5.121-.144 10.52-.406 15.558-1.39.125-.025.251-.047.359-.079 7.947-1.526 15.51-6.316 16.279-18.445.028-.477.1-5.002.1-5.497.004-1.684.543-11.946-.079-18.251z" transform="matrix(1.84405 0 .56635 1.61892 205.732 10.288)"/><path fill="#fff" d="m333.984 54.042 11.943 34.14h-15.41l-11.592-33.135c-2.44-6.975-6.996-10.533-13.73-10.533-7.405 0-9.64 4.209-6.733 12.521l6.345 18.137h-15.318l-6.345-18.137c-2.908-8.312-8.095-12.52-15.499-12.52-6.695 0-8.795 3.557-6.355 10.532l11.592 33.134h-15.404l-11.943-34.14c-2.44-6.975-2.35-12.516.27-16.624 2.751-4.098 7.505-6.203 14.32-6.203 7.887 0 14.779 2.663 20.613 7.982l5.811 5.65 1.864-5.65c2.113-5.32 7.142-7.982 15.016-7.982 6.808 0 13.034 2.105 18.666 6.203 5.489 4.104 9.452 9.645 11.889 16.625z"/></g></g></svg>