<svg data-v-bd1cb1de="" style="height: 50px !important;" viewBox="0 0 10 14" fill="none" xmlns="http://www.w3.org/2000/svg" class="_anime_bounce_standBy"><path data-v-bd1cb1de="" d="M8.53552 1.38316C7.59789 0.497539 6.32612 0 5 0C3.67393 0 2.40215 0.497539 1.46447 1.38316C0.526785 2.26878 0 3.46997 0 4.72241V11.0907C0 11.9946 1.19622 12.4042 1.80953 11.7103C2.35179 11.0969 3.4032 11.3343 3.59297 12.1131L3.83637 13.1119C4.12397 14.2921 5.90168 14.2976 6.19737 13.119L6.335 12.5702C6.54276 11.7421 7.72216 11.5922 8.15427 12.3389C8.6425 13.1826 10 12.8551 10 11.8936V4.72241C10 3.46997 9.47319 2.26878 8.53552 1.38316Z" fill="var(--navActive)"></path></svg>