<?xml version="1.0" encoding="UTF-8"?>
<svg xmlns="http://www.w3.org/2000/svg" width="71" height="100" viewBox="0 0 71 100" fill="none">
  <path d="M4.34669 99.8276V95.948C4.34669 94.8416 4.79853 94.2238 5.61477 94.2238C6.35813 94.2238 6.70795 94.6979 6.70795 95.6894V99.8276H9.04006V95.3733C9.04006 93.4622 8.2384 92.4708 6.66422 92.4708C5.55647 92.4708 4.75481 92.9737 4.24466 94.0226V92.6432H2V99.8276H4.34669ZM17.6016 96.063C17.6016 93.7783 16.3189 92.4708 14.0305 92.4708C11.7567 92.4708 10.3283 93.9508 10.3283 96.3073C10.3283 98.635 11.7859 100 14.1908 100C15.7067 100 16.9457 99.296 17.5287 98.1177L15.8088 97.3418C15.4735 98.0028 14.9342 98.3476 14.22 98.3476C13.2289 98.3476 12.5729 97.7298 12.5438 96.7527H17.6016V96.063ZM12.5584 95.4595C12.5729 94.4393 13.0831 93.8358 13.9868 93.8358C14.8613 93.8358 15.3423 94.3818 15.3423 95.402V95.4595H12.5584ZM23.3863 95.7612C23.43 95.5601 23.5174 95.1577 23.532 94.9853H23.5612C23.5757 95.1577 23.6632 95.5601 23.7069 95.7612L24.7709 99.8276H27.0448L28.9833 92.6432H26.7532L25.8496 97.0401C25.8058 97.2412 25.7767 97.4855 25.7475 97.7298H25.7184C25.6892 97.4855 25.6455 97.2412 25.6018 97.0401L24.5377 92.6432H22.5554L21.4914 97.0401C21.4331 97.2412 21.404 97.4855 21.3748 97.7298H21.3457C21.3165 97.4855 21.2728 97.2412 21.2436 97.0401L20.3254 92.6432H18.0953L20.0484 99.8276H22.3222L23.3863 95.7612ZM32.9132 100C34.9684 100 36.149 99.0661 36.149 97.6292C36.149 96.4222 35.5077 95.6894 34.0064 95.4451L32.5634 95.2009C31.9949 95.1003 31.7763 94.9566 31.7763 94.6117C31.7763 94.2094 32.097 94.0082 32.782 94.0082C33.7149 94.0082 34.4436 94.31 34.9975 94.8704L36.2073 93.8071C35.6243 92.9593 34.3853 92.4708 32.9132 92.4708C30.9163 92.4708 29.7211 93.376 29.7211 94.7411C29.7211 95.9624 30.4645 96.6952 31.9658 96.9395L33.1027 97.1406C33.9043 97.2556 34.1376 97.3993 34.1376 97.7872C34.1376 98.1752 33.7586 98.4338 32.9569 98.4338C31.9512 98.4338 31.1787 98.0603 30.6685 97.3562L29.313 98.3333C30.0126 99.4253 31.3244 100 32.9132 100ZM37.4857 99.8276H39.8324V95.7181C39.8324 94.7554 40.226 94.2238 40.9256 94.2238C41.5669 94.2238 41.8876 94.6692 41.8876 95.6032V99.8276H44.2197V95.7038C44.2197 94.7411 44.6132 94.2238 45.3129 94.2238C45.9834 94.2238 46.2894 94.6548 46.2894 95.6176V99.8276H48.6216V95.129C48.6216 93.4479 47.7907 92.4708 46.3769 92.4708C45.3274 92.4708 44.5695 92.945 44.0448 93.9508C43.6804 92.9306 43.0099 92.4708 41.975 92.4708C40.8964 92.4708 40.1968 92.945 39.7304 93.9364V92.6432H37.4857V99.8276ZM52.3622 100C53.4991 100 54.432 99.4971 54.7964 98.6925C54.8109 99.0948 54.8401 99.4828 54.913 99.8276H57.1868C57.0556 99.3822 56.9827 98.6781 56.9827 97.8303V95.4451C56.9827 93.376 55.9333 92.4708 53.5866 92.4708C51.5168 92.4708 50.205 93.4191 50.0884 95.0141H52.4059C52.4497 94.3244 52.8578 93.9508 53.572 93.9508C54.3008 93.9508 54.6506 94.31 54.6506 95.129V95.3733L52.8869 95.6176C51.7792 95.7612 51.0795 95.9911 50.5986 96.3216C50.103 96.6665 49.8552 97.1981 49.8552 97.8735C49.8552 99.1523 50.8609 100 52.3622 100ZM53.2367 98.5344C52.6246 98.5344 52.2165 98.2039 52.2165 97.701C52.2165 97.1694 52.61 96.8676 53.47 96.7096L54.7235 96.5084V97.0832C54.7235 97.9453 54.1259 98.5344 53.2367 98.5344ZM61.7089 100C63.7641 100 64.9447 99.0661 64.9447 97.6292C64.9447 96.4222 64.3034 95.6894 62.8021 95.4451L61.3591 95.2009C60.7907 95.1003 60.572 94.9566 60.572 94.6117C60.572 94.2094 60.8927 94.0082 61.5778 94.0082C62.5106 94.0082 63.2394 94.31 63.7933 94.8704L65.003 93.8071C64.42 92.9593 63.1811 92.4708 61.7089 92.4708C59.7121 92.4708 58.5169 93.376 58.5169 94.7411C58.5169 95.9624 59.2602 96.6952 60.7615 96.9395L61.8984 97.1406C62.7001 97.2556 62.9333 97.3993 62.9333 97.7872C62.9333 98.1752 62.5543 98.4338 61.7527 98.4338C60.7469 98.4338 59.9744 98.0603 59.4643 97.3562L58.1087 98.3333C58.8084 99.4253 60.1202 100 61.7089 100ZM66.8306 94.1807V97.5142C66.8306 99.0948 67.6322 99.9569 69.5708 99.9569C69.9935 99.9569 70.3579 99.9138 70.8972 99.8132V97.9884C70.6786 98.0315 70.5037 98.0602 70.2267 98.0602C69.5271 98.0602 69.1627 97.6867 69.1627 96.9682V94.1807H70.8972V92.6432H69.1627V90.0281L66.8306 90.9189V92.6432H65.5625V94.1807H66.8306Z" fill="black"/>
  <path d="M35.3179 45.6074L51.6355 76.4299H19L35.3179 45.6074Z" fill="#E33D26"/>
  <path d="M35.1589 43.7943C39.6649 43.7943 43.3178 40.1415 43.3178 35.6354C43.3178 31.1294 39.6649 27.4766 35.1589 27.4766C30.6529 27.4766 27 31.1294 27 35.6354C27 40.1415 30.6529 43.7943 35.1589 43.7943Z" fill="#E33D26"/>
  <path d="M35.6355 67.3645C53.6596 67.3645 68.271 52.956 68.271 35.1822C68.271 17.4085 53.6596 3 35.6355 3C17.6114 3 3 17.4085 3 35.1822C3 52.956 17.6114 67.3645 35.6355 67.3645Z" stroke="#E33D26" stroke-width="5.41304"/>
</svg>