<svg xmlns="http://www.w3.org/2000/svg" width="192" height="192" viewBox="0 0 48 48"><path fill="none" stroke="white" stroke-linecap="round" stroke-linejoin="round" d="M13.719 19.22c.775-.81 2.5-2.554 5.248-3.236a8.5 8.5 0 0 1 4.148 0c10.365 2.65 14.365 24.98 9.63 28.019c-1.272.817-3.325.334-4.551-.409c-4.04-2.448-3.628-9.021-5.502-9.128c-.633-.035-.885.718-2.589 3.088c-2.43 3.38-3.898 5.378-6.092 6.298c-.313.131-3.332 1.494-5.18.152c-4.773-3.466-.367-19.293 4.889-24.782zm6.97 1.294c-3.39-.064-5.741 4.73-4.701 6.753c1.25 2.43 8.109 2.261 9.257-.408c.892-2.077-1.41-6.285-4.555-6.344z"/><path fill="none" stroke="white" stroke-linecap="round" stroke-linejoin="round" d="M31.4 23.69c5.07 1.34 9.116 1.951 9.715 1.012c1.144-1.84-8.035-10.352-20.246-12.08c-4.835-.682-12.497-.635-12.879.98c-.203.95 2.734 2.645 6.936 4.45"/><path fill="none" stroke="white" stroke-linecap="round" stroke-linejoin="round" d="M20.87 12.623c3.338-2.044 2.933-3.298 6.401-5.582c3.723-2.453 6-3.955 6.787-3.295c1.203 1.01-3.042 5.279-2.563 12.214"/></svg>