<?xml version="1.0" encoding="UTF-8"?>
<svg version="1.1" xmlns="http://www.w3.org/2000/svg" width="512" height="512">
<path d="M0 0 C1.258125 0.12375 2.51625 0.2475 3.8125 0.375 C4.87404297 0.47941406 4.87404297 0.47941406 5.95703125 0.5859375 C8 1 8 1 11 3 C12.6752357 2.71281674 14.34080104 2.36871088 16 2 C18.67356298 1.90558049 21.32352811 1.95463607 24 2 C24.33 2.99 24.66 3.98 25 5 C26.11375 4.62875 26.11375 4.62875 27.25 4.25 C28.1575 4.1675 29.065 4.085 30 4 C30.598125 4.61875 31.19625 5.2375 31.8125 5.875 C34.46518424 8.45189326 36.2407556 8.3893599 39.828125 8.65234375 C43.58280179 9.25336216 46.73030903 11.13036288 50 13 C50 13.99 50 14.98 50 16 C48.02 16.99 46.04 17.98 44 19 C47.2717864 22.2717864 51.57111381 21.35239436 56.03125 21.4609375 C57.0109375 21.63882813 57.990625 21.81671875 59 22 C60.40625 24.0390625 60.40625 24.0390625 61 26 C62.2375 25.8453125 62.2375 25.8453125 63.5 25.6875 C67.68320145 26.06100013 69.7786506 27.46214272 73.16796875 29.80859375 C75.09629865 31.17215496 75.09629865 31.17215496 78 32 C76.74458443 29.48916886 75.49936512 29.12874554 73 28 C73.66 26.68 74.32 25.36 75 24 C75.66 24 76.32 24 77 24 C77 23.34 77 22.68 77 22 C82.66153846 23.47692308 82.66153846 23.47692308 84.375 26.125 C84.58125 26.74375 84.7875 27.3625 85 28 C84.01 28.33 83.02 28.66 82 29 C82.33 29.99 82.66 30.98 83 32 C83.99 32.33 84.98 32.66 86 33 C86.33 31.02 86.66 29.04 87 27 C87.804375 27.2165625 87.804375 27.2165625 88.625 27.4375 C91.39915827 28.09453748 94.18525388 28.55219948 97 29 C96.67 30.65 96.34 32.3 96 34 C97.98 34 99.96 34 102 34 C102 33.34 102 32.68 102 32 C102.99 32.33 103.98 32.66 105 33 C104.67 34.98 104.34 36.96 104 39 C101.69 38.67 99.38 38.34 97 38 C100.08888522 40.05925681 100.70935927 40.2390374 104.1875 40.125 C105.445625 40.08375 106.70375 40.0425 108 40 C108.33 39.01 108.66 38.02 109 37 C109.99 37 110.98 37 112 37 C112.33 38.98 112.66 40.96 113 43 C111.35 43.99 109.7 44.98 108 46 C109.11375 45.87625 110.2275 45.7525 111.375 45.625 C117.20446662 45.59388185 121.36839072 48.76259964 126 52 C126.75796875 52.47824219 127.5159375 52.95648438 128.296875 53.44921875 C128.85890625 53.96097656 129.4209375 54.47273438 130 55 C130 56.32 130 57.64 130 59 C130.8353125 59.4021875 130.8353125 59.4021875 131.6875 59.8125 C138.56164384 63.34246575 138.56164384 63.34246575 141 67 C142.485 66.505 142.485 66.505 144 66 C144 65.34 144 64.68 144 64 C148.75 64.75 148.75 64.75 151 67 C150.625 70.125 150.625 70.125 150 73 C148.68 72.67 147.36 72.34 146 72 C146.66 72.45375 147.32 72.9075 148 73.375 C148.66 73.91125 149.32 74.4475 150 75 C150 75.66 150 76.32 150 77 C153.96 77.495 153.96 77.495 158 78 C158 79.65 158 81.3 158 83 C158.66 83.33 159.32 83.66 160 84 C160.33 82.68 160.66 81.36 161 80 C165.75 80.75 165.75 80.75 168 83 C167.625 85.125 167.625 85.125 167 87 C165.35 87.33 163.7 87.66 162 88 C162 89.32 162 90.64 162 92 C164.31 92.66 166.62 93.32 169 94 C169.0928125 94.86625 169.0928125 94.86625 169.1875 95.75 C170.42198571 99.16857582 171.86919188 100.12151513 175 102 C178.63754847 102.91066614 182.2848142 103.50550942 186 104 C186 105.98 186 107.96 186 110 C186.556875 110.04125 187.11375 110.0825 187.6875 110.125 C190.57819949 111.21877818 191.85296847 112.98866572 193.703125 115.3984375 C195.11880352 117.23710813 195.11880352 117.23710813 197.6875 119.375 C200.00984707 122.01117776 200.39003417 122.91365322 201.0625 126.1875 C201.54814069 130.02815645 201.54814069 130.02815645 204 131.3125 C204.66 131.539375 205.32 131.76625 206 132 C206.66 132.99 207.32 133.98 208 135 C205 137 205 137 202 137 C202.76429661 138.44098611 203.53672555 139.87766054 204.3125 141.3125 C204.95638672 142.51326172 204.95638672 142.51326172 205.61328125 143.73828125 C206.87518272 146.00999498 206.87518272 146.00999498 208.60546875 147.54296875 C210.27802874 149.29048941 210.59441739 150.64762088 211 153 C212.72492978 153.53469802 214.455198 154.05219175 216.1875 154.5625 C217.15042969 154.85253906 218.11335938 155.14257812 219.10546875 155.44140625 C221.89025362 156.17055317 221.89025362 156.17055317 224.22387695 155.54321289 C227.6316913 154.87639494 230.83987559 154.87024132 234.3125 154.8671875 C235.00384033 154.86623077 235.69518066 154.86527405 236.4074707 154.86428833 C237.86311942 154.86361054 239.31877122 154.86543676 240.77441406 154.86962891 C242.9929081 154.87498288 245.2111997 154.86967034 247.4296875 154.86328125 C248.84895878 154.8639421 250.26822993 154.86522341 251.6875 154.8671875 C252.97011719 154.86831543 254.25273437 154.86944336 255.57421875 154.87060547 C263.15701378 155.15701378 263.15701378 155.15701378 265.8125 157.8125 C267 160 267 160 267 164 C261.0002021 166.09295276 256.0490286 167.10943321 249.6875 166.9375 C241.6731668 166.86101114 233.91917388 167.84812016 226 169 C225.31292445 171.49064888 225 173.37886292 225 176 C225.66 176 226.32 176 227 176 C227.95465783 178.16967689 228.14401212 179.56328793 227.3984375 181.82421875 C226.64129615 183.5684743 225.82390802 185.28627131 225 187 C220.95553095 187 219.65131443 185.45843119 216.703125 182.86328125 C214.42784927 180.37404611 213.22780419 177.76156255 212.01953125 174.63671875 C211.10671281 172.78867983 211.10671281 172.78867983 208.88671875 172.26953125 C208.26410156 172.18058594 207.64148438 172.09164062 207 172 C206.24391364 173.82274676 206.24391364 173.82274676 206 176 C207.08266232 177.79571424 207.08266232 177.79571424 208.75 179.375 C212.67617644 183.63901022 215 187.05129278 215 193 C213.02 193.99 213.02 193.99 211 195 C206.21138211 189.58130081 206.21138211 189.58130081 205 186.25 C204.16838674 183.73654097 204.16838674 183.73654097 201.375 182.6875 C200.199375 182.3471875 200.199375 182.3471875 199 182 C199.0825 181.236875 199.165 180.47375 199.25 179.6875 C199.30342071 176.85583656 199.30342071 176.85583656 197 175.3125 C196.34 174.879375 195.68 174.44625 195 174 C195 173.34 195 172.68 195 172 C191.12941319 171.46612596 187.47193632 171 183.5625 171 C182.716875 171 181.87125 171 181 171 C180.67 170.67 180.34 170.34 180 170 C178.52351124 169.90176004 177.04224583 169.87026481 175.5625 169.875 C174.75941406 169.87242187 173.95632813 169.86984375 173.12890625 169.8671875 C170.94602069 169.86421674 170.94602069 169.86421674 169 171 C167.64967202 171.13845858 166.29374361 171.22503885 164.9375 171.28125 C164.14085937 171.31863281 163.34421875 171.35601562 162.5234375 171.39453125 C160.84114583 171.46484375 159.15885417 171.53515625 157.4765625 171.60546875 C156.67992187 171.64285156 155.88328125 171.68023437 155.0625 171.71875 C154.33160156 171.74904297 153.60070312 171.77933594 152.84765625 171.81054688 C150.9061423 171.89957573 150.9061423 171.89957573 149 173 C146.70610715 173.09833885 144.40928012 173.13078385 142.11328125 173.1328125 C141.07218452 173.13424759 141.07218452 173.13424759 140.01005554 173.13571167 C138.53136098 173.13639356 137.05266345 173.13453867 135.57397461 173.13037109 C133.36630011 173.12512778 131.1588391 173.13025995 128.95117188 173.13671875 C104.44941692 173.14980564 104.44941692 173.14980564 98 171 C97.34 170.34 96.68 169.68 96 169 C95.566875 169.639375 95.13375 170.27875 94.6875 170.9375 C93 173 93 173 90 174 C88.02334462 174.02784133 86.0455025 173.98890615 84.07006836 173.9140625 C82.84706528 173.87071777 81.62406219 173.82737305 80.36399841 173.78271484 C79.70942595 173.75699402 79.05485348 173.73127319 78.38044548 173.70477295 C76.31292102 173.62394751 74.2452506 173.55049049 72.17738342 173.47900391 C66.29682582 173.2743087 60.41679277 173.05597345 54.53686523 172.83398438 C31.2400316 171.68598938 31.2400316 171.68598938 8 173 C7.67 173.33 7.34 173.66 7 174 C0.44430564 174.0617297 -3.66391147 172.88079166 -9 169 C-13.41401422 167.97786122 -17.53010788 167.9447748 -22.04296875 168.12109375 C-22.69324539 168.14470474 -23.34352203 168.16831573 -24.01350403 168.19264221 C-26.07176518 168.26856833 -28.12958271 168.35280907 -30.1875 168.4375 C-31.58005642 168.49080437 -32.97263459 168.54354399 -34.36523438 168.59570312 C-36.91051314 168.69163385 -39.45569372 168.79023244 -42.00073242 168.89233398 C-43.99952286 168.96408544 -45.99992213 169 -48 169 C-48.33 169.66 -48.66 170.32 -49 171 C-50.85437862 170.85688704 -52.70849429 170.71036549 -54.5625 170.5625 C-56.11130859 170.44068359 -56.11130859 170.44068359 -57.69140625 170.31640625 C-61.92891569 169.91116627 -66.11930617 169.29248216 -70.32495117 168.63842773 C-85.76366255 166.25216158 -100.45274031 164.95343928 -116 167 C-116.99 167 -117.98 167 -119 167 C-119.33 167.66 -119.66 168.32 -120 169 C-121.32 169 -122.64 169 -124 169 C-124 168.34 -124 167.68 -124 167 C-124.97839844 167.02320313 -125.95679687 167.04640625 -126.96484375 167.0703125 C-138.96739709 167.23553939 -138.96739709 167.23553939 -143.625 165.75 C-148.78022056 164.32015581 -152.95961856 166.40429104 -157.8515625 168.09765625 C-163.39016091 169.6850213 -167.80384656 168.68898932 -173.1875 167 C-178.1393809 165.70114599 -182.98517418 165.50918575 -188.0859375 165.24609375 C-191 165 -191 165 -192 164 C-198.92895727 163.71137416 -207.78253679 163.79070742 -213.60546875 167.7890625 C-215.39626043 170.10848604 -216.70604915 172.37240656 -218 175 C-219.05182813 176.79795252 -220.11425523 178.58974894 -221.1875 180.375 C-221.63480469 181.18710937 -222.08210938 181.99921875 -222.54296875 182.8359375 C-224.12360782 185.18358909 -225.60414305 186.51159187 -228 188 C-228.66 188 -229.32 188 -230 188 C-230.2475 188.9075 -230.495 189.815 -230.75 190.75 C-232 194 -232 194 -233.9375 195.8125 C-236.97293177 199.03189734 -237.81621909 202.80295858 -239 207 C-239.66 207 -240.32 207 -241 207 C-241.33 204.36 -241.66 201.72 -242 199 C-242.99 199 -243.98 199 -245 199 C-244.87821692 192.30193073 -242.99284762 189.11261189 -238.69921875 184.03515625 C-236.88043711 181.97954452 -236.88043711 181.97954452 -235.4375 179.25 C-234.01697737 177.02657328 -232.88353067 176.06049753 -230.8125 174.5 C-229.884375 173.675 -228.95625 172.85 -228 172 C-227.957279 170.33388095 -227.95936168 168.66617115 -228 167 C-226.4031059 164.82241713 -224.82660535 162.96463599 -223 161 C-222.45730469 160.35675781 -221.91460937 159.71351563 -221.35546875 159.05078125 C-218.60883066 155.79573611 -215.98528224 152.91674717 -212.5625 150.375 C-207.11635452 145.96857321 -204.21114285 139.08866047 -201 133 C-200.01 133 -199.02 133 -198 133 C-198 133.99 -198 134.98 -198 136 C-193.62033808 130.08171952 -193.62033808 130.08171952 -193 123 C-192.05125 122.5875 -191.1025 122.175 -190.125 121.75 C-186.92711123 120.35047672 -186.92711123 120.35047672 -186 117.9375 C-185 116 -185 116 -181.875 114.75 C-180.451875 114.37875 -180.451875 114.37875 -179 114 C-179 113.34 -179 112.68 -179 112 C-178.38253906 111.74863281 -177.76507813 111.49726563 -177.12890625 111.23828125 C-174.63492529 109.78765379 -174.08722906 108.79056622 -172.9375 106.1875 C-172.59976563 105.47078125 -172.26203125 104.7540625 -171.9140625 104.015625 C-171.61242187 103.35046875 -171.31078125 102.6853125 -171 102 C-168.52144843 96.65154661 -164.05746511 92.91518338 -159 90 C-156.2109375 89.80078125 -156.2109375 89.80078125 -154 90 C-154.12375 89.29875 -154.2475 88.5975 -154.375 87.875 C-153.883791 84.1090643 -152.39149963 82.6896113 -149.66796875 80.16015625 C-147.38427638 78.57173322 -145.70168747 78.52323162 -143 79 C-142.505 77.515 -142.505 77.515 -142 76 C-136.62857143 72 -136.62857143 72 -134 72 C-134 72.99 -134 73.98 -134 75 C-133.34 75 -132.68 75 -132 75 C-131.74734375 74.41089844 -131.4946875 73.82179688 -131.234375 73.21484375 C-129.85528374 70.74033507 -128.41362405 69.37809925 -126.25 67.5625 C-125.53585938 66.9540625 -124.82171875 66.345625 -124.0859375 65.71875 C-122.3712197 64.30587391 -120.62690875 62.92898882 -118.875 61.5625 C-115.84867896 58.8651269 -113.63617081 56.05837993 -111.296875 52.76953125 C-109.01879997 49.66119394 -108.33364851 49.05752561 -104.375 48.375 C-102.704375 48.189375 -102.704375 48.189375 -101 48 C-100.67 47.01 -100.34 46.02 -100 45 C-98.3656622 43.99938502 -96.72275617 43.00947047 -95.03515625 42.1015625 C-89.67643876 39.20106666 -84.66119387 35.93288233 -80 32 C-83.10540926 30.78918149 -83.10540926 30.78918149 -87 31 C-87 29.35 -87 27.7 -87 26 C-83.7 25.67 -80.4 25.34 -77 25 C-76.01 27.475 -76.01 27.475 -75 30 C-69.61073311 29.72362734 -66.61281752 27.49187804 -62.37109375 24.48046875 C-59.99706096 22.99816492 -57.92836343 22.20847649 -55.25 21.4375 C-51.06659255 20.18686596 -48.70108094 18.54516874 -46 15 C-45.12761142 12.32209104 -45.12761142 12.32209104 -45 10 C-44.37351563 9.81824219 -43.74703125 9.63648438 -43.1015625 9.44921875 C-41.87566406 9.07216797 -41.87566406 9.07216797 -40.625 8.6875 C-39.40683594 8.32205078 -39.40683594 8.32205078 -38.1640625 7.94921875 C-35.66815371 7.08631815 -35.66815371 7.08631815 -34 4 C-33.401875 4.309375 -32.80375 4.61875 -32.1875 4.9375 C-29.91043228 6.10209704 -29.91043228 6.10209704 -27 7 C-27 6.01 -27 5.02 -27 4 C-25.02 3.67 -23.04 3.34 -21 3 C-20.67 3.99 -20.34 4.98 -20 6 C-15.71 6.33 -11.42 6.66 -7 7 C-6.01 9.475 -6.01 9.475 -5 12 C-4.24976563 11.9278125 -3.49953125 11.855625 -2.7265625 11.78125 C2.42879416 11.31376174 7.38903988 10.97489725 12.5625 11.25 C14.93236643 11.3628281 14.93236643 11.3628281 17 11 C19.23025247 8.6797907 19.23025247 8.6797907 20 6 C18.700625 6.144375 17.40125 6.28875 16.0625 6.4375 C15.33160156 6.51871094 14.60070312 6.59992188 13.84765625 6.68359375 C11.98859771 6.81886614 11.98859771 6.81886614 11 8 C2.71320755 7.32075472 2.71320755 7.32075472 -1 5 C-0.67 3.35 -0.34 1.7 0 0 Z M-32 9 C-33.7143618 10.95927063 -35.38405168 12.95880212 -37 15 C-35.68 15.33 -34.36 15.66 -33 16 C-31.68 14.35 -30.36 12.7 -29 11 C-29.33 10.34 -29.66 9.68 -30 9 C-30.66 9 -31.32 9 -32 9 Z M78 25 C79 27 79 27 79 27 Z M39 33 C38.67 33.99 38.34 34.98 38 36 C41.15520333 39.72607141 43.70146851 40.78864117 48.4375 41.8125 C49.54996094 42.06644531 50.66242188 42.32039063 51.80859375 42.58203125 C54.90139376 42.98708584 57.01653609 42.8197555 60 42 C60.33 40.35 60.66 38.7 61 37 C57.62902617 35.50178941 55.79557881 35 52 35 C51.34 34.34 50.68 33.68 50 33 C50 34.65 50 36.3 50 38 C49.01 37.67 48.02 37.34 47 37 C46.67 36.01 46.34 35.02 46 34 C43.69 33.67 41.38 33.34 39 33 Z M88 33 C88.99 33.495 88.99 33.495 90 34 C90.33 34.99 90.66 35.98 91 37 C92.32 36.67 93.64 36.34 95 36 C91.94419026 33.41222792 91.94419026 33.41222792 88 33 Z M-45 36 C-45 36.99 -45 37.98 -45 39 C-46.5778125 39.12375 -46.5778125 39.12375 -48.1875 39.25 C-52.30061342 40.05913707 -54.10640813 41.01872352 -57 44 C-57 44.99 -57 45.98 -57 47 C-57.60328125 47.02578125 -58.2065625 47.0515625 -58.828125 47.078125 C-59.62734375 47.13484375 -60.4265625 47.1915625 -61.25 47.25 C-62.03890625 47.29640625 -62.8278125 47.3428125 -63.640625 47.390625 C-66.15265648 47.82052614 -66.15265648 47.82052614 -67.875 49.9375 C-70.6639639 52.64443555 -72.97152642 52.99430528 -76.75 53.75 C-77.92046875 53.99234375 -79.0909375 54.2346875 -80.296875 54.484375 C-81.18890625 54.65453125 -82.0809375 54.8246875 -83 55 C-83.33 56.32 -83.66 57.64 -84 59 C-84.928125 59.061875 -85.85625 59.12375 -86.8125 59.1875 C-90.14898279 59.69426723 -90.14898279 59.69426723 -91.875 62.375 C-93.19695965 64.9835867 -93.19695965 64.9835867 -93 68 C-94.3921875 68.1546875 -94.3921875 68.1546875 -95.8125 68.3125 C-98.96245492 68.68062955 -98.96245492 68.68062955 -100.4375 70.5 C-102 72 -102 72 -105.5 72.375 C-109.12929109 72.62356414 -109.12929109 72.62356414 -110.875 75.375 C-112.05709377 78.03287217 -112.05709377 78.03287217 -113 81 C-113.67546875 81.01417969 -114.3509375 81.02835938 -115.046875 81.04296875 C-120.65362704 81.13459282 -120.65362704 81.13459282 -125 84.1875 C-125.66 85.115625 -126.32 86.04375 -127 87 C-129.52593948 88.65221288 -132.1124673 90.11812003 -134.7578125 91.5703125 C-137.26084219 92.95431241 -137.26084219 92.95431241 -139 96 C-139.64453125 96.14695312 -140.2890625 96.29390625 -140.953125 96.4453125 C-143.74329926 97.20142842 -144.298143 98.42835209 -145.75 100.875 C-146.17796875 101.57367188 -146.6059375 102.27234375 -147.046875 102.9921875 C-148.21442085 105.08126371 -148.21442085 105.08126371 -148 108 C-148.928125 107.484375 -149.85625 106.96875 -150.8125 106.4375 C-153.92757947 104.59903754 -153.92757947 104.59903754 -157 106 C-158.42598197 107.94886902 -158.42598197 107.94886902 -159.625 110.3125 C-160.05039063 111.09238281 -160.47578125 111.87226563 -160.9140625 112.67578125 C-161.90444557 114.79548602 -162.52963478 116.71611553 -163 119 C-163.5775 119.0825 -164.155 119.165 -164.75 119.25 C-167.65984734 120.21994911 -168.90469895 121.77771101 -171 124 C-171.9075 124.70125 -172.815 125.4025 -173.75 126.125 C-174.4925 126.74375 -175.235 127.3625 -176 128 C-176 128.66 -176 129.32 -176 130 C-176.99 130 -177.98 130 -179 130 C-180.04349839 131.63978318 -181.03182008 133.31464976 -182 135 C-185.3374955 139.48061322 -188.8270771 142.75114378 -193.48828125 145.8046875 C-195.2583155 147.03054003 -195.2583155 147.03054003 -196.375 149.75 C-198 152 -198 152 -200.17578125 152.53515625 C-202.45772575 152.78712835 -204.70537736 152.94708417 -207 153 C-206.67 153.66 -206.34 154.32 -206 155 C-205.34 155 -204.68 155 -204 155 C-204.66 156.98 -205.32 158.96 -206 161 C-197.585 160.01 -197.585 160.01 -189 159 C-189 158.34 -189 157.68 -189 157 C-188.34 157 -187.68 157 -187 157 C-187 156.01 -187 155.02 -187 154 C-186.20335937 154.2165625 -185.40671875 154.433125 -184.5859375 154.65625 C-183.52632812 154.9346875 -182.46671875 155.213125 -181.375 155.5 C-180.33085937 155.7784375 -179.28671875 156.056875 -178.2109375 156.34375 C-174.32553155 157.13784757 -170.78552111 157.77240853 -167.05859375 156.16015625 C-166.52363281 155.79792969 -165.98867187 155.43570313 -165.4375 155.0625 C-162.63924902 153.30271105 -160.32977053 152.40360855 -157 152 C-157.66 153.98 -158.32 155.96 -159 158 C-155.74602492 160.25885324 -155.74602492 160.25885324 -152 161 C-150.85647084 158.71294169 -150.89665561 157.40735238 -150.9375 154.875 C-150.958125 153.59625 -150.97875 152.3175 -151 151 C-147.37 151.33 -143.74 151.66 -140 152 C-140.99 153.98 -140.99 153.98 -142 156 C-139.06556598 155.73343428 -139.06556598 155.73343428 -136 155 C-135.01 153.515 -135.01 153.515 -134 152 C-134.66 152 -135.32 152 -136 152 C-136 151.34 -136 150.68 -136 150 C-133.69 150.66 -131.38 151.32 -129 152 C-129.40992188 152.47050781 -129.81984375 152.94101562 -130.2421875 153.42578125 C-130.78101563 154.04839844 -131.31984375 154.67101562 -131.875 155.3125 C-132.40867187 155.92738281 -132.94234375 156.54226563 -133.4921875 157.17578125 C-135.1640447 159.13498212 -135.1640447 159.13498212 -137 162 C-134.31080008 161.84633143 -132.54832629 161.55923051 -130.625 159.59765625 C-129.41464453 158.06670067 -128.20718771 156.53345465 -127 155 C-126.34 155 -125.68 155 -125 155 C-124.67 155.66 -124.34 156.32 -124 157 C-123.01 157 -122.02 157 -121 157 C-121 156.34 -121 155.68 -121 155 C-115.67717658 154.14185418 -111.99579889 153.64087275 -107 156 C-104.29113059 156.16798262 -104.29113059 156.16798262 -102 156 C-101.67 155.34 -101.34 154.68 -101 154 C-100.34 154 -99.68 154 -99 154 C-99 155.98 -99 157.96 -99 160 C-95.87802522 158.6910428 -95.87802522 158.6910428 -94 156 C-93.27409668 156.0407666 -92.54819336 156.0815332 -91.80029297 156.12353516 C-88.49238228 156.30258381 -85.18383383 156.46395057 -81.875 156.625 C-80.73289062 156.68945312 -79.59078125 156.75390625 -78.4140625 156.8203125 C-76.75117188 156.89765625 -76.75117188 156.89765625 -75.0546875 156.9765625 C-74.03874512 157.02893066 -73.02280273 157.08129883 -71.97607422 157.13525391 C-68.67516814 156.98523734 -66.07455194 156.17450289 -63 155 C-63.66 156.65 -64.32 158.3 -65 160 C-62.17517061 161.32498498 -62.17517061 161.32498498 -60.2734375 160.1875 C-59.64695313 159.795625 -59.02046875 159.40375 -58.375 159 C-53.71888767 156.47289071 -50.05818765 156.92279337 -45 158 C-44.67 158.99 -44.34 159.98 -44 161 C-42.824375 160.505 -41.64875 160.01 -40.4375 159.5 C-35.72516604 157.73495618 -31.55204737 157.38700823 -26.609375 158.57421875 C-23.7066941 159.04785979 -21.79079148 158.72095188 -18.9375 158.0625 C-11.63119138 156.60321029 -4.49618633 156.49248908 2.875 157.5625 C6.1862429 158.02607401 8.75068141 157.71326506 12 157 C12.33 157.66 12.66 158.32 13 159 C15.20805524 159.0544452 17.41650554 159.09299283 19.625 159.125 C20.85476563 159.14820313 22.08453125 159.17140625 23.3515625 159.1953125 C26.97317859 159.00143584 29.61791176 158.24009902 33 157 C35.66701495 156.52725153 38.30183576 156.27912044 41 156 C41 156.66 41 157.32 41 158 C41.9075 158 42.815 158 43.75 158 C46.16666667 158 48.58333333 158 51 158 C52.9795535 157.91195024 54.95870192 157.81458592 56.9375 157.7109375 C58.07960938 157.65679687 59.22171875 157.60265625 60.3984375 157.546875 C62.7998638 157.43227331 65.20093062 157.30987361 67.6015625 157.1796875 C68.74367188 157.128125 69.88578125 157.0765625 71.0625 157.0234375 C72.62677734 156.94488525 72.62677734 156.94488525 74.22265625 156.86474609 C77.11044087 157.00537836 78.50581376 157.64569371 81 159 C83.33297433 159.04092937 85.66705225 159.04241723 88 159 C88.99 159.33 89.98 159.66 91 160 C93.28932678 160.12093495 95.58251324 160.17538326 97.875 160.1875 C99.08929688 160.20167969 100.30359375 160.21585938 101.5546875 160.23046875 C104.88336115 160.00780237 106.98104879 159.31146944 110 158 C112.3320802 157.92353835 114.66845878 157.90856701 117 158 C117 158.66 117 159.32 117 160 C117.88042969 159.96519531 118.76085937 159.93039062 119.66796875 159.89453125 C120.82941406 159.86746094 121.99085938 159.84039062 123.1875 159.8125 C124.33605469 159.77769531 125.48460937 159.74289062 126.66796875 159.70703125 C130.27039199 160.02377421 132.09366839 160.91466602 135 163 C135.66 161.68 136.32 160.36 137 159 C138.58367747 159.14204741 140.16693318 159.28880153 141.75 159.4375 C143.07257813 159.55931641 143.07257813 159.55931641 144.421875 159.68359375 C146.69350452 159.96238465 148.79851823 160.38790577 151 161 C151 161.66 151 162.32 151 163 C152.32 163.33 153.64 163.66 155 164 C155.33 163.34 155.66 162.68 156 162 C155.01 161.67 154.02 161.34 153 161 C157.01509254 160.24717015 160.26517853 159.92617524 164.3125 160.5625 C165.529375 160.706875 166.74625 160.85125 168 161 C168.66 160.34 169.32 159.68 170 159 C171.8828125 159.05859375 171.8828125 159.05859375 174.125 159.4375 C178.66793976 160.07071365 182.48364718 159.73903955 187 159 C186.96877057 157.03243548 186.96877057 157.03243548 186 155 C183.19623648 153.87050779 183.19623648 153.87050779 180 153 C177.25 151.75 177.25 151.75 175 150 C174.690625 149.05125 174.38125 148.1025 174.0625 147.125 C172.67365102 143.04015006 170.3014769 141.68244998 167 139 C165.625 136.1875 165.625 136.1875 165 134 C165.66 134 166.32 134 167 134 C166.82774253 129.60743452 166.66286651 127.6155189 163.375 124.5625 C162.83488281 124.17578125 162.29476563 123.7890625 161.73828125 123.390625 C159.67595062 121.7407605 158.20667082 119.87606427 156.5625 117.8125 C153.35547054 114.01786911 150.85544325 113.168903 146 112 C142.92061625 109.38921813 141.27908909 107.83726728 140 104 C141.485 103.505 141.485 103.505 143 103 C136.89365599 99.47765926 136.89365599 99.47765926 130 99 C129.814375 98.38125 129.62875 97.7625 129.4375 97.125 C127.28562767 93.94397134 124.62466237 93.80548053 121 93 C121.3403125 91.8553125 121.3403125 91.8553125 121.6875 90.6875 C122.31199601 88.04259505 122.31199601 88.04259505 120.83984375 86.49609375 C118.6480942 84.71384305 116.42516486 83.58688592 113.875 82.375 C109.08333333 80.08333333 109.08333333 80.08333333 108 79 C106.9275 78.9175 105.855 78.835 104.75 78.75 C100.18000531 77.83600106 99.24174281 76.24174281 96 73 C94.31159592 72.32300706 92.60022449 71.7017393 90.875 71.125 C86.35925001 69.48778901 86.35925001 69.48778901 84.72265625 67.265625 C83.9375 65.375 83.9375 65.375 83 62 C82.67 61.34 82.34 60.68 82 60 C81.34 60 80.68 60 80 60 C79.67 58.68 79.34 57.36 79 56 C77.68 56 76.36 56 75 56 C74.67 56.99 74.34 57.98 74 59 C73.01 59.33 72.02 59.66 71 60 C70.690625 58.6078125 70.690625 58.6078125 70.375 57.1875 C69.25553808 53.73995905 69.25553808 53.73995905 65.875 52.125 C64.92625 51.75375 63.9775 51.3825 63 51 C63.66 49.68 64.32 48.36 65 47 C62.77109005 45.88554502 61.46944894 45.83519714 59 45.8125 C58.29875 45.79832031 57.5975 45.78414062 56.875 45.76953125 C54.75475062 45.83487677 54.75475062 45.83487677 53 48 C54.65 48.66 56.3 49.32 58 50 C57.67 50.66 57.34 51.32 57 52 C55.22773547 51.71715982 53.457212 51.42339502 51.6875 51.125 C50.20830078 50.88136719 50.20830078 50.88136719 48.69921875 50.6328125 C46 50 46 50 43 48 C40.40336911 47.28713998 40.40336911 47.28713998 37.5625 46.8125 C36.61503906 46.63332031 35.66757812 46.45414063 34.69140625 46.26953125 C32.07171238 46.00718165 30.50001044 46.35622049 28 47 C23.36923077 44.73846154 23.36923077 44.73846154 22 42 C18.71339336 40.73305413 15.99564591 41.13931223 12.5625 41.625 C7.88712776 42.12040368 5.87104288 41.79575319 2 39 C-1.69523952 38.28076792 -1.69523952 38.28076792 -5 38 C-5.33 40.64 -5.66 43.28 -6 46 C-7.98 45.34 -9.96 44.68 -12 44 C-11.690625 43.4225 -11.38125 42.845 -11.0625 42.25 C-10.07416636 40.15705816 -9.4831387 38.25464725 -9 36 C-10.94999129 36.19471111 -10.94999129 36.19471111 -13 37 C-13.28875 37.639375 -13.5775 38.27875 -13.875 38.9375 C-15 41 -15 41 -18.125 42.25 C-19.07375 42.4975 -20.0225 42.745 -21 43 C-21.185625 44.2065625 -21.185625 44.2065625 -21.375 45.4375 C-21.58125 46.283125 -21.7875 47.12875 -22 48 C-22.66 48.33 -23.32 48.66 -24 49 C-24.33 49.99 -24.66 50.98 -25 52 C-26.73071289 52.82788086 -26.73071289 52.82788086 -28.97265625 53.46484375 C-29.79056641 53.70783203 -30.60847656 53.95082031 -31.45117188 54.20117188 C-32.31291016 54.44416016 -33.17464844 54.68714844 -34.0625 54.9375 C-39.05872678 56.36885146 -43.80851851 57.7872987 -48.43359375 60.19140625 C-52 62 -52 62 -55 62 C-55.33 60.35 -55.66 58.7 -56 57 C-55.34 57.2475 -54.68 57.495 -54 57.75 C-49.64594565 58.11283786 -46.61332424 56.32825077 -43 54 C-40.48687684 51.77574157 -39.57429517 50.33091201 -39 47 C-36.69 47 -34.38 47 -32 47 C-32 47.66 -32 48.32 -32 49 C-33.32 49.66 -34.64 50.32 -36 51 C-30.555 50.01 -30.555 50.01 -25 49 C-24.79503906 48.15695313 -24.59007812 47.31390625 -24.37890625 46.4453125 C-23.97478516 44.80175781 -23.97478516 44.80175781 -23.5625 43.125 C-23.29566406 42.03445312 -23.02882812 40.94390625 -22.75390625 39.8203125 C-22 37 -22 37 -21 35 C-26.91260345 34.74293028 -32.23918159 35.7017874 -38 37 C-36.694761 34.38952199 -35.64173426 34.31933577 -32.9375 33.375 C-32.20402344 33.11460937 -31.47054687 32.85421875 -30.71484375 32.5859375 C-30.14894531 32.39257812 -29.58304688 32.19921875 -29 32 C-35.99420576 29.66859808 -40.48200564 29.92894508 -45 36 Z M77 41 C78 43 78 43 78 43 Z M78 43 C80.14308822 48.19502537 84.22613108 50.36102898 89 53 C92.63051671 54.50308016 96.29224172 55.6409649 100.13671875 56.44921875 C102 57 102 57 104 59 C105.2375 59.6496875 105.2375 59.6496875 106.5 60.3125 C109.4116891 62.27789014 110.01625809 63.69104995 111 67 C110.01 67.495 110.01 67.495 109 68 C113.08475559 72.79236699 113.08475559 72.79236699 118.875 74.875 C119.90625 74.91625 120.9375 74.9575 122 75 C122.495 77.475 122.495 77.475 123 80 C124.32 80.33 125.64 80.66 127 81 C127 79.35 127 77.7 127 76 C129.31 76.99 131.62 77.98 134 79 C134.03525132 77.11341126 134.03525132 77.11341126 133 75 C127.12393939 70.42973063 121.27830159 70.23902468 114 70 C114.495 68.515 114.495 68.515 115 67 C117.0625 66.3125 117.0625 66.3125 119 66 C119 65.34 119 64.68 119 64 C117.5459375 63.4740625 117.5459375 63.4740625 116.0625 62.9375 C110.01659723 60.35514072 105.06094975 55.90173474 100.26953125 51.48046875 C96.65509616 48.46567137 92.67995169 47.12742426 88.25 45.6875 C87.48300781 45.42388672 86.71601563 45.16027344 85.92578125 44.88867188 C82.05002806 43.49485221 82.05002806 43.49485221 78 43 Z M68 48 C68 48.33 68 48.66 68 49 C69.65 49 71.3 49 73 49 C73 48.67 73 48.34 73 48 C71.35 48 69.7 48 68 48 Z M96 60 C99.77593959 64.28070998 99.77593959 64.28070998 105 66 C104.67 65.34 104.34 64.68 104 64 C103.34 64 102.68 64 102 64 C101.67 62.68 101.34 61.36 101 60 C99.35 60 97.7 60 96 60 Z M136 81 C136.03122943 82.96756452 136.03122943 82.96756452 137 85 C139.99615946 86.3045656 139.99615946 86.3045656 143 87 C139.82460444 83.57421051 139.82460444 83.57421051 136 81 Z M143 87 C143.70339566 89.50965614 143.70339566 89.50965614 145 92 C147.04105639 92.88693303 147.04105639 92.88693303 149 93 C147.7260411 90.96166576 146.38938077 88.96147874 145 87 C144.34 87 143.68 87 143 87 Z M170 115 C170 116.65 170 118.3 170 120 C170.99 120 171.98 120 173 120 C172.34 118.35 171.68 116.7 171 115 C170.67 115 170.34 115 170 115 Z M173 120 C172.34 121.65 171.68 123.3 171 125 C172.32 125.99 173.64 126.98 175 128 C175 126.68 175 125.36 175 124 C176.32 124.66 177.64 125.32 179 126 C177.95125002 123.37812506 177.35068687 122.20628639 174.875 120.75 C173.946875 120.37875 173.946875 120.37875 173 120 Z M-200 137 C-199 140 -199 140 -199 140 Z " fill="#FFFFFF" transform="translate(245,151)"/>
<path d="M0 0 C-0.60990891 3.55780196 -1.5783681 6.6828589 -3 10 C-3.94875 9.979375 -4.8975 9.95875 -5.875 9.9375 C-8.90666283 9.77448174 -8.90666283 9.77448174 -11 11 C-11.65213292 13.02463255 -11.65213292 13.02463255 -12 15 C-12.99 15 -13.98 15 -15 15 C-15.0825 15.598125 -15.165 16.19625 -15.25 16.8125 C-16.23817846 19.69468719 -17.38863124 20.47670156 -20 22 C-20.74894531 22.0928125 -21.49789062 22.185625 -22.26953125 22.28125 C-25.91277926 23.2402738 -28.19371623 25.35679596 -30.9375 27.8125 C-41.00371384 36.65777952 -41.00371384 36.65777952 -45.1875 37.375 C-47.38535038 37.9003746 -47.38535038 37.9003746 -48.5625 41 C-49.036875 41.99 -49.51125 42.98 -50 44 C-51.485 44.495 -51.485 44.495 -53 45 C-53.103125 44.360625 -53.20625 43.72125 -53.3125 43.0625 C-53.539375 42.381875 -53.76625 41.70125 -54 41 C-54.99 40.67 -55.98 40.34 -57 40 C-55.65227275 36.86200819 -54.34244469 35.21503367 -51.5625 33.25 C-50.85996094 32.74726563 -50.15742187 32.24453125 -49.43359375 31.7265625 C-48.63050781 31.15679687 -47.82742187 30.58703125 -47 30 C-46.04222656 29.28585938 -45.08445312 28.57171875 -44.09765625 27.8359375 C-36.25110424 22 -36.25110424 22 -34 22 C-34 21.34 -34 20.68 -34 20 C-32.35 19.67 -30.7 19.34 -29 19 C-29 18.34 -29 17.68 -29 17 C-26.55422877 15.16342087 -24.10590343 13.44175206 -21.5625 11.75 C-20.8312793 11.25781982 -20.10005859 10.76563965 -19.34667969 10.25854492 C-17.89244796 9.2804048 -16.43658367 8.30468698 -14.97900391 7.33154297 C-13.33004734 6.22206738 -11.69965124 5.08506836 -10.07421875 3.94140625 C-8.92373047 3.13509766 -8.92373047 3.13509766 -7.75 2.3125 C-7.10546875 1.85488281 -6.4609375 1.39726562 -5.796875 0.92578125 C-4 0 -4 0 0 0 Z " fill="#FFFFFF" transform="translate(152,181)"/>
<path d="M0 0 C0.80824219 0.11085937 1.61648437 0.22171875 2.44921875 0.3359375 C3.37154297 0.47902344 3.37154297 0.47902344 4.3125 0.625 C3.98233843 1.95912227 3.64783046 3.29216754 3.3125 4.625 C3.06757813 5.74390625 2.82265625 6.8628125 2.5703125 8.015625 C1.17599982 13.14002204 -0.22089617 17.92964413 -4.76757812 21.0546875 C-9.56021422 23.49967164 -14.57536078 25.20559684 -19.68164062 26.86791992 C-22.02581474 27.75269158 -23.7603449 29.04163387 -25.6875 30.625 C-27.9375 30.3125 -27.9375 30.3125 -29.6875 29.625 C-30 27.3125 -30 27.3125 -29.6875 24.625 C-27.05271806 22.53267316 -24.72560256 21.63620663 -21.5 20.6875 C-18.03396494 19.37810898 -18.18986233 18.86946334 -16.6875 15.625 C-15.23104349 13.2316578 -13.75668834 10.86104635 -12.25 8.5 C-11.85490234 7.86707031 -11.45980469 7.23414063 -11.05273438 6.58203125 C-7.89932726 1.63941977 -6.01192815 -0.87129393 0 0 Z " fill="#FFFFFF" transform="translate(182.6875,205.375)"/>
<path d="M0 0 C1.2065625 0.0309375 1.2065625 0.0309375 2.4375 0.0625 C2.4375 0.7225 2.4375 1.3825 2.4375 2.0625 C1.03970901 3.01708897 -0.36523003 3.96257377 -1.80078125 4.859375 C-3.64980849 6.12212531 -5.18286936 7.52964077 -6.8125 9.0625 C-12.12281824 13.71197864 -18.47947754 16.39018431 -25.5625 16.0625 C-25.2325 14.0825 -24.9025 12.1025 -24.5625 10.0625 C-23.9025 10.0625 -23.2425 10.0625 -22.5625 10.0625 C-22.5625 9.4025 -22.5625 8.7425 -22.5625 8.0625 C-21.51449219 7.89814453 -21.51449219 7.89814453 -20.4453125 7.73046875 C-19.08019531 7.49263672 -19.08019531 7.49263672 -17.6875 7.25 C-16.33011719 7.02376953 -16.33011719 7.02376953 -14.9453125 6.79296875 C-12.21837522 6.23198699 -12.21837522 6.23198699 -10.5625 3.0625 C-8.2484378 2.33174352 -5.91421131 1.66111742 -3.5625 1.0625 C-2.5625 0.0625 -2.5625 0.0625 0 0 Z " fill="#FFFFFF" transform="translate(193.5625,159.9375)"/>
<path d="M0 0 C2.72759128 1.40390727 3.36764224 2.39347587 4.390625 5.23046875 C3.730625 5.89046875 3.070625 6.55046875 2.390625 7.23046875 C-0.06036056 6.8351485 -2.24841779 6.01745449 -4.609375 5.23046875 C-4.609375 4.57046875 -4.609375 3.91046875 -4.609375 3.23046875 C-9.59052261 2.33641661 -14.5791674 1.75584599 -19.609375 1.23046875 C-19.609375 0.57046875 -19.609375 -0.08953125 -19.609375 -0.76953125 C-13.17060647 -5.88267097 -7.02706428 -2.35195457 0 0 Z " fill="#FFFFFF" transform="translate(318.609375,166.76953125)"/>
<path d="M0 0 C0.99 0 1.98 0 3 0 C2.75772594 4.11865895 2.4917158 6.40994104 -0.1875 9.625 C-1.115625 10.40875 -2.04375 11.1925 -3 12 C-3.51433594 12.47953125 -4.02867188 12.9590625 -4.55859375 13.453125 C-6.125 14.875 -6.125 14.875 -9 17 C-9.99 16.67 -10.98 16.34 -12 16 C-11.67 15.34 -11.34 14.68 -11 14 C-11.66 14 -12.32 14 -13 14 C-11.60364382 10.62547256 -10.1393647 8.88361882 -7 7 C-4.25 6.3125 -4.25 6.3125 -2 6 C-1.855625 5.195625 -1.71125 4.39125 -1.5625 3.5625 C-1 1 -1 1 0 0 Z " fill="#FFFFFF" transform="translate(91,223)"/>
<path d="M0 0 C0.66 0.33 1.32 0.66 2 1 C1.47731534 3.76276177 0.89130413 6.3260876 0 9 C0.31802943 10.66965451 0.64984951 12.33678518 1 14 C0 15 0 15 -2.375 15.25 C-5 15 -5 15 -6.8125 13.8125 C-8.48186565 11.26452085 -8.57085094 9.99696745 -8 7 C-5.52552136 4.12425455 -3.1557398 2.10382653 0 0 Z " fill="#FFFFFF" transform="translate(133,240)"/>
<path d="M0 0 C1.65 0.33 3.3 0.66 5 1 C5 1.99 5 2.98 5 4 C7.31 4.66 9.62 5.32 12 6 C12 7.32 12 8.64 12 10 C11.360625 10.12375 10.72125 10.2475 10.0625 10.375 C9.381875 10.58125 8.70125 10.7875 8 11 C7.67 11.66 7.34 12.32 7 13 C4 12 4 12 2.83203125 10.29296875 C2.49558594 9.59816406 2.15914063 8.90335937 1.8125 8.1875 C1.46832031 7.50042969 1.12414062 6.81335938 0.76953125 6.10546875 C0 4 0 4 0 0 Z " fill="#FFFFFF" transform="translate(477,348)"/>
<path d="M0 0 C0.66 0.33 1.32 0.66 2 1 C2.4375 3.0625 2.4375 3.0625 2 6 C0.00387546 8.77991355 -2.18853588 11.04243097 -5 13 C-7.9375 12.9375 -7.9375 12.9375 -10 12 C-9.45991831 8.17723432 -7.93135626 6.72563435 -5 4.3125 C-4.278125 3.71050781 -3.55625 3.10851562 -2.8125 2.48828125 C-2.214375 1.99714844 -1.61625 1.50601563 -1 1 C-0.67 0.67 -0.34 0.34 0 0 Z " fill="#FFFFFF" transform="translate(72,240)"/>
</svg>
