<?xml version="1.0" encoding="UTF-8"?>
<svg version="1.1" xmlns="http://www.w3.org/2000/svg" width="512" height="512">
<path d="M0 0 C0.77274765 -0.00983917 1.5454953 -0.01967834 2.34165955 -0.02981567 C48.90395803 -0.50056911 87.74351637 12.28470703 121.98046875 44.58203125 C131.31226883 53.76527879 136.71589377 64.68561629 136.97241211 77.80371094 C137.08620972 94.69071398 133.559474 105.78022478 122.0546875 118.42578125 C111.45766314 128.58985325 99.10551069 131.66621242 84.97460938 131.60180664 C72.3203954 131.32655547 60.85407418 127.10191295 51.60546875 118.25390625 C50.32223579 116.91080644 49.03968272 115.56705673 47.7578125 114.22265625 C38.29172155 105.183607 25.95942677 100.77371352 13.03515625 100.140625 C-3.86273715 100.63241468 -21.77115976 108.48313483 -33.40625 120.8125 C-43.33554401 133.39636037 -48.15272371 147.46455281 -47.10546875 163.53515625 C-45.07766246 179.68035683 -37.63914379 191.39886917 -25.3203125 201.67578125 C-11.89703746 211.89349807 4.08974755 215.69296564 20.6796875 214.23828125 C33.21085128 211.80357654 42.10577913 205.92010293 51.21240234 197.28491211 C62.21255308 186.98354869 74.70150522 182.82248423 89.65625 183.02734375 C103.17182415 183.97029078 115.38203535 189.29058139 124.6796875 199.23828125 C136.01792402 213.01609735 137.8812044 226.94046528 136.6796875 244.23828125 C133.11744801 264.36708028 116.39300803 277.30015341 100.8046875 288.61328125 C85.62971873 298.87342562 69.3626597 306.47850377 51.6796875 311.23828125 C50.87144531 311.46128906 50.06320313 311.68429687 49.23046875 311.9140625 C11.04567883 321.93680124 -33.20188746 315.58271115 -67.3203125 296.23828125 C-67.98369629 295.8633252 -68.64708008 295.48836914 -69.33056641 295.10205078 C-79.61944041 289.19068766 -88.64054143 282.3107214 -97.3203125 274.23828125 C-97.8678418 273.73458008 -98.41537109 273.23087891 -98.97949219 272.71191406 C-126.69974093 246.96580767 -146.06227065 210.17227643 -147.52734375 171.93408203 C-147.62808993 168.07675491 -147.64671099 164.2212883 -147.63598633 160.36279297 C-147.63283406 158.00440809 -147.65636511 155.64729304 -147.68164062 153.2890625 C-147.73967934 139.35759724 -145.97745343 125.66315006 -142.1328125 112.23828125 C-141.9263208 111.5102832 -141.7198291 110.78228516 -141.50708008 110.03222656 C-133.9498767 84.67306729 -119.16359685 62.61048349 -100.3203125 44.23828125 C-99.76988281 43.63113281 -99.21945313 43.02398437 -98.65234375 42.3984375 C-74.3486895 16.40245916 -35.43165416 0.37312909 0 0 Z " fill="#FFFFFF" transform="translate(147.3203125,97.76171875)"/>
<path d="M0 0 C0.71856171 0.00304138 1.43712341 0.00608276 2.17745972 0.00921631 C13.73625521 0.08132958 24.67784332 0.93682294 35.75 4.4375 C36.44287109 4.65180664 37.13574219 4.86611328 37.84960938 5.08691406 C66.77767658 14.31327533 91.79570926 35.58654719 106.03100586 62.35229492 C114.78536172 79.51912056 119.31693184 97.5461912 119.14111328 116.78930664 C119.12502879 118.87127396 119.14107636 120.95129374 119.16015625 123.03320312 C119.18233186 136.10433546 117.30701481 148.81535145 112.5625 161.0625 C112.26206787 161.85390381 111.96163574 162.64530762 111.65209961 163.46069336 C107.12441852 174.99830108 100.90374289 185.07694127 92.75 194.4375 C91.68458984 195.68466797 91.68458984 195.68466797 90.59765625 196.95703125 C71.20166995 219.1482212 46.00143755 233.26255665 16.75 237.4375 C12.19354182 237.64990729 7.63783868 237.66556713 3.07714844 237.67773438 C0.91560557 237.68731993 -1.24493455 237.71833237 -3.40625 237.75 C-33.6234026 237.98003438 -60.47227276 226.36905324 -82.3125 205.75 C-90.63594128 196.96414532 -93.10916187 187.36648966 -93.25 175.4375 C-92.07779432 160.3507787 -82.77342286 151.21933585 -72.5859375 141.14453125 C-71.22857682 139.78634022 -69.87203382 138.42733158 -68.51626587 137.06755066 C-65.68133612 134.22977378 -62.83789036 131.40091008 -59.98779297 128.57836914 C-56.3582143 124.98282094 -52.74898712 121.36763299 -49.14577293 117.74568653 C-46.34944826 114.93872624 -43.54335485 112.14169651 -40.73424149 109.3475399 C-39.40078771 108.01922363 -38.07008548 106.6881386 -36.74235153 105.354105 C-16.71541922 85.26787106 -16.71541922 85.26787106 -1.6875 85.125 C8.44491706 85.11466549 16.55126491 87.35361827 24.03125 94.51171875 C31.06144135 102.3887286 33.61057004 110.98025318 33.75 121.4375 C32.96630785 131.85770301 29.31187628 140.59535459 21.59765625 147.69921875 C18.39552506 150.71179461 15.60352811 154.09826497 12.75 157.4375 C14.68621919 158.69140909 14.68621919 158.69140909 16.6328125 157.87109375 C28.43316916 152.62877502 35.99332656 145.36716183 41.1875 133.375 C44.87345516 122.10969981 43.92112036 109.03905944 38.75 98.4375 C32.33480943 87.02008488 23.21253815 80.9103593 10.890625 76.8203125 C-0.10021919 74.85479657 -12.14174646 75.84214787 -21.63671875 81.98046875 C-24.74961032 84.35452393 -27.66233451 86.90820532 -30.5703125 89.52734375 C-38.98351282 96.7908302 -48.36805093 100.2583073 -59.5625 99.75390625 C-71.35279154 98.36580507 -80.17607357 93.6917682 -87.74609375 84.5234375 C-94.81577696 74.71769508 -95.2328157 64.17772891 -94.25 52.4375 C-93.43376055 48.70611967 -92.20219653 45.70957784 -90.25 42.4375 C-89.86070312 41.78136719 -89.47140625 41.12523437 -89.0703125 40.44921875 C-74.47913639 18.90780786 -46.90260881 6.40017655 -22.33226013 1.42486572 C-14.9014937 0.0497369 -7.53686735 -0.06812369 0 0 Z " fill="#FFFFFF" transform="translate(393.25,175.5625)"/>
</svg>
