<?xml version="1.0" encoding="UTF-8"?>
<svg version="1.1" xmlns="http://www.w3.org/2000/svg" width="512" height="512">
<path d="M0 0 C0.77275644 -0.00320648 1.54551288 -0.00641296 2.34168619 -0.0097166 C4.92240229 -0.01799577 7.50288505 -0.01209965 10.08360481 -0.00622082 C11.95604324 -0.00924245 13.82848044 -0.01313199 15.70091546 -0.01781338 C20.83987032 -0.02810058 25.97875547 -0.02590971 31.11771607 -0.02163279 C36.66247515 -0.01916689 42.20721738 -0.02817804 47.75197029 -0.03567028 C58.61220709 -0.048423 69.47241918 -0.05021026 80.33266221 -0.04787002 C89.1596203 -0.04608737 97.98657087 -0.04783536 106.81352806 -0.05209446 C108.06957092 -0.05268965 109.32561377 -0.05328484 110.61971853 -0.05389806 C113.17132695 -0.05510981 115.72293536 -0.05632394 118.27454378 -0.05754044 C135.40801039 -0.06532811 152.54147418 -0.06924646 169.67494202 -0.06522369 C170.34478026 -0.06506732 171.01461851 -0.06491094 171.70475488 -0.06474983 C175.09966202 -0.06394406 178.49456916 -0.06309829 181.88947628 -0.06223653 C182.5637002 -0.06206544 183.23792412 -0.06189435 183.93257906 -0.06171808 C185.29602302 -0.06137142 186.65946698 -0.06102289 188.02291093 -0.06067249 C209.23815582 -0.05531528 230.45335914 -0.06324631 251.66859627 -0.08170605 C275.51132883 -0.10242778 299.35403583 -0.11311736 323.19678032 -0.10913056 C335.8183807 -0.10721734 348.43994321 -0.10971793 361.06153679 -0.1238451 C371.80619173 -0.13574971 382.55078549 -0.13717408 393.29544125 -0.12505493 C398.77714678 -0.11915987 404.25874035 -0.11808426 409.74043846 -0.13005733 C414.76029489 -0.14089423 419.77994559 -0.1378388 424.7997923 -0.12379565 C426.61398548 -0.12114269 428.42819466 -0.12353402 430.24237214 -0.13153151 C441.88478389 -0.17928533 452.32552956 -0.13425102 461.95326424 7.25447559 C463.19076424 8.05885059 463.19076424 8.05885059 464.45326424 8.87947559 C470.00289823 14.15162789 474.54837507 21.96238064 475.13960528 29.69004214 C475.21755312 32.75727813 475.229322 35.81876517 475.22068977 38.88699818 C475.22522089 40.06592127 475.229752 41.24484435 475.23442042 42.45949239 C475.24487942 45.72365803 475.24639217 48.98768488 475.24403167 52.25186193 C475.24362303 55.77549492 475.25466712 59.2990952 475.2641468 62.8227129 C475.2807475 69.72311006 475.28625593 76.62347305 475.28737156 83.52388851 C475.28832247 89.13389472 475.29243488 94.74388967 475.29877281 100.35389233 C475.3163826 116.26540389 475.32561208 132.1768885 475.32411186 148.08840988 C475.323992 149.37463707 475.323992 149.37463707 475.32386971 150.68684864 C475.32378794 151.54538251 475.32370618 152.40391637 475.32362194 153.28846642 C475.32280909 167.20124961 475.34194716 181.11392452 475.37014644 195.02667639 C475.39888443 209.31818435 475.41268623 223.60963952 475.41095889 237.90117711 C475.41029531 245.92238958 475.41577358 253.94348853 475.43731499 261.96467495 C475.45553884 268.79420437 475.45986429 275.62356882 475.44629614 282.45311204 C475.43977251 285.93581749 475.43962691 289.41820655 475.45700264 292.90088177 C475.47242794 296.68120445 475.46316334 300.46069739 475.44774055 304.24100208 C475.45802768 305.33517785 475.46831481 306.42935362 475.47891366 307.55668622 C475.38775914 317.6747188 471.93692605 325.88196847 464.95326424 333.25447559 C453.12495871 343.28923767 439.97580422 342.66847693 425.28920174 342.54744434 C423.28567512 342.54184121 421.28214436 342.53757451 419.27861214 342.53458118 C414.03430291 342.52318888 408.79024743 342.49377058 403.54603767 342.46046925 C398.18311685 342.42964669 392.82015457 342.41604992 387.45717049 342.40095997 C376.95575761 342.36889505 366.45453212 342.31776737 355.95326424 342.25447559 C354.15896137 338.52657177 352.36828728 334.79693611 350.57826424 331.06697559 C350.07037361 330.01187794 349.56248299 328.95678028 349.03920174 327.86970997 C348.54935799 326.84812794 348.05951424 325.82654591 347.55482674 324.77400684 C346.87927742 323.36792164 346.87927742 323.36792164 346.19008064 321.93343067 C344.95326424 319.25447559 344.95326424 319.25447559 344.35316658 316.59700489 C342.36809177 313.27527611 340.10989775 312.98242528 336.51369035 311.86535907 C332.36449888 310.8754174 328.35243552 310.84093262 324.10373116 310.87352467 C323.15289058 310.86884469 322.20205 310.86416472 321.22239608 310.85934293 C318.05807779 310.84744223 314.89419654 310.85683086 311.72987556 310.866292 C309.45259538 310.8622242 307.17531717 310.85688115 304.89804268 310.85036182 C298.72889861 310.83670964 292.55990539 310.84197768 286.39075875 310.85149908 C279.93133979 310.85910371 273.47193359 310.85204809 267.01251411 310.84734058 C255.47514787 310.84153744 243.93785867 310.85084693 232.40050449 310.8661186 C221.94450575 310.87953034 211.4886069 310.87718432 201.03260994 310.86336231 C188.87752064 310.84730166 176.72250968 310.84133424 164.56740779 310.8501991 C158.13758456 310.85487659 151.70783013 310.85549806 145.27801132 310.84558964 C139.23607271 310.83692872 133.19432298 310.84292609 127.15240479 310.86027241 C124.93442918 310.86424136 122.7164377 310.86309624 120.4984684 310.85648441 C117.47271261 310.84829554 114.44756345 310.85855863 111.42184639 310.87352467 C110.54276251 310.8668325 109.66367863 310.86014034 108.75795585 310.85324538 C103.10497068 310.90753917 98.54919688 311.63931382 94.37123299 315.84822559 C90.81263785 321.36122377 88.02996672 327.16692666 85.25404549 333.09822559 C84.83916878 333.97962208 84.42429207 334.86101856 83.99684334 335.76912403 C82.9801387 337.92989588 81.96567989 340.09169172 80.95326424 342.25447559 C69.52185197 342.32416327 58.09049073 342.37738198 46.65890884 342.40991211 C41.35004962 342.42552948 36.04133635 342.44669573 30.73256111 342.48079395 C25.60377135 342.51352781 20.47512149 342.53135812 15.34623528 342.53910732 C13.39513512 342.54462572 11.44404211 342.55540152 9.49300194 342.57166576 C-5.66363589 342.69292335 -17.37760915 342.11757148 -29.04673576 331.25447559 C-35.79553837 322.51201474 -37.34468259 314.47004706 -37.3141613 303.666646 C-37.31869241 302.49251203 -37.32322353 301.31837806 -37.32789195 300.10866427 C-37.33835072 296.85783064 -37.33986373 293.60713638 -37.33750319 290.35629129 C-37.33709454 286.84695418 -37.34813883 283.33764989 -37.35761833 279.82832813 C-37.37421927 272.95566943 -37.37972748 266.08304503 -37.38084309 259.21036795 C-37.38179406 253.62230014 -37.38590682 248.03424363 -37.39224434 242.44617939 C-37.40985484 226.59507099 -37.41908359 210.74398966 -37.41758339 194.89287141 C-37.41750348 194.03863634 -37.41742357 193.18440126 -37.41734123 192.30428028 C-37.41725947 191.44899934 -37.41717771 190.5937184 -37.41709347 189.71251985 C-37.41628079 175.8553775 -37.4354145 161.9983439 -37.46361797 148.141233 C-37.49236368 133.90509079 -37.50615731 119.66900158 -37.50443041 105.43282962 C-37.50376706 97.44344315 -37.50923528 89.45417066 -37.53078651 81.46481037 C-37.54902062 74.66165976 -37.55332748 67.85867481 -37.53976767 61.05551031 C-37.53324896 57.58685736 -37.53308049 54.11852199 -37.55047417 50.64989948 C-37.56591904 46.88306342 -37.55662188 43.11705804 -37.54121208 39.35023975 C-37.55149921 38.26286778 -37.56178633 37.1754958 -37.57238519 36.05517316 C-37.4738528 25.13419496 -33.83587844 16.01394534 -26.04673576 8.25447559 C-18.04872959 2.16137791 -9.96659721 -0.06219745 0 0 Z M48.23842049 98.62166309 C33.86037993 115.18713204 29.74968353 134.18419615 30.75062752 155.5459795 C32.19203623 174.81223038 42.73393558 189.77349762 56.38685799 202.52791309 C65.70333938 210.51346858 76.94564061 215.81542704 88.95326424 218.25447559 C89.78613708 218.42705261 90.61900993 218.59962963 91.47712135 218.77743626 C96.02608736 219.40170166 100.48529529 219.39911952 105.07155037 219.39491749 C106.08768709 219.39788861 107.1038238 219.40085973 108.15075254 219.40392089 C111.55433251 219.4125896 114.95787723 219.41411461 118.36146736 219.41560841 C120.80266075 219.42023795 123.24385342 219.4252628 125.68504524 219.43065357 C132.31764901 219.44376832 138.95024547 219.4502581 145.58285904 219.45466423 C149.72953735 219.45743164 153.87621335 219.46166997 158.02289009 219.4661684 C169.51810497 219.47835925 181.013318 219.48865799 192.5085392 219.4920435 C193.24370942 219.49226306 193.97887963 219.49248263 194.73632774 219.49270885 C195.4731997 219.49292712 196.21007167 219.4931454 196.96927309 219.49337029 C198.4623092 219.49381375 199.95534531 219.49426031 201.44838142 219.49470997 C202.55926393 219.49504211 202.55926393 219.49504211 203.69258851 219.49538097 C215.67818388 219.4993244 227.66371829 219.51676533 239.64929014 219.54006949 C251.97346535 219.56383722 264.29761005 219.57624786 276.62180853 219.57741141 C283.53372425 219.57832529 290.44556057 219.58400443 297.3574543 219.60223103 C303.86471909 219.61933079 310.37187381 219.62084425 316.87915611 219.61209202 C319.25986955 219.61132411 321.64059121 219.61563165 324.0212841 219.62555027 C349.66804768 219.72608441 369.95454379 215.73405783 389.20326424 197.44197559 C396.77436937 189.59490308 402.04258705 180.39645158 405.95326424 170.25447559 C406.2742408 169.42431934 406.59521736 168.59416309 406.92592049 167.73885059 C412.39398738 150.34276801 410.09636469 130.21138722 402.37904549 113.93416309 C394.70952238 99.95382028 384.41943806 89.37082461 370.32826424 82.00447559 C369.73843758 81.68712452 369.14861092 81.36977345 368.54091072 81.04280567 C353.46209865 73.5789212 337.72917695 73.6800457 321.31801033 73.75276661 C318.86548745 73.74897674 316.41296672 73.74347122 313.96045113 73.73639393 C308.0275656 73.72394739 302.09487565 73.72994218 296.16201256 73.74506951 C289.23507552 73.76204999 282.30819022 73.75870438 275.38123877 73.75497543 C263.01295159 73.74911545 250.64476666 73.76319608 238.27650642 73.78792286 C226.30739195 73.81184855 214.33841396 73.81892066 202.36927986 73.80843067 C189.29518188 73.79699259 176.22114681 73.79512618 163.14704955 73.80952877 C161.75010404 73.81105441 160.35315852 73.81257477 158.956213 73.81408978 C158.26911109 73.81484759 157.58200919 73.8156054 156.87408601 73.81638618 C152.05892024 73.82110591 147.24378279 73.81929416 142.42861748 73.81502438 C135.93596544 73.80955137 129.44345936 73.82045115 122.95084 73.84197903 C120.57657885 73.84751541 118.20229957 73.84804137 115.82803726 73.84302616 C88.91319627 73.79332714 67.64178799 78.5110413 48.23842049 98.62166309 Z " fill="#FFFFFF" transform="translate(37.046735763549805,84.7455244064331)"/>
<path d="M0 0 C7.54236922 5.96478203 12.21442359 13.77467968 13.8125 23.25 C14.65456105 33.79195655 12.4244904 42.34822213 6.8125 51.25 C3.47607068 50.55782702 0.68313614 49.29964557 -2.375 47.8125 C-15.19035574 41.94727105 -27.79901093 41.79948156 -41.1875 46.25 C-43.59301863 47.31792083 -45.93417848 48.42576395 -48.25 49.67578125 C-50.1875 50.25 -50.1875 50.25 -52.30078125 49.65625 C-54.73587346 47.84127444 -55.333306 46.27345877 -56.375 43.4375 C-56.69855469 42.58542969 -57.02210937 41.73335937 -57.35546875 40.85546875 C-60.6783694 30.44995357 -59.3808379 21.27917016 -55.1875 11.25 C-50.13380119 2.37586575 -42.16086596 -3.88395482 -32.375 -6.75 C-20.29699334 -9.24943325 -10.00301727 -6.92661762 0 0 Z " fill="#FFFFFF" transform="translate(180.1875,210.75)"/>
<path d="M0 0 C7.21756473 5.93754953 12.67307803 13.79909952 14.37109375 23.15625 C15.08733775 31.71595293 14.51551941 39.49417911 10.37109375 47.15625 C8.23046875 49.46484375 8.23046875 49.46484375 6.37109375 51.15625 C5.53707031 50.81851563 4.70304687 50.48078125 3.84375 50.1328125 C-12.20161943 43.77347937 -25.0008247 42.00076142 -41.62890625 48.15625 C-43.02899612 48.90264766 -44.4112088 49.68595439 -45.75390625 50.53125 C-46.70265625 51.0675 -47.65140625 51.60375 -48.62890625 52.15625 C-51.05408641 51.35557029 -52.30857731 50.59277669 -53.82421875 48.52734375 C-59.25794643 37.22610342 -59.89944136 27.25734015 -55.9453125 15.33984375 C-52.34589207 6.63501393 -45.89099207 0.53586569 -37.62890625 -3.84375 C-25.09288081 -8.8238149 -11.10373035 -7.78746022 0 0 Z " fill="#FFFFFF" transform="translate(377.62890625,209.84375)"/>
</svg>
