<?xml version="1.0" encoding="UTF-8"?>
<svg version="1.1" xmlns="http://www.w3.org/2000/svg" width="506" height="566">
<path d="M0 0 C6.85575583 4.87601886 11.47935093 11.2316929 15.79296875 18.3671875 C17.51387771 20.59098942 18.56070723 21.4188509 21.25 22.25 C26.64446158 22.00304325 30.84882576 19.6440806 35.5625 17.25 C65.90876523 2.43987528 100.36520638 -6.77960827 134.26171875 -6.953125 C135.64568848 -6.96371445 135.64568848 -6.96371445 137.05761719 -6.97451782 C175.42016947 -7.20148416 175.42016947 -7.20148416 192.25 -3.75 C193.78696533 -3.44400879 193.78696533 -3.44400879 195.35498047 -3.13183594 C237.11362744 5.36459246 275.0122392 22.57874899 308.25 49.25 C309.23871094 50.03246094 310.22742188 50.81492188 311.24609375 51.62109375 C325.93910939 63.61883009 339.93680999 77.22586911 351.07177734 92.62304688 C352.26400127 94.2693337 353.48313422 95.89278879 354.70703125 97.515625 C369.95384658 117.98786059 381.61480108 140.6924978 390.375 164.625 C390.75358154 165.65262451 391.13216309 166.68024902 391.5222168 167.73901367 C396.58770869 182.10245015 396.58770869 182.10245015 394.1875 187.75 C391.4926242 189.83635546 389.64811081 190.18203778 386.25 190.25 C382.18340933 188.20662221 379.19907674 185.45413191 375.9375 182.3125 C365.18062119 172.21590738 353.12190115 163.45176305 340.25 156.25 C339.44208008 155.79625 338.63416016 155.3425 337.80175781 154.875 C305.32184657 136.83191006 270.12546366 127.13301117 232.875 126.9375 C231.83980225 126.93186035 230.80460449 126.9262207 229.73803711 126.92041016 C224.4512241 126.63725072 224.4512241 126.63725072 220.25 129.25 C220.25 132.98297288 221.75118672 135.02466704 224 137.8125 C231.07466416 146.79647112 234.21942676 157.91116913 233.25 169.25 C230.86512166 182.55972544 225.74387747 192.71519427 214.828125 201.11328125 C204.06949336 208.01730761 192.06939003 209.91665743 179.48828125 207.78125 C168.45551469 204.87150937 158.75833503 198.11268777 152.4921875 188.57421875 C145.67859139 176.67511251 145.17031477 165.37981278 146.8125 151.875 C146.956875 150.67875 147.10125 149.4825 147.25 148.25 C146.92 147.92 146.59 147.59 146.25 147.25 C139.90993968 147.54121012 135.33038312 149.97028556 129.875 153.0625 C128.56486938 153.79629883 128.56486938 153.79629883 127.22827148 154.54492188 C113.48320234 162.3899908 101.08613898 171.78502492 89.25 182.25 C88.33347656 183.0440625 87.41695312 183.838125 86.47265625 184.65625 C81.28469468 189.21229445 76.66274785 193.94903309 72.25 199.25 C71.14591797 200.50490234 71.14591797 200.50490234 70.01953125 201.78515625 C34.00086798 243.41563033 15.80892244 299.55248723 19.45654297 354.35302734 C23.14298338 399.87952115 39.60499051 443.32766819 69.6484375 478.01953125 C75.06226799 484.35466272 75.06226799 484.35466272 76.0625 489.125 C75.25 492.25 75.25 492.25 73.25 494.75 C68.6382881 497.05585595 64.52972004 495.99644496 59.796875 494.44677734 C57.08855863 493.41525761 54.41826785 492.31855766 51.75 491.1875 C50.29859619 490.58131836 50.29859619 490.58131836 48.81787109 489.96289062 C40.43202452 486.4159398 32.28021214 482.5366342 24.25 478.25 C23.60401855 477.91033203 22.95803711 477.57066406 22.29248047 477.22070312 C7.15528524 469.21807075 -6.78685745 459.42941413 -19.75 448.25 C-20.48347656 447.62738281 -21.21695313 447.00476563 -21.97265625 446.36328125 C-35.26524636 434.75791527 -48.16424474 422.19910887 -58.55126953 407.89746094 C-59.7635225 406.23141552 -61.00260363 404.58813285 -62.24609375 402.9453125 C-69.26073289 393.54921907 -75.11995039 383.52314078 -80.75 373.25 C-81.29503174 372.25709961 -81.29503174 372.25709961 -81.85107422 371.24414062 C-99.59018499 338.46627198 -110.66249983 300.53880894 -110.98828125 263.16015625 C-111.00290405 261.75888992 -111.00290405 261.75888992 -111.01782227 260.32931519 C-111.18676995 239.95105633 -111.01274756 220.26683337 -106.75 200.25 C-106.56276367 199.32622559 -106.37552734 198.40245117 -106.18261719 197.45068359 C-98.13168902 158.2736713 -80.83266344 120.71976927 -55.31445312 89.83837891 C-50.27687959 83.71266184 -50.27687959 83.71266184 -48.76953125 76.16796875 C-49.98590148 72.54793464 -51.5834883 71.0752248 -54.4375 68.5625 C-63.49565257 59.97086172 -67.8979635 49.82593523 -68.70703125 37.4609375 C-68.87556115 24.86715757 -64.7195323 14.1051408 -56.125 4.875 C-40.55098523 -9.77873208 -17.90650992 -10.95950273 0 0 Z M280.75 86.75 C275.87044113 92.99129623 275.46717009 98.44177342 276.25 106.25 C278.01099684 112.95962086 282.41967622 116.79011587 288.25 120.25 C294.11672532 122.20557511 300.84505704 122.25552037 306.5625 119.75 C311.75289543 116.77032855 315.37470493 111.87588522 317.25 106.25 C317.97573527 99.25183846 317.94829807 93.64340913 313.6640625 87.86328125 C309.22096688 82.79422465 303.60112265 79.56328083 296.80859375 79.07421875 C290.57524139 79.50246433 284.8731379 82.03928962 280.75 86.75 Z " fill="#FFFFFF" transform="translate(110.75,6.75)"/>
<path d="M0 0 C2 2 2 2 2.37890625 4.83203125 C1.90518614 8.7927221 0.7523276 9.91966452 -2.0625 12.6875 C-17.17163972 28.60182898 -23.55941191 49.27505856 -23.3515625 70.94335938 C-22.69533588 93.49203523 -13.75031245 112.98227986 2 129 C2.68707031 129.69996094 3.37414062 130.39992188 4.08203125 131.12109375 C19.63283296 145.92176402 41.59548932 153.42228108 62.79467773 153.30078125 C83.44943742 152.752663 103.34782113 145.14087071 118.5 130.9375 C121.0768179 128.55421992 121.77635493 128.04141575 125.375 127.375 C128 128 128 128 130 131 C131.15067284 161.68460898 117.40679996 192.78741867 97.375 215.375 C95.92433629 216.92388573 94.46650297 218.46610259 93 220 C92.401875 220.66128906 91.80375 221.32257813 91.1875 222.00390625 C75.83391657 238.38326789 54.47326176 249.25377288 33 255 C31.11087891 255.50853516 31.11087891 255.50853516 29.18359375 256.02734375 C8.7416903 260.50352241 -14.9312332 259.82900972 -35 254 C-35.72783691 253.79101074 -36.45567383 253.58202148 -37.20556641 253.36669922 C-58.07776196 247.15113351 -75.22691261 235.86103812 -91 221 C-91.67546875 220.38898438 -92.3509375 219.77796875 -93.046875 219.1484375 C-112.44528058 200.91393626 -124.74903518 173.17659985 -128 147 C-128.10957031 146.13890625 -128.21914062 145.2778125 -128.33203125 144.390625 C-130.53869387 124.03048458 -128.34759825 103.15781805 -121 84 C-120.75266113 83.34870117 -120.50532227 82.69740234 -120.25048828 82.02636719 C-107.61849674 49.49879073 -82.77929964 24.25516761 -51 10 C-35.50078655 3.72162834 -16.88186832 -1.88285488 0 0 Z " fill="#FFFFFF" transform="translate(298,254)"/>
</svg>
