<?xml version="1.0" encoding="UTF-8"?>
<svg version="1.1" xmlns="http://www.w3.org/2000/svg" width="512" height="512">
<path d="M0 0 C1.94902869 -0.00874829 1.94902869 -0.00874829 3.93743169 -0.01767331 C5.37238956 -0.01404041 6.80734695 -0.01021605 8.24230385 -0.00622082 C9.77208347 -0.00924199 11.30186158 -0.01313131 12.83163702 -0.01781338 C17.03264594 -0.02810651 21.23356963 -0.02590822 25.43458557 -0.02163279 C29.9663822 -0.01916795 34.49815819 -0.02817673 39.02994728 -0.03567028 C47.90722607 -0.04842611 56.78447462 -0.05020986 65.66176103 -0.04787002 C72.8769424 -0.04608766 80.09211458 -0.04783473 87.30729485 -0.05209446 C88.33383114 -0.05268965 89.36036744 -0.05328484 90.4180109 -0.05389806 C92.50336285 -0.0551098 94.58871479 -0.05632394 96.67406674 -0.05754044 C116.23506142 -0.06841941 135.79603887 -0.06625181 155.35703452 -0.06015559 C173.25384877 -0.05498629 191.1506086 -0.06624159 209.04741208 -0.08525381 C227.42164745 -0.10462366 245.79585707 -0.1128897 264.17010272 -0.10913056 C274.48671295 -0.1072172 284.80327686 -0.10971923 295.11987877 -0.1238451 C303.9026357 -0.135749 312.68531779 -0.13717493 321.46807574 -0.12505493 C325.9490468 -0.11915925 330.42988089 -0.11808585 334.9108429 -0.13005733 C339.01411438 -0.14089236 343.11713415 -0.13784122 347.22039373 -0.12379565 C348.70352309 -0.12114215 350.18667203 -0.12353576 351.66978221 -0.13153151 C362.54479919 -0.18608411 370.36475057 0.31387623 378.49001503 8.25447559 C383.14284519 14.19975858 385.01570091 20.36388096 384.79860878 27.85994434 C383.89530587 34.86911758 380.94100389 41.00166758 375.60254562 45.67105365 C368.09187479 51.30058682 359.94310788 51.83517655 350.86034584 51.77345753 C349.62265233 51.78095878 348.38495882 51.78846003 347.10975945 51.79618859 C343.70018419 51.81289255 340.2914669 51.81192799 336.88191891 51.80328107 C333.1955784 51.79831525 329.50934034 51.81644706 325.8230381 51.83170033 C319.44491496 51.8549649 313.06690536 51.86376298 306.68874168 51.86259174 C297.46714184 51.86091949 288.24569296 51.88128784 279.02413346 51.90694705 C264.06094509 51.9479879 249.09778395 51.97133075 234.13454628 51.9834795 C219.60359519 51.99531532 205.07269533 52.01552619 190.54177284 52.04695606 C189.64531441 52.04889216 188.74885597 52.05082827 187.82523213 52.05282304 C183.32773272 52.06258791 178.83023369 52.07251696 174.33273482 52.08252764 C137.05185206 52.16529636 99.77097159 52.21931577 62.49001503 52.25447559 C63.24534523 52.99870274 64.00067543 53.74292988 64.77889442 54.50970936 C71.913453 61.54268244 79.03459917 68.58899352 86.14300346 75.64840317 C89.79749021 79.27685402 93.45645611 82.90053047 97.1262455 86.5135088 C100.67104747 90.00377858 104.20330993 93.50630481 107.72740364 97.01747799 C109.07056309 98.35143572 110.41809862 99.68100279 111.77014351 101.00595379 C113.67081982 102.87005991 115.55499086 104.74951802 117.43630409 106.6331377 C118.27032501 107.44019405 118.27032501 107.44019405 119.12119484 108.26355457 C123.91022805 113.11603993 126.89517466 118.68543337 128.02126503 125.44197559 C127.92345918 134.24450189 126.23857792 140.59062621 120.17751503 147.12947559 C113.24233669 153.39585267 107.45465965 153.60747907 98.30642128 153.75056934 C88.34813178 152.45609364 82.49438437 145.83528779 75.73122597 139.01326466 C74.67333374 137.96080043 73.61459418 136.90918732 72.55507851 135.85835743 C69.69475673 133.01619117 66.84713707 130.16161392 64.00224781 127.30401039 C61.01526257 124.30685713 58.01848319 121.31952198 55.02327919 118.33058643 C49.99618639 113.31075898 44.97755892 108.28258404 39.96364784 103.24959278 C34.17708925 97.4412677 28.37626205 91.64749264 22.56781363 85.8610642 C17.5700001 80.88143634 12.58006605 75.89401343 7.59656549 70.90006137 C4.6250109 67.92228929 1.65086415 64.9472414 -1.33042717 61.97921467 C-4.133598 59.18764783 -6.9267093 56.38638225 -9.71254539 53.57751942 C-10.73298224 52.55181976 -11.75678962 51.52945997 -12.78428459 50.51083088 C-24.75407223 38.63479566 -24.75407223 38.63479566 -26.04123497 29.47322559 C-25.96628806 20.55454304 -25.65094883 14.64688318 -19.45139122 8.07088184 C-13.38492724 2.33178186 -8.46597774 0.00654958 0 0 Z " fill="#FFFFFF" transform="translate(25.509984970092773,281.7455244064331)"/>
<path d="M0 0 C3.78436763 3.21381518 7.26583544 6.71785558 10.75878906 10.24121094 C11.81668129 11.29367517 12.87542085 12.34528828 13.93493652 13.39611816 C16.7952583 16.23828443 19.64287796 19.09286167 22.48776722 21.9504652 C25.47475246 24.94761846 28.47153184 27.93495362 31.46673584 30.92388916 C36.49382864 35.94371661 41.51245611 40.97189155 46.52636719 46.00488281 C52.31292578 51.8132079 58.11375298 57.60698295 63.9222014 63.3934114 C68.92001493 68.37303925 73.90994898 73.36046217 78.89344954 78.35441422 C81.86500413 81.3321863 84.83915088 84.3072342 87.8204422 87.27526093 C90.62361303 90.06682776 93.41672433 92.86809334 96.20256042 95.67695618 C97.22299727 96.70265584 98.24680465 97.72501562 99.27429962 98.74364471 C111.24408726 110.61967993 111.24408726 110.61967993 112.53125 119.78125 C112.45630309 128.69993255 112.14096386 134.60759241 105.94140625 141.18359375 C99.87494227 146.92269374 94.95599277 149.24792601 86.49001503 149.25447559 C85.19066257 149.26030779 83.89131011 149.26613998 82.55258334 149.27214891 C81.11762547 149.268516 79.68266808 149.26469165 78.24771118 149.26069641 C76.71793156 149.26371759 75.18815345 149.2676069 73.65837801 149.27228898 C69.45736909 149.28258211 65.2564454 149.28038381 61.05542946 149.27610838 C56.52363283 149.27364354 51.99185684 149.28265232 47.46006775 149.29014587 C38.58278896 149.3029017 29.70554041 149.30468546 20.828254 149.30234561 C13.61307263 149.30056326 6.39790045 149.30231032 -0.81727982 149.30657005 C-2.35708426 149.30746284 -2.35708426 149.30746284 -3.92799587 149.30837366 C-6.01334782 149.3095854 -8.09869976 149.31079953 -10.18405171 149.31201603 C-29.74504639 149.32289501 -49.30602384 149.3207274 -68.86701949 149.31463119 C-86.76383374 149.30946189 -104.66059357 149.32071719 -122.55739705 149.33972941 C-140.93163242 149.35909925 -159.30584204 149.36736529 -177.68008769 149.36360615 C-187.99669792 149.36169279 -198.31326183 149.36419482 -208.62986374 149.37832069 C-217.41262067 149.39022459 -226.19530276 149.39165052 -234.97806071 149.37953053 C-239.45903177 149.37363484 -243.93986586 149.37256145 -248.42082787 149.38453293 C-252.52409935 149.39536795 -256.62711912 149.39231681 -260.7303787 149.37827124 C-262.21350806 149.37561774 -263.696657 149.37801135 -265.17976718 149.38600711 C-276.05478416 149.4405597 -283.87473554 148.94059936 -292 141 C-296.65283016 135.05471701 -298.52568588 128.89059464 -298.30859375 121.39453125 C-297.40529084 114.38535802 -294.45098886 108.25280801 -289.11253059 103.58342195 C-281.60185976 97.95388878 -273.45309285 97.41929904 -264.37033081 97.48101807 C-263.1326373 97.47351681 -261.89494379 97.46601556 -260.61974442 97.458287 C-257.21016916 97.44158304 -253.80145187 97.4425476 -250.39190388 97.45119452 C-246.70556337 97.45616035 -243.01932531 97.43802854 -239.33302307 97.42277527 C-232.95489993 97.39951069 -226.57689033 97.39071261 -220.19872665 97.39188385 C-210.97712681 97.3935561 -201.75567793 97.37318775 -192.53411843 97.34752855 C-177.57093006 97.3064877 -162.60776893 97.28314484 -147.64453125 97.27099609 C-133.11358016 97.25916028 -118.5826803 97.2389494 -104.05175781 97.20751953 C-103.15529938 97.20558343 -102.25884094 97.20364733 -101.3352171 97.20165256 C-96.83771769 97.19188768 -92.34021866 97.18195863 -87.84271979 97.17194796 C-50.56183703 97.08917923 -13.28095656 97.03515982 24 97 C23.2446698 96.25577286 22.4893396 95.51154572 21.71112061 94.74476624 C14.57656202 87.71179316 7.45541586 80.66548207 0.34701157 73.60607243 C-3.30747518 69.97762157 -6.96644108 66.35394513 -10.63623047 62.7409668 C-14.18103244 59.25069701 -17.7132949 55.74817079 -21.23738861 52.2369976 C-22.58054806 50.90303987 -23.92808359 49.5734728 -25.28012848 48.2485218 C-27.18080479 46.38441569 -29.06497583 44.50495757 -30.94628906 42.62133789 C-31.78030998 41.81428154 -31.78030998 41.81428154 -32.63117981 40.99092102 C-37.42021302 36.13843567 -40.40515963 30.56904222 -41.53125 23.8125 C-41.43344415 15.0099737 -39.74856289 8.66384938 -33.6875 2.125 C-24.32770356 -6.33217456 -10.59307575 -6.88484289 0 0 Z " fill="#FFFFFF" transform="translate(400,81)"/>
</svg>
