<?xml version="1.0" encoding="UTF-8"?>
<svg version="1.1" xmlns="http://www.w3.org/2000/svg" width="512" height="512">
<path d="M0 0 C0.71944951 -0.00865438 1.43889902 -0.01730876 2.18015003 -0.02622539 C4.58596995 -0.04778169 6.9894692 -0.02654071 9.39526367 -0.00532532 C11.12186792 -0.01181982 12.84846414 -0.02088177 14.57504272 -0.03231812 C19.2611635 -0.05540021 23.9464699 -0.04067976 28.63256454 -0.01784873 C33.53630486 0.00106353 38.43999037 -0.01009047 43.34375 -0.01675415 C51.57882627 -0.02309515 59.81357618 -0.0048227 68.04858398 0.02787781 C77.56965608 0.06537251 87.09010986 0.06359379 96.61121464 0.04083663 C105.76988942 0.01988891 114.92833567 0.02716083 124.08700562 0.04715538 C127.9848788 0.05514248 131.88255872 0.05314859 135.78042603 0.04313087 C140.3705646 0.03258143 144.9599825 0.0467014 149.55000687 0.07987404 C151.23462591 0.08808356 152.91931097 0.0877945 154.6039238 0.07839584 C156.90391129 0.06697314 159.20165613 0.08633645 161.50146484 0.11352539 C162.78824631 0.11670934 164.07502777 0.11989328 165.40080261 0.12317371 C169.62516632 0.92014376 171.11022933 2.43224583 173.75073242 5.75517273 C174.38565063 8.41081238 174.38565063 8.41081238 174.39770508 11.2922821 C174.41346588 12.37690735 174.42922668 13.46153259 174.44546509 14.57902527 C174.43534393 15.74059143 174.42522278 16.90215759 174.41479492 18.09892273 C174.41957855 19.30077209 174.42436218 20.50262146 174.42929077 21.7408905 C174.43268995 24.27935598 174.42348654 26.81786522 174.40258789 29.35624695 C174.37582648 33.24151736 174.40233925 37.12389842 174.43432617 41.00907898 C174.43102208 43.47653327 174.42461588 45.94398577 174.41479492 48.41142273 C174.42491608 49.57298889 174.43503723 50.73455505 174.44546509 51.93132019 C174.42182388 53.55825806 174.42182388 53.55825806 174.39770508 55.21806335 C174.39372711 56.16894836 174.38974915 57.11983337 174.38565063 58.09953308 C173.47764334 61.89740832 171.75567509 63.3064466 168.75073242 65.75517273 C165.40080261 66.38717175 165.40080261 66.38717175 161.50146484 66.39682007 C160.42229058 66.40957835 160.42229058 66.40957835 159.32131481 66.42259437 C156.91577538 66.44484146 154.51178628 66.43143557 152.10620117 66.41801453 C150.3795969 66.42642865 148.65300181 66.43695418 146.92642212 66.44943237 C142.24041874 66.47649872 137.55494736 66.47177519 132.8689003 66.45973182 C128.9571786 66.45260378 125.04555549 66.46109744 121.13384151 66.46963722 C111.90676444 66.48959427 102.67994643 66.48401419 93.45288086 66.46195984 C83.93175671 66.43958941 74.41131034 66.45720181 64.89025021 66.49500912 C56.71598865 66.52622921 48.54193707 66.53416338 40.36762333 66.52305537 C35.48528301 66.51656374 30.60333396 66.51859244 25.72103882 66.54237938 C21.13083907 66.56360441 16.54159714 66.55568945 11.95145798 66.52528572 C10.26682584 66.5189491 8.5821196 66.52284145 6.89754105 66.53769684 C4.59725909 66.55633799 2.30012417 66.53801404 0 66.51034546 C-1.28678146 66.50938212 -2.57356293 66.50841879 -3.89933777 66.50742626 C-8.58376927 65.4554997 -9.61279399 63.69879479 -12.24926758 59.75517273 C-12.88418579 57.06193542 -12.88418579 57.06193542 -12.89624023 54.30400085 C-12.91200104 53.26272034 -12.92776184 52.22143982 -12.94400024 51.14860535 C-12.93387909 50.03908508 -12.92375793 48.92956482 -12.91333008 47.78642273 C-12.91811371 46.63275208 -12.92289734 45.47908142 -12.92782593 44.29045105 C-12.93122165 41.85631442 -12.92204242 39.42213199 -12.90112305 36.98808289 C-12.87435614 33.26748221 -12.90088553 29.54989859 -12.93286133 25.82939148 C-12.92955718 23.46089525 -12.92315084 21.0924009 -12.91333008 18.72392273 C-12.92345123 17.61440247 -12.93357239 16.5048822 -12.94400024 15.36174011 C-12.92823944 14.32045959 -12.91247864 13.27917908 -12.89624023 12.2063446 C-12.89226227 11.2962262 -12.8882843 10.38610779 -12.88418579 9.44841003 C-11.17160045 2.18385432 -7.02863334 0.00526191 0 0 Z " fill="#FFFFFF" transform="translate(194.249267578125,446.2448272705078)"/>
<path d="M0 0 C0.71944951 -0.00865438 1.43889902 -0.01730876 2.18015003 -0.02622539 C4.58596995 -0.04778169 6.9894692 -0.02654071 9.39526367 -0.00532532 C11.12186792 -0.01181982 12.84846414 -0.02088177 14.57504272 -0.03231812 C19.2611635 -0.05540021 23.9464699 -0.04067976 28.63256454 -0.01784873 C33.53630486 0.00106353 38.43999037 -0.01009047 43.34375 -0.01675415 C51.57882627 -0.02309515 59.81357618 -0.0048227 68.04858398 0.02787781 C77.56965608 0.06537251 87.09010986 0.06359379 96.61121464 0.04083663 C105.76988942 0.01988891 114.92833567 0.02716083 124.08700562 0.04715538 C127.9848788 0.05514248 131.88255872 0.05314859 135.78042603 0.04313087 C140.3705646 0.03258143 144.9599825 0.0467014 149.55000687 0.07987404 C151.23462591 0.08808356 152.91931097 0.0877945 154.6039238 0.07839584 C156.90391129 0.06697314 159.20165613 0.08633645 161.50146484 0.11352539 C162.78824631 0.11670934 164.07502777 0.11989328 165.40080261 0.12317371 C169.62516632 0.92014376 171.11022933 2.43224583 173.75073242 5.75517273 C174.38565063 8.41081238 174.38565063 8.41081238 174.39770508 11.2922821 C174.41346588 12.37690735 174.42922668 13.46153259 174.44546509 14.57902527 C174.43534393 15.74059143 174.42522278 16.90215759 174.41479492 18.09892273 C174.41957855 19.30077209 174.42436218 20.50262146 174.42929077 21.7408905 C174.43268995 24.27935598 174.42348654 26.81786522 174.40258789 29.35624695 C174.37582648 33.24151736 174.40233925 37.12389842 174.43432617 41.00907898 C174.43102208 43.47653327 174.42461588 45.94398577 174.41479492 48.41142273 C174.42491608 49.57298889 174.43503723 50.73455505 174.44546509 51.93132019 C174.42182388 53.55825806 174.42182388 53.55825806 174.39770508 55.21806335 C174.39372711 56.16894836 174.38974915 57.11983337 174.38565063 58.09953308 C173.47764334 61.89740832 171.75567509 63.3064466 168.75073242 65.75517273 C165.40080261 66.38717175 165.40080261 66.38717175 161.50146484 66.39682007 C160.42229058 66.40957835 160.42229058 66.40957835 159.32131481 66.42259437 C156.91577538 66.44484146 154.51178628 66.43143557 152.10620117 66.41801453 C150.3795969 66.42642865 148.65300181 66.43695418 146.92642212 66.44943237 C142.24041874 66.47649872 137.55494736 66.47177519 132.8689003 66.45973182 C128.9571786 66.45260378 125.04555549 66.46109744 121.13384151 66.46963722 C111.90676444 66.48959427 102.67994643 66.48401419 93.45288086 66.46195984 C83.93175671 66.43958941 74.41131034 66.45720181 64.89025021 66.49500912 C56.71598865 66.52622921 48.54193707 66.53416338 40.36762333 66.52305537 C35.48528301 66.51656374 30.60333396 66.51859244 25.72103882 66.54237938 C21.13083907 66.56360441 16.54159714 66.55568945 11.95145798 66.52528572 C10.26682584 66.5189491 8.5821196 66.52284145 6.89754105 66.53769684 C4.59725909 66.55633799 2.30012417 66.53801404 0 66.51034546 C-1.28678146 66.50938212 -2.57356293 66.50841879 -3.89933777 66.50742626 C-8.58376927 65.4554997 -9.61279399 63.69879479 -12.24926758 59.75517273 C-12.88418579 57.06193542 -12.88418579 57.06193542 -12.89624023 54.30400085 C-12.91200104 53.26272034 -12.92776184 52.22143982 -12.94400024 51.14860535 C-12.93387909 50.03908508 -12.92375793 48.92956482 -12.91333008 47.78642273 C-12.91811371 46.63275208 -12.92289734 45.47908142 -12.92782593 44.29045105 C-12.93122165 41.85631442 -12.92204242 39.42213199 -12.90112305 36.98808289 C-12.87435614 33.26748221 -12.90088553 29.54989859 -12.93286133 25.82939148 C-12.92955718 23.46089525 -12.92315084 21.0924009 -12.91333008 18.72392273 C-12.92345123 17.61440247 -12.93357239 16.5048822 -12.94400024 15.36174011 C-12.92823944 14.32045959 -12.91247864 13.27917908 -12.89624023 12.2063446 C-12.89226227 11.2962262 -12.8882843 10.38610779 -12.88418579 9.44841003 C-11.17160045 2.18385432 -7.02863334 0.00526191 0 0 Z " fill="#FFFFFF" transform="translate(194.249267578125,-0.7551727294921875)"/>
<path d="M0 0 C1.16312714 -0.00890762 2.32625427 -0.01781525 3.52462769 -0.0269928 C7.36985338 -0.04830502 11.21340877 -0.02594985 15.05859375 -0.0012207 C17.72992162 -0.00272273 20.40119263 -0.00609478 23.07250977 -0.01142883 C28.67125501 -0.01776484 34.26951967 0.00047587 39.86816406 0.03320312 C46.33556018 0.07069677 52.802046 0.06891814 59.26949024 0.04616195 C65.49796081 0.02519321 71.7260958 0.03249785 77.95455933 0.0524807 C80.6019531 0.05833472 83.24937265 0.057022 85.89675903 0.04845619 C89.59582013 0.04047388 93.29329502 0.06468504 96.9921875 0.09765625 C98.08844452 0.08910614 99.18470154 0.08055603 100.31417847 0.07174683 C105.07611721 0.14508235 107.68570269 0.20077929 111.6746521 2.95585632 C113.69313863 6.06390623 114.12770585 7.62585039 114.14306641 11.29760742 C114.15882721 12.38223267 114.17458801 13.46685791 114.19082642 14.58435059 C114.18070526 15.74591675 114.17058411 16.90748291 114.16015625 18.10424805 C114.16493988 19.30609741 114.16972351 20.50794678 114.1746521 21.74621582 C114.17805128 24.2846813 114.16884787 26.82319054 114.14794922 29.36157227 C114.12118781 33.24684268 114.14770058 37.12922374 114.1796875 41.0144043 C114.17638341 43.48185859 114.1699772 45.94931109 114.16015625 48.41674805 C114.1702774 49.57831421 114.18039856 50.73988037 114.19082642 51.93664551 C114.16718521 53.56358337 114.16718521 53.56358337 114.14306641 55.22338867 C114.13908844 56.17427368 114.13511047 57.12515869 114.13101196 58.1048584 C113.17405318 62.10748052 111.89302791 63.41431254 108.49609375 65.76049805 C104.66312924 66.50177963 100.88644553 66.45371259 96.9921875 66.42333984 C95.82906036 66.43370773 94.66593323 66.44407562 93.46755981 66.45475769 C89.62254564 66.48186358 85.7786691 66.47215781 81.93359375 66.4597168 C79.93741036 66.46413084 77.94122633 66.46855817 75.94504833 66.47496253 C69.67124064 66.49490186 63.39781412 66.48935997 57.12402344 66.46728516 C50.65655069 66.44491522 44.19007577 66.46252894 37.72269726 66.50033444 C32.16410064 66.53158354 26.60581267 66.53948018 21.04713917 66.52838069 C17.72965376 66.52189834 14.41287075 66.52636957 11.09542847 66.5477047 C7.39621885 66.56763298 3.6991121 66.54932515 0 66.52099609 C-1.09625702 66.53471252 -2.19251404 66.54842896 -3.32199097 66.56256104 C-10.46302122 66.45308543 -10.46302122 66.45308543 -13.29955101 64.56570625 C-16.18064732 61.41559186 -17.13261043 58.48896803 -17.15087891 54.30932617 C-17.16663971 53.26804565 -17.18240051 52.22676514 -17.19863892 51.15393066 C-17.18851776 50.0444104 -17.17839661 48.93489014 -17.16796875 47.79174805 C-17.17275238 46.63807739 -17.17753601 45.48440674 -17.1824646 44.29577637 C-17.18586032 41.86163974 -17.17668109 39.4274573 -17.15576172 36.9934082 C-17.12899481 33.27280753 -17.1555242 29.55522391 -17.1875 25.8347168 C-17.18419585 23.46622057 -17.17778951 21.09772622 -17.16796875 18.72924805 C-17.1780899 17.61972778 -17.18821106 16.51020752 -17.19863892 15.36706543 C-17.18287811 14.32578491 -17.16711731 13.28450439 -17.15087891 12.21166992 C-17.14690094 11.30155151 -17.14292297 10.39143311 -17.13882446 9.45373535 C-14.86402025 -0.19567689 -8.57012013 -0.10722983 0 0 Z " fill="#FFFFFF" transform="translate(291.50390625,223.239501953125)"/>
<path d="M0 0 C1.39335458 -0.0015035 2.78670829 -0.00493619 4.18005371 -0.01020813 C7.09556302 -0.01453366 10.00996396 0.00225002 12.92529297 0.03442383 C16.65490381 0.0742077 20.38243717 0.06490266 24.11211395 0.04018879 C26.98794464 0.02597865 29.86329331 0.03611315 32.73908997 0.0537014 C34.11374255 0.05953479 35.4884448 0.05827305 36.86308289 0.0496769 C47.48110646 0.00538618 47.48110646 0.00538618 52.24560547 2.53393555 C54.86036786 7.61623099 54.61942538 12.46897217 54.5703125 18.10546875 C54.57509613 19.30731812 54.57987976 20.50916748 54.58480835 21.74743652 C54.58820753 24.285902 54.57900412 26.82441124 54.55810547 29.36279297 C54.53134406 33.24806338 54.55785683 37.13044444 54.58984375 41.015625 C54.58653966 43.48307929 54.58013345 45.95053179 54.5703125 48.41796875 C54.58549423 50.16031799 54.58549423 50.16031799 54.60098267 51.93786621 C54.53399591 56.54775327 54.37117262 59.8580519 52.24560547 63.98950195 C46.71428915 66.92500606 40.95525497 66.49935057 34.8125 66.4609375 C33.41914256 66.46685027 32.02579021 66.47409861 30.63244629 66.48262024 C27.71709657 66.49448268 24.80251118 66.48782347 21.88720703 66.46850586 C18.15743285 66.44561132 14.42993569 66.47240831 10.70038605 66.51356792 C7.82457091 66.53918486 4.94929799 66.53655618 2.07341003 66.52567482 C0.69872468 66.52419146 -0.67600291 66.53183994 -2.05058289 66.5489254 C-14.10524573 66.67445552 -14.10524573 66.67445552 -17.43310547 63.4621582 C-20.27109438 58.76367424 -19.80621317 53.09883789 -19.7578125 47.79296875 C-19.76259613 46.6392981 -19.76737976 45.48562744 -19.77230835 44.29699707 C-19.77570407 41.86286044 -19.76652484 39.42867801 -19.74560547 36.99462891 C-19.71883856 33.27402823 -19.74536795 29.55644461 -19.77734375 25.8359375 C-19.7740396 23.46744127 -19.76763326 21.09894692 -19.7578125 18.73046875 C-19.76793365 17.62094849 -19.77805481 16.51142822 -19.78848267 15.36828613 C-19.65795578 6.74467053 -19.65795578 6.74467053 -17.43310547 3.0612793 C-12.98374545 -1.23357336 -5.74676091 -0.07142987 0 0 Z " fill="#FFFFFF" transform="translate(351.09375,371.23828125)"/>
<path d="M0 0 C1.39335458 -0.0015035 2.78670829 -0.00493619 4.18005371 -0.01020813 C7.09556302 -0.01453366 10.00996396 0.00225002 12.92529297 0.03442383 C16.65490381 0.0742077 20.38243717 0.06490266 24.11211395 0.04018879 C26.98794464 0.02597865 29.86329331 0.03611315 32.73908997 0.0537014 C34.11374255 0.05953479 35.4884448 0.05827305 36.86308289 0.0496769 C47.48110646 0.00538618 47.48110646 0.00538618 52.24560547 2.53393555 C54.86036786 7.61623099 54.61942538 12.46897217 54.5703125 18.10546875 C54.57509613 19.30731812 54.57987976 20.50916748 54.58480835 21.74743652 C54.58820753 24.285902 54.57900412 26.82441124 54.55810547 29.36279297 C54.53134406 33.24806338 54.55785683 37.13044444 54.58984375 41.015625 C54.58653966 43.48307929 54.58013345 45.95053179 54.5703125 48.41796875 C54.58549423 50.16031799 54.58549423 50.16031799 54.60098267 51.93786621 C54.53399591 56.54775327 54.37117262 59.8580519 52.24560547 63.98950195 C46.71428915 66.92500606 40.95525497 66.49935057 34.8125 66.4609375 C33.41914256 66.46685027 32.02579021 66.47409861 30.63244629 66.48262024 C27.71709657 66.49448268 24.80251118 66.48782347 21.88720703 66.46850586 C18.15743285 66.44561132 14.42993569 66.47240831 10.70038605 66.51356792 C7.82457091 66.53918486 4.94929799 66.53655618 2.07341003 66.52567482 C0.69872468 66.52419146 -0.67600291 66.53183994 -2.05058289 66.5489254 C-14.10524573 66.67445552 -14.10524573 66.67445552 -17.43310547 63.4621582 C-20.27109438 58.76367424 -19.80621317 53.09883789 -19.7578125 47.79296875 C-19.76259613 46.6392981 -19.76737976 45.48562744 -19.77230835 44.29699707 C-19.77570407 41.86286044 -19.76652484 39.42867801 -19.74560547 36.99462891 C-19.71883856 33.27402823 -19.74536795 29.55644461 -19.77734375 25.8359375 C-19.7740396 23.46744127 -19.76763326 21.09894692 -19.7578125 18.73046875 C-19.76793365 17.62094849 -19.77805481 16.51142822 -19.78848267 15.36828613 C-19.65795578 6.74467053 -19.65795578 6.74467053 -17.43310547 3.0612793 C-12.98374545 -1.23357336 -5.74676091 -0.07142987 0 0 Z " fill="#FFFFFF" transform="translate(164.09375,371.23828125)"/>
<path d="M0 0 C1.39335458 -0.0015035 2.78670829 -0.00493619 4.18005371 -0.01020813 C7.09556302 -0.01453366 10.00996396 0.00225002 12.92529297 0.03442383 C16.65490381 0.0742077 20.38243717 0.06490266 24.11211395 0.04018879 C26.98794464 0.02597865 29.86329331 0.03611315 32.73908997 0.0537014 C34.11374255 0.05953479 35.4884448 0.05827305 36.86308289 0.0496769 C47.48110646 0.00538618 47.48110646 0.00538618 52.24560547 2.53393555 C54.86036786 7.61623099 54.61942538 12.46897217 54.5703125 18.10546875 C54.57509613 19.30731812 54.57987976 20.50916748 54.58480835 21.74743652 C54.58820753 24.285902 54.57900412 26.82441124 54.55810547 29.36279297 C54.53134406 33.24806338 54.55785683 37.13044444 54.58984375 41.015625 C54.58653966 43.48307929 54.58013345 45.95053179 54.5703125 48.41796875 C54.58549423 50.16031799 54.58549423 50.16031799 54.60098267 51.93786621 C54.53399591 56.54775327 54.37117262 59.8580519 52.24560547 63.98950195 C46.71428915 66.92500606 40.95525497 66.49935057 34.8125 66.4609375 C33.41914256 66.46685027 32.02579021 66.47409861 30.63244629 66.48262024 C27.71709657 66.49448268 24.80251118 66.48782347 21.88720703 66.46850586 C18.15743285 66.44561132 14.42993569 66.47240831 10.70038605 66.51356792 C7.82457091 66.53918486 4.94929799 66.53655618 2.07341003 66.52567482 C0.69872468 66.52419146 -0.67600291 66.53183994 -2.05058289 66.5489254 C-14.10524573 66.67445552 -14.10524573 66.67445552 -17.43310547 63.4621582 C-20.27109438 58.76367424 -19.80621317 53.09883789 -19.7578125 47.79296875 C-19.76259613 46.6392981 -19.76737976 45.48562744 -19.77230835 44.29699707 C-19.77570407 41.86286044 -19.76652484 39.42867801 -19.74560547 36.99462891 C-19.71883856 33.27402823 -19.74536795 29.55644461 -19.77734375 25.8359375 C-19.7740396 23.46744127 -19.76763326 21.09894692 -19.7578125 18.73046875 C-19.76793365 17.62094849 -19.77805481 16.51142822 -19.78848267 15.36828613 C-19.65795578 6.74467053 -19.65795578 6.74467053 -17.43310547 3.0612793 C-12.98374545 -1.23357336 -5.74676091 -0.07142987 0 0 Z " fill="#FFFFFF" transform="translate(351.09375,298.23828125)"/>
<path d="M0 0 C1.39335458 -0.0015035 2.78670829 -0.00493619 4.18005371 -0.01020813 C7.09556302 -0.01453366 10.00996396 0.00225002 12.92529297 0.03442383 C16.65490381 0.0742077 20.38243717 0.06490266 24.11211395 0.04018879 C26.98794464 0.02597865 29.86329331 0.03611315 32.73908997 0.0537014 C34.11374255 0.05953479 35.4884448 0.05827305 36.86308289 0.0496769 C47.48110646 0.00538618 47.48110646 0.00538618 52.24560547 2.53393555 C54.86036786 7.61623099 54.61942538 12.46897217 54.5703125 18.10546875 C54.57509613 19.30731812 54.57987976 20.50916748 54.58480835 21.74743652 C54.58820753 24.285902 54.57900412 26.82441124 54.55810547 29.36279297 C54.53134406 33.24806338 54.55785683 37.13044444 54.58984375 41.015625 C54.58653966 43.48307929 54.58013345 45.95053179 54.5703125 48.41796875 C54.58549423 50.16031799 54.58549423 50.16031799 54.60098267 51.93786621 C54.53399591 56.54775327 54.37117262 59.8580519 52.24560547 63.98950195 C46.71428915 66.92500606 40.95525497 66.49935057 34.8125 66.4609375 C33.41914256 66.46685027 32.02579021 66.47409861 30.63244629 66.48262024 C27.71709657 66.49448268 24.80251118 66.48782347 21.88720703 66.46850586 C18.15743285 66.44561132 14.42993569 66.47240831 10.70038605 66.51356792 C7.82457091 66.53918486 4.94929799 66.53655618 2.07341003 66.52567482 C0.69872468 66.52419146 -0.67600291 66.53183994 -2.05058289 66.5489254 C-14.10524573 66.67445552 -14.10524573 66.67445552 -17.43310547 63.4621582 C-20.27109438 58.76367424 -19.80621317 53.09883789 -19.7578125 47.79296875 C-19.76259613 46.6392981 -19.76737976 45.48562744 -19.77230835 44.29699707 C-19.77570407 41.86286044 -19.76652484 39.42867801 -19.74560547 36.99462891 C-19.71883856 33.27402823 -19.74536795 29.55644461 -19.77734375 25.8359375 C-19.7740396 23.46744127 -19.76763326 21.09894692 -19.7578125 18.73046875 C-19.76793365 17.62094849 -19.77805481 16.51142822 -19.78848267 15.36828613 C-19.65795578 6.74467053 -19.65795578 6.74467053 -17.43310547 3.0612793 C-12.98374545 -1.23357336 -5.74676091 -0.07142987 0 0 Z " fill="#FFFFFF" transform="translate(126.09375,298.23828125)"/>
<path d="M0 0 C1.39335458 -0.0015035 2.78670829 -0.00493619 4.18005371 -0.01020813 C7.09556302 -0.01453366 10.00996396 0.00225002 12.92529297 0.03442383 C16.65490381 0.0742077 20.38243717 0.06490266 24.11211395 0.04018879 C26.98794464 0.02597865 29.86329331 0.03611315 32.73908997 0.0537014 C34.11374255 0.05953479 35.4884448 0.05827305 36.86308289 0.0496769 C47.48110646 0.00538618 47.48110646 0.00538618 52.24560547 2.53393555 C54.86036786 7.61623099 54.61942538 12.46897217 54.5703125 18.10546875 C54.57509613 19.30731812 54.57987976 20.50916748 54.58480835 21.74743652 C54.58820753 24.285902 54.57900412 26.82441124 54.55810547 29.36279297 C54.53134406 33.24806338 54.55785683 37.13044444 54.58984375 41.015625 C54.58653966 43.48307929 54.58013345 45.95053179 54.5703125 48.41796875 C54.58549423 50.16031799 54.58549423 50.16031799 54.60098267 51.93786621 C54.53399591 56.54775327 54.37117262 59.8580519 52.24560547 63.98950195 C46.71428915 66.92500606 40.95525497 66.49935057 34.8125 66.4609375 C33.41914256 66.46685027 32.02579021 66.47409861 30.63244629 66.48262024 C27.71709657 66.49448268 24.80251118 66.48782347 21.88720703 66.46850586 C18.15743285 66.44561132 14.42993569 66.47240831 10.70038605 66.51356792 C7.82457091 66.53918486 4.94929799 66.53655618 2.07341003 66.52567482 C0.69872468 66.52419146 -0.67600291 66.53183994 -2.05058289 66.5489254 C-14.10524573 66.67445552 -14.10524573 66.67445552 -17.43310547 63.4621582 C-20.27109438 58.76367424 -19.80621317 53.09883789 -19.7578125 47.79296875 C-19.76259613 46.6392981 -19.76737976 45.48562744 -19.77230835 44.29699707 C-19.77570407 41.86286044 -19.76652484 39.42867801 -19.74560547 36.99462891 C-19.71883856 33.27402823 -19.74536795 29.55644461 -19.77734375 25.8359375 C-19.7740396 23.46744127 -19.76763326 21.09894692 -19.7578125 18.73046875 C-19.76793365 17.62094849 -19.77805481 16.51142822 -19.78848267 15.36828613 C-19.65795578 6.74467053 -19.65795578 6.74467053 -17.43310547 3.0612793 C-12.98374545 -1.23357336 -5.74676091 -0.07142987 0 0 Z " fill="#FFFFFF" transform="translate(126.09375,223.23828125)"/>
<path d="M0 0 C1.39335458 -0.0015035 2.78670829 -0.00493619 4.18005371 -0.01020813 C7.09556302 -0.01453366 10.00996396 0.00225002 12.92529297 0.03442383 C16.65490381 0.0742077 20.38243717 0.06490266 24.11211395 0.04018879 C26.98794464 0.02597865 29.86329331 0.03611315 32.73908997 0.0537014 C34.11374255 0.05953479 35.4884448 0.05827305 36.86308289 0.0496769 C47.48110646 0.00538618 47.48110646 0.00538618 52.24560547 2.53393555 C54.86036786 7.61623099 54.61942538 12.46897217 54.5703125 18.10546875 C54.57509613 19.30731812 54.57987976 20.50916748 54.58480835 21.74743652 C54.58820753 24.285902 54.57900412 26.82441124 54.55810547 29.36279297 C54.53134406 33.24806338 54.55785683 37.13044444 54.58984375 41.015625 C54.58653966 43.48307929 54.58013345 45.95053179 54.5703125 48.41796875 C54.58549423 50.16031799 54.58549423 50.16031799 54.60098267 51.93786621 C54.53399591 56.54775327 54.37117262 59.8580519 52.24560547 63.98950195 C46.71428915 66.92500606 40.95525497 66.49935057 34.8125 66.4609375 C33.41914256 66.46685027 32.02579021 66.47409861 30.63244629 66.48262024 C27.71709657 66.49448268 24.80251118 66.48782347 21.88720703 66.46850586 C18.15743285 66.44561132 14.42993569 66.47240831 10.70038605 66.51356792 C7.82457091 66.53918486 4.94929799 66.53655618 2.07341003 66.52567482 C0.69872468 66.52419146 -0.67600291 66.53183994 -2.05058289 66.5489254 C-14.10524573 66.67445552 -14.10524573 66.67445552 -17.43310547 63.4621582 C-20.27109438 58.76367424 -19.80621317 53.09883789 -19.7578125 47.79296875 C-19.76259613 46.6392981 -19.76737976 45.48562744 -19.77230835 44.29699707 C-19.77570407 41.86286044 -19.76652484 39.42867801 -19.74560547 36.99462891 C-19.71883856 33.27402823 -19.74536795 29.55644461 -19.77734375 25.8359375 C-19.7740396 23.46744127 -19.76763326 21.09894692 -19.7578125 18.73046875 C-19.76793365 17.62094849 -19.77805481 16.51142822 -19.78848267 15.36828613 C-19.65795578 6.74467053 -19.65795578 6.74467053 -17.43310547 3.0612793 C-12.98374545 -1.23357336 -5.74676091 -0.07142987 0 0 Z " fill="#FFFFFF" transform="translate(126.09375,148.23828125)"/>
<path d="M0 0 C1.39335458 -0.0015035 2.78670829 -0.00493619 4.18005371 -0.01020813 C7.09556302 -0.01453366 10.00996396 0.00225002 12.92529297 0.03442383 C16.65490381 0.0742077 20.38243717 0.06490266 24.11211395 0.04018879 C26.98794464 0.02597865 29.86329331 0.03611315 32.73908997 0.0537014 C34.11374255 0.05953479 35.4884448 0.05827305 36.86308289 0.0496769 C47.48110646 0.00538618 47.48110646 0.00538618 52.24560547 2.53393555 C54.86036786 7.61623099 54.61942538 12.46897217 54.5703125 18.10546875 C54.57509613 19.30731812 54.57987976 20.50916748 54.58480835 21.74743652 C54.58820753 24.285902 54.57900412 26.82441124 54.55810547 29.36279297 C54.53134406 33.24806338 54.55785683 37.13044444 54.58984375 41.015625 C54.58653966 43.48307929 54.58013345 45.95053179 54.5703125 48.41796875 C54.58549423 50.16031799 54.58549423 50.16031799 54.60098267 51.93786621 C54.53399591 56.54775327 54.37117262 59.8580519 52.24560547 63.98950195 C46.71428915 66.92500606 40.95525497 66.49935057 34.8125 66.4609375 C33.41914256 66.46685027 32.02579021 66.47409861 30.63244629 66.48262024 C27.71709657 66.49448268 24.80251118 66.48782347 21.88720703 66.46850586 C18.15743285 66.44561132 14.42993569 66.47240831 10.70038605 66.51356792 C7.82457091 66.53918486 4.94929799 66.53655618 2.07341003 66.52567482 C0.69872468 66.52419146 -0.67600291 66.53183994 -2.05058289 66.5489254 C-14.10524573 66.67445552 -14.10524573 66.67445552 -17.43310547 63.4621582 C-20.27109438 58.76367424 -19.80621317 53.09883789 -19.7578125 47.79296875 C-19.76259613 46.6392981 -19.76737976 45.48562744 -19.77230835 44.29699707 C-19.77570407 41.86286044 -19.76652484 39.42867801 -19.74560547 36.99462891 C-19.71883856 33.27402823 -19.74536795 29.55644461 -19.77734375 25.8359375 C-19.7740396 23.46744127 -19.76763326 21.09894692 -19.7578125 18.73046875 C-19.76793365 17.62094849 -19.77805481 16.51142822 -19.78848267 15.36828613 C-19.65795578 6.74467053 -19.65795578 6.74467053 -17.43310547 3.0612793 C-12.98374545 -1.23357336 -5.74676091 -0.07142987 0 0 Z " fill="#FFFFFF" transform="translate(351.09375,74.23828125)"/>
<path d="M0 0 C1.39335458 -0.0015035 2.78670829 -0.00493619 4.18005371 -0.01020813 C7.09556302 -0.01453366 10.00996396 0.00225002 12.92529297 0.03442383 C16.65490381 0.0742077 20.38243717 0.06490266 24.11211395 0.04018879 C26.98794464 0.02597865 29.86329331 0.03611315 32.73908997 0.0537014 C34.11374255 0.05953479 35.4884448 0.05827305 36.86308289 0.0496769 C47.48110646 0.00538618 47.48110646 0.00538618 52.24560547 2.53393555 C54.86036786 7.61623099 54.61942538 12.46897217 54.5703125 18.10546875 C54.57509613 19.30731812 54.57987976 20.50916748 54.58480835 21.74743652 C54.58820753 24.285902 54.57900412 26.82441124 54.55810547 29.36279297 C54.53134406 33.24806338 54.55785683 37.13044444 54.58984375 41.015625 C54.58653966 43.48307929 54.58013345 45.95053179 54.5703125 48.41796875 C54.58549423 50.16031799 54.58549423 50.16031799 54.60098267 51.93786621 C54.53399591 56.54775327 54.37117262 59.8580519 52.24560547 63.98950195 C46.71428915 66.92500606 40.95525497 66.49935057 34.8125 66.4609375 C33.41914256 66.46685027 32.02579021 66.47409861 30.63244629 66.48262024 C27.71709657 66.49448268 24.80251118 66.48782347 21.88720703 66.46850586 C18.15743285 66.44561132 14.42993569 66.47240831 10.70038605 66.51356792 C7.82457091 66.53918486 4.94929799 66.53655618 2.07341003 66.52567482 C0.69872468 66.52419146 -0.67600291 66.53183994 -2.05058289 66.5489254 C-14.10524573 66.67445552 -14.10524573 66.67445552 -17.43310547 63.4621582 C-20.27109438 58.76367424 -19.80621317 53.09883789 -19.7578125 47.79296875 C-19.76259613 46.6392981 -19.76737976 45.48562744 -19.77230835 44.29699707 C-19.77570407 41.86286044 -19.76652484 39.42867801 -19.74560547 36.99462891 C-19.71883856 33.27402823 -19.74536795 29.55644461 -19.77734375 25.8359375 C-19.7740396 23.46744127 -19.76763326 21.09894692 -19.7578125 18.73046875 C-19.76793365 17.62094849 -19.77805481 16.51142822 -19.78848267 15.36828613 C-19.65795578 6.74467053 -19.65795578 6.74467053 -17.43310547 3.0612793 C-12.98374545 -1.23357336 -5.74676091 -0.07142987 0 0 Z " fill="#FFFFFF" transform="translate(164.09375,74.23828125)"/>
</svg>
