<svg xmlns="http://www.w3.org/2000/svg" width="192" height="192" viewBox="0 0 48 48"><g fill="none" stroke="white" stroke-linecap="round" stroke-linejoin="round"><path d="M22.368 42.15c-3.112-.301-6.061-1.261-8.6-2.8l-.861-.522l-.408.213c-.353.184-.501.213-1.121.214c-.904.002-1.305-.177-2.006-.896l-.5-.514l-.333.325c-1.663 1.621-3.313 1.093-3.642-1.168c-.087-.597-.05-1.091.14-1.908c.039-.168.002-.223-.244-.354c-.487-.26-.966-.866-1.146-1.447c-.44-1.424.092-3 1.814-5.377c.223-.306.228-.336.163-.872c-.319-2.647.276-5.923 1.583-8.715c1.11-2.371 2.877-4.613 4.727-5.997c.754-.566 2.077-1.255 2.898-1.513c.325-.102.605-.195.623-.206c.018-.013-.202-.238-.49-.5c-.595-.548-.85-1.002-.85-1.52c0-.476.308-.902.877-1.213c.373-.204.532-.24 1.184-.266c1.086-.044 1.962.214 3.012.884l.436.279l.239-.48c.307-.614 1.021-1.395 1.532-1.673c.814-.443 1.674-.424 2.215.05c.344.302.654.936.655 1.341c0 .23.032.298.139.3c.656.007 2.623.177 3.177.274c1.773.309 3.06.77 5.17 1.852c4.342 2.226 4.815 2.404 6.97 2.626c1.25.128 2.074.69 2.343 1.597c.271.913.065 1.62-.717 2.45l-.507.537l.432.902c1.035 2.16 1.394 3.903 1.563 7.629l.091 1.997l.361.375c.814.845 1.208 1.786 1.213 2.892c.003.958-.221 1.65-.783 2.424l-.276.379l.009 1.128c.012 1.681-.26 2.668-.918 3.347c-.936.964-2.376.709-3.01-.534l-.192-.377l-.368.414c-.52.586-.95.929-1.45 1.16c-.52.24-1.18.266-1.571.063l-.26-.135l-.701.433c-2.36 1.46-4.989 2.385-7.939 2.794c-1.034.143-3.672.204-4.673.107zm5.023-2.804c2.564-.418 4.774-1.265 6.801-2.604c.747-.493 1.223-.892 2.015-1.683c1.182-1.18 1.831-2.09 2.522-3.536c.514-1.073 1.071-2.853.894-2.853c-.015 0-.684.14-1.487.314c-2.324.5-2.491.519-4.473.512c-1.508-.006-1.986-.037-2.764-.179c-1.226-.224-1.948-.481-2.6-.927c-.956-.653-1.352-1.385-1.403-2.59c-.038-.914.124-1.552.599-2.358c1.12-1.903 3.248-2.892 5.926-2.756c2.164.11 3.674.596 5.437 1.748c.37.242.685.41.698.37c.04-.117-.438-1.468-.73-2.061c-1.4-2.83-4.014-4.372-7.42-4.376c-1.495-.002-2.3.161-4.899.995c-1.49.477-2.083.574-2.733.446c-.275-.053-1.22-.324-2.104-.602c-2.32-.73-2.642-.789-4.383-.788c-1.28.002-1.56.026-2.181.188c-2.514.654-4.127 1.925-5.227 4.117c-.299.595-.79 1.96-.746 2.076c.014.037.346-.147.738-.407c1.716-1.138 3.243-1.615 5.472-1.709c1.167-.048 1.912.041 2.81.341c1.65.55 2.962 1.841 3.498 3.443c.25.748.198 1.893-.12 2.6c-.44.976-1.526 1.752-2.906 2.073c-1.326.308-1.898.362-3.797.358c-1.996-.004-2.232-.033-4.719-.583c-.566-.125-1.047-.212-1.068-.192c-.074.07.32 1.417.661 2.255a12.7 12.7 0 0 0 1.641 2.847c.52.68 1.793 1.942 2.494 2.47c2.199 1.657 5.137 2.787 8.208 3.156c.944.114 4.429.045 5.346-.105"/><path d="M14.82 26.437c2.564-4.46 4.53-.121 4.504-.01m9.932.01c2.565-4.46 4.53-.121 4.505-.01m-12.397 4.991c.268.49 2.623 1.054 3.262-.336m3.261.336c-.267.49-2.623 1.054-3.261-.336m1.483-2.595c0 .157-.664.43-1.483.43s-1.483-.273-1.483-.43"/></g></svg>