<?xml version="1.0" encoding="UTF-8"?>
<svg version="1.1" xmlns="http://www.w3.org/2000/svg" width="512" height="512">
<path d="M0 0 C2.36328125 1.5546875 2.36328125 1.5546875 4 3 C3.63899109 6.24908017 3.36709039 7.65515751 0.9375 9.9375 C-1.29807704 11.8793468 -1.29807704 11.8793468 -1.1875 14.875 C-1.0946875 16.421875 -1.0946875 16.421875 -1 18 C-1.30830925 20.00401011 -1.63729412 22.00511766 -2 24 C-2 24.66 -2 25.32 -2 26 C-1.01 26 -0.02 26 1 26 C0.31849986 30.12772241 -0.97412235 33.79739914 -2.5 37.6875 C-2.9434375 38.82574219 -3.386875 39.96398437 -3.84375 41.13671875 C-5 44 -5 44 -6 46 C-6.23172827 48.54615009 -6.41894529 51.07396225 -6.5625 53.625 C-6.60568359 54.33140625 -6.64886719 55.0378125 -6.69335938 55.765625 C-6.79944751 57.51018537 -6.90022889 59.25506697 -7 61 C-6.34 61 -5.68 61 -5 61 C-5.03480469 61.81984375 -5.06960938 62.6396875 -5.10546875 63.484375 C-5.13253906 64.56203125 -5.15960938 65.6396875 -5.1875 66.75 C-5.23970703 68.35101563 -5.23970703 68.35101563 -5.29296875 69.984375 C-5.26290074 73.02995511 -5.26290074 73.02995511 -3.42578125 75.078125 C-2 77 -2 77 -1.9765625 79.46875 C-3.37732051 82.9332202 -5.39632856 84.27967798 -8.375 86.5 C-13.8204912 90.58052639 -16.94207149 93.90503092 -17.9375 100.75 C-19.07255906 107.13113034 -21.410964 112.61644601 -25 118 C-25.57446546 120.98722037 -25.95049892 123.97571008 -26.33984375 126.9921875 C-27.21716594 130.98945429 -29.07260814 133.70063228 -31.421875 136.9921875 C-33.97741951 140.61504765 -35.06792203 142.18493559 -34.6875 146.75 C-34.460625 147.8225 -34.23375 148.895 -34 150 C-35.10208008 153.39808026 -35.92097876 153.94731917 -39 156 C-40.12237018 160.89761531 -40.06367586 165.66036416 -39.9375 170.66796875 C-39.9986356 172.94909093 -40.41852963 174.80483666 -41 177 C-41.03845443 178.99963028 -41.04544281 181.00051633 -41 183 C-41.804375 183.268125 -42.60875 183.53625 -43.4375 183.8125 C-44.283125 184.204375 -45.12875 184.59625 -46 185 C-46.33 185.99 -46.66 186.98 -47 188 C-48.99571323 188.67939174 -50.99594773 189.34561559 -53 190 C-55.46165903 193.69248854 -55.37043133 196.71661216 -55.5 201 C-55.72972973 208.59459459 -55.72972973 208.59459459 -58 212 C-58.58000106 215.57452503 -58.95356911 219.14977039 -59.33984375 222.75 C-60.02216569 226.1091234 -60.46388607 226.90409238 -63 229 C-66.54845519 237.77775758 -65.69071807 246.90201229 -62.66015625 255.68359375 C-61.99103567 258.03145472 -61.86031972 259.88359114 -61.9375 262.3125 C-61.9997997 265.98818231 -61.38958557 267.69973427 -60 271 C-59.875 274.3125 -59.875 274.3125 -60 277 C-61.32 277 -62.64 277 -64 277 C-63.6390625 277.69867188 -63.278125 278.39734375 -62.90625 279.1171875 C-62.4421875 280.02726562 -61.978125 280.93734375 -61.5 281.875 C-61.0359375 282.77992188 -60.571875 283.68484375 -60.09375 284.6171875 C-59 287 -59 287 -59 289 C-60.98 289.33 -62.96 289.66 -65 290 C-65 291.32 -65 292.64 -65 294 C-65.66 294.33 -66.32 294.66 -67 295 C-67 296.32 -67 297.64 -67 299 C-72.71735105 301.45029331 -76.79029227 302.33266291 -83 302 C-83.12375 302.639375 -83.2475 303.27875 -83.375 303.9375 C-83.684375 304.9584375 -83.684375 304.9584375 -84 306 C-89.9066996 308.9533498 -100.27927217 307.85836174 -106.4296875 305.91796875 C-108.24669752 305.06362935 -110.04223821 304.16039935 -111.80078125 303.19140625 C-115.28951703 301.30141617 -117.41163289 300.93462588 -121.375 301.375 C-128.83294815 301.54417841 -136.9726066 296.01826227 -143 292 C-143 291.34 -143 290.68 -143 290 C-143.598125 289.71125 -144.19625 289.4225 -144.8125 289.125 C-147 288 -147 288 -150 286 C-151.76195039 285.67637646 -153.53509895 285.41121161 -155.3125 285.1875 C-163.32404135 283.8083779 -167.05191943 279.03829604 -172.08203125 273.09765625 C-174.09034646 270.90118931 -176.22268951 269.03886875 -178.5 267.125 C-186.67102824 259.98740704 -191.7817996 250.2473488 -197.44140625 241.109375 C-199.85848235 237.21341186 -202.32613345 233.35200639 -204.8125 229.5 C-205.1835083 228.92306396 -205.5545166 228.34612793 -205.93676758 227.75170898 C-207.50499013 225.31331633 -209.07919768 222.87953811 -210.671875 220.45703125 C-214 215.32461376 -214 215.32461376 -214 212 C-214.66 212 -215.32 212 -216 212 C-216.32613281 211.14277344 -216.65226562 210.28554688 -216.98828125 209.40234375 C-217.42527344 208.25894531 -217.86226563 207.11554688 -218.3125 205.9375 C-218.74175781 204.81214844 -219.17101562 203.68679688 -219.61328125 202.52734375 C-220.52218009 200.21541234 -221.4767128 197.92079265 -222.48046875 195.6484375 C-224.25273581 191.39317418 -225.64250536 187.08892713 -227 182.6875 C-227.26127686 181.8517041 -227.52255371 181.0159082 -227.79174805 180.15478516 C-229.40121405 174.99143743 -230.97237241 169.81799241 -232.45703125 164.6171875 C-232.87397839 162.97759843 -232.87397839 162.97759843 -234 162 C-235.32858467 161.74473952 -236.66350694 161.52245583 -238 161.3125 C-243.0466199 160.36263332 -247.694745 158.7605392 -252.5 157 C-264.31863636 152.7363876 -274.50034538 151.72085139 -287 152 C-286.67 153.65 -286.34 155.3 -286 157 C-286.99 157.33 -287.98 157.66 -289 158 C-288.505 158.556875 -288.01 159.11375 -287.5 159.6875 C-285.69315209 162.4730572 -285.42964827 163.74084723 -286 167 C-287.31200404 168.35432675 -288.64631404 169.68733482 -290 171 C-290.73740217 173.51948778 -290.73740217 173.51948778 -291 176 C-291.33 176.99 -291.66 177.98 -292 179 C-291.38125 179.2475 -290.7625 179.495 -290.125 179.75 C-287.64931313 181.20628639 -287.04874998 182.37812506 -286 185 C-287.98 184.67 -289.96 184.34 -292 184 C-292.33 184.99 -292.66 185.98 -293 187 C-293.66 187 -294.32 187 -295 187 C-295 187.99 -295 188.98 -295 190 C-300.62151194 190.48184388 -304.59160045 188.8271123 -309.625 186.625 C-310.37523437 186.30789063 -311.12546875 185.99078125 -311.8984375 185.6640625 C-314.64228593 184.49646742 -317.35945316 183.33582219 -320.00146484 181.95068359 C-322.56670625 180.73042339 -325.23049318 180.21794691 -327.98046875 179.5546875 C-333.5961677 178.01227115 -337.09783269 175.21855925 -341 171 C-341.598125 170.443125 -342.19625 169.88625 -342.8125 169.3125 C-344 168 -344 168 -344 166 C-348.15052341 166.88939787 -352.24612982 167.77534846 -356.31640625 168.98828125 C-382.03726345 176.36391809 -411.84036894 174.80233125 -436 163 C-436.75667969 162.48050781 -437.51335937 161.96101562 -438.29296875 161.42578125 C-441.99047247 159.47832258 -445.51530879 159.23394655 -449.625 158.75 C-459.06334052 157.41553515 -465.47580362 154.0799777 -472.5859375 147.66796875 C-477.04141344 143.92855145 -482.26107185 141.40283088 -487.375 138.6875 C-488.39722656 138.13771484 -489.41945313 137.58792969 -490.47265625 137.02148438 C-492.97856491 135.67485122 -495.4876586 134.33458176 -498 133 C-498 132.34 -498 131.68 -498 131 C-498.99 131 -499.98 131 -501 131 C-501 130.34 -501 129.68 -501 129 C-501.8971875 128.62875 -501.8971875 128.62875 -502.8125 128.25 C-505.38438757 126.78034996 -506.53194377 125.56909841 -508 123 C-508.1875 120.25 -508.1875 120.25 -508 118 C-507.01 118 -506.02 118 -505 118 C-505 116.02 -505 114.04 -505 112 C-499.41843463 110.11971131 -493.8350025 108.24505502 -488.25 106.375 C-487.42455688 106.09855652 -486.59911377 105.82211304 -485.74865723 105.53729248 C-476.45448048 102.42902915 -467.16316242 99.35744799 -457.75 96.625 C-447.16171682 93.54139082 -436.9538281 89.70992064 -426.8125 85.375 C-416.17388571 80.9076411 -405.37919757 78.32264699 -394.05273438 76.36767578 C-392.01258366 76.00225392 -389.98348046 75.59978714 -387.953125 75.18359375 C-380.01652025 73.57336579 -372.30101336 72.57924438 -364.20703125 72.2109375 C-361.11773386 72.08311862 -361.11773386 72.08311862 -358.60745239 71.49865723 C-356.03864765 71.00739109 -353.68559451 70.84984916 -351.07373047 70.81054688 C-350.1227951 70.79382935 -349.17185974 70.77711182 -348.19210815 70.7598877 C-347.17738434 70.74631226 -346.16266052 70.73273682 -345.1171875 70.71875 C-344.0659671 70.70034058 -343.0147467 70.68193115 -341.93167114 70.66296387 C-337.4410399 70.58441857 -332.95026373 70.51644792 -328.45947266 70.44775391 C-325.17863507 70.39605356 -321.89792669 70.33880849 -318.6171875 70.28125 C-317.08902908 70.26088684 -317.08902908 70.26088684 -315.52999878 70.2401123 C-314.58536774 70.22339478 -313.64073669 70.20667725 -312.66748047 70.18945312 C-311.42102249 70.17066101 -311.42102249 70.17066101 -310.14938354 70.15148926 C-307.81494834 70.076509 -307.81494834 70.076509 -305 69 C-304.67 67.35 -304.34 65.7 -304 64 C-303.01 63.67 -302.02 63.34 -301 63 C-300.731875 62.44828125 -300.46375 61.8965625 -300.1875 61.328125 C-298.42243346 57.8676656 -295.74786702 55.45898211 -293 52.75 C-292.4534375 52.19570312 -291.906875 51.64140625 -291.34375 51.0703125 C-287.2533867 47 -287.2533867 47 -285 47 C-284.67 46.01 -284.34 45.02 -284 44 C-280.86998285 41.37923167 -277.42077501 39.22179092 -274 37 C-273.29488281 36.51789063 -272.58976563 36.03578125 -271.86328125 35.5390625 C-267.35131455 32.70296915 -263.31501101 31.57595665 -258.0625 30.6875 C-249.38044704 29.16203889 -241.9797022 25.70861012 -234.05371094 21.95605469 C-230.2905708 20.20421722 -226.44242889 18.66110727 -222.6015625 17.08984375 C-220.13877531 16.0581356 -217.72954401 14.94626806 -215.3125 13.8125 C-207.61208356 10.39163154 -200.3668457 9.68558826 -192 10 C-191 13 -191 13 -191.99609375 15.41015625 C-192.47175781 16.28542969 -192.94742187 17.16070312 -193.4375 18.0625 C-195.3804994 21.35856537 -195.3804994 21.35856537 -196 25 C-195.61328125 24.28972656 -195.2265625 23.57945313 -194.828125 22.84765625 C-194.30734375 21.92855469 -193.7865625 21.00945312 -193.25 20.0625 C-192.73953125 19.14597656 -192.2290625 18.22945312 -191.703125 17.28515625 C-190 15 -190 15 -187.796875 14.18359375 C-187.20390625 14.12300781 -186.6109375 14.06242187 -186 14 C-185.65166856 18.87664009 -186.58314288 21.77050005 -189 26 C-188.26953125 24.078125 -188.26953125 24.078125 -187 22 C-185.01171875 21.171875 -185.01171875 21.171875 -182.6875 20.75 C-181.88828125 20.60304688 -181.0890625 20.45609375 -180.265625 20.3046875 C-177.81699732 19.9753893 -175.46753166 19.84080441 -173 20 C-172.67 20.99 -172.34 21.98 -172 23 C-172.51949219 23.30292969 -173.03898437 23.60585937 -173.57421875 23.91796875 C-179.07715406 27.22379865 -183.391146 30.586719 -187 36 C-186.65358161 39.46418389 -185.96713413 41.04929881 -184 44 C-183.734375 46.12109375 -183.734375 46.12109375 -183.75 48.4375 C-183.74484375 49.19933594 -183.7396875 49.96117187 -183.734375 50.74609375 C-184.0252708 53.21443018 -184.77024344 54.857686 -186 57 C-184.02 56.34 -182.04 55.68 -180 55 C-179.34 56.32 -178.68 57.64 -178 59 C-177.34 59 -176.68 59 -176 59 C-173.67409146 62.63423209 -173.83734167 65.77088331 -174 70 C-174.66 70 -175.32 70 -176 70 C-176 70.66 -176 71.32 -176 72 C-176.825 72.639375 -177.65 73.27875 -178.5 73.9375 C-179.325 74.618125 -180.15 75.29875 -181 76 C-181 76.99 -181 77.98 -181 79 C-178.12744123 80.34909559 -178.12744123 80.34909559 -176.046875 79.03125 C-175.28890625 78.5259375 -174.5309375 78.020625 -173.75 77.5 C-169.29624705 74.69334504 -164.76477775 72.34170716 -160 70.125 C-159.3409668 69.81498047 -158.68193359 69.50496094 -158.00292969 69.18554688 C-153.2593556 67 -153.2593556 67 -151 67 C-151 66.34 -151 65.68 -151 65 C-141.49174789 60.08837529 -132.45473388 55.56742359 -122 53 C-122 52.34 -122 51.68 -122 51 C-120.14638492 49.82633941 -118.23970308 48.73595427 -116.3125 47.6875 C-111.83821127 45.15537627 -108.54586613 42.73249066 -105 39 C-102.73045792 37.32172139 -100.40216327 35.7428748 -98.0703125 34.15234375 C-94.32721813 31.52836793 -90.70135822 28.76568611 -87.0625 26 C-66.67025339 10.58747785 -66.67025339 10.58747785 -56.5625 11.125 C-47.57849826 11.26655465 -39.36267796 9.04817904 -31.1875 5.375 C-27.84588316 3.93351823 -24.72850903 3.24157236 -21.17578125 2.54296875 C-18.73186853 2.01963549 -18.73186853 2.01963549 -15.6875 0.3125 C-10.41966108 -1.56249352 -5.43450072 -1.2110735 0 0 Z M-199 27 C-199.99 28.485 -199.99 28.485 -201 30 C-200.67 30.99 -200.34 31.98 -200 33 C-199.34 32.01 -198.68 31.02 -198 30 C-198.33 29.01 -198.66 28.02 -199 27 Z M-475 114 C-476.1576585 115.87957244 -476.1576585 115.87957244 -476 118 C-474.62745522 122.20341839 -473.47029932 123.70717212 -469.6875 126.0625 C-466.03537258 127.34759041 -466.03537258 127.34759041 -462.6875 125.875 C-459.81011748 124.11059031 -459.81011748 124.11059031 -458 121 C-457.43448625 116.63746537 -457.50677349 114.70247412 -460.0625 111.0625 C-462.8960646 108.76465628 -462.8960646 108.76465628 -466.5 108.375 C-470.88415647 109.15788508 -472.30548156 110.51297613 -475 114 Z " fill="#FFFFFF" transform="translate(508,103)"/>
</svg>
