<?xml version="1.0" encoding="UTF-8"?>
<svg version="1.1" xmlns="http://www.w3.org/2000/svg" width="512" height="512">
<path d="M0 0 C0.4112059 1.23805893 0.8224118 2.47611786 1.24607849 3.75169373 C5.11299145 15.39289506 8.98303571 27.03305122 12.85618496 38.67217922 C14.84752548 44.65665853 16.83774299 50.64150653 18.82543945 56.62719727 C20.74205565 62.39870327 22.66156225 68.16924035 24.58311653 73.93910408 C25.31740411 76.14567537 26.05063176 78.35259965 26.78280449 80.55987358 C27.80483053 83.64037207 28.83054541 86.71961811 29.85717773 89.79858398 C30.16215683 90.72071182 30.46713593 91.64283966 30.78135681 92.59291077 C31.06039856 93.42728668 31.33944031 94.2616626 31.62693787 95.12132263 C31.86936942 95.85046088 32.11180098 96.57959913 32.36157894 97.33083248 C32.87359133 99.00953795 32.87359133 99.00953795 34 100 C35.57765449 99.81559637 37.14619021 99.55238614 38.70703125 99.2578125 C39.68140137 99.07903564 40.65577148 98.90025879 41.65966797 98.71606445 C42.70010254 98.52101318 43.74053711 98.32596191 44.8125 98.125 C52.24761023 96.77008894 59.53153383 95.55676703 67.0859375 95.17578125 C69.00819087 95.20496826 69.00819087 95.20496826 70 94 C69.43152344 93.6596875 68.86304688 93.319375 68.27734375 92.96875 C58.18388564 86.6329566 52.74092033 79.6095511 49.46728516 68.13232422 C46.48052287 54.50307564 48.82997075 39.9095678 56.28125 28.2578125 C61.39904122 21.53489585 68.8064196 17.68218836 77 16 C89.78496969 14.66147026 101.05358377 15.60265031 111.8125 23.125 C120.0098246 29.95610384 123.98925372 39.55562178 125 50 C125.6202068 63.28746083 124.00926113 76.06041876 114.8515625 86.43359375 C110.49762866 90.48290082 106.47959663 92.80949296 101 95 C101.62753174 95.09498779 102.25506348 95.18997559 102.90161133 95.2878418 C145.39661397 101.80975449 185.42633775 115.91454095 218 145 C218.49290527 145.43940918 218.98581055 145.87881836 219.49365234 146.33154297 C223.04159925 149.50682941 226.53252493 152.73708101 230 156 C230.65871094 156.61617187 231.31742187 157.23234375 231.99609375 157.8671875 C237.14614491 162.83883043 241.59149531 168.37122121 246 174 C246.42297363 174.53592773 246.84594727 175.07185547 247.28173828 175.62402344 C260.46560848 192.46219829 270.29196635 211.09555261 278 231 C278.38792725 231.99990967 278.38792725 231.99990967 278.78369141 233.02001953 C281.75174708 240.85050321 283.79085223 248.85708674 285.6875 257 C285.89020508 257.8655249 286.09291016 258.7310498 286.30175781 259.62280273 C289.55237493 274.22208937 290.40956497 288.47933628 290.375 303.375 C290.37368576 304.76196075 290.37368576 304.76196075 290.37234497 306.17694092 C290.21113406 357.8771134 271.01867459 405.28350844 237 444 C236.35289062 444.76957031 235.70578125 445.53914063 235.0390625 446.33203125 C231.6539083 450.33754177 228.07837834 453.84800003 224.07421875 457.234375 C222.69896853 458.40502114 221.34660448 459.60313432 220.01953125 460.828125 C186.85682391 491.43985486 139.15023596 511.8086983 93.91015625 512.23828125 C93.05664581 512.2480751 92.20313538 512.25786896 91.32376099 512.26795959 C40.04572761 512.73501129 -8.82374908 500.25816208 -49 467 C-49.57733887 466.5241748 -50.15467773 466.04834961 -50.74951172 465.55810547 C-62.30639459 455.97883764 -72.74319356 445.86435754 -82 434 C-82.7528125 433.0409375 -83.505625 432.081875 -84.28125 431.09375 C-89.71231687 424.02592326 -94.58606718 416.7421573 -99 409 C-99.42039551 408.26700684 -99.84079102 407.53401367 -100.27392578 406.77880859 C-120.9624799 370.25512332 -127.95125861 331.59683175 -127 290 C-132.46839086 287.86351353 -137.88893199 286.1169368 -143.5715332 284.65576172 C-144.38718246 284.44235138 -145.20283173 284.22894104 -146.04319763 284.00906372 C-148.71137373 283.3119639 -151.38105539 282.62082587 -154.05078125 281.9296875 C-155.91556572 281.44352607 -157.78024411 280.95695757 -159.64482117 280.47000122 C-164.53347913 279.19428833 -169.42340225 277.92349654 -174.31365967 276.65393066 C-182.15827774 274.6163385 -190.0007855 272.57063287 -197.84358788 270.52606583 C-200.58145834 269.81297591 -203.31977271 269.10161295 -206.05818176 268.39059448 C-207.73060533 267.95556275 -209.40302479 267.5205152 -211.07543945 267.08544922 C-212.21860123 266.78933746 -212.21860123 266.78933746 -213.38485718 266.48724365 C-216.28900603 265.73083967 -219.15192274 264.94935909 -222 264 C-221.47458553 256.2501365 -219.44408524 249.3549914 -217 242 C-208.66041343 243.34965598 -200.58038117 245.32747036 -192.4375 247.5625 C-191.26380859 247.87896484 -190.09011719 248.19542969 -188.88085938 248.52148438 C-180.28415376 250.85792312 -180.28415376 250.85792312 -178 252 C-177.91878906 250.9996875 -177.83757812 249.999375 -177.75390625 248.96875 C-176.88324138 242.00343104 -174.78676289 235.25603723 -172.9375 228.5 C-172.55614707 227.09127935 -172.17528343 225.68242615 -171.79492188 224.2734375 C-170.86892205 220.84741051 -169.93629766 217.42322897 -169 214 C-169.55872803 213.89623047 -170.11745605 213.79246094 -170.69311523 213.68554688 C-178.22331773 212.2378096 -185.63697017 210.40725592 -193.0625 208.5 C-194.29677734 208.19191406 -195.53105469 207.88382813 -196.80273438 207.56640625 C-197.97255859 207.26605469 -199.14238281 206.96570313 -200.34765625 206.65625 C-201.40992432 206.38619141 -202.47219238 206.11613281 -203.56665039 205.83789062 C-206 205 -206 205 -207 203 C-206.65454102 201.02880859 -206.65454102 201.02880859 -206.00390625 198.6484375 C-205.77509766 197.79765625 -205.54628906 196.946875 -205.31054688 196.0703125 C-205.06369141 195.18085938 -204.81683594 194.29140625 -204.5625 193.375 C-204.31951172 192.4778125 -204.07652344 191.580625 -203.82617188 190.65625 C-203.22378549 188.43568842 -202.61481999 186.21714519 -202 184 C-197.31930785 182.55440645 -193.5442307 183.6045493 -188.97192383 184.87426758 C-188.17771027 185.08548752 -187.3834967 185.29670746 -186.56521606 185.514328 C-183.9429983 186.21430517 -181.32516809 186.92945602 -178.70703125 187.64453125 C-176.87753165 188.13545349 -175.04774879 188.62532121 -173.21769714 189.11418152 C-168.39721188 190.40446382 -163.58018537 191.70720329 -158.76391602 193.01312256 C-151.07440341 195.09579165 -143.37968039 197.15913119 -135.68518639 199.22330284 C-133.00892135 199.94307558 -130.33405035 200.667843 -127.65937805 201.39350891 C-119.8082443 203.51519989 -112.01191557 205.561885 -104 207 C-103.3709375 205.90042969 -102.741875 204.80085937 -102.09375 203.66796875 C-97.13947622 195.08399459 -92.07123018 186.85189825 -86 179 C-86.95519531 178.97421875 -87.91039062 178.9484375 -88.89453125 178.921875 C-105.02707357 178.21416626 -116.64811936 173.13552528 -127.9375 161.0625 C-135.70573163 151.58487755 -137.95408235 142.03506736 -137 130 C-134.5691639 118.82694011 -127.33854475 109.45528908 -118 103 C-108.7323212 97.67142194 -99.47738147 96.33400413 -89.01953125 98.6640625 C-76.26641922 102.80117924 -65.84517082 111.82102208 -59.2890625 123.390625 C-55.73282497 130.58931187 -54.61392442 137.02110473 -55 145 C-54.56171875 144.67128906 -54.1234375 144.34257812 -53.671875 144.00390625 C-52.2997916 142.9748437 -50.92735687 141.94624954 -49.5546875 140.91796875 C-47.70327912 139.52799701 -45.85467963 138.13428134 -44.0078125 136.73828125 C-42.97398437 135.95839844 -41.94015625 135.17851562 -40.875 134.375 C-39.41707031 133.27285156 -39.41707031 133.27285156 -37.9296875 132.1484375 C-35.00411769 130.00301964 -32.0329598 127.98897364 -29 126 C-32.70670507 118.23522285 -36.94462513 110.87103686 -41.375 103.5 C-42.80843713 101.10171656 -44.23859857 98.70149039 -45.66796875 96.30078125 C-46.02975723 95.69353714 -46.39154572 95.08629303 -46.76429749 94.46064758 C-50.46551838 88.23757034 -54.08190224 81.9663923 -57.6875 75.6875 C-63.00871671 66.42136439 -68.39652306 57.1986639 -73.87768555 48.02612305 C-76.42229202 43.75116775 -78.85726065 39.49094686 -81 35 C-78.0460832 33.15947576 -75.08617092 31.32882635 -72.125 29.5 C-71.28324219 28.97535156 -70.44148437 28.45070313 -69.57421875 27.91015625 C-68.76855469 27.41386719 -67.96289062 26.91757812 -67.1328125 26.40625 C-66.01737061 25.71499023 -66.01737061 25.71499023 -64.87939453 25.00976562 C-63 24 -63 24 -61 24 C-60.62939453 24.64622314 -60.25878906 25.29244629 -59.87695312 25.95825195 C-52.01838638 39.64942385 -44.07861926 53.28410841 -36.00634766 66.85058594 C-30.6073332 75.93908083 -25.30608097 85.0801024 -20.046875 94.25 C-19.47195312 95.25160156 -18.89703125 96.25320312 -18.3046875 97.28515625 C-17.75651367 98.2405127 -17.20833984 99.19586914 -16.64355469 100.18017578 C-14.51260796 103.83621183 -12.30247134 107.4415575 -10.07080078 111.03686523 C-9 113 -9 113 -9 115 C-2.73 112.36 3.54 109.72 10 107 C8.53946803 100.14317053 8.53946803 100.14317053 6.62057495 93.51441956 C6.365401 92.74766403 6.11022705 91.98090851 5.84732056 91.19091797 C5.57398895 90.38485107 5.30065735 89.57878418 5.01904297 88.74829102 C4.7261438 87.87236801 4.43324463 86.99644501 4.13146973 86.09397888 C3.1724902 83.22922339 2.20727125 80.36661042 1.2421875 77.50390625 C0.57195685 75.50389977 -0.09778458 73.50372928 -0.76705933 71.50340271 C-2.5223164 66.26033102 -4.28246461 61.01891669 -6.04418945 55.77801514 C-8.87182007 47.36554258 -11.69481084 38.95152368 -14.51241684 30.5356884 C-15.49807541 27.59545217 -16.48756545 24.65652433 -17.47732544 21.71766663 C-18.07765039 19.92714583 -18.67782747 18.13657545 -19.27783203 16.34594727 C-19.5552121 15.52571075 -19.83259216 14.70547424 -20.11837769 13.86038208 C-22 8.22747557 -22 8.22747557 -22 6 C-19.27411167 4.99018911 -16.54487736 3.99196692 -13.8125 3 C-12.65911133 2.57074219 -12.65911133 2.57074219 -11.48242188 2.1328125 C-10.73154297 1.86210937 -9.98066406 1.59140625 -9.20703125 1.3125 C-8.5210083 1.06113281 -7.83498535 0.80976562 -7.12817383 0.55078125 C-4.68728116 -0.08093308 -2.51214966 -0.03653494 0 0 Z M76 37 C70.37455463 45.69736093 70.03223491 55.28051552 71.8125 65.25 C72.91205521 70.17509106 74.16988739 73.57657908 78.25 76.75 C82.87050621 78.8502301 86.62026366 79.21409702 91.625 78.4375 C96.5872181 76.32396266 99.05704341 73.26507404 101.1171875 68.31640625 C102.1587102 64.40378337 102.34333257 60.70690583 102.3125 56.6875 C102.30758545 55.93637939 102.3026709 55.18525879 102.29760742 54.41137695 C102.15029179 47.43314871 101.61777631 41.5539281 96.4375 36.5 C90.54374564 32.87307424 81.32075441 31.84048057 76 37 Z M-114.3125 124.625 C-117.16399618 128.63821684 -117.40680203 131.03701518 -117 136 C-113.27523591 144.9732953 -104.89578068 152.96408094 -96.21875 157.2109375 C-92.31238138 158.60017423 -89.03596667 159.13377862 -85 158 C-80.9547528 155.50473584 -77.9523149 152.52370384 -75.4375 148.5 C-74.48849636 143.07712206 -75.65241084 139.15819251 -78.5 134.5625 C-83.60953741 127.3993686 -90.48978008 120.79023604 -99 118 C-105.98311663 117.0368115 -109.75938109 119.45659475 -114.3125 124.625 Z M-150 219 C-152.6156007 227.15451983 -154.97735038 235.36927994 -157.25 243.625 C-157.52021973 244.59711426 -157.79043945 245.56922852 -158.06884766 246.57080078 C-158.44468994 247.94727783 -158.44468994 247.94727783 -158.828125 249.3515625 C-159.0540332 250.17479004 -159.27994141 250.99801758 -159.51269531 251.84619141 C-160.11033742 254.11963245 -160.11033742 254.11963245 -160 257 C-155.37532112 258.28827077 -150.7488519 259.56982013 -146.12060547 260.84521484 C-144.54685457 261.27990072 -142.9736059 261.71640917 -141.40087891 262.15478516 C-139.13834571 262.78509289 -136.87407903 263.40879373 -134.609375 264.03125 C-133.90818542 264.22811401 -133.20699585 264.42497803 -132.48455811 264.62780762 C-129.15398897 265.53656022 -126.48704496 266 -123 266 C-122.83918945 265.30551758 -122.67837891 264.61103516 -122.51269531 263.89550781 C-121.76433379 260.6789411 -121.00720836 257.4644951 -120.25 254.25 C-119.87101562 252.61224609 -119.87101562 252.61224609 -119.484375 250.94140625 C-117.7167435 243.47316316 -115.55018635 236.23807705 -113 229 C-125.27866607 225.42528917 -137.56506542 221.99001256 -150 219 Z " fill="#FEFEFE" transform="translate(222,0)"/>
</svg>
