<?xml version="1.0" encoding="UTF-8"?>
<svg version="1.1" xmlns="http://www.w3.org/2000/svg" width="512" height="486">
<path d="M0 0 C0.98637451 0.43868408 0.98637451 0.43868408 1.99267578 0.88623047 C23.90298939 10.78070391 42.20320142 26.32433523 56 46 C56.63929443 46.90758057 56.63929443 46.90758057 57.29150391 47.83349609 C78.41738985 78.3753085 85.75167899 116.36510334 79.92358398 152.92285156 C74.50022057 180.97942776 60.63379402 204.62024116 41 225 C40.35804688 225.70511719 39.71609375 226.41023437 39.0546875 227.13671875 C15.66151618 252.09956174 -18.80580857 264.06534343 -52.21484375 265.91552734 C-59.49578195 266.13635524 -66.74916825 265.61958608 -74 265 C-74.10505859 266.19834473 -74.21011719 267.39668945 -74.31835938 268.63134766 C-75.04657259 275.14860202 -76.50045805 281.49960201 -77.90625 287.8984375 C-78.19423814 289.22352632 -78.4818702 290.54869258 -78.76916504 291.87393188 C-79.36823514 294.63287709 -79.97026195 297.39115326 -80.57470703 300.14892578 C-81.34901715 303.68196503 -82.11783237 307.21617101 -82.88471222 310.7508297 C-83.4769182 313.47916897 -84.07097243 316.20710289 -84.66569519 318.93489456 C-85.08773031 320.8708244 -85.50901949 322.80691681 -85.93029785 324.74301147 C-86.1872644 325.91498077 -86.44423096 327.08695007 -86.70898438 328.29443359 C-86.93469116 329.32651947 -87.16039795 330.35860535 -87.39294434 331.42196655 C-88 334 -88 334 -89 337 C-88.071875 337.185625 -87.14375 337.37125 -86.1875 337.5625 C-70.90909812 342.01998143 -58.80625018 355.76399919 -51 369 C-41.77992292 386.72559819 -40.37586332 406.96446048 -46 426 C-51.84541855 444.06348948 -64.4257367 458.72624382 -81.10546875 467.6640625 C-92.27775293 473.08335447 -102.90348984 475.56042857 -115.3125 475.4375 C-116.40336914 475.42920166 -117.49423828 475.42090332 -118.61816406 475.41235352 C-138.25493991 475.00313266 -154.20562915 467.30129515 -168.3359375 453.76171875 C-182.78580717 438.69538706 -188.59024797 420.21409682 -188.29296875 399.58203125 C-187.92451239 390.80828099 -185.41270895 382.05522294 -182 374 C-182.71663818 373.73678955 -183.43327637 373.4735791 -184.17163086 373.20239258 C-187.0969565 371.95878198 -189.58470082 370.48497414 -192.25390625 368.76171875 C-193.26324219 368.11291748 -194.27257812 367.46411621 -195.3125 366.7956543 C-196.385 366.09996338 -197.4575 365.40427246 -198.5625 364.6875 C-199.68597844 363.9629571 -200.80967903 363.23875854 -201.93359375 362.51489258 C-205.29293488 360.3492081 -208.64683901 358.17524149 -212 356 C-212.94085449 355.39027344 -213.88170898 354.78054688 -214.85107422 354.15234375 C-219.01862481 351.45039845 -223.182834 348.74340031 -227.34375 346.03125 C-231.16498073 343.54108131 -234.9942071 341.06356298 -238.82641602 338.59033203 C-246.26188895 333.79147462 -253.65626044 328.93827573 -261 324 C-261.86625 324.763125 -262.7325 325.52625 -263.625 326.3125 C-286.48365804 345.80008322 -310.99725007 359.39492142 -342 357 C-371.22782081 354.01494912 -394.23248532 340.91531948 -413.1015625 318.50390625 C-429.48386863 296.32420869 -433.50226226 270.2831224 -430.71582031 243.2421875 C-426.85675186 218.16341556 -411.2464928 196.06368405 -391.125 181.125 C-368.12850333 166.20937408 -342.02306252 160.54973079 -315 166 C-291.25239545 171.59154124 -268.24073597 186.19312918 -255 207 C-249.9796371 205.48783657 -245.49233769 203.36904919 -240.83984375 201 C-239.67094856 200.41137932 -239.67094856 200.41137932 -238.47843933 199.81086731 C-236.81855052 198.97474164 -235.15951851 198.13691316 -233.50128174 197.29751587 C-229.22016412 195.13086573 -224.93253324 192.97720449 -220.64453125 190.82421875 C-219.8063385 190.40315353 -218.96814575 189.98208832 -218.10455322 189.54826355 C-208.80554145 184.88541117 -199.42747029 180.39722535 -190 176 C-190 172.79142786 -190.13787336 171.0564899 -191.0234375 168.12890625 C-191.24 167.38833984 -191.4565625 166.64777344 -191.6796875 165.88476562 C-192.13292686 164.37099708 -192.58854154 162.85793709 -193.046875 161.34570312 C-196.31742121 150.12003423 -197.36858179 138.97426099 -197.3125 127.3125 C-197.30512817 125.47993652 -197.30512817 125.47993652 -197.29760742 123.61035156 C-196.80021726 84.95165811 -179.54044943 50.85458642 -152.39624023 23.98095703 C-146.37233597 18.17345256 -140.25667953 13.21968278 -133 9 C-132.31776367 8.5973291 -131.63552734 8.1946582 -130.93261719 7.77978516 C-118.86280119 0.76337563 -106.46945864 -4.33964652 -93 -8 C-92.29713867 -8.19207031 -91.59427734 -8.38414063 -90.87011719 -8.58203125 C-62.00291987 -15.95717089 -26.89120341 -12.16691336 0 0 Z M-185.9921875 201.82421875 C-186.60200974 202.12215836 -187.21183197 202.42009796 -187.84013367 202.72706604 C-189.16177552 203.37291853 -190.48262182 204.02040098 -191.80276489 204.66931152 C-195.30803503 206.39161883 -198.81964738 208.10085012 -202.33203125 209.80859375 C-203.05041672 210.15798004 -203.76880219 210.50736633 -204.50895691 210.86734009 C-212.98450787 214.97866393 -221.5317783 218.93255091 -230.08740234 222.8737793 C-231.17359863 223.37433838 -232.25979492 223.87489746 -233.37890625 224.390625 C-234.3232251 224.82407227 -235.26754395 225.25751953 -236.24047852 225.70410156 C-239.18597284 227.08733468 -242.0950638 228.53374222 -245 230 C-244.69255859 231.34191406 -244.69255859 231.34191406 -244.37890625 232.7109375 C-239.70678775 253.67958415 -240.00906654 273.20174617 -246.87890625 293.63671875 C-247.69938562 296.09815685 -248.39588928 298.48510182 -249 301 C-242.26174174 305.77866275 -235.43338811 310.38498072 -228.5 314.875 C-226.4725303 316.19251454 -224.44519168 317.5102308 -222.41796875 318.828125 C-221.36915527 319.50939453 -220.3203418 320.19066406 -219.23974609 320.89257812 C-214.85978704 323.74169693 -210.48716271 326.60194336 -206.11572266 329.46411133 C-203.92292146 330.89858904 -201.72859611 332.33073972 -199.53271484 333.76049805 C-194.34153902 337.14239066 -189.17260753 340.54895749 -184.05078125 344.03515625 C-183.13127686 344.65374512 -182.21177246 345.27233398 -181.2644043 345.90966797 C-179.54737169 347.06621514 -177.83864424 348.23522201 -176.13989258 349.41845703 C-175.38474365 349.9236084 -174.62959473 350.42875977 -173.8515625 350.94921875 C-172.87437256 351.61957153 -172.87437256 351.61957153 -171.87744141 352.3034668 C-169.96037925 353.24442752 -169.96037925 353.24442752 -167.87158203 352.23217773 C-165.72014867 350.81575663 -164.06788627 349.20015782 -162.25 347.375 C-150.6712106 336.91981023 -135.91789886 332.43957797 -120.6015625 331.43359375 C-119.35971191 331.35036865 -118.11786133 331.26714355 -116.83837891 331.18139648 C-115.90171387 331.12153564 -114.96504883 331.0616748 -114 331 C-113.8032795 330.05065079 -113.8032795 330.05065079 -113.60258484 329.0821228 C-112.22398396 322.42963137 -110.84471929 315.77727779 -109.46508789 309.125 C-108.95190054 306.65009963 -108.43887629 304.17516543 -107.92602539 301.70019531 C-107.42780971 299.29595292 -106.92936909 296.89175713 -106.43069458 294.48760986 C-105.94553094 292.14848512 -105.46088603 289.80925272 -104.97677612 287.46990967 C-103.53024539 280.49511555 -102.04248169 273.53292269 -100.45629883 266.58837891 C-100.00039882 264.0022623 -99.91282384 261.6200452 -100 259 C-101.40185547 258.52433594 -101.40185547 258.52433594 -102.83203125 258.0390625 C-119.36217895 252.24380225 -134.7142687 244.5140199 -148 233 C-148.54350098 232.53335938 -149.08700195 232.06671875 -149.64697266 231.5859375 C-160.1552437 222.47531827 -168.98958124 212.43900561 -176.625 200.765625 C-177.305625 199.89164063 -177.305625 199.89164063 -178 199 C-181.06997711 199 -183.24805135 200.47525416 -185.9921875 201.82421875 Z " fill="#FFFFFF" transform="translate(431,11)"/>
</svg>
