<?xml version="1.0" encoding="UTF-8"?>
<svg version="1.1" xmlns="http://www.w3.org/2000/svg" width="512" height="512">
<path d="M0 0 C1.72863281 -0.02900391 1.72863281 -0.02900391 3.4921875 -0.05859375 C12.8183527 1.21497935 18.2422713 6.97446877 24.63354492 13.53442383 C26.0459702 14.98304657 27.4734245 16.41532339 28.90429688 17.84570312 C35.05596694 24.0743225 40.6947032 30.57517307 46.125 37.4375 C47.04148948 38.56785202 47.95812314 39.69808718 48.875 40.828125 C81.23599747 81.95355928 94.93150238 135.69345983 89.35571289 187.46044922 C82.58504942 240.55694942 56.5992596 281.12693936 19.48095703 318.22680664 C18.25573972 319.4550251 17.03072441 320.6834451 15.80589294 321.91204834 C12.51738882 325.20928873 9.22574163 328.50337303 5.93318796 331.79656911 C3.87266339 333.85780888 1.81285429 335.91976088 -0.24670792 337.9819622 C-7.44060457 345.1850702 -14.63703835 352.38563188 -21.8359375 359.58374023 C-28.53612293 366.2833225 -35.23068222 372.98849096 -41.92269218 379.69623858 C-47.68583253 385.47244688 -53.45281393 391.24480104 -59.22281182 397.01415914 C-62.66189786 400.45299045 -66.09941901 403.8933509 -69.53307724 407.33760262 C-72.75447725 410.56867368 -75.98062977 413.79492213 -79.21050835 417.01751709 C-80.39378495 418.19974739 -81.57535755 419.38368604 -82.7550869 420.5694561 C-84.36622489 422.18830873 -85.98341677 423.80086483 -87.6022644 425.41200256 C-88.50516142 426.31544435 -89.40805843 427.21888613 -90.33831596 428.14970493 C-95.40640763 432.72053636 -99.82822802 434.54395947 -106.5625 434.75 C-107.35011719 434.78738281 -108.13773437 434.82476562 -108.94921875 434.86328125 C-119.61104718 433.3116934 -126.09217037 425.93731434 -133.25 418.5625 C-134.37290506 417.42140991 -135.49595253 416.28045994 -136.61914062 415.13964844 C-143.9558054 407.63955307 -150.83910202 400.04444776 -156.875 391.4375 C-157.65916659 390.35865497 -158.44434137 389.28054209 -159.23046875 388.203125 C-190.3891739 344.94583624 -202.55054855 290.95588912 -194.40234375 238.38818359 C-186.1026321 190.65715671 -162.64304645 152.85223393 -128.76611328 119.05395508 C-127.50275752 117.78623735 -126.23981544 116.51810726 -124.97724915 115.24960327 C-121.59186885 111.8509961 -118.20028391 108.45864979 -114.80700922 105.06792665 C-111.9642666 102.22626276 -109.12452589 99.38160795 -106.28470886 96.53702086 C-99.58926101 89.83053916 -92.88857545 83.12932323 -86.18457031 76.43139648 C-79.27854788 69.53143908 -72.38181567 62.62229271 -65.48944485 55.70870095 C-59.55061656 49.75226412 -53.60600558 43.80164227 -47.65673816 37.85563201 C-44.11207733 34.31278187 -40.56966563 30.76775525 -37.03287125 27.21705055 C-33.71520883 23.88682305 -30.39038422 20.56391688 -27.05991173 17.24650192 C-25.84070782 16.0296644 -24.62405025 14.81026936 -23.41016197 13.58812904 C-21.75133692 11.91884275 -20.0835041 10.25909923 -18.41311646 8.60139465 C-17.01785579 7.20588237 -17.01785579 7.20588237 -15.59440804 5.78217793 C-10.63790782 1.50867557 -6.5045897 0.00724342 0 0 Z M-58.875 131.4375 C-59.44992188 132.00210938 -60.02484375 132.56671875 -60.6171875 133.1484375 C-69.54950406 142.63613125 -73.71765554 155.93206121 -74.3125 168.75 C-73.87644318 181.21395752 -69.91104603 192.22232308 -62.875 202.4375 C-62.153125 203.489375 -61.43125 204.54125 -60.6875 205.625 C-49.03746005 217.27503995 -35.07136904 224.27943841 -18.5625 224.75 C-3.92538975 224.44435269 10.563399 218.82450375 21.16796875 208.59375 C32.22092779 196.41563945 37.76180961 182.3404807 37.43359375 165.9296875 C36.135912 151.24452944 29.90019175 136.92459021 18.5703125 127.2578125 C-5.83427315 107.92430958 -36.77873843 109.02444615 -58.875 131.4375 Z " fill="#FFFFFF" transform="translate(286.875,-0.4375)"/>
<path d="M0 0 C7.19382773 6.91965281 11.57590415 15.10643992 12.4609375 25.109375 C12.5539939 34.52668227 11.39793742 41.76662516 7.125 50.3125 C7.69605469 50.03535156 8.26710938 49.75820313 8.85546875 49.47265625 C19.89815232 44.53943831 30.76398133 44.05796214 42.125 48.3125 C51.51548948 52.57842628 59.16477562 59.7198045 63.37890625 69.234375 C67.20440051 79.88967839 67.19057554 91.52338002 62.4609375 101.921875 C49.96808763 124.27750108 22.64838497 138.36711515 -1 145.625 C-1.78665039 145.86766602 -2.57330078 146.11033203 -3.38378906 146.36035156 C-15.2626321 149.81503771 -27.109137 150.72222364 -39.4375 150.6875 C-40.48440506 150.68718277 -40.48440506 150.68718277 -41.55245972 150.68685913 C-53.36377111 150.65129761 -64.48567354 149.55479481 -75.875 146.3125 C-76.54192871 146.13058105 -77.20885742 145.94866211 -77.89599609 145.76123047 C-96.47687672 140.58006789 -113.18151446 130.64235686 -127.875 118.3125 C-128.62136719 117.70148438 -129.36773437 117.09046875 -130.13671875 116.4609375 C-135.46792936 111.98705651 -140.32173855 107.41883108 -141.11328125 100.11328125 C-141.13777344 99.29214844 -141.16226563 98.47101563 -141.1875 97.625 C-141.22488281 96.81675781 -141.26226562 96.00851562 -141.30078125 95.17578125 C-140.05116857 86.77242261 -134.47628576 81.33154983 -128.70092773 75.60498047 C-127.87920578 74.77464294 -127.05748383 73.94430542 -126.21086121 73.08880615 C-123.50352588 70.35885134 -120.78179269 67.6438116 -118.05859375 64.9296875 C-116.64186385 63.50904471 -115.22513985 62.08839575 -113.80918556 60.66697991 C-109.35989758 56.20073302 -104.90047434 51.7447927 -100.43432617 47.29541016 C-95.84802157 42.72600189 -91.27829619 38.1404921 -86.71663326 33.54649436 C-82.78160826 29.58465083 -78.8368077 25.63273042 -74.88412625 21.68850243 C-72.53145903 19.3407315 -70.18356905 16.98869768 -67.84261894 14.62920761 C-65.2252539 11.99430468 -62.59226246 9.37603081 -59.95483398 6.76123047 C-59.19650269 5.99120697 -58.43817139 5.22118347 -57.65686035 4.42782593 C-41.5101329 -11.44014055 -18.28255454 -15.10297984 0 0 Z " fill="#FFFFFF" transform="translate(355.875,361.6875)"/>
</svg>
