<?xml version="1.0" encoding="UTF-8"?>
<svg version="1.1" xmlns="http://www.w3.org/2000/svg" width="512" height="512">
<path d="M0 0 C0.71269255 -0.00297112 1.42538511 -0.00594224 2.15967441 -0.0090034 C4.53612884 -0.01764104 6.91253261 -0.01919444 9.28900146 -0.02069092 C10.99777839 -0.02532257 12.70655428 -0.0303477 14.41532898 -0.03573608 C19.04979446 -0.04882818 23.68424547 -0.05529874 28.31872654 -0.05974674 C31.21709193 -0.06268248 34.11545342 -0.06678822 37.01381683 -0.07125092 C46.09072833 -0.08491712 55.16763083 -0.0945882 64.2445519 -0.09845281 C74.70670239 -0.10293226 85.16872216 -0.12047866 95.63083291 -0.1494534 C103.72871041 -0.17109861 111.8265512 -0.18115859 119.92445731 -0.18249393 C124.75598671 -0.18353987 129.58739308 -0.18940284 134.41889191 -0.20731354 C138.96616585 -0.22384348 143.5132249 -0.22592591 148.06051826 -0.21717453 C149.72371307 -0.2164068 151.38691967 -0.22071182 153.05008507 -0.23063278 C168.31474018 -0.31630413 180.34527662 2.15160922 191.9520874 12.76544189 C201.00489514 22.27731696 203.18313622 33.05245432 202.97064209 45.64483643 C202.70204883 52.13435742 200.89362199 57.9530174 198.8270874 64.07794189 C198.38370641 65.45673895 197.94308338 66.83642508 197.50482178 68.21685791 C196.49928266 71.3758335 195.4812957 74.53047927 194.45697021 77.68341064 C192.47304621 83.81950328 190.56633076 89.97894772 188.6630249 96.14044189 C188.12719284 97.87470177 188.12719284 97.87470177 187.58053589 99.64399719 C186.83626355 102.05335416 186.09209437 104.46274299 185.34802246 106.87216187 C183.59848036 112.52991543 181.84007737 118.1849066 180.08111954 123.83973885 C179.08080988 127.05561262 178.08089466 130.27160902 177.08099365 133.48760986 C176.88313326 134.12397527 176.68527287 134.76034067 176.4814167 135.41598988 C173.25635977 145.78954277 170.03815216 156.16522296 166.81903076 166.5406189 C164.94701403 172.57398562 163.07452604 178.60720609 161.2020874 184.64044189 C160.45208516 187.05710787 159.70208516 189.47377453 158.9520874 191.89044189 C157.4520874 196.72377523 155.9520874 201.55710856 154.4520874 206.39044189 C154.08081726 207.58675735 153.70954712 208.78307281 153.32702637 210.01564026 C152.5772311 212.43164611 151.82743455 214.84765156 151.07763672 217.26365662 C149.19949384 223.31543052 147.32137338 229.36721139 145.44329834 235.41900635 C142.10582991 246.17338709 138.76822927 256.92772667 135.42974854 267.68179321 C127.55132963 293.0601667 119.67799013 318.44010191 111.81428242 343.82303715 C110.179156 349.10089898 108.54362351 354.37863486 106.90789795 359.65631104 C105.983808 362.63799501 105.05973956 365.61968565 104.13568115 368.60137939 C103.90822897 369.33529089 103.68077679 370.06920238 103.44643211 370.82535362 C100.77606039 379.44209154 98.1078624 388.05949588 95.44373131 396.67816544 C93.79782907 402.00272811 92.15051859 407.32685367 90.50217628 412.65066147 C89.55481434 415.71076268 88.60849388 418.77117938 87.66375732 421.83209229 C84.16683545 433.16122149 80.64265592 444.48065873 76.9442749 455.74591064 C76.67434219 456.57974274 76.40440948 457.41357483 76.126297 458.27267456 C69.56301283 478.03271651 57.1744388 494.71262994 38.52996826 504.45758057 C27.12866966 510.08566962 15.1758941 512.29041032 2.53085327 512.28761292 C1.62875732 512.2912896 0.72666137 512.29496629 -0.20277083 512.29875439 C-3.21414557 512.30973436 -6.22548574 512.3136253 -9.23687744 512.31744385 C-11.40062061 512.32371258 -13.5643627 512.33035974 -15.72810364 512.33735657 C-22.82167824 512.358343 -29.91525294 512.36875092 -37.0088501 512.37872314 C-39.45384355 512.38277212 -41.89883689 512.38688908 -44.34383011 512.39107323 C-55.82718363 512.41010955 -67.31053077 512.4243463 -78.79389703 512.4326852 C-92.04185091 512.44246521 -105.28963805 512.46881134 -118.53753316 512.50918609 C-128.78486535 512.53934351 -139.0321497 512.55415355 -149.2795254 512.55746621 C-155.3970923 512.55981622 -161.51448073 512.56877139 -167.63199997 512.59392738 C-173.3858464 512.61720772 -179.1393968 512.62144132 -184.89327812 512.611166 C-187.00196378 512.6106706 -189.11066402 512.61699222 -191.21930504 512.63072205 C-194.10412706 512.64845158 -196.98788772 512.64132948 -199.87271118 512.62818909 C-201.11607493 512.64464296 -201.11607493 512.64464296 -202.38455713 512.66142923 C-210.95526035 512.56755485 -218.1273815 509.19288803 -224.33306885 503.34356689 C-244.0827673 481.19877578 -249.56950089 445.04118959 -256.0322876 417.18731689 C-256.66504488 414.48229011 -257.30014682 411.77781517 -257.93516541 409.07331848 C-259.28296479 403.32791683 -260.6253978 397.58128469 -261.96389771 391.83370972 C-263.89002417 383.56297722 -265.82461571 375.29424291 -267.76147592 367.02601826 C-270.66225907 354.6425559 -273.55848415 342.25803477 -276.45132506 329.87271488 C-280.58206983 312.18829999 -284.73025578 294.50802371 -288.88758516 276.82984114 C-289.68482647 273.43963775 -290.4818797 270.04939014 -291.27896118 266.65914917 C-292.50424357 261.44777823 -293.72961685 256.23642868 -294.95501709 251.02508545 C-297.52316324 240.10288126 -300.09088325 229.18057812 -302.65500832 218.25742912 C-303.15834386 216.11382951 -303.66197701 213.97029976 -304.16592979 211.82684517 C-304.84927833 208.92024428 -305.5316143 206.01340754 -306.21368408 203.10650635 C-306.41235958 202.26249645 -306.61103508 201.41848656 -306.81573105 200.5489006 C-310.41862287 185.17459603 -311.49352962 170.23512436 -303.6104126 156.01544189 C-296.73098861 145.23147998 -287.20394003 138.19147049 -274.9151001 134.68341064 C-268.87419634 133.43014852 -262.94705708 133.0126728 -256.78717041 132.97930908 C-256.08351349 132.97434418 -255.37985657 132.96937927 -254.65487671 132.96426392 C-252.35358663 132.9497975 -250.05236545 132.94286656 -247.7510376 132.93731689 C-246.55989475 132.93307583 -246.55989475 132.93307583 -245.34468842 132.92874908 C-241.14224421 132.91381975 -236.93983379 132.90455078 -232.73736572 132.90020752 C-228.4295041 132.89473168 -224.1219599 132.87070441 -219.81419754 132.84223557 C-216.4715895 132.82348091 -213.12905602 132.81839682 -209.78639984 132.81687164 C-208.19979874 132.81387352 -206.61319803 132.80594295 -205.02664948 132.79268646 C-188.46844672 132.66420268 -173.83288091 135.19834081 -161.38775635 146.92169189 C-154.3814619 154.3601503 -150.1506732 163.1281722 -145.2979126 172.14044189 C-131.1079126 172.47044189 -116.9179126 172.80044189 -102.2979126 173.14044189 C-101.3079126 169.18044189 -100.3179126 165.22044189 -99.2979126 161.14044189 C-98.49148438 158.35427841 -97.67132233 155.58531444 -96.80523682 152.81866455 C-96.57541611 152.0750618 -96.3455954 151.33145905 -96.10881042 150.56532288 C-95.35973466 148.14411066 -94.60615486 145.72432593 -93.8526001 143.30450439 C-93.31762016 141.57758389 -92.78296953 139.85056135 -92.24862671 138.1234436 C-90.84434729 133.58696582 -89.43642988 129.05162625 -88.02746582 124.51660156 C-85.80034279 117.34657295 -83.57794611 110.17507829 -81.35674286 103.00321388 C-80.8129822 101.24789677 -80.26894092 99.49266656 -79.724617 97.73752403 C-76.9819426 88.89246303 -74.25352877 80.04410696 -71.60943604 71.16900635 C-71.40211664 70.47358356 -71.19479725 69.77816078 -70.98119545 69.06166458 C-70.03132797 65.87119258 -69.08703383 62.67928307 -68.150177 59.48495483 C-61.86643375 38.24928529 -52.55115745 19.66617523 -32.9854126 8.00372314 C-22.93409349 2.6304281 -11.31952957 0.02647171 0 0 Z M-24.0479126 42.70294189 C-31.79161513 52.69561328 -35.29572274 64.5547564 -38.91119385 76.46075439 C-39.43803941 78.1679658 -39.96578984 79.87489819 -40.49436951 81.58157349 C-41.91527181 86.17882535 -43.32309093 90.77998781 -44.72842407 95.38201904 C-46.22316594 100.26867315 -47.73017448 105.15154432 -49.2354126 110.03497314 C-52.94018131 122.06485754 -56.6221075 134.1016803 -60.2979126 146.14044189 C-60.57658928 147.05301254 -60.85526596 147.96558319 -61.14238739 148.9058075 C-65.80594459 164.17868588 -70.46168531 179.4539493 -75.10609913 194.73266029 C-83.18596016 221.31013625 -91.39249492 247.84687952 -99.64757538 274.37040329 C-107.79356992 300.5441501 -115.85966525 326.74051668 -123.83132935 352.96789551 C-128.30814799 367.69574456 -132.79873147 382.41940987 -137.2979126 397.14044189 C-137.5160688 397.85441383 -137.73422501 398.56838577 -137.958992 399.30399323 C-140.51598032 407.67038386 -143.08725365 416.03207489 -145.6862793 424.38552856 C-146.36533194 426.57318105 -147.04059273 428.76201565 -147.71130371 430.95223999 C-152.09618107 445.25616309 -157.3174453 459.01447393 -163.27290344 472.7406311 C-164.32024396 475.19272538 -165.31136999 477.66336601 -166.2979126 480.14044189 C-144.91327192 480.18728135 -123.52863977 480.22248907 -102.14395809 480.24406624 C-92.21340654 480.25435373 -82.28288697 480.26836544 -72.35235596 480.2913208 C-63.6911406 480.31133238 -55.02994842 480.32417667 -46.36871058 480.32861888 C-41.78790672 480.33121317 -37.20716914 480.3372575 -32.62638664 480.35190201 C-28.30328921 480.36560903 -23.98028453 480.3696384 -19.65716743 480.36665726 C-18.08154418 480.36720161 -16.50591739 480.37110015 -14.93031311 480.37885284 C1.90725033 480.45754596 19.66138304 480.28272612 32.7020874 468.14044189 C44.73469446 455.5202553 48.56290604 437.65774301 53.4520874 421.45294189 C54.19950485 419.00145382 54.94798174 416.55028854 55.69744873 414.09942627 C56.8654348 410.27868758 58.03297846 406.45782392 59.19606018 402.6355896 C62.84925961 390.63108599 66.5654193 378.64645625 70.29327393 366.66494751 C72.16513872 360.647145 74.03307696 354.62812388 75.90130615 348.60919189 C76.28473175 347.37412399 76.66815735 346.13905609 77.0632019 344.86656189 C81.71365204 329.88515627 86.35500821 314.90093287 90.99687576 299.9168663 C100.16090123 270.33537604 109.33498245 240.75702322 118.51654053 211.18096924 C120.74021411 204.01783421 122.96339622 196.8545467 125.1864624 189.69122314 C125.55888062 188.49122177 125.93129883 187.2912204 126.31500244 186.05485535 C128.19165251 180.00785206 130.06811927 173.96079197 131.9442749 167.91363525 C136.12583093 154.43658859 140.31197423 140.96098224 144.50354004 127.48704529 C147.50336557 117.84106824 150.49100788 108.19135133 153.47485352 98.54042053 C155.61632806 91.62164037 157.77865918 84.70981141 159.95825195 77.802948 C161.31556863 73.49340677 162.66027194 69.17999817 164.0022583 64.86566162 C164.62937825 62.86002224 165.26216417 60.85614463 165.90093994 58.85418701 C166.77128489 56.12453734 167.62176306 53.3894511 168.4677124 50.65216064 C168.85672729 49.45809853 168.85672729 49.45809853 169.25360107 48.23991394 C170.25545346 44.9357051 170.82521032 42.64049152 169.99017334 39.24908447 C168.02864531 36.03799319 165.53371051 33.76247615 161.93234825 32.53942394 C159.05720646 32.02507605 156.31483297 32.01106813 153.39291382 32.00672913 C152.09503937 32.00246414 150.79716492 31.99819916 149.45996094 31.99380493 C148.02325436 31.99415445 146.58654781 31.99461599 145.14984131 31.99517822 C143.63503944 31.99218552 142.12023834 31.98878273 140.60543823 31.98500061 C136.4891598 31.97616175 132.37290216 31.97382237 128.25661516 31.97318482 C125.68018281 31.97247357 123.10375572 31.97033768 120.52732468 31.96768761 C111.52454036 31.95843035 102.52177085 31.95435267 93.51898193 31.95513916 C85.15309761 31.95573813 76.78727814 31.94522297 68.4214102 31.9293955 C61.22286574 31.91626645 54.02434232 31.9109576 46.82578599 31.91159457 C42.53403787 31.91184824 38.24234723 31.90907055 33.95061111 31.89841652 C29.90405391 31.88864646 25.85760802 31.88871656 21.8110466 31.89593315 C20.33659449 31.89696845 18.86213513 31.89467992 17.38769531 31.88857269 C-5.23053715 31.63272482 -5.23053715 31.63272482 -24.0479126 42.70294189 Z M-273.0401001 170.53497314 C-275.89895244 174.11346763 -276.90563193 176.62416533 -277.2979126 181.14044189 C-276.84682379 184.56088734 -276.84682379 184.56088734 -275.92803955 188.19488525 C-275.76773066 188.88500859 -275.60742176 189.57513193 -275.44225502 190.2861681 C-274.90103155 192.60355833 -274.34356888 194.91673141 -273.78619385 197.23028564 C-273.38981521 198.91260697 -272.99446448 200.59517076 -272.60005188 202.2779541 C-271.73942174 205.93982457 -270.87151386 209.59986796 -269.99804688 213.25869751 C-268.588504 219.16307758 -267.19443473 225.07104656 -265.80230713 230.97955322 C-263.7587943 239.64600853 -261.70776469 248.31065776 -259.65289307 256.97442627 C-256.25579208 271.30133645 -252.88322138 285.6339911 -249.51470828 299.96764445 C-248.27822151 305.22910377 -247.04149949 310.49050781 -245.80483091 315.7519244 C-245.4960803 317.06552757 -245.18733913 318.37913295 -244.87860739 319.69274056 C-242.64109232 329.2129291 -240.40085845 338.73247487 -238.1585083 348.25152588 C-237.87464232 349.45691104 -237.59077635 350.6622962 -237.29830837 351.90420818 C-235.8995149 357.84349888 -234.49955207 363.78250946 -233.09733582 369.72099304 C-230.45320325 380.92718265 -227.83272086 392.13796409 -225.26373291 403.3616333 C-224.53808794 406.51635137 -223.81173957 409.67090659 -223.0851326 412.82540321 C-222.4310945 415.67830016 -221.78691585 418.53329036 -221.14321899 421.38853455 C-216.90984976 439.90780024 -211.8341227 459.06802169 -203.2979126 476.14044189 C-199.76315604 474.96218971 -199.32584913 473.83271644 -197.69343567 470.63066101 C-186.66647038 447.72299023 -178.86995893 424.05335297 -171.51865387 399.78355408 C-170.17626426 395.36066791 -168.82100039 390.94172656 -167.46734619 386.52227783 C-164.62970682 377.2501932 -161.80656611 367.97374218 -158.98693848 358.69616699 C-157.33052055 353.24634134 -155.67096231 347.79747618 -154.01031494 342.34893799 C-153.74228876 341.46953584 -153.47426258 340.59013369 -153.1981144 339.68408298 C-152.39158725 337.03801013 -151.58499476 334.3919572 -150.77838135 331.74591064 C-149.71190141 328.24731656 -148.64548806 324.7487022 -147.5791626 321.25006104 C-147.31742941 320.39133864 -147.05569622 319.53261625 -146.78603172 318.64787197 C-145.21659325 313.49776414 -143.64926254 308.34702011 -142.08351707 303.19578838 C-136.94821359 286.30235882 -131.78324595 269.41949571 -126.50494385 252.57012939 C-126.1632378 251.47848732 -126.1632378 251.47848732 -125.8146286 250.36479187 C-123.87830263 244.17914997 -121.94173058 237.99359797 -119.98571777 231.81414795 C-118.84457532 228.20811235 -117.7095669 224.60019349 -116.57525635 220.99200439 C-116.23911819 219.93899139 -115.90298004 218.88597839 -115.55665588 217.80105591 C-115.2559166 216.84135895 -114.95517731 215.88166199 -114.64532471 214.8928833 C-114.38319687 214.0654361 -114.12106903 213.23798889 -113.85099792 212.38546753 C-113.13844053 209.87848822 -113.13844053 209.87848822 -113.2979126 206.14044189 C-130.7879126 205.81044189 -148.2779126 205.48044189 -166.2979126 205.14044189 C-172.3604126 192.20294189 -172.3604126 192.20294189 -174.22393799 188.17974854 C-180.56434969 174.62301233 -180.56434969 174.62301233 -192.2979126 166.14044189 C-195.75894082 165.69075192 -195.75894082 165.69075192 -199.47735596 165.7522583 C-200.16924515 165.74700134 -200.86113434 165.74174438 -201.57398987 165.73632812 C-203.84547975 165.72319885 -206.11626019 165.73184147 -208.38775635 165.74200439 C-209.97667067 165.73998138 -211.56558408 165.73706805 -213.15449524 165.73330688 C-216.47900258 165.72889293 -219.8032675 165.73528362 -223.12774658 165.74932861 C-227.37568217 165.76640615 -231.62304845 165.75658279 -235.8709631 165.73861122 C-239.15078468 165.72773622 -242.43047279 165.73123693 -245.71029854 165.7389946 C-247.2758955 165.74098708 -248.84150482 165.73857099 -250.40708733 165.73155594 C-252.60140638 165.72388136 -254.79482238 165.73562854 -256.98907471 165.7522583 C-258.85722084 165.75583847 -258.85722084 165.75583847 -260.7631073 165.75949097 C-265.40421506 166.25966966 -269.33367671 167.56817236 -273.0401001 170.53497314 Z " fill="#FFFFFF" transform="translate(309.29791259765625,-0.14044189453125)"/>
</svg>
