<?xml version="1.0" encoding="UTF-8"?>
<svg version="1.1" xmlns="http://www.w3.org/2000/svg" width="512" height="512">
<path d="M0 0 C1.01790619 0.00215515 2.03581238 0.0043103 3.08456421 0.00653076 C17.69363523 0.05620146 32.02575853 0.30709809 46.375 3.3125 C47.34985352 3.51117676 48.32470703 3.70985352 49.32910156 3.91455078 C98.33696698 14.16611774 142.34114199 36.50532652 178.375 71.3125 C178.99584473 71.91143066 179.61668945 72.51036133 180.25634766 73.12744141 C197.71111166 90.05790711 212.49459718 109.07019314 224.375 130.3125 C224.77283691 131.01391113 225.17067383 131.71532227 225.58056641 132.43798828 C238.61307271 155.57920412 247.36622842 180.75339784 252.6875 206.75 C252.83485596 207.46889404 252.98221191 208.18778809 253.1340332 208.9284668 C256.10789088 224.57475609 256.74800362 240.04818046 256.6875 255.9375 C256.68534485 256.95540619 256.6831897 257.97331238 256.68096924 259.02206421 C256.63129854 273.63113523 256.38040191 287.96325853 253.375 302.3125 C253.07698486 303.77478027 253.07698486 303.77478027 252.77294922 305.26660156 C240.32938992 364.75333972 208.41586978 421.27905968 159.375 458.3125 C158.75882812 458.78333008 158.14265625 459.25416016 157.5078125 459.73925781 C125.90272149 483.76094336 90.29959434 500.30024816 51.375 508.3125 C49.87332275 508.62791748 49.87332275 508.62791748 48.34130859 508.94970703 C32.26539003 512.16896899 16.33880745 512.70015939 0 512.75 C-0.95884094 512.75626404 -1.91768188 512.76252808 -2.90557861 512.76898193 C-17.03459171 512.82736504 -30.68742531 511.61477892 -44.625 509.3125 C-45.76291992 509.12453857 -46.90083984 508.93657715 -48.07324219 508.74291992 C-115.74506365 496.56365476 -174.14683311 455.36469882 -213.10742188 399.53759766 C-216.90925413 393.96328955 -220.31843278 388.19033217 -223.625 382.3125 C-223.98513184 381.68649902 -224.34526367 381.06049805 -224.71630859 380.41552734 C-246.33137459 342.66299031 -256.10201339 299.89161942 -255.9375 256.6875 C-255.93534485 255.66959381 -255.9331897 254.65168762 -255.93096924 253.60293579 C-255.88129854 238.99386477 -255.63040191 224.66174147 -252.625 210.3125 C-252.42632324 209.33764648 -252.22764648 208.36279297 -252.02294922 207.35839844 C-241.77138226 158.35053302 -219.43217348 114.34635801 -184.625 78.3125 C-184.02606934 77.69165527 -183.42713867 77.07081055 -182.81005859 76.43115234 C-165.87959289 58.97638834 -146.86730686 44.19290282 -125.625 32.3125 C-124.5728833 31.71574463 -124.5728833 31.71574463 -123.49951172 31.10693359 C-100.35829588 18.07442729 -75.18410216 9.32127158 -49.1875 4 C-48.46860596 3.85264404 -47.74971191 3.70528809 -47.0090332 3.5534668 C-31.36274391 0.57960912 -15.88931954 -0.06050362 0 0 Z M-85.625 122.3125 C-85.625 134.8525 -85.625 147.3925 -85.625 160.3125 C-82.44875 160.6425 -79.2725 160.9725 -76 161.3125 C-75.0104834 161.41691406 -74.0209668 161.52132812 -73.00146484 161.62890625 C-72.20434082 161.71011719 -71.4072168 161.79132813 -70.5859375 161.875 C-69.77946777 161.95878906 -68.97299805 162.04257813 -68.14208984 162.12890625 C-65.30992407 162.33548129 -62.46468946 162.3125 -59.625 162.3125 C-59.625 220.0625 -59.625 277.8125 -59.625 337.3125 C-65.565 337.6425 -71.505 337.9725 -77.625 338.3125 C-80.265 338.6425 -82.905 338.9725 -85.625 339.3125 C-85.625 352.1825 -85.625 365.0525 -85.625 378.3125 C-20.945 378.3125 43.735 378.3125 110.375 378.3125 C110.375 354.5525 110.375 330.7925 110.375 306.3125 C95.855 306.3125 81.335 306.3125 66.375 306.3125 C66.375 316.5425 66.375 326.7725 66.375 337.3125 C43.275 337.3125 20.175 337.3125 -3.625 337.3125 C-3.625 279.5625 -3.625 221.8125 -3.625 162.3125 C4.295 161.8175 4.295 161.8175 12.375 161.3125 C16.005 160.9825 19.635 160.6525 23.375 160.3125 C23.375 147.7725 23.375 135.2325 23.375 122.3125 C-12.595 122.3125 -48.565 122.3125 -85.625 122.3125 Z " fill="#FFFFFF" transform="translate(255.625,-0.3125)"/>
</svg>
