<?xml version="1.0" encoding="UTF-8"?>
<svg version="1.1" xmlns="http://www.w3.org/2000/svg" width="512" height="512">
<path d="M0 0 C1.01790619 0.00215515 2.03581238 0.0043103 3.08456421 0.00653076 C17.69363523 0.05620146 32.02575853 0.30709809 46.375 3.3125 C47.34985352 3.51117676 48.32470703 3.70985352 49.32910156 3.91455078 C97.7109774 14.03517194 141.69928269 35.9516877 177.375 70.3125 C178.3640332 71.26068604 178.3640332 71.26068604 179.37304688 72.22802734 C188.86130305 81.37247479 197.6012044 90.66984009 205.375 101.3125 C206.23306152 102.46355017 207.09113451 103.61459177 207.94921875 104.765625 C213.98736829 112.95680614 219.34595521 121.47054105 224.375 130.3125 C224.73948242 130.94430176 225.10396484 131.57610352 225.47949219 132.22705078 C247.08534998 169.97532572 256.85198095 212.74189997 256.6875 255.9375 C256.68534485 256.95540619 256.6831897 257.97331238 256.68096924 259.02206421 C256.63129854 273.63113523 256.38040191 287.96325853 253.375 302.3125 C253.07698486 303.77478027 253.07698486 303.77478027 252.77294922 305.26660156 C242.65232806 353.6484774 220.7358123 397.63678269 186.375 433.3125 C185.74287598 433.97185547 185.11075195 434.63121094 184.45947266 435.31054688 C175.31502521 444.79880305 166.01765991 453.5387044 155.375 461.3125 C154.22394983 462.17056152 153.07290823 463.02863451 151.921875 463.88671875 C143.73224019 469.92427396 135.22961724 475.30707302 126.375 480.3125 C125.66778809 480.7146875 124.96057617 481.116875 124.23193359 481.53125 C101.09654164 494.5566741 75.92537591 503.30551461 49.9375 508.625 C49.21860596 508.77235596 48.49971191 508.91971191 47.7590332 509.0715332 C33.08339502 511.86090125 18.55831162 512.66142619 3.64770508 512.62817383 C0.70811513 512.6250221 -2.2304558 512.64854926 -5.16992188 512.67382812 C-18.54306192 512.71848737 -31.43916711 511.51301542 -44.625 509.3125 C-46.33055054 509.03031616 -46.33055054 509.03031616 -48.07055664 508.74243164 C-91.33802759 500.97044532 -132.38793216 480.98345309 -165.625 452.3125 C-166.37007813 451.67828125 -167.11515625 451.0440625 -167.8828125 450.390625 C-181.38779833 438.57948485 -194.05918743 425.82889772 -204.625 411.3125 C-205.48149066 410.16255169 -206.33826433 409.01281411 -207.1953125 407.86328125 C-213.23534209 399.67315742 -218.61867614 391.16870382 -223.625 382.3125 C-224.0271875 381.60528809 -224.429375 380.89807617 -224.84375 380.16943359 C-237.8691741 357.03404164 -246.61801461 331.86287591 -251.9375 305.875 C-252.08485596 305.15610596 -252.23221191 304.43721191 -252.3840332 303.6965332 C-255.35789088 288.05024391 -255.99800362 272.57681954 -255.9375 256.6875 C-255.93534485 255.66959381 -255.9331897 254.65168762 -255.93096924 253.60293579 C-255.88129854 238.99386477 -255.63040191 224.66174147 -252.625 210.3125 C-252.42632324 209.33764648 -252.22764648 208.36279297 -252.02294922 207.35839844 C-241.90232806 158.9765226 -219.9858123 114.98821731 -185.625 79.3125 C-184.99287598 78.65314453 -184.36075195 77.99378906 -183.70947266 77.31445312 C-174.56502521 67.82619695 -165.26765991 59.0862956 -154.625 51.3125 C-153.47394983 50.45443848 -152.32290823 49.59636549 -151.171875 48.73828125 C-142.98224019 42.70072604 -134.47961724 37.31792698 -125.625 32.3125 C-124.91778809 31.9103125 -124.21057617 31.508125 -123.48193359 31.09375 C-100.34654164 18.0683259 -75.17537591 9.31948539 -49.1875 4 C-48.46860596 3.85264404 -47.74971191 3.70528809 -47.0090332 3.5534668 C-31.36274391 0.57960912 -15.88931954 -0.06050362 0 0 Z M-105.625 46.3125 C-104.05431425 52.55363543 -100.53337017 57.49025659 -97.0625 62.8125 C-96.43714355 63.78268066 -95.81178711 64.75286133 -95.16748047 65.75244141 C-93.91206755 67.69902583 -92.65397026 69.6438819 -91.39306641 71.58691406 C-89.3936365 74.66916143 -87.40862615 77.76043034 -85.42602539 80.85351562 C-83.82993304 83.3425847 -82.22779518 85.82774346 -80.625 88.3125 C-79.99223145 88.06604736 -79.35946289 87.81959473 -78.70751953 87.56567383 C-29.34981072 68.43945007 23.17719251 63.01744278 73.15820312 84.50927734 C94.56918407 94.04927928 113.34579341 106.15186191 130.375 122.3125 C131.08438721 122.98104004 131.08438721 122.98104004 131.80810547 123.66308594 C162.09027038 152.37842227 180.21314098 191.67566841 185.83203125 232.734375 C186.16116173 236.14145817 186.16116173 236.14145817 187.375 238.3125 C202.885 236.9925 218.395 235.6725 234.375 234.3125 C232.91626766 219.94693994 232.91626766 219.94693994 230.3125 205.875 C230.10117432 204.97434814 229.88984863 204.07369629 229.67211914 203.14575195 C219.87750923 163.1479784 201.09142631 129.2986748 174.375 98.3125 C173.72402344 97.53648438 173.07304687 96.76046875 172.40234375 95.9609375 C169.05548613 92.01179798 165.53514683 88.55181147 161.58203125 85.2109375 C159.08795231 83.06558818 156.71038866 80.81473913 154.3125 78.5625 C85.07594588 15.62017807 -23.14113995 3.61634113 -105.625 46.3125 Z M-134.375 63.5625 C-135.13417725 64.10028076 -135.89335449 64.63806152 -136.67553711 65.19213867 C-143.51100238 70.10461591 -149.89466344 75.43705225 -156.17675781 81.03173828 C-158.11062884 82.7419688 -160.09050861 84.39650727 -162.0625 86.0625 C-165.24433436 88.86089978 -168.00648154 91.88590622 -170.73828125 95.12109375 C-172.05187072 96.64681568 -173.40729952 98.13708598 -174.79296875 99.59765625 C-188.55530473 114.12331918 -199.30917554 130.66611334 -208.625 148.3125 C-209.03588867 149.0849707 -209.44677734 149.85744141 -209.87011719 150.65332031 C-238.36973482 205.04459387 -241.63029211 269.989683 -223.87890625 328.1796875 C-215.31186592 354.82184185 -201.92555291 379.36983656 -184.625 401.3125 C-183.62799072 402.57803711 -183.62799072 402.57803711 -182.61083984 403.86914062 C-177.08816916 410.74696489 -171.1908344 417.09590799 -164.9375 423.3125 C-164.45866364 423.79017822 -163.97982727 424.26785645 -163.48648071 424.76000977 C-153.28837275 434.90955834 -142.63503539 443.39622406 -130.625 451.3125 C-122.14169708 438.06817876 -113.76605713 424.77016586 -105.625 411.3125 C-108.19065813 408.66055292 -110.79595558 406.33235791 -113.75 404.125 C-151.94499998 374.7154731 -176.54214878 331.58324621 -183.875 284 C-189.70094873 237.28248657 -180.12836854 189.04476182 -152.625 150.3125 C-151.90828125 149.29285156 -151.1915625 148.27320313 -150.453125 147.22265625 C-145.0236956 139.74275086 -139.00264269 132.97740383 -132.625 126.3125 C-131.2946875 124.90291016 -131.2946875 124.90291016 -129.9375 123.46484375 C-120.81656881 114.03899771 -110.65029693 106.38686623 -99.625 99.3125 C-102.4925524 93.33218883 -105.73031546 87.76494872 -109.3125 82.1875 C-109.83634277 81.36725342 -110.36018555 80.54700684 -110.89990234 79.7019043 C-111.96330222 78.03752973 -113.02806613 76.37402583 -114.09423828 74.71142578 C-115.52375929 72.47115888 -116.93528058 70.22081561 -118.33984375 67.96484375 C-119.14318547 66.68486841 -119.94656816 65.40491878 -120.75 64.125 C-121.29853638 63.23433838 -121.29853638 63.23433838 -121.8581543 62.32568359 C-122.72723514 60.95279677 -123.66905757 59.62638501 -124.625 58.3125 C-128.37799352 58.3125 -131.4030862 61.44960695 -134.375 63.5625 Z M-123.703125 147.19970703 C-133.03740434 157.46124837 -140.32190342 169.00012145 -146.625 181.3125 C-146.94307617 181.92947754 -147.26115234 182.54645508 -147.58886719 183.18212891 C-166.94121635 221.22961579 -169.98493007 266.2752921 -157.40673828 306.9609375 C-154.97142706 314.28664572 -151.90673927 321.33137257 -148.625 328.3125 C-148.27953125 329.04742676 -147.9340625 329.78235352 -147.578125 330.53955078 C-140.25357783 345.81382802 -130.34024644 359.10335615 -118.625 371.3125 C-117.74714844 372.25351562 -116.86929688 373.19453125 -115.96484375 374.1640625 C-103.98309886 386.77610137 -90.06843202 396.40651797 -74.625 404.3125 C-74.00802246 404.63057617 -73.39104492 404.94865234 -72.75537109 405.27636719 C-34.652077 424.65710195 10.27014005 427.69334508 51.0234375 415.09423828 C58.34914572 412.65892706 65.39387257 409.59423927 72.375 406.3125 C73.10992676 405.96703125 73.84485352 405.6215625 74.60205078 405.265625 C89.87632802 397.94107783 103.16585615 388.02774644 115.375 376.3125 C116.78652344 374.99572266 116.78652344 374.99572266 118.2265625 373.65234375 C130.83860137 361.67059886 140.46901797 347.75593202 148.375 332.3125 C148.69307617 331.69552246 149.01115234 331.07854492 149.33886719 330.44287109 C168.71960195 292.339577 171.75584508 247.41735995 159.15673828 206.6640625 C156.72142706 199.33835428 153.65673927 192.29362743 150.375 185.3125 C150.02953125 184.57757324 149.6840625 183.84264648 149.328125 183.08544922 C142.00357783 167.81117198 132.09024644 154.52164385 120.375 142.3125 C119.49714844 141.37148437 118.61929687 140.43046875 117.71484375 139.4609375 C105.73309886 126.84889863 91.81843202 117.21848203 76.375 109.3125 C75.75802246 108.99442383 75.14104492 108.67634766 74.50537109 108.34863281 C6.65676613 73.83834052 -72.69238315 93.21086712 -123.703125 147.19970703 Z M226.97363281 255.6796875 C226.1130426 255.75977051 225.25245239 255.83985352 224.36578369 255.92236328 C223.44585632 256.0098584 222.52592896 256.09735352 221.578125 256.1875 C220.62935486 256.27628418 219.68058472 256.36506836 218.70306396 256.45654297 C215.67687703 256.74012924 212.65093904 257.02628199 209.625 257.3125 C207.57163047 257.50537758 205.51824523 257.69808791 203.46484375 257.890625 C198.43471149 258.36264384 193.40480096 258.83696438 188.375 259.3125 C187.46440461 262.04428616 187.18101707 263.99136587 187.015625 266.828125 C183.98505237 312.15023839 166.724688 353.27789391 135.375 386.3125 C134.92930664 386.7854248 134.48361328 387.25834961 134.02441406 387.74560547 C100.60052393 422.99324252 53.36795857 441.61431745 5.27709961 443.23803711 C-25.54777777 443.88852193 -55.22457746 437.24614118 -82.8515625 423.59765625 C-85.41798627 422.17235488 -85.41798627 422.17235488 -87.625 422.3125 C-89.3091084 424.59213516 -89.3091084 424.59213516 -91.0390625 427.54296875 C-91.71839844 428.65736328 -92.39773437 429.77175781 -93.09765625 430.91992188 C-93.81532157 432.11315052 -94.53276879 433.30651037 -95.25 434.5 C-95.94333741 435.64298664 -96.63734104 436.78556944 -97.33203125 437.92773438 C-98.37484592 439.64298261 -99.41620292 441.35901874 -100.45269775 443.07809448 C-102.2562782 446.06911199 -104.07762236 449.0468916 -105.93261719 452.00634766 C-106.3041391 452.60119461 -106.67566101 453.19604156 -107.05844116 453.80891418 C-108.09223319 455.46096404 -109.13070067 457.11008547 -110.16943359 458.7590332 C-111.79007541 461.11222221 -111.79007541 461.11222221 -111.625 463.3125 C-54.19492267 493.20220582 10.15327466 499.50718927 72.2421875 480.56640625 C98.77902629 472.03323115 123.62394787 458.73771263 145.375 441.3125 C146.33664062 440.55453125 147.29828125 439.7965625 148.2890625 439.015625 C163.58736246 426.54460579 177.83184731 412.34465652 189.375 396.3125 C190.01179688 395.44753906 190.64859375 394.58257812 191.3046875 393.69140625 C219.95045165 353.90562271 236.717099 304.5227967 235.375 255.3125 C232.50090766 255.3125 229.81905058 255.41188347 226.97363281 255.6796875 Z " fill="#FFFFFF" transform="translate(255.625,-0.3125)"/>
<path d="M0 0 C0.67482422 -0.02231689 1.34964844 -0.04463379 2.04492188 -0.06762695 C13.13507975 -0.0191926 22.70145439 5.17721221 31.9375 10.8125 C34.02810656 12.06600401 36.11926952 13.31858044 38.2109375 14.5703125 C39.2740918 15.21000977 40.33724609 15.84970703 41.43261719 16.50878906 C44.67147907 18.42800665 47.93981017 20.28137046 51.2265625 22.1171875 C66.72959262 30.81230874 78.93981712 38.12710833 84.7890625 55.7578125 C87.70629912 67.705799 86.11710358 79.76224219 79.9921875 90.375 C72.99171885 100.80484802 62.68999384 106.20375691 51.875 112.125 C49.66997111 113.34266084 47.46555439 114.56143084 45.26171875 115.78125 C44.1639209 116.38839844 43.06612305 116.99554688 41.93505859 117.62109375 C38.84008507 119.35215697 35.7695658 121.11853573 32.70703125 122.90625 C31.77415283 123.44934814 30.84127441 123.99244629 29.88012695 124.55200195 C28.14179748 125.56751168 26.40697732 126.5890638 24.67651367 127.61791992 C16.56737063 132.33661298 9.25321136 135.00656353 -0.1875 134.875 C-0.9719751 134.86597656 -1.7564502 134.85695313 -2.56469727 134.84765625 C-14.02184852 134.50759034 -22.822229 130.11038466 -31.3125 122.4375 C-39.10381392 113.48033254 -42.39853095 103.96359172 -42.47363281 92.13183594 C-42.48324036 90.90325867 -42.4928479 89.6746814 -42.50274658 88.40887451 C-42.50699646 87.09316467 -42.51124634 85.77745483 -42.515625 84.421875 C-42.51845238 83.74480751 -42.52127975 83.06774002 -42.52419281 82.37015533 C-42.53913485 78.78599159 -42.54839538 75.20186756 -42.55273438 71.61767578 C-42.55820732 67.94178112 -42.58222444 64.26625902 -42.61070633 60.5904808 C-42.6294583 57.7403461 -42.63454496 54.89029887 -42.63607025 52.04010773 C-42.64051505 50.0339985 -42.65909817 48.02793635 -42.67803955 46.02191162 C-42.6455698 32.59316253 -39.30581382 21.60014149 -30 11.625 C-26.18720368 8.06359684 -22.02470876 5.63277814 -17.3125 3.4375 C-16.66023438 3.11652344 -16.00796875 2.79554688 -15.3359375 2.46484375 C-10.3534637 0.39682856 -5.34491012 0.10237704 0 0 Z M-15.75 28.9375 C-20.47404386 34.85937834 -21.45978203 40.62902473 -21.39770508 48.13232422 C-21.39051956 49.22721161 -21.38333405 50.322099 -21.37593079 51.45016479 C-21.36144394 52.61903229 -21.34695709 53.78789978 -21.33203125 54.9921875 C-21.31790695 56.20770294 -21.30378265 57.42321838 -21.28923035 58.67556763 C-21.25617479 61.24257677 -21.21982933 63.80954538 -21.18041992 66.37646484 C-21.12529759 70.29136479 -21.09666598 74.20592068 -21.06835938 78.12109375 C-21.03289513 80.61981556 -20.99583821 83.11851537 -20.95703125 85.6171875 C-20.95266556 86.78200653 -20.94829987 87.94682556 -20.94380188 89.14694214 C-20.80064505 96.01702503 -20.00283405 100.59189764 -16.3125 106.4375 C-14.16444648 108.53745699 -14.16444648 108.53745699 -11.75 109.875 C-10.60337891 110.58462891 -10.60337891 110.58462891 -9.43359375 111.30859375 C-5.24987836 113.53528573 -2.00715034 113.8100913 2.6875 113.4375 C9.75568563 111.17726129 16.1322825 107.68639541 22.5 103.9375 C24.32922126 102.87464568 26.15865499 101.81215698 27.98828125 100.75 C28.9210791 100.20601563 29.85387695 99.66203125 30.81494141 99.1015625 C33.71328784 97.4225612 36.62509589 95.76980527 39.54296875 94.125 C40.48873779 93.59068359 41.43450684 93.05636719 42.40893555 92.50585938 C44.22004849 91.48357754 46.03264346 90.46391552 47.84692383 89.44726562 C56.11884639 84.75604133 61.53988122 80.84459334 64.26171875 71.45703125 C65.45815665 65.01170448 63.61212025 59.31766941 60.01953125 53.94140625 C57.21136262 50.92627042 54.12245175 49.04548349 50.5625 47.0625 C49.84328369 46.65112793 49.12406738 46.23975586 48.38305664 45.81591797 C46.75342379 44.88397538 45.12151296 43.95600902 43.48779297 43.03125 C40.3361963 41.23756011 37.20077056 39.41738014 34.06640625 37.59375 C32.32808526 36.5837281 30.58954165 35.57409072 28.85089111 34.56463623 C27.15867076 33.58205088 25.46678314 32.59889256 23.77490234 31.61572266 C3.64283385 19.60141659 3.64283385 19.60141659 -15.75 28.9375 Z " fill="#FFFFFF" transform="translate(241.3125,188.5625)"/>
</svg>
