<?xml version="1.0" encoding="UTF-8"?>
<svg version="1.1" xmlns="http://www.w3.org/2000/svg" width="512" height="512">
<path d="M0 0 C4.66492296 3.29876695 7.18690872 8.61220098 9.93310547 13.48388672 C11.45753871 16.17948261 13.01094293 18.85734683 14.56640625 21.53515625 C17.47602626 26.55107466 20.37060823 31.57542428 23.25796509 36.60418701 C26.74624433 42.67886202 30.24784952 48.74581522 33.75 54.8125 C37.51376716 61.33475882 41.27644628 67.85763773 45.03515625 74.3828125 C51.08055159 84.87482094 57.14110219 95.35731676 63.25 105.8125 C71.27267511 119.54305188 79.20858259 133.32327966 87.14550781 147.10351562 C93.81956312 158.68931766 100.50464084 170.26803353 107.25 181.8125 C115.27267511 195.54305188 123.20858259 209.32327966 131.14550781 223.10351562 C137.81956312 234.68931766 144.50464084 246.26803353 151.25 257.8125 C157.99701194 269.35979516 164.68339318 280.94152027 171.35888672 292.53027344 C174.48680146 297.95909938 177.61853731 303.38572007 180.75 308.8125 C184.51363919 315.33483275 188.27644622 321.85763762 192.03515625 328.3828125 C198.6505933 339.86414953 205.29145782 351.32975101 211.97851562 362.76953125 C216.91620354 371.22303069 221.80323307 379.7052382 226.68408203 388.19165039 C231.48346979 396.52155704 236.36029872 404.80360616 241.30297852 413.04931641 C241.80885498 413.89800293 242.31473145 414.74668945 242.8359375 415.62109375 C243.2798584 416.36157959 243.7237793 417.10206543 244.18115234 417.86499023 C247.09155361 423.16793014 246.81104323 428.92933833 246.25 434.8125 C243.83064724 439.83041684 240.2508269 443.31208655 235.25 445.8125 C232.61409264 445.91284557 230.00445176 445.95174094 227.36815262 445.94672108 C226.1264328 445.95024942 226.1264328 445.95024942 224.85962772 445.95384905 C222.05559585 445.96056347 219.25161006 445.96008009 216.4475708 445.95967102 C214.42896794 445.96296812 212.41036575 445.96669336 210.3917644 445.9708125 C204.82109463 445.98085804 199.25043563 445.98455338 193.67975807 445.98720181 C187.68098108 445.99109729 181.68221268 446.00067611 175.68344116 446.00941467 C161.8705242 446.02826469 148.0576066 446.03843816 134.24468044 446.04687535 C127.42158306 446.05107954 120.59848656 446.05630183 113.77538993 446.06155988 C90.42773212 446.07945121 67.08007407 446.09444817 43.73241043 446.10188007 C42.26619841 446.10235483 40.79998639 446.10283072 39.33377437 446.10330774 C38.24309003 446.1036623 38.24309003 446.1036623 37.13037166 446.10402403 C33.44628944 446.10522525 29.76220722 446.10644069 26.078125 446.10766602 C25.34700241 446.10790617 24.61587981 446.10814632 23.86260199 446.10839374 C0.1519962 446.1162886 -23.55855959 446.1397237 -47.26914355 446.17222196 C-72.32631806 446.20650331 -97.38346331 446.22622963 -122.44066167 446.22952431 C-125.1902512 446.22994187 -127.93984072 446.23042143 -130.68943024 446.23094749 C-131.70499953 446.23113228 -131.70499953 446.23113228 -132.74108538 446.2313208 C-143.64675934 446.23365493 -154.55237533 446.24932671 -165.45802862 446.26978934 C-176.41577224 446.29002384 -187.37345554 446.29520192 -198.33121583 446.28601871 C-204.27012588 446.28145915 -210.20884733 446.28345618 -216.14773178 446.30278015 C-221.5809158 446.32030651 -227.01377217 446.31950013 -232.44695917 446.30388286 C-234.41604147 446.30149071 -236.38514585 446.30591278 -238.35419425 446.31771151 C-241.02479441 446.33272708 -243.69421802 446.32323002 -246.36478806 446.30748463 C-247.13458354 446.31770683 -247.90437903 446.32792904 -248.69750166 446.33846101 C-253.863076 446.27169918 -256.76409355 445.05714221 -260.75 441.8125 C-264.50065604 437.55499855 -265.94512037 435.02317994 -266.1875 429.375 C-266.24808594 428.40691406 -266.30867188 427.43882812 -266.37109375 426.44140625 C-265.4236209 420.9055429 -262.56993013 416.61358468 -259.75 411.8125 C-258.76769291 410.06035067 -257.78846664 408.30647018 -256.8125 406.55078125 C-255.79303957 404.74141327 -254.77215341 402.93284802 -253.75 401.125 C-252.91251221 399.64350464 -252.91251221 399.64350464 -252.05810547 398.13208008 C-247.47690555 390.05087404 -242.81286696 382.01992938 -238.12084961 374.00268555 C-231.912804 363.39438952 -225.77620279 352.74533053 -219.64111328 342.09472656 C-215.88971976 335.58378743 -212.13309006 329.07586806 -208.37744141 322.56738281 C-205.23817754 317.12664664 -202.10018503 311.68518523 -198.96484375 306.2421875 C-192.34777108 294.7580118 -185.70366023 283.29053106 -179.01708984 271.84667969 C-172.21412377 260.19590815 -165.48357814 248.50346256 -158.75 236.8125 C-150.87337411 223.13695686 -142.97879908 209.47289042 -135.01708984 195.84667969 C-128.85080946 185.28629718 -122.7450405 174.69123234 -116.64111328 164.09472656 C-112.88971976 157.58378743 -109.13309006 151.07586806 -105.37744141 144.56738281 C-102.23817754 139.12664664 -99.10018503 133.68518523 -95.96484375 128.2421875 C-89.34777108 116.7580118 -82.70366023 105.29053106 -76.01708984 93.84667969 C-69.21412377 82.19590815 -62.48357814 70.50346256 -55.75 58.8125 C-48.20771785 45.71745063 -40.65885934 32.6262772 -33.0625 19.5625 C-32.19806274 18.07145752 -32.19806274 18.07145752 -31.31616211 16.55029297 C-23.53409401 3.19140422 -16.87048884 -5.34232147 0 0 Z M-10.75 120.8125 C-11.07049316 121.38355469 -11.39098633 121.95460938 -11.72119141 122.54296875 C-17.92007225 133.57684508 -24.1656424 144.57951933 -30.5625 155.5 C-35.63331661 164.15922009 -40.65186351 172.84687882 -45.625 181.5625 C-45.95760834 182.14530731 -46.29021667 182.72811462 -46.63290405 183.32858276 C-49.00683235 187.48899804 -51.37866277 191.65060748 -53.75 195.8125 C-56.45689376 200.56332192 -59.16470346 205.31361834 -61.875 210.0625 C-62.20804138 210.64608276 -62.54108276 211.22966553 -62.88421631 211.83093262 C-68.02352667 220.83228768 -73.22711291 229.7946319 -78.46362305 238.73974609 C-83.26435399 246.95193329 -87.99149269 255.20527179 -92.703125 263.46875 C-98.13933845 273.00303205 -103.61095106 282.51632204 -109.10302734 292.01855469 C-114.03988823 300.56645807 -118.93558839 309.13744496 -123.82461548 317.71273804 C-128.48168243 325.87806957 -133.18691023 334.01370197 -137.9375 342.125 C-142.72349878 350.30145271 -147.45374574 358.50740331 -152.125 366.75 C-152.69114014 367.74620361 -153.25728027 368.74240723 -153.84057617 369.76879883 C-154.35467041 370.67911865 -154.86876465 371.58943848 -155.3984375 372.52734375 C-155.85395996 373.33292725 -156.30948242 374.13851074 -156.77880859 374.96850586 C-157.82766625 376.61261217 -157.82766625 376.61261217 -157.75 377.8125 C-150.41575333 378.32600471 -143.08544898 378.71480984 -135.7367754 378.95236778 C-132.32166292 379.06653268 -128.91894572 379.22048996 -125.51098633 379.47216797 C-110.61526503 381.03157689 -110.61526503 381.03157689 -97.31286621 375.80371094 C-93.0510419 370.60070733 -90.38845345 364.73933639 -87.88278198 358.53814697 C-86.38896733 354.9438001 -84.5256637 351.78033202 -82.5078125 348.453125 C-81.29517178 346.32388578 -80.08421254 344.19368798 -78.875 342.0625 C-77.53491702 339.70512347 -76.19354654 337.34848228 -74.8515625 334.9921875 C-74.51719177 334.40486847 -74.18282104 333.81754944 -73.83831787 333.21243286 C-71.38062474 328.9019934 -68.89514815 324.60825 -66.3984375 320.3203125 C-65.69513427 319.11036056 -64.99184625 317.90039977 -64.28857422 316.69042969 C-62.95355624 314.39410041 -61.61323153 312.1011463 -60.27001953 309.80957031 C-59.67560059 308.78702148 -59.08118164 307.76447266 -58.46875 306.7109375 C-57.67887695 305.36008057 -57.67887695 305.36008057 -56.87304688 303.98193359 C-55.59675935 301.92362617 -55.59675935 301.92362617 -55.75 299.8125 C-53.09434213 302.21219682 -51.47001447 304.77694189 -49.703125 307.87890625 C-49.11313721 308.90862549 -48.52314941 309.93834473 -47.9152832 310.99926758 C-47.28323975 312.11325928 -46.65119629 313.22725098 -46 314.375 C-45.33277786 315.54284907 -44.66504467 316.71040629 -43.99682617 317.87768555 C-42.60644874 320.30732372 -41.21829111 322.73821059 -39.83154297 325.16992188 C-36.59805425 330.83478483 -33.32744229 336.47823122 -30.0625 342.125 C-23.59108 353.33483292 -17.15918366 364.56698295 -10.75 375.8125 C-10.09 375.8125 -9.43 375.8125 -8.75 375.8125 C-8.42950684 375.24144531 -8.10901367 374.67039062 -7.77880859 374.08203125 C-1.02603603 362.0622394 5.79986338 350.09094577 12.77880859 338.20092773 C16.10273427 332.52752165 19.38405155 326.83263532 22.62109375 321.109375 C22.98689041 320.46385178 23.35268707 319.81832855 23.72956848 319.15324402 C25.52511214 315.98437853 27.31537507 312.81274096 29.09692383 309.63598633 C29.74040771 308.4992749 30.3838916 307.36256348 31.046875 306.19140625 C31.61760742 305.1763501 32.18833984 304.16129395 32.77636719 303.11547852 C34.25 300.8125 34.25 300.8125 36.25 299.8125 C36.45367187 300.58335937 36.65734375 301.35421875 36.8671875 302.1484375 C38.79857532 307.26606964 41.57502737 311.75070588 44.375 316.4375 C45.64710477 318.59039507 46.91788444 320.74407354 48.1875 322.8984375 C48.85265625 324.02604492 49.5178125 325.15365234 50.203125 326.31542969 C52.26828389 329.83206786 54.29560736 333.36956749 56.3125 336.9140625 C56.8216243 337.80860641 56.8216243 337.80860641 57.34103394 338.72122192 C58.96896582 341.58401636 60.59351139 344.44867787 62.21533203 347.31494141 C63.47898226 349.53788809 64.77597698 351.74213213 66.1015625 353.92871094 C67.8363624 356.88615247 69.10708192 359.89228603 70.3671875 363.07910156 C72.82194155 368.75217729 75.26936442 373.96141932 80.25 377.8125 C89.08803779 380.84756763 98.77841091 379.80018598 107.96057129 379.18579102 C111.37747364 378.97922662 114.79737439 378.88946187 118.21875 378.7890625 C124.90358632 378.5696048 131.57514842 378.23600438 138.25 377.8125 C132.82077719 366.76506358 132.82077719 366.76506358 126.75 356.0625 C125.88687399 354.61656939 125.02497812 353.16990403 124.1640625 351.72265625 C123.70032227 350.94422363 123.23658203 350.16579102 122.75878906 349.36376953 C119.84204173 344.43172914 116.98600596 339.46451242 114.125 334.5 C113.49013672 333.39881836 112.85527344 332.29763672 112.20117188 331.16308594 C107.19420177 322.46952817 102.21520076 313.76015815 97.24240112 305.04702759 C89.95403318 292.27765871 82.60678008 279.54255758 75.25 266.8125 C67.18910696 252.86405632 59.15290574 238.90246112 51.17263794 224.90777588 C46.57605777 216.84986788 41.9367584 208.81832214 37.25 200.8125 C31.53348306 191.04766598 25.90320587 181.23518206 20.29882812 171.40576172 C15.01758925 162.14466295 9.6980236 152.90633256 4.36523438 143.67480469 C-0.02903783 136.06677556 -4.40444189 128.44846473 -8.75 120.8125 C-9.41 120.8125 -10.07 120.8125 -10.75 120.8125 Z " fill="#FFFFFF" transform="translate(265.75,34.1875)"/>
<path d="M0 0 C0.66 0 1.32 0 2 0 C2.55945313 1.0209375 3.11890625 2.041875 3.6953125 3.09375 C8.6150186 12.03001258 13.65384063 20.88692875 18.8125 29.6875 C23.65195761 37.95227505 28.45547621 46.23566784 33.1875 54.5625 C33.72802002 55.50762451 34.26854004 56.45274902 34.82543945 57.42651367 C40.0716439 66.69254798 43.74583793 74.04991448 42 85 C39.95184049 90.68282987 37.00114987 95.77254258 34 101 C32.81064492 103.11036552 31.62188825 105.22106836 30.43359375 107.33203125 C26.68563683 113.95570857 22.88798328 120.54987165 19.07702637 127.13745117 C16.91857757 130.87015113 14.76542788 134.60591058 12.61128235 138.34109497 C10.94561309 141.22888374 9.27853994 144.1158346 7.60913086 147.00146484 C7.01753174 148.02449707 6.42593262 149.0475293 5.81640625 150.1015625 C5.29506104 151.00213379 4.77371582 151.90270508 4.23657227 152.83056641 C3.45556838 154.20075408 2.70531997 155.58936005 2 157 C1.34 157 0.68 157 0 157 C-0.35078613 156.36835938 -0.70157227 155.73671875 -1.06298828 155.0859375 C-7.68353469 143.17881937 -14.35540131 131.31348521 -21.25 119.5625 C-25.48001609 112.34717983 -29.67466734 105.11652931 -33.75 97.8125 C-34.15637695 97.08812744 -34.56275391 96.36375488 -34.98144531 95.61743164 C-39.41340507 87.61975881 -41.36406138 81.29143261 -40 72 C-37.96206691 66.31455608 -35.00053138 61.22638012 -32 56 C-30.81064492 53.88963448 -29.62188825 51.77893164 -28.43359375 49.66796875 C-24.68563683 43.04429143 -20.88798328 36.45012835 -17.07702637 29.86254883 C-14.91857757 26.12984887 -12.76542788 22.39408942 -10.61128235 18.65890503 C-8.94561309 15.77111626 -7.27853994 12.8841654 -5.60913086 9.99853516 C-4.72173218 8.46398682 -4.72173218 8.46398682 -3.81640625 6.8984375 C-3.29506104 5.99786621 -2.77371582 5.09729492 -2.23657227 4.16943359 C-1.45556838 2.79924592 -0.70531997 1.41063995 0 0 Z " fill="#FFFFFF" transform="translate(255,204)"/>
</svg>
