<?xml version="1.0" encoding="UTF-8"?>
<svg version="1.1" xmlns="http://www.w3.org/2000/svg" width="512" height="512">
<path d="M0 0 C15.27055664 11.71876979 24.91903174 29.95326353 27.56982422 48.91552734 C30.26553072 75.99210646 26.68244547 102.23081466 17.8671875 127.90234375 C17.44228027 129.14201904 17.44228027 129.14201904 17.00878906 130.40673828 C6.651199 160.06606937 -8.40717945 187.72184415 -27.1328125 212.90234375 C-27.57753906 213.50401367 -28.02226562 214.10568359 -28.48046875 214.72558594 C-33.37277771 221.31559913 -38.50096953 227.61888886 -44.0703125 233.65234375 C-45.88338344 235.63023933 -47.60320264 237.65431192 -49.3203125 239.71484375 C-63.11896329 255.44847776 -84.75708562 275.68922758 -106.7421875 277.140625 C-121.27783156 277.53310141 -121.27783156 277.53310141 -127.1328125 272.90234375 C-127.7825 272.4125 -128.4321875 271.92265625 -129.1015625 271.41796875 C-147.01879076 255.84376265 -151.28583938 224.07754108 -153.1328125 201.90234375 C-153.2853201 198.26800745 -153.31936424 194.6372516 -153.3359375 191 C-153.34295181 189.97293442 -153.34996613 188.94586884 -153.35719299 187.88768005 C-153.37464925 184.58002313 -153.38104787 181.27254509 -153.3828125 177.96484375 C-153.38348724 176.83675293 -153.38416199 175.70866211 -153.38485718 174.54638672 C-153.36921763 158.12223171 -152.97443623 142.11663775 -150.1328125 125.90234375 C-149.95588867 124.84337891 -149.77896484 123.78441406 -149.59667969 122.69335938 C-144.72507903 93.93492921 -137.13014674 65.6384919 -123.1328125 39.90234375 C-122.64578857 38.98267822 -122.64578857 38.98267822 -122.14892578 38.04443359 C-117.64748565 29.55914053 -112.47303153 22.12594427 -106.1328125 14.90234375 C-105.47410156 14.11085938 -104.81539062 13.319375 -104.13671875 12.50390625 C-77.42688806 -18.98897259 -33.54520836 -22.46106844 0 0 Z M-98.9921875 116.28125 C-120.60398674 142.7438728 -125.42907894 184.88327667 -122.8203125 217.8515625 C-121.7280471 226.7164665 -120.07337117 235.76966669 -114.8203125 243.15234375 C-111.17088891 245.5287126 -109.43538293 245.61943882 -105.1328125 244.90234375 C-81.23542338 236.10773619 -65.7453661 205.2310643 -55.59667969 183.66992188 C-46.65646853 164.1755897 -40.48721107 143.02586258 -47.1328125 121.90234375 C-51.23226822 113.4073605 -57.5483395 108.26541246 -66.375 105.09765625 C-79.16980941 101.57304838 -90.16472097 107.10001096 -98.9921875 116.28125 Z " fill="#FFFFFF" transform="translate(331.1328125,14.09765625)"/>
<path d="M0 0 C0.96593079 -0.00794586 1.93186157 -0.01589172 2.92706299 -0.02407837 C37.62059168 -0.24310782 75.46421246 5.23691657 101.8125 29.75 C110.68202758 39.0914841 115.47539941 51.0645441 115.375 63.875 C115.36927979 64.73867188 115.36355957 65.60234375 115.35766602 66.4921875 C114.85246298 85.0537211 106.86414445 100.31947151 93.875 113.375 C93.21113281 114.07367188 92.54726563 114.77234375 91.86328125 115.4921875 C77.68651629 129.37191548 55.34235249 135.40176306 35.9765625 135.61328125 C35.23293457 135.6230751 34.48930664 135.63286896 33.72314453 135.64295959 C16.07177786 135.82717189 -0.81933763 135.24726147 -18.125 131.375 C-19.0634375 131.17132813 -20.001875 130.96765625 -20.96875 130.7578125 C-42.07786388 126.06045474 -63.19480069 118.83732859 -82.19433594 108.42871094 C-84.32816745 107.264116 -86.47984 106.13659952 -88.6328125 105.0078125 C-98.21688331 99.91399147 -106.80538004 94.36034128 -115.125 87.375 C-116.04023438 86.62347656 -116.95546875 85.87195313 -117.8984375 85.09765625 C-125.92992716 78.23591809 -134.19724351 69.29741494 -135.47265625 58.40625 C-135.90908371 48.82722684 -133.56047791 41.87556656 -127.125 34.75 C-115.7065378 24.22321814 -99.92378044 17.58817655 -85.375 12.8125 C-84.20541748 12.42755371 -83.03583496 12.04260742 -81.83081055 11.64599609 C-70.40229777 7.98695838 -58.94307939 5.39419981 -47.125 3.375 C-46.25633301 3.21273926 -45.38766602 3.05047852 -44.49267578 2.88330078 C-29.73757064 0.18001152 -14.95409376 0.06438356 0 0 Z M-104.4375 53.4375 C-106.3770444 56.16661839 -106.3770444 56.16661839 -105.9140625 58.81640625 C-103.20980145 67.58517351 -93.56066592 73.45367677 -85.92724609 77.55615234 C-73.74781306 83.86826322 -61.40067868 88.90984298 -48.125 92.375 C-47.46258301 92.55144043 -46.80016602 92.72788086 -46.11767578 92.90966797 C-28.74527243 97.35295187 -8.72399086 98.12445939 7.375 89.5 C14.21660282 83.68463761 18.29303534 76.87360532 19.109375 67.7578125 C18.82065783 61.13794022 16.40701345 56.16522247 11.875 51.375 C-13.27208872 31.14538649 -80.59943181 28.24279378 -104.4375 53.4375 Z " fill="#FFFFFF" transform="translate(376.125,299.625)"/>
<path d="M0 0 C17.71905476 9.4571523 34.3340665 23.40310668 47 39 C47.98372406 40.17242148 48.9681748 41.34423341 49.953125 42.515625 C68.13041237 64.30525515 88.97624473 92.92275997 89.375 122.3125 C89.39614868 123.46081299 89.39614868 123.46081299 89.41772461 124.63232422 C89.36862417 130.31181604 88.2531106 134.44683835 84.38671875 138.828125 C83.82597656 139.29734375 83.26523438 139.7665625 82.6875 140.25 C82.13449219 140.72953125 81.58148438 141.2090625 81.01171875 141.703125 C71.4098518 147.89306641 55.57223915 146.22182165 44.828125 144.125 C34.39338783 141.7005977 24.58647264 137.72127975 15 133 C14.29069336 132.65420898 13.58138672 132.30841797 12.85058594 131.95214844 C3.14927525 127.1724783 -5.61494545 121.89167412 -14 115 C-14.5578418 114.55285645 -15.11568359 114.10571289 -15.69042969 113.64501953 C-34.05911592 98.88826746 -51.29537492 78.40042189 -54 54 C-54.95651479 36.83388426 -55.36684849 18.12402455 -44 4 C-31.82724077 -8.79455047 -15.08165712 -7.26677734 0 0 Z M-3 53 C-8.58281522 60.28867543 -8.71646506 67.01822791 -8 76 C-5.01285028 89.26142263 6.50468042 100.12192983 17.48046875 107.3515625 C30.4729205 115.55750093 46.1341754 124.35140926 62 122 C65.42251492 120.24600077 65.42251492 120.24600077 67 117 C67.95660686 103.8466557 55.71822855 88.95641643 47.60644531 79.34960938 C44.50536273 75.79999651 41.26735624 72.39626559 38 69 C37.34644531 68.27167969 36.69289062 67.54335937 36.01953125 66.79296875 C32.06623124 62.51935871 27.73231961 59.28361949 22.875 56.125 C22.28871826 55.7431958 21.70243652 55.3613916 21.09838867 54.96801758 C13.74759436 50.36016527 4.47915412 46.76737157 -3 53 Z " fill="#FFFFFF" transform="translate(76,166)"/>
<path d="M0 0 C25.52662683 11.80351225 42.6949229 41.60533562 52.12890625 66.87890625 C57.55935587 82.14708267 62.20698617 101.0052585 56.81640625 117.00390625 C53.81845607 122.94646229 48.6293793 127.67911525 42.5859375 130.38671875 C25.66888126 134.47219775 7.66912366 130.25839611 -7.38671875 122.3046875 C-25.01081197 111.21790328 -35.03048529 94.16624005 -39.74609375 74.19140625 C-43.94755623 52.07885118 -41.66791095 28.47669878 -29.74609375 9.19140625 C-22.23868696 -0.50294078 -11.88732027 -3.50024935 0 0 Z M-11.21875 23.4296875 C-19.75542423 33.27633732 -18.5903847 49.13668585 -17.74609375 61.19140625 C-16.04099198 72.49114822 -10.68926731 80.35861407 -1.74609375 87.19140625 C4.17239377 90.6728695 9.40701459 91.67188988 16.25390625 91.19140625 C19.69082659 89.93560843 21.69159515 88.85066753 24.06640625 86.06640625 C28.86002017 74.46081464 24.36601464 61.8977165 19.86669922 50.8137207 C15.22563245 40.09014941 8.09911075 27.32435991 -2.05859375 21.19140625 C-6.34556976 19.59625238 -7.75488846 20.47397191 -11.21875 23.4296875 Z " fill="#FFFFFF" transform="translate(205.74609375,380.80859375)"/>
<path d="M0 0 C5.22082896 4.23665115 8.3296618 8.25908294 9.20703125 15.1171875 C9.32276552 29.78650656 4.90836402 40.05858941 -5.39453125 50.64453125 C-12.65520668 57.51307961 -18.62141331 60.62061554 -28.69921875 61.015625 C-38.51105665 60.72126986 -45.27540985 57.07286849 -52.37890625 50.47265625 C-60.67326981 41.57600488 -64.92605454 33.08094428 -64.6015625 20.828125 C-63.84690626 13.33360784 -60.42473317 8.75890917 -54.66796875 4.0546875 C-40.63326763 -5.28659084 -14.81305236 -10.1312068 0 0 Z M-39.26171875 18.453125 C-40.90084781 21.73138312 -40.92302434 24.9241017 -40.26171875 28.453125 C-37.35653804 33.78086683 -33.41209946 38.45073114 -27.51171875 40.328125 C-22.12945232 40.53513525 -18.28646949 39.02506785 -14.11328125 35.78515625 C-8.20397799 30.28225489 -4.73571637 24.65138961 -3.82421875 16.578125 C-4.0130155 13.50619882 -4.0130155 13.50619882 -5.57421875 11.578125 C-15.27517519 5.1108207 -31.94133315 10.72605131 -39.26171875 18.453125 Z " fill="#FFFFFF" transform="translate(134.26171875,354.546875)"/>
</svg>
