<?xml version="1.0" encoding="UTF-8"?>
<svg version="1.1" xmlns="http://www.w3.org/2000/svg" width="512" height="512">
<path d="M0 0 C1.2695327 -0.01475876 1.2695327 -0.01475876 2.56471252 -0.02981567 C70.04212062 -0.65189778 137.25442399 21.25200184 186.8828125 68.23828125 C187.50607422 68.82754395 188.12933594 69.41680664 188.77148438 70.02392578 C236.09968116 115.14690621 260.35584916 180.54383935 262.08935547 245.40576172 C262.21077154 252.12090399 262.21722485 258.83476307 262.1953125 265.55078125 C262.19315735 266.74103912 262.1910022 267.931297 262.18878174 269.15762329 C262.0142433 329.33353453 254.69723511 395.72346436 210.7578125 440.73828125 C183.14490581 468.13760299 143.05936306 482.2329988 104.4765625 482.44140625 C103.60263351 482.44846588 102.72870453 482.45552551 101.82829285 482.46279907 C61.30243301 482.71550919 23.73140653 475.53453156 -15.32605743 465.43844986 C-19.15076076 464.45136397 -22.97755561 463.47245177 -26.80419922 462.49291992 C-31.53865202 461.28065077 -36.27294388 460.06777827 -41.00628662 458.85118103 C-50.93794595 456.29963505 -60.87764712 453.78241421 -70.8255558 451.29499817 C-75.09643709 450.22647291 -79.36624563 449.15366578 -83.63616848 448.0813179 C-86.97767661 447.24258352 -90.31979364 446.40647622 -93.6635437 445.57672119 C-112.90551013 440.79338835 -132.27461316 435.92438768 -150.3046875 427.48828125 C-151.20558105 427.07199463 -152.10647461 426.65570801 -153.03466797 426.22680664 C-192.35345534 407.61942064 -225.33505391 376.10220944 -240.8125 335.00390625 C-243.19016254 328.14143113 -245.33704681 321.28102366 -247.1171875 314.23828125 C-247.60058594 312.35109375 -247.60058594 312.35109375 -248.09375 310.42578125 C-252.8652474 288.99542976 -252.32155654 262.5150939 -247.1171875 241.23828125 C-246.89144043 240.29500977 -246.66569336 239.35173828 -246.43310547 238.37988281 C-234.63983018 190.0662328 -215.06394638 144.13625616 -185.1171875 104.23828125 C-184.68583496 103.66271484 -184.25448242 103.08714844 -183.81005859 102.49414062 C-169.63368208 83.71652325 -152.92756851 65.41882164 -134.1171875 51.23828125 C-133.57980957 50.82449219 -133.04243164 50.41070312 -132.48876953 49.984375 C-122.48858585 42.29580565 -112.0137422 35.58146287 -101.1171875 29.23828125 C-100.50472168 28.87637695 -99.89225586 28.51447266 -99.26123047 28.14160156 C-70.02631558 11.01208878 -33.9733324 0.32755129 0 0 Z M-64.1171875 64.23828125 C-64.97054687 64.6470752 -65.82390625 65.05586914 -66.703125 65.47705078 C-98.00930447 80.71127118 -125.6699437 103.99768828 -146.1171875 132.23828125 C-146.98410359 133.41035705 -147.85129541 134.58222894 -148.71875 135.75390625 C-163.7282182 156.21470055 -175.80246329 178.65887311 -185.1171875 202.23828125 C-185.62693115 203.51227783 -185.62693115 203.51227783 -186.14697266 204.81201172 C-190.67371797 216.24469559 -194.29164327 227.875268 -197.4921875 239.73828125 C-197.82613525 240.96603271 -198.16008301 242.19378418 -198.50415039 243.45874023 C-206.47933741 273.90889473 -204.31146282 304.79546381 -188.46484375 332.40625 C-185.09262575 338.02197415 -181.31693467 343.21246811 -177.1171875 348.23828125 C-176.28574219 349.2334375 -175.45429688 350.22859375 -174.59765625 351.25390625 C-148.12323097 381.93280427 -109.10873901 393.0390519 -71.22242689 402.44704103 C-67.66245887 403.33250526 -64.10455804 404.22621332 -60.54629517 405.11849976 C-54.57220291 406.61518118 -48.59643652 408.10502229 -42.61962891 409.59082031 C-35.78883958 411.28902157 -28.96108294 412.9990082 -22.13479936 414.71522391 C-16.19668342 416.20779521 -10.2569275 417.69370499 -4.3158499 419.1744436 C-0.80167589 420.05031033 2.7119632 420.92815678 6.22410965 421.81212234 C51.09550337 433.09538393 98.9084544 443.49936838 143.8828125 427.23828125 C144.91535156 426.88121094 145.94789063 426.52414062 147.01171875 426.15625 C169.54156059 417.6663096 187.2334815 399.80287438 197.17578125 378.14453125 C197.74945647 376.8444964 198.31873974 375.54251121 198.8828125 374.23828125 C199.35332031 373.15546875 199.82382812 372.07265625 200.30859375 370.95703125 C224.33264299 309.66967343 221.48798598 225.09032201 195.94970703 165.14892578 C194.33543141 161.47540892 192.63019704 157.85011228 190.8828125 154.23828125 C190.4175415 153.26882568 190.4175415 153.26882568 189.94287109 152.27978516 C182.82334923 137.65295149 173.49308171 124.51128173 162.27734375 112.75 C160.32012282 110.69699338 158.49068539 108.6179751 156.6953125 106.42578125 C126.64756602 71.11543511 72.38391635 51.67739084 27.56542969 47.43676758 C-4.07155814 45.09595295 -35.48795649 50.52010806 -64.1171875 64.23828125 Z " fill="#FFFFFF" transform="translate(250.1171875,14.76171875)"/>
<path d="M0 0 C14.70072253 5.92567718 21.63246583 24.15989289 27.62109375 37.65234375 C34.38341718 53.82922656 38.90778844 70.76478583 42 88 C42.3403125 89.86205078 42.3403125 89.86205078 42.6875 91.76171875 C45.01727473 106.98614942 49.39107871 136.54389218 39.75 149.75 C33.37725116 154.96406723 25.85698261 154.69917532 18 154 C7.18497096 151.82463416 -1.42938595 147.40508619 -8.7109375 139.1015625 C-13.58291073 131.15876977 -13.39130692 123.42946688 -13.42532349 114.41564941 C-13.50546701 98.10493634 -14.54735021 81.98496062 -16.0625 65.75 C-17.24326801 52.89464723 -18.39237829 40.10520047 -18.4375 27.1875 C-18.44724854 26.16430664 -18.45699707 25.14111328 -18.46704102 24.08691406 C-18.36883511 15.699986 -17.1592592 7.1592592 -11 1 C-7.44009843 -0.77995078 -3.87980696 -0.60109685 0 0 Z " fill="#FFFFFF" transform="translate(331,199)"/>
<path d="M0 0 C1.95543602 1.55415277 2.88543828 2.46449997 3.41381836 4.93432617 C3.38160211 11.03005105 1.97017409 15.74828409 -0.4375 21.3125 C-0.79658447 22.17786377 -1.15566895 23.04322754 -1.52563477 23.93481445 C-3.68806809 29.09504996 -5.98485027 34.1884301 -8.32543945 39.26977539 C-16.89163446 57.89349199 -23.39280793 76.67651467 -27.53417969 96.7578125 C-29.70151912 107.19012137 -32.41607335 115.94194094 -41.07421875 122.74609375 C-48.65568827 127.68250697 -57.19302586 127.87382464 -66 127 C-74.01158743 125.21178944 -80.85943292 121.9338764 -85.34765625 114.8828125 C-91.4790424 102.204353 -86.04951838 86.64368069 -82 74 C-76.84579076 59.22766817 -68.23535616 45.77553356 -58 34 C-57.23042969 33.09765625 -56.46085937 32.1953125 -55.66796875 31.265625 C-43.9928094 17.95410473 -19.86624441 -4.60221878 0 0 Z " fill="#FFFFFF" transform="translate(203,175)"/>
</svg>
