<?xml version="1.0" encoding="UTF-8"?>
<svg version="1.1" xmlns="http://www.w3.org/2000/svg" width="512" height="512">
<path d="M0 0 C-3.21509829 4.16772 -6.77174707 7.81174135 -10.5234375 11.49609375 C-25.25973642 27.02801445 -32.27359759 48.95679878 -39.94140625 68.4609375 C-52.34086435 99.97806769 -65.8293595 129.69561846 -89.52001953 154.45263672 C-90.51825042 155.49631659 -91.51132069 156.54495364 -92.49951172 157.59814453 C-114.06195727 180.52504013 -142.20568959 195.94746899 -171 208 C-137.45357383 197.60373629 -104.26019689 183.85046143 -78.5234375 159.34765625 C-76.42492391 157.39532395 -74.33192523 155.65862287 -72 154 C-73.32129306 195.62073139 -113.42159854 234.66107546 -141.0715332 262.2019043 C-142.70056572 263.82552229 -144.32410728 265.45449603 -145.94726562 267.08398438 C-151.45894681 272.59953818 -157.04236097 277.96324481 -163 283 C-164.11828687 283.97269585 -165.23550446 284.94662263 -166.3515625 285.921875 C-228.99714315 340.19010012 -313.30031015 396.93405308 -397.34765625 407.828125 C-402.63078162 408.68370739 -405.08989374 410.02144962 -408.5 414.3125 C-409.40637294 415.4046255 -410.31396917 416.49573669 -411.22265625 417.5859375 C-411.67656738 418.15022461 -412.13047852 418.71451172 -412.59814453 419.29589844 C-414.9230412 422.12205288 -417.43573653 424.76849336 -419.9375 427.4375 C-420.95007228 428.53176289 -421.96178856 429.62681849 -422.97265625 430.72265625 C-423.72506592 431.53694092 -423.72506592 431.53694092 -424.49267578 432.36767578 C-425.97410134 433.97195361 -427.45408992 435.57754366 -428.93359375 437.18359375 C-434.8837087 443.64060702 -440.86228888 450.07002086 -446.85888672 456.48388672 C-450.42689036 460.30386523 -453.97329528 464.14185754 -457.5 468 C-463.95025675 475.04697654 -470.43027593 482.06403917 -477 489 C-477.52239258 489.55252441 -478.04478516 490.10504883 -478.58300781 490.67431641 C-498.70706539 511.814283 -498.70706539 511.814283 -507.5625 512.125 C-511 512 -511 512 -512 511 C-515.23087435 492.34904351 -502.8779865 473.14521902 -493.76025391 457.94140625 C-491.42272599 454.03536792 -489.13954551 450.09871636 -486.85400391 446.16210938 C-485.11893487 443.17706544 -483.37462877 440.19757378 -481.62890625 437.21875 C-479.07594964 432.85462609 -476.54407797 428.47883803 -474.02734375 424.09375 C-473.69528931 423.51571121 -473.36323486 422.93767242 -473.02111816 422.34211731 C-471.42327124 419.56014645 -469.82792861 416.77679617 -468.23681641 413.9909668 C-465.45801995 409.15056948 -462.6271437 404.45083462 -459.46484375 399.8515625 C-455.2206227 393.23715363 -452.85957801 386.07217791 -450.34686279 378.6751709 C-448.87212495 374.34310857 -447.3446105 370.02966651 -445.8203125 365.71484375 C-445.5075235 364.82705231 -445.1947345 363.93926086 -444.87246704 363.02456665 C-418.4106522 288.28867769 -382.22014333 215.92747482 -331 155 C-330.16186768 153.99122803 -329.32373535 152.98245605 -328.46020508 151.94311523 C-321.32601693 143.42921178 -313.75999071 135.44760643 -305.8815918 127.62084961 C-303.92844512 125.67849516 -301.9863238 123.72557042 -300.04492188 121.77148438 C-293.00036284 114.71950426 -285.8416013 108.1652895 -278 102 C-276.96000289 101.12574543 -275.92486706 100.24561336 -274.8984375 99.35546875 C-267.21234623 92.75209312 -259.05814736 86.9596832 -250.72265625 81.21142578 C-249.32837162 80.2309212 -247.97035453 79.19897647 -246.625 78.15234375 C-245 77 -245 77 -243 77 C-244.28636741 80.3396077 -245.72060349 83.50387209 -247.390625 86.66796875 C-261.87499382 114.18966287 -261.87499382 114.18966287 -262.328125 144.53515625 C-261.47716556 146.59281791 -261.47716556 146.59281791 -260 149 C-257.28746066 142.66273994 -254.74449739 136.30905942 -252.4375 129.8125 C-244.44926853 108.04065343 -234.04476769 88.78970333 -218 72 C-217.34 71.26523438 -216.68 70.53046875 -216 69.7734375 C-171.70199245 22.28731577 -86.67781279 13.23918339 -25.9375 3 C-25.03046326 2.84593689 -24.12342651 2.69187378 -23.18890381 2.53314209 C-20.61531513 2.0984631 -18.04045357 1.67251975 -15.46484375 1.25 C-14.70933731 1.12231232 -13.95383087 0.99462463 -13.1754303 0.86306763 C-8.72228639 0.14678216 -4.51074851 -0.11861612 0 0 Z " fill="#FFFFFF" transform="translate(512,0)"/>
</svg>
