<?xml version="1.0" encoding="UTF-8"?>
<svg version="1.1" xmlns="http://www.w3.org/2000/svg" width="511" height="512">
<path d="M0 0 C22.62107734 17.38176678 37.70729026 41.76979327 41.49609375 70.16796875 C43.61261659 101.58467043 37.51268309 129.27466598 16.73046875 153.6484375 C15.993125 154.47988281 15.25578125 155.31132812 14.49609375 156.16796875 C13.57570313 157.21404297 13.57570313 157.21404297 12.63671875 158.28125 C-3.41992879 175.4014789 -29.1695867 188.08253846 -52.73046875 189.28125 C-54.32203416 189.29076135 -55.91388204 189.23863649 -57.50390625 189.16796875 C-57.48908707 189.85181137 -57.47426788 190.53565399 -57.45899963 191.24021912 C-57.35692941 199.84680389 -57.99334493 208.33021531 -58.78125 216.890625 C-58.91373736 218.36841144 -59.04585629 219.84623095 -59.17762756 221.32408142 C-59.45254183 224.39434734 -59.73108207 227.4642546 -60.01245117 230.53393555 C-60.37281353 234.46747261 -60.72509337 238.40168373 -61.07486629 242.33617496 C-61.3457679 245.37583913 -61.62027016 248.41516944 -61.89593697 251.45440483 C-62.02727916 252.90599249 -62.15764184 254.35766913 -62.28700066 255.80943489 C-62.46762459 257.82909012 -62.65348792 259.84827472 -62.83959961 261.86743164 C-62.99615273 263.58851891 -62.99615273 263.58851891 -63.15586853 265.34437561 C-63.50390625 268.16796875 -63.50390625 268.16796875 -64.50390625 271.16796875 C-63.47265625 271.35359375 -62.44140625 271.53921875 -61.37890625 271.73046875 C-50.98765877 274.35135177 -41.5394452 280.24024197 -33.50390625 287.16796875 C-32.82972656 287.6990625 -32.15554688 288.23015625 -31.4609375 288.77734375 C-17.56083398 300.06949748 -7.60052563 319.43406317 -5.50390625 337.16796875 C-3.41606031 363.7507215 -9.91617333 385.57674582 -27.10546875 406.078125 C-40.51757988 420.5803831 -60.75027417 429.53727741 -80.296875 430.55078125 C-101.77401955 431.18130918 -121.89075538 426.52725671 -138.50390625 412.16796875 C-139.22707031 411.58660156 -139.95023437 411.00523437 -140.6953125 410.40625 C-151.45876052 401.42760385 -157.89452814 389.80398805 -163.50390625 377.16796875 C-163.50390625 376.50796875 -163.50390625 375.84796875 -163.50390625 375.16796875 C-164.52942596 375.35575394 -165.55494568 375.54353912 -166.61154175 375.73701477 C-177.00790321 377.61910478 -187.41940076 379.21922758 -197.88671875 380.6484375 C-199.48235065 380.86820474 -201.07796178 381.08812274 -202.67355347 381.30818176 C-205.97901059 381.76324496 -209.28479223 382.21585241 -212.59082031 382.66674805 C-216.81323514 383.24292821 -221.03459916 383.82645425 -225.25573921 384.41189098 C-228.53418344 384.86558309 -231.81321603 385.3149016 -235.09243393 385.76296425 C-236.64986105 385.9763937 -238.20708914 386.19128113 -239.76410294 386.40770531 C-241.93475497 386.70886692 -244.10615043 387.00397488 -246.27783203 387.29760742 C-247.50784943 387.46620773 -248.73786682 387.63480804 -250.00515747 387.80851746 C-253.53114481 388.17076716 -256.96204736 388.23117254 -260.50390625 388.16796875 C-260.4575 388.89757812 -260.41109375 389.6271875 -260.36328125 390.37890625 C-259.44812994 416.85292625 -271.70392634 441.39303271 -288.875 460.85546875 C-305.36094093 478.18059551 -329.41775183 490.94731545 -353.56152344 492.3449707 C-388.55349464 493.0069382 -415.26473047 485.70557948 -441.06640625 460.98046875 C-461.73694302 439.7858902 -469.95365107 413.32628004 -469.86743164 384.23364258 C-469.46564053 355.98147757 -457.63103543 332.03095786 -438.31640625 311.60546875 C-420.44166013 294.31728597 -396.82666359 284.57453679 -372.1640625 282.6171875 C-371.09937744 282.53170654 -370.03469238 282.44622559 -368.93774414 282.3581543 C-368.13457764 282.29539307 -367.33141113 282.23263184 -366.50390625 282.16796875 C-365.0657009 271.82416758 -363.63114515 261.47986746 -362.20124054 251.13491535 C-361.53715781 246.33131054 -360.87182138 241.52788635 -360.20361328 236.72485352 C-359.55874967 232.08928063 -358.91718786 227.45326167 -358.27790833 222.81691551 C-358.0334872 221.04854245 -357.78787877 219.28033307 -357.5410614 217.51229286 C-357.19544928 215.03506727 -356.854071 212.55729223 -356.51367188 210.0793457 C-356.41081375 209.349263 -356.30795563 208.6191803 -356.20198059 207.86697388 C-355.71292658 204.27389959 -355.38976902 200.79505451 -355.50390625 197.16796875 C-356.21933594 196.91144531 -356.93476563 196.65492188 -357.671875 196.390625 C-377.14051581 188.91043571 -393.6034479 174.18402156 -402.43408203 155.16455078 C-411.27593885 134.66021175 -412.94091642 111.12654149 -404.69042969 90.09423828 C-395.82216206 69.19046458 -380.79757876 53.84106218 -360.03515625 44.62890625 C-340.7084193 36.90724266 -317.89345345 35.96253914 -298.46289062 44.01367188 C-276.82291433 53.49500102 -262.07714227 68.12171891 -252.5 89.5859375 C-251.50390625 92.16796875 -251.50390625 92.16796875 -251.50390625 94.16796875 C-250.61378342 94.0449086 -249.72366058 93.92184845 -248.80656433 93.7950592 C-240.37798596 92.63026262 -231.94907344 91.46792038 -223.51978588 90.30826664 C-219.18724045 89.71213318 -214.85482552 89.11508389 -210.52270508 88.51586914 C-206.33438791 87.93658068 -202.14573305 87.35979258 -197.95684242 86.78466606 C-196.36651904 86.56588406 -194.77631493 86.34623305 -193.18623924 86.12565804 C-184.64053633 84.94080207 -176.1099913 83.8271468 -167.50390625 83.16796875 C-167.5659021 82.06376587 -167.5659021 82.06376587 -167.62915039 80.93725586 C-168.85083028 55.04290189 -155.81195969 30.3853341 -139.1328125 11.48046875 C-102.91434451 -26.58163225 -41.96566195 -30.70498511 0 0 Z M-178.15161133 115.07006836 C-178.88093872 115.16599777 -179.61026611 115.26192719 -180.36169434 115.36076355 C-182.74956875 115.67608182 -185.13649874 115.99799389 -187.5234375 116.3203125 C-189.19012061 116.54241601 -190.85684389 116.76421824 -192.52360535 116.98573303 C-196.00466026 117.44940163 -199.4852669 117.91626629 -202.96557617 118.38549805 C-207.43163216 118.98743229 -211.89862997 119.58201467 -216.36597157 120.17432308 C-219.80203601 120.63059565 -223.23762361 121.09037721 -226.67307091 121.55127144 C-228.3208135 121.77196373 -229.96869301 121.99163627 -231.61670876 122.21027946 C-233.91268686 122.51549236 -236.20799256 122.825334 -238.50317383 123.13647461 C-240.46339226 123.39961708 -240.46339226 123.39961708 -242.46321106 123.66807556 C-245.41228299 123.99874341 -245.41228299 123.99874341 -247.50390625 125.16796875 C-248.00142345 127.69499211 -248.39759775 130.18307093 -248.75390625 132.73046875 C-252.14674448 153.8680522 -262.28182725 171.6145622 -279.31640625 184.91796875 C-291.04025284 193.33242573 -303.61838883 198.34359273 -317.91796875 200.27734375 C-319.15756348 200.44717773 -320.3971582 200.61701172 -321.67431641 200.79199219 C-322.60808105 200.91606445 -323.5418457 201.04013672 -324.50390625 201.16796875 C-325.9437987 211.34660047 -327.37848041 221.52595184 -328.80657196 231.70624638 C-329.46990164 236.43367803 -330.13500242 241.16084618 -330.80419922 245.88745117 C-331.45031842 250.45153171 -332.0917219 255.01625265 -332.72990417 259.58144951 C-332.97382362 261.32033193 -333.21942204 263.05897971 -333.4667511 264.79738045 C-333.81370426 267.23809371 -334.1546 269.67958394 -334.49414062 272.12133789 C-334.59699875 272.8348793 -334.69985687 273.54842072 -334.80583191 274.28358459 C-335.40302669 278.63461689 -335.59608219 282.79056975 -335.50390625 287.16796875 C-334.44816406 287.58755859 -334.44816406 287.58755859 -333.37109375 288.015625 C-320.27662805 293.33204645 -308.48018507 299.17460232 -297.50390625 308.16796875 C-296.69050781 308.82796875 -295.87710938 309.48796875 -295.0390625 310.16796875 C-279.98574774 322.93112109 -271.40023213 340.05125413 -264.50390625 358.16796875 C-253.48908942 357.56307955 -242.66004391 356.22079132 -231.7421875 354.69921875 C-229.97580715 354.45610688 -228.20938273 354.21331496 -226.44291687 353.9708252 C-222.77249806 353.46598463 -219.10252211 352.95807471 -215.43286133 352.44775391 C-210.72829041 351.79366054 -206.02282817 351.14625584 -201.31704426 350.50095367 C-197.6837052 350.00217966 -194.05076961 349.50051832 -190.41795921 348.99790955 C-188.68169775 348.75793386 -186.94533058 348.51872161 -185.20885658 348.2802887 C-182.79418654 347.94817476 -180.38006671 347.61231949 -177.96606445 347.27539062 C-177.25078583 347.17769882 -176.5355072 347.08000702 -175.79855347 346.97935486 C-172.90626006 346.57222468 -170.28328658 346.09442886 -167.50390625 345.16796875 C-167.40891846 344.62495117 -167.31393066 344.08193359 -167.21606445 343.52246094 C-165.3219603 332.89749213 -163.37416589 322.89416373 -158.50390625 313.16796875 C-157.87742187 311.80865234 -157.87742187 311.80865234 -157.23828125 310.421875 C-153.28523855 302.41355575 -147.74201069 296.43311699 -141.50390625 290.16796875 C-140.88 289.50925781 -140.25609375 288.85054687 -139.61328125 288.171875 C-129.72689901 278.53042566 -115.70032275 273.22629319 -102.50390625 270.16796875 C-100.87856615 269.75263073 -99.25350179 269.33620963 -97.62890625 268.91796875 C-96.59765625 268.67046875 -95.56640625 268.42296875 -94.50390625 268.16796875 C-92.5282094 255.07303884 -91.38637988 241.90172108 -90.21679688 228.71484375 C-89.87839238 224.91219437 -89.53126078 221.11040615 -89.18359375 217.30859375 C-88.96431554 214.86072434 -88.74554789 212.41280913 -88.52734375 209.96484375 C-88.37270157 208.28319122 -88.37270157 208.28319122 -88.2149353 206.56756592 C-87.61911321 199.7476808 -87.37801476 193.01309187 -87.50390625 186.16796875 C-88.62925781 185.82765625 -89.75460937 185.48734375 -90.9140625 185.13671875 C-107.7305826 179.89676186 -121.11570637 172.61383911 -134.50390625 161.16796875 C-135.1896875 160.5853125 -135.87546875 160.00265625 -136.58203125 159.40234375 C-149.42349078 147.52099335 -157.59024746 130.35271913 -163.50390625 114.16796875 C-168.46439203 114.07542191 -173.24453108 114.39972447 -178.15161133 115.07006836 Z " fill="#FFFFFF" transform="translate(469.50390625,19.83203125)"/>
</svg>
