<?xml version="1.0" encoding="UTF-8"?>
<svg version="1.1" xmlns="http://www.w3.org/2000/svg" width="494" height="512">
<path d="M0 0 C1.76827148 -0.06864258 1.76827148 -0.06864258 3.57226562 -0.13867188 C13.68285858 -0.26471179 21.59548877 2.5034008 30.6875 6.4375 C32.18947366 7.06909717 33.6920119 7.69935315 35.19506836 8.32836914 C39.26894037 10.04410873 43.32765748 11.79320318 47.38287354 13.55252075 C51.98437807 15.54807283 56.59179331 17.52988368 61.19921875 19.51171875 C62.62445862 20.12502296 62.62445862 20.12502296 64.07849121 20.75071716 C74.12815139 25.06840212 84.21752086 29.28962027 94.3125 33.5 C108.22875232 39.30684276 122.12668652 45.15376901 136 51.0625 C148.78081044 56.50521035 161.570008 61.92690905 174.375 67.3125 C175.91658901 67.96101004 177.45817428 68.60952894 178.99975586 69.25805664 C181.36544308 70.25324338 183.73113449 71.24842016 186.09684753 72.24354553 C195.59993114 76.24133804 205.10101014 80.24387693 214.60025024 84.25079346 C216.54130344 85.06935251 218.48252065 85.88752275 220.42391968 86.70526123 C224.88000901 88.58230471 229.33332141 90.46517314 233.78027344 92.36376953 C236.96556116 93.72102879 240.16383719 95.03150946 243.38378906 96.30419922 C244.11477814 96.60168564 244.84576721 96.89917206 245.59890747 97.20567322 C246.93755865 97.75030227 248.28261957 98.2795996 249.63522339 98.78858948 C254.60776622 100.84808617 257.13086993 103.86099743 259.6875 108.4375 C260.82470135 111.99815472 260.69192817 114.84099914 259.6875 118.4375 C257.18387448 122.30895995 254.04856653 125.303981 250.6875 128.4375 C249.69113751 129.39164653 248.69505059 130.3460809 247.69921875 131.30078125 C242.70518786 136.01482462 242.70518786 136.01482462 240.24843961 138.08553982 C238.6564907 139.41603164 238.6564907 139.41603164 237.24841851 140.98014164 C230.50121746 147.35545624 221.93012677 146.28458746 213.26069641 146.22631836 C211.4646285 146.23610051 209.66857319 146.24848215 207.87253922 146.26323414 C202.94443616 146.29602687 198.01697312 146.29139909 193.08879912 146.2804842 C187.77090651 146.27514282 182.45318435 146.30420896 177.13536072 146.32867432 C166.71924833 146.37078563 156.30335858 146.37986382 145.88717113 146.37629855 C137.41919587 146.3736831 128.95129006 146.38129258 120.48332787 146.39614868 C118.04393123 146.4003471 115.60453459 146.4045423 113.16513795 146.40873432 C111.34387053 146.4118649 111.34387053 146.4118649 109.48580983 146.41505873 C86.52103834 146.45286549 63.55639462 146.45076287 40.59160491 146.43712008 C19.59095064 146.42597231 -1.40921542 146.46760607 -22.40975561 146.53384101 C-43.9786604 146.60133984 -65.54733142 146.63164838 -87.1163438 146.62240696 C-99.22344598 146.61791963 -111.3300971 146.62837262 -123.43710899 146.67819214 C-133.74600136 146.72025144 -144.05419544 146.72737075 -154.36311664 146.68959296 C-159.62081725 146.67129536 -164.87721656 146.6689332 -170.13481522 146.71030426 C-174.95387808 146.74780427 -179.77057785 146.73863729 -184.58955178 146.69321263 C-186.32708649 146.68486017 -188.06480376 146.69317719 -189.80214521 146.72040451 C-202.44262086 146.90491771 -209.16803495 144.16166337 -218.3125 135.4375 C-219.56140125 134.36568572 -220.8122063 133.29607781 -222.06640625 132.23046875 C-223.45666016 130.94076172 -223.45666016 130.94076172 -224.875 129.625 C-225.82503906 128.75230469 -226.77507812 127.87960938 -227.75390625 126.98046875 C-234.06002731 120.71285835 -234.06002731 120.71285835 -234.84375 116.75390625 C-234.8334375 115.84511719 -234.823125 114.93632813 -234.8125 114 C-234.8228125 113.09378906 -234.833125 112.18757813 -234.84375 111.25390625 C-234.03085965 106.94439195 -232.258835 103.84767588 -228.65429688 101.23608398 C-226.57871378 100.02080347 -224.47045951 98.93729976 -222.3125 97.875 C-221.48129639 97.45210693 -220.65009277 97.02921387 -219.79370117 96.59350586 C-211.05561197 92.2010507 -202.16384666 88.12478386 -193.27813721 84.04199219 C-183.3735839 79.48885617 -173.52919793 74.81216316 -163.6875 70.125 C-160.24240014 68.48522995 -156.7970652 66.84595466 -153.3515625 65.20703125 C-152.50317307 64.80346909 -151.65478363 64.39990692 -150.78068542 63.9841156 C-142.55150322 60.07182636 -134.30908875 56.18793682 -126.0625 52.3125 C-123.28384477 51.00653041 -120.50519331 49.7005528 -117.7265625 48.39453125 C-117.03916992 48.07145996 -116.35177734 47.74838867 -115.64355469 47.41552734 C-107.57026757 43.62010245 -99.50370914 39.81043854 -91.4375 36 C-90.69674225 35.65007996 -89.9559845 35.30015991 -89.19277954 34.93963623 C-86.1921282 33.52215038 -83.19150353 32.10460809 -80.19093323 30.68695068 C-75.50013775 28.47076133 -70.8090256 26.25524408 -66.11759949 24.04039001 C-64.51626668 23.2843895 -62.91495832 22.52833722 -61.31367493 21.77223206 C-57.43817116 19.94231623 -53.56234759 18.11308497 -49.68579102 16.28540039 C-43.45053341 13.34461706 -37.21782711 10.40010926 -31.0078125 7.40625 C-29.67182007 6.76429688 -29.67182007 6.76429688 -28.30883789 6.109375 C-26.76137944 5.36428516 -25.21603463 4.61477724 -23.67358398 3.859375 C-15.85490391 0.09978306 -8.55218089 0.1308777 0 0 Z " fill="#FFFFFF" transform="translate(234.3125,-0.43749999999999994)"/>
<path d="M0 0 C52.14 0 104.28 0 158 0 C158 68.31 158 136.62 158 207 C105.86 207 53.72 207 0 207 C0 138.69 0 70.38 0 0 Z " fill="#FFFFFF" transform="translate(165,171)"/>
<path d="M0 0 C96.69 0 193.38 0 293 0 C293 35.97 293 71.94 293 109 C196.31 109 99.62 109 0 109 C0 73.03 0 37.06 0 0 Z " fill="#FFFFFF" transform="translate(31,403)"/>
<path d="M0 0 C38.28 0 76.56 0 116 0 C116 74.58 116 149.16 116 226 C77.72 226 39.44 226 0 226 C0 151.42 0 76.84 0 0 Z " fill="#FFFFFF" transform="translate(353,286)"/>
<path d="M0 0 C34.32 0 68.64 0 104 0 C104 68.31 104 136.62 104 207 C69.68 207 35.36 207 0 207 C0 138.69 0 70.38 0 0 Z " fill="#FFFFFF" transform="translate(30,171)"/>
<path d="M0 0 C37.29 0 74.58 0 113 0 C113 30.69 113 61.38 113 93 C75.71 93 38.42 93 0 93 C0 62.31 0 31.62 0 0 Z " fill="#FFFFFF" transform="translate(350,171)"/>
</svg>
