<?xml version="1.0" encoding="UTF-8"?>
<svg version="1.1" xmlns="http://www.w3.org/2000/svg" width="512" height="512">
<path d="M0 0 C0.72888428 0.00182281 1.45776855 0.00364563 2.20874023 0.00552368 C13.68596812 0.0538121 24.80666622 0.6156949 36 3.3125 C37.05598389 3.56193359 37.05598389 3.56193359 38.13330078 3.81640625 C74.64203912 12.76340816 104.45577559 36.48205582 124.06640625 68.19140625 C133.9767944 84.72975095 141.45644665 102.19648364 147.625 120.4375 C147.96821289 121.45110596 148.31142578 122.46471191 148.66503906 123.5090332 C148.9740918 124.45738037 149.28314453 125.40572754 149.6015625 126.3828125 C149.87307129 127.21570801 150.14458008 128.04860352 150.42431641 128.90673828 C151.03449015 131.45663312 151.10416105 133.70032703 151 136.3125 C148.41909233 137.62996333 145.83549542 138.94159617 143.25 140.25 C142.52039063 140.62318359 141.79078125 140.99636719 141.0390625 141.38085938 C140.33007812 141.73857422 139.62109375 142.09628906 138.890625 142.46484375 C137.91657715 142.9597229 137.91657715 142.9597229 136.92285156 143.46459961 C134.96706921 144.32702116 133.08459306 144.85624179 131 145.3125 C130.5153125 144.33152344 130.030625 143.35054687 129.53125 142.33984375 C127.74056625 138.72686266 125.93289006 135.12267863 124.11572266 131.52294922 C123.41258172 130.12989931 122.71145134 128.735831 122.01318359 127.34033203 C114.31857906 112.03515141 104.96213124 98.57699158 93 86.3125 C92.13181641 85.35150391 92.13181641 85.35150391 91.24609375 84.37109375 C74.76517079 66.56839251 48.45928814 55.96186242 24.4921875 54.9765625 C5.78572342 54.67519064 -9.26278839 58.08890637 -26 66.3125 C-26.95132812 66.77398437 -27.90265625 67.23546875 -28.8828125 67.7109375 C-41.9720409 74.47044948 -53.71773461 83.76947421 -65.4309082 92.6184082 C-73.1337413 98.43585524 -80.94330388 104.09386451 -88.78662109 109.71972656 C-91.01569713 111.32379584 -93.2373552 112.93764063 -95.45703125 114.5546875 C-106.16598057 122.34874723 -117.0089095 129.92155493 -128 137.3125 C-128.63921387 137.74578613 -129.27842773 138.17907227 -129.93701172 138.62548828 C-164.01165661 161.64541707 -203.67114383 171.21970349 -244.4453125 163.34765625 C-279.76317582 155.63288654 -309.10367667 137.25068988 -329.16796875 106.8359375 C-344.71059313 82.4817042 -353.55800684 55.56786883 -359.375 27.4375 C-359.54290039 26.63562256 -359.71080078 25.83374512 -359.88378906 25.00756836 C-360.85866886 20.02210047 -361.15041608 15.39193527 -361 10.3125 C-358.26070622 8.77175893 -355.50712161 7.25857142 -352.75 5.75 C-351.97269531 5.31236328 -351.19539063 4.87472656 -350.39453125 4.42382812 C-349.64042969 4.01455078 -348.88632812 3.60527344 -348.109375 3.18359375 C-347.07248535 2.61016235 -347.07248535 2.61016235 -346.01464844 2.02514648 C-343.53236415 1.14708203 -342.38651419 1.21360681 -340 2.3125 C-338.92423242 5.17292247 -338.11964145 7.86305894 -337.375 10.8125 C-329.67726817 38.58013364 -317.80268309 63.23808497 -298 84.3125 C-297.47277344 84.91578125 -296.94554687 85.5190625 -296.40234375 86.140625 C-282.42148846 101.44447683 -260.09360031 110.16840358 -239.74902344 111.45483398 C-203.41581407 112.89019298 -175.43211754 95.60230107 -147.1862793 74.62646484 C-139.94533118 69.24971746 -132.60287178 64.03110486 -125.21289062 58.86181641 C-122.89439861 57.23856505 -120.57979199 55.60987918 -118.265625 53.98046875 C-105.92647196 45.30271996 -93.50860057 36.74424207 -81 28.3125 C-79.99912354 27.63380859 -79.99912354 27.63380859 -78.97802734 26.94140625 C-54.69753811 10.54044994 -29.61475987 -0.15328116 0 0 Z " fill="#FFFFFF" transform="translate(361,171.6875)"/>
<path d="M0 0 C1.03728241 -0.00101212 1.03728241 -0.00101212 2.09552002 -0.00204468 C38.12790229 0.05371687 71.59437734 11.67108858 98.25 36.25 C99.13300781 37.06210937 100.01601563 37.87421875 100.92578125 38.7109375 C112.07595624 49.42759091 120.42650794 62.00615897 128.25 75.25 C128.91644531 76.36117187 129.58289063 77.47234375 130.26953125 78.6171875 C134.95858075 86.88748662 138.51863373 95.53556957 142 104.375 C142.46011475 105.54256836 142.92022949 106.71013672 143.39428711 107.91308594 C151.59832977 129.15481563 151.59832977 129.15481563 151.25 136.25 C148.66909233 137.56746333 146.08549542 138.87909617 143.5 140.1875 C142.77039063 140.56068359 142.04078125 140.93386719 141.2890625 141.31835938 C140.58007812 141.67607422 139.87109375 142.03378906 139.140625 142.40234375 C138.16657715 142.8972229 138.16657715 142.8972229 137.17285156 143.40209961 C135.21706921 144.26452116 133.33459306 144.79374179 131.25 145.25 C130.7653125 144.26902344 130.280625 143.28804687 129.78125 142.27734375 C127.62381197 137.9249423 125.44223344 133.58496791 123.25 129.25 C122.91371582 128.58323242 122.57743164 127.91646484 122.23095703 127.22949219 C106.81718033 96.86412099 83.95426444 71.11134037 51.04394531 60.02148438 C23.52219283 51.31656314 -2.33623323 54.23576284 -27.75 67.25 C-39.06856235 73.18364472 -49.15869537 80.80809854 -59.35351562 88.46240234 C-63.14236252 91.28859804 -66.9756151 94.05205469 -70.8125 96.8125 C-71.55089111 97.34456055 -72.28928223 97.87662109 -73.05004883 98.42480469 C-74.53851501 99.49721571 -76.02720274 100.56931929 -77.51611328 101.64111328 C-80.51224029 103.79897962 -83.50539623 105.96094481 -86.49829102 108.12329102 C-87.99721992 109.20616679 -89.49640544 110.28868743 -90.99584961 111.37084961 C-94.77479066 114.09837352 -98.55047295 116.83021999 -102.3203125 119.5703125 C-145.31015248 150.79049371 -145.31015248 150.79049371 -170.75 159.5 C-171.42458252 159.73420654 -172.09916504 159.96841309 -172.79418945 160.2097168 C-185.8267017 164.47437439 -198.40934569 165.77074478 -212 165.625 C-212.76624695 165.62067963 -213.5324939 165.61635925 -214.32196045 165.61190796 C-251.69790119 165.36514907 -286.25233196 153.68169704 -313.23681641 126.82910156 C-340.26623152 98.62221918 -352.20484255 60.67411808 -359.75 23.25 C-359.93699463 22.39946045 -360.12398926 21.5489209 -360.31665039 20.67260742 C-360.94567 17.15612203 -360.81047503 13.81802667 -360.75 10.25 C-357.98456804 8.73987869 -355.21183193 7.24369852 -352.4375 5.75 C-351.65181641 5.32074219 -350.86613281 4.89148438 -350.05664062 4.44921875 C-349.29931641 4.04316406 -348.54199219 3.63710938 -347.76171875 3.21875 C-347.06522217 2.84169922 -346.36872559 2.46464844 -345.65112305 2.07617188 C-343.75 1.25 -343.75 1.25 -340.75 1.25 C-340.46390869 2.11463867 -340.17781738 2.97927734 -339.88305664 3.87011719 C-329.21959366 36.38880279 -329.21959366 36.38880279 -312.75 66.25 C-312.07582031 67.24 -311.40164063 68.23 -310.70703125 69.25 C-294.86582771 91.41037217 -273.67931989 106.01313787 -246.6171875 110.8046875 C-224.83326304 113.31313941 -206.251204 109.80211646 -186.75 100.25 C-185.84266113 99.8176001 -185.84266113 99.8176001 -184.91699219 99.37646484 C-172.99038286 93.64612705 -162.44358343 85.98186479 -151.75 78.25 C-150.20206106 77.13768935 -148.6538914 76.02569969 -147.10546875 74.9140625 C-141.89980823 71.16921437 -136.70847673 67.40474748 -131.52490234 63.62939453 C-121.02483698 55.98233315 -110.43833306 48.49062435 -99.67089844 41.22412109 C-97.53083688 39.77773713 -95.39360574 38.32761744 -93.25878906 36.87353516 C-63.8815467 16.87687941 -36.7719692 0.03215762 0 0 Z " fill="#FFFFFF" transform="translate(360.75,346.75)"/>
<path d="M0 0 C0.72888428 0.00182281 1.45776855 0.00364563 2.20874023 0.00552368 C13.68596812 0.0538121 24.80666622 0.6156949 36 3.3125 C37.05598389 3.56193359 37.05598389 3.56193359 38.13330078 3.81640625 C62.6529222 9.82529918 82.62911118 22.23027059 101 39.3125 C101.65613281 39.90289062 102.31226563 40.49328125 102.98828125 41.1015625 C124.68161916 61.49240186 137.80283447 91.18672165 147.125 118.875 C147.51574707 120.03515625 147.90649414 121.1953125 148.30908203 122.390625 C151.23218492 131.37660751 151.23218492 131.37660751 151 136.3125 C148.41909233 137.62996333 145.83549542 138.94159617 143.25 140.25 C142.52039063 140.62318359 141.79078125 140.99636719 141.0390625 141.38085938 C140.33007812 141.73857422 139.62109375 142.09628906 138.890625 142.46484375 C137.91657715 142.9597229 137.91657715 142.9597229 136.92285156 143.46459961 C134.96706921 144.32702116 133.08459306 144.85624179 131 145.3125 C130.52691406 144.35472656 130.05382812 143.39695313 129.56640625 142.41015625 C127.78141976 138.80816148 125.97885185 135.21525853 124.16748047 131.62646484 C123.4088364 130.12282025 122.65251837 128.61799903 121.89892578 127.11181641 C114.15100754 111.68937022 104.9590108 98.73720437 93 86.3125 C92.41992188 85.66925781 91.83984375 85.02601562 91.2421875 84.36328125 C78.45267213 70.57759759 60.02610667 61.77208368 42 57.3125 C41.13375 57.08820312 40.2675 56.86390625 39.375 56.6328125 C10.0215346 50.40373409 -17.45508098 59.49341228 -42 75.3125 C-47.64993131 79.19621365 -53.11123184 83.33461022 -58.57226562 87.47753906 C-62.54294544 90.47870856 -66.5530147 93.42599004 -70.5625 96.375 C-71.34713623 96.9532251 -72.13177246 97.5314502 -72.94018555 98.12719727 C-85.4579588 107.34423204 -98.07395044 116.42154528 -110.80078125 125.34765625 C-113.58991354 127.30722036 -116.35520457 129.29487876 -119.10546875 131.30859375 C-147.31833663 151.85009756 -177.03663932 165.82128392 -212.5 165.625 C-213.55314392 165.62176727 -213.55314392 165.62176727 -214.62756348 165.61846924 C-253.17975266 165.42919832 -286.6117529 152.96603898 -314.4296875 125.953125 C-339.73637918 99.1154235 -351.97792419 62.742204 -359.4375 27.375 C-359.6137793 26.56474365 -359.79005859 25.7544873 -359.97167969 24.91967773 C-360.92486387 20.12806318 -361.21452788 16.14039939 -360 11.3125 C-357.76678776 8.03411435 -353.97764421 6.43869727 -350.5625 4.5625 C-349.42941406 3.92828125 -348.29632813 3.2940625 -347.12890625 2.640625 C-344 1.3125 -344 1.3125 -341.89331055 1.49389648 C-340 2.3125 -340 2.3125 -339.12207031 3.94458008 C-338.94256836 4.64993896 -338.76306641 5.35529785 -338.578125 6.08203125 C-338.36172363 6.87834961 -338.14532227 7.67466797 -337.92236328 8.49511719 C-337.7004834 9.36297852 -337.47860352 10.23083984 -337.25 11.125 C-329.57975533 38.69816433 -317.38332284 64.89976399 -297 85.3125 C-296.19949219 86.12460938 -295.39898437 86.93671875 -294.57421875 87.7734375 C-276.2128212 105.38355037 -251.34576464 111.93688754 -226.5 111.58984375 C-194.12596683 110.46012488 -166.81892379 88.92561018 -141.80419922 70.71386719 C-123.48134156 57.38437282 -104.85764869 44.48326466 -86.11230469 31.75585938 C-84.14029909 30.4083678 -82.18198802 29.04326627 -80.2265625 27.671875 C-55.85311396 10.73545307 -29.91874579 -0.15485454 0 0 Z " fill="#FFFFFF" transform="translate(361,-0.3125)"/>
</svg>
