<?xml version="1.0" encoding="UTF-8"?>
<svg version="1.1" xmlns="http://www.w3.org/2000/svg" width="512" height="512">
<path d="M0 0 C1.67276362 -0.00489552 3.34552387 -0.01108838 5.01827842 -0.01845789 C9.59162605 -0.03479693 14.16480062 -0.03255181 18.73816717 -0.02708292 C23.67972429 -0.02440522 28.62123605 -0.03895846 33.56277466 -0.05117798 C43.23548441 -0.07220367 52.90813419 -0.07677444 62.58086409 -0.07499009 C70.4466049 -0.07368091 78.31232705 -0.0774946 86.17806435 -0.08491516 C88.44643094 -0.08701443 90.71479753 -0.08911203 92.98316413 -0.09120798 C94.1123122 -0.09225151 95.24146027 -0.09329504 96.40482495 -0.09437019 C117.74728391 -0.11326137 139.08970848 -0.11222593 160.43217234 -0.10540086 C179.93669486 -0.09982749 199.44108595 -0.12064409 218.94557776 -0.15376133 C238.99243456 -0.18753414 259.03922846 -0.2026621 279.08611423 -0.1980443 C290.3329676 -0.19580309 301.57969954 -0.20099175 312.82652855 -0.22593689 C322.4027773 -0.2469965 331.97883803 -0.2504959 341.55509462 -0.2316373 C346.43614642 -0.22250783 351.31684808 -0.22125053 356.19787216 -0.24199295 C360.67589635 -0.26081142 365.15328633 -0.25607888 369.63128719 -0.23344713 C371.2415968 -0.22928861 372.85195609 -0.23336766 374.462213 -0.24704307 C394.89208349 -0.40857696 410.67041113 5.96644685 425.37153625 20.39440918 C426.01091125 21.00929199 426.65028625 21.6241748 427.30903625 22.25769043 C439.99628784 35.48301741 442.82994609 52.44102955 442.76594543 70.02287292 C442.77084096 71.69563655 442.77703381 73.36839679 442.78440332 75.04115134 C442.80074236 79.61449898 442.79849725 84.18767354 442.79302835 88.76104009 C442.79035066 93.70259722 442.80490389 98.64410898 442.81712341 103.58564758 C442.8381491 113.25835734 442.84271988 122.93100711 442.84093553 132.60373702 C442.83962634 140.46947783 442.84344003 148.33519997 442.8508606 156.20093727 C442.85295987 158.46930386 442.85505747 160.73767046 442.85715342 163.00603706 C442.85871871 164.69975916 442.85871871 164.69975916 442.86031562 166.42769787 C442.8792068 187.77015683 442.87817137 209.1125814 442.87134629 230.45504526 C442.86577293 249.95956778 442.88658952 269.46395887 442.91970676 288.96845069 C442.95347957 309.01530749 442.96860753 329.06210139 442.96398973 349.10898715 C442.96174852 360.35584053 442.96693719 371.60257246 442.99188232 382.84940147 C443.01294194 392.42565022 443.01644134 402.00171095 442.99758273 411.57796755 C442.98845326 416.45901934 442.98719596 421.33972101 443.00793839 426.22074509 C443.02675685 430.69876928 443.02202432 435.17615925 442.99939257 439.65416012 C442.99523405 441.26446973 442.99931309 442.87482902 443.01298851 444.48508593 C443.17452239 464.91495642 436.79949858 480.69328406 422.37153625 495.39440918 C421.75665344 496.03378418 421.14177063 496.67315918 420.508255 497.33190918 C414.78940084 502.81809047 407.71180892 506.51223818 400.37153625 509.39440918 C399.70201022 509.65787801 399.03248419 509.92134684 398.34266949 510.19279957 C388.45390008 513.44044967 378.20667178 512.79130273 367.92744446 512.73498535 C365.75836194 512.73413816 363.58927856 512.73461602 361.42019653 512.73631287 C355.55732237 512.73717064 349.69463379 512.71958004 343.83180261 512.69859099 C337.69525112 512.67978793 331.55869499 512.67807089 325.42211914 512.67451477 C313.81309053 512.66520497 302.20414707 512.64060557 290.59515589 512.6104663 C277.3738826 512.57688915 264.15260515 512.56042794 250.93129981 512.54538 C223.74466482 512.5140551 196.55810532 512.4613153 169.37153625 512.39440918 C169.04177795 511.19799805 168.71201965 510.00158691 168.37226868 508.7689209 C167.92807067 507.16229719 167.4838129 505.55569 167.039505 503.94909668 C166.82354675 503.16494385 166.6075885 502.38079102 166.38508606 501.57287598 C165.08465692 496.87587564 163.7281179 492.20111067 162.29943848 487.54147339 C154.92163598 463.29978259 154.32181625 438.36439611 166.44966125 415.58581543 C169.34043699 410.78548255 172.63015677 406.55566291 176.37153625 402.39440918 C176.90134094 401.77179199 177.43114563 401.1491748 177.977005 400.50769043 C186.47847685 391.16656705 198.43735455 384.80558064 211.05903625 384.08190918 C214.64757879 383.79730063 215.92207117 383.11337033 218.30903625 380.45690918 C223.84945394 375.10842282 233.07842501 375.83207035 240.37153625 375.39440918 C241.49592102 375.31118408 242.62030579 375.22795898 243.77876282 375.14221191 C257.63236076 374.18954125 271.48937305 374.11070351 285.37153625 374.08190918 C286.04063145 374.08002216 286.70972664 374.07813515 287.39909744 374.07619095 C313.32575813 374.01005237 339.16979062 374.99719231 365.05903625 376.33190918 C365.94752258 376.37763943 366.83600891 376.42336967 367.75141907 376.47048569 C373.71251728 376.77873763 379.67308853 377.09598964 385.633255 377.42175293 C386.77740151 377.48423595 386.77740151 377.48423595 387.94466209 377.54798126 C397.09624194 378.05212116 406.23604986 378.64683499 415.37153625 379.39440918 C406.15497368 357.1719953 396.78092125 335.09001843 386.37153625 313.39440918 C385.70347961 311.98457764 385.70347961 311.98457764 385.02192688 310.54626465 C379.73699126 299.41871677 373.89486998 288.99841656 366.99067688 278.79821777 C365.16580716 276.08897965 363.36942299 273.36196295 361.57466125 270.63269043 C343.11179533 242.62237661 323.52930641 216.12499407 299.66108704 192.47814941 C297.60425618 190.43978424 295.55575009 188.39331971 293.508255 186.34558105 C292.17669719 185.01893382 290.84468227 183.6927452 289.51216125 182.36706543 C288.61343292 181.47000633 288.61343292 181.47000633 287.69654846 180.55482483 C283.99441147 176.89331886 280.17580857 173.41252846 276.22946167 170.01545715 C273.08778469 167.27433038 270.08496854 164.38680193 267.05903625 161.51940918 C261.03558108 155.86123779 254.84557683 150.53451282 248.37153625 145.39440918 C247.25559719 144.47678459 246.14109459 143.55741123 245.02778625 142.63659668 C187.0654243 94.98355882 120.32291319 80.71436506 46.6254425 87.71081543 C5.66529583 92.02950237 -36.28313636 102.53753907 -67.272995 131.21472168 C-68.62846375 132.39440918 -68.62846375 132.39440918 -69.62846375 132.39440918 C-69.74510271 122.3705461 -69.8335526 112.34684851 -69.8875246 102.3224411 C-69.91344866 97.66600816 -69.94852576 93.01004469 -70.00566101 88.35388184 C-70.06060277 83.84748322 -70.09001295 79.34153171 -70.10284996 74.83482361 C-70.11197979 73.12866695 -70.12980268 71.42253048 -70.15711403 69.71656799 C-70.45876387 50.06533141 -65.63120937 34.28279177 -51.897995 19.70690918 C-51.14904968 18.94378418 -50.40010437 18.18065918 -49.62846375 17.39440918 C-49.01358093 16.75503418 -48.39869812 16.11565918 -47.7651825 15.45690918 C-34.53985551 2.7696576 -17.58184338 -0.06400065 0 0 Z " fill="#FFFFFF" transform="translate(69.62846374511719,-0.3944091796875)"/>
<path d="M0 0 C7.78339901 4.85111154 12.48170269 12.78878372 14.64453125 21.63671875 C16.16095556 31.71844084 13.71314497 40.68730851 7.79296875 48.9609375 C2.11036708 55.42350411 -5.93907338 59.30066231 -14.4375 60.28125 C-23.34787621 60.61538911 -31.24573289 58.40690036 -38.18359375 52.73046875 C-45.66191705 45.6059586 -49.09236617 38.41221483 -49.4375 28.125 C-49.19331344 18.60172419 -46.46938171 11.6898425 -39.92578125 4.75390625 C-28.62770581 -5.53582168 -13.52496879 -7.07947585 0 0 Z " fill="#FFFFFF" transform="translate(195,221)"/>
</svg>
