<?xml version="1.0" encoding="UTF-8"?>
<svg version="1.1" xmlns="http://www.w3.org/2000/svg" width="512" height="512">
<path d="M0 0 C46.2 0 92.4 0 140 0 C140 12.54 140 25.08 140 38 C133.565 39.98 133.565 39.98 127 42 C122.28609507 45.48828965 119.63569454 50.20582206 118.66711426 55.98684692 C117.58041686 69.81361987 120.90076433 82.28916174 124.75 95.4375 C125.34249444 97.53198973 125.93237127 99.62722151 126.51977539 101.72314453 C127.7290574 106.02729157 128.95034152 110.32772893 130.18212891 114.62548828 C133.01277094 124.52022709 135.72693733 134.44682926 138.4375 144.375 C138.81397675 145.74927155 138.81397675 145.74927155 139.19805908 147.15130615 C144.1638324 165.29257017 148.75386373 183.46120385 152 202 C153.9510811 198.57042713 154.73547532 195.21586582 155.56640625 191.37109375 C155.87934967 189.9621388 156.19355151 188.55346297 156.50878906 187.14501953 C156.6780188 186.38529846 156.84724854 185.62557739 157.02160645 184.84283447 C162.74034838 159.4117917 170.17935608 134.46941075 177.51708984 109.46972656 C179.95283539 101.17095677 182.37072673 92.86702965 184.78615952 84.56232834 C190.17461871 66.03683389 195.56972853 47.51328768 201 29 C201.19652916 28.32982849 201.39305832 27.65965698 201.59554291 26.96917725 C202.91291026 22.47837234 204.2346545 17.98887284 205.55859375 13.5 C206.06109398 11.78937378 206.06109398 11.78937378 206.57374573 10.04418945 C206.8799736 9.00866943 207.18620148 7.97314941 207.50170898 6.90625 C207.76837875 6.00197266 208.03504852 5.09769531 208.30979919 4.16601562 C209 2 209 2 210 0 C231.12 0 252.24 0 274 0 C284.35470348 34.51567826 284.35470348 34.51567826 288.0234375 47.234375 C288.45177278 48.7149755 288.8802341 50.19553954 289.30880737 51.67607117 C290.43416829 55.56521041 291.55766278 59.454886 292.68055725 63.34473801 C293.62892272 66.62948311 294.57814915 69.9139792 295.52732849 73.19848919 C297.48586077 79.97585773 299.44340317 86.75351117 301.39976501 93.53150654 C303.49912432 100.80483895 305.60040476 108.07760714 307.70605469 115.34912109 C326.02780821 178.620424 326.02780821 178.620424 334 209 C334.12938965 208.44676559 334.2587793 207.89353119 334.39208984 207.3235321 C338.64305405 189.3377801 343.87290747 171.70516741 349.31032944 154.05314636 C350.48344099 150.24186561 351.65102225 146.42888978 352.81958008 142.61621094 C354.45509044 137.28249341 356.09365002 131.94972715 357.7355814 126.61798286 C359.89934304 119.59132982 362.04884151 112.56061025 364.18092346 105.52426147 C377.95007035 60.0998593 377.95007035 60.0998593 386 44 C384.77925781 44.0721875 383.55851562 44.144375 382.30078125 44.21875 C380.63803159 44.31269066 378.97527054 44.40642964 377.3125 44.5 C376.51521484 44.54769531 375.71792969 44.59539062 374.89648438 44.64453125 C367.89710994 45.03184841 361.04509888 45 354 45 C354 30.15 354 15.3 354 0 C390.63 0 427.26 0 465 0 C465 12.54 465 25.08 465 38 C461.04 38.99 457.08 39.98 453 41 C429.43967682 54.33018285 419.59148853 82.15146379 411.375 106.5 C410.74915112 108.32627858 410.12223478 110.15219162 409.49438477 111.9777832 C408.09679526 116.04775713 406.70604127 120.1199866 405.31982422 124.19384766 C402.79233249 131.6175803 400.24240665 139.03354368 397.69140625 146.44921875 C396.74513971 149.20079815 395.79904092 151.95243519 394.85302734 154.70410156 C394.61431664 155.39843607 394.37560593 156.09277058 394.12966156 156.80814552 C391.41956052 164.69229864 388.71541858 172.57849365 386.01171875 180.46484375 C385.51194346 181.92253653 385.01216725 183.38022899 384.51239014 184.83792114 C383.50983798 187.76211558 382.50731783 190.68632099 381.50482178 193.61053467 C381.13238972 194.69689335 381.13238972 194.69689335 380.75243378 195.80519867 C380.25072781 197.26864299 379.74902391 198.73208801 379.24732208 200.19553375 C376.28730671 208.829615 373.32626526 217.46334221 370.36229992 226.09606838 C369.21302226 229.44356536 368.06429675 232.79124885 366.91720581 236.13949585 C360.40612071 255.14057085 353.7404468 274.07906735 347 293 C326.21 293 305.42 293 284 293 C272.68981539 259.37931425 261.77553315 225.63172301 250.89339161 191.8705883 C249.59678552 187.84851875 248.29740316 183.82736409 246.99511719 179.80712891 C238.65816303 154.05789869 231.22665138 128.08138591 224 102 C223.79189697 103.02371704 223.79189697 103.02371704 223.57958984 104.06811523 C214.64699873 147.24700575 201.04688424 189.25853944 187 231 C186.7828257 231.6453923 186.5656514 232.29078461 186.34189606 232.95573425 C179.60109173 252.98405309 172.81116477 272.99550346 166 293 C146.53 293 127.06 293 107 293 C104.3044112 286.26102799 101.73668413 279.5648351 99.3828125 272.7109375 C99.04959991 271.74734818 98.71638733 270.78375885 98.37307739 269.79096985 C97.65967558 267.72724378 96.94733095 265.66315201 96.23596191 263.59872437 C94.32636864 258.05757817 92.4085227 252.5192861 90.4921875 246.98046875 C90.10659668 245.86523331 89.72100586 244.74999786 89.32373047 243.60096741 C85.9879232 233.95536478 82.62610945 224.31905903 79.25 214.6875 C78.6915596 213.09367192 78.13312878 211.49984048 77.57470703 209.90600586 C76.38273056 206.50430911 75.19044335 203.10272142 73.99804688 199.70117188 C71.74205991 193.26482346 69.48809646 186.82776699 67.234375 180.390625 C66.81267532 179.18622772 66.39097565 177.98183044 65.95649719 176.74093628 C63.74799233 170.43270599 61.54050351 164.12412266 59.3347168 157.81494141 C58.4302399 155.22816768 57.5256852 152.64142117 56.62109375 150.0546875 C56.39460836 149.40698521 56.16812298 148.75928291 55.9347744 148.09195328 C53.04808017 139.83774279 50.15274324 131.58663288 47.24683189 123.33916759 C45.24113438 117.64662086 43.23930233 111.95272446 41.23996925 106.25793934 C40.04809505 102.86390116 38.8540868 99.47065036 37.65454102 96.07931519 C23.87358909 57.10723484 23.87358909 57.10723484 22 44 C19.525 44.495 19.525 44.495 17 45 C11.39 45 5.78 45 0 45 C0 30.15 0 15.3 0 0 Z " fill="#FFFFFF" transform="translate(0,109)"/>
<path d="M0 0 C10.69584912 7.10921708 19.46277549 16.5606966 22.82421875 29.26171875 C24.53938142 40.7292113 24.79514 52.9751715 19.296875 63.421875 C18.884375 64.2675 18.471875 65.113125 18.046875 65.984375 C11.79088129 77.64327237 1.24706447 85.28210485 -11.265625 89.23046875 C-24.48817053 92.30301539 -37.3044456 90.34283735 -49.2265625 83.984375 C-61.76558702 76.07331852 -69.06094635 64.71118379 -72.390625 50.484375 C-73.93638827 35.33589495 -70.42629874 21.7481588 -60.953125 9.671875 C-45.79889366 -6.78467309 -19.41914233 -11.33718714 0 0 Z " fill="#FFFFFF" transform="translate(488.703125,312.578125)"/>
</svg>
