<?xml version="1.0" encoding="UTF-8"?>
<svg version="1.1" xmlns="http://www.w3.org/2000/svg" width="512" height="512">
<path d="M0 0 C13.5652869 12.45422531 18.04911057 30.47025985 18.86328125 48.2578125 C19.02516275 59.08706582 18.78119022 69.86249541 18.1328125 80.67578125 C18.06986968 81.73910203 18.06986968 81.73910203 18.00565529 82.82390404 C16.87767713 101.53035589 14.8668429 120.14751831 12.85200882 138.77530289 C12.33928251 143.53275247 11.83628359 148.29123259 11.33178711 153.04956055 C9.25852905 172.56345359 7.12508484 192.07021714 4.92578125 211.5703125 C-2.81122792 255.25337133 -2.81122792 255.25337133 7.86328125 296.2578125 C12.94232332 301.6249515 17.31216354 304.95722576 24.83203125 305.59375 C43.73044946 305.97581038 60.52941106 299.75400703 74.86328125 287.2578125 C75.64960938 286.60296875 76.4359375 285.948125 77.24609375 285.2734375 C124.88469137 244.35501823 139.88838429 170.06051592 144.84765625 110.68383789 C147.65406727 72.50581443 145.79966149 34.27406882 141.86328125 -3.7421875 C149.53864752 -3.76531571 157.21401021 -3.78310503 164.88940334 -3.79399967 C168.45305547 -3.79922745 172.01668382 -3.80632319 175.58032227 -3.81762695 C179.67334222 -3.83052926 183.76633705 -3.83541656 187.859375 -3.83984375 C189.78746254 -3.84758568 189.78746254 -3.84758568 191.75450134 -3.85548401 C193.52622459 -3.85559731 193.52622459 -3.85559731 195.33374023 -3.85571289 C196.90260231 -3.85904381 196.90260231 -3.85904381 198.50315857 -3.86244202 C200.86328125 -3.7421875 200.86328125 -3.7421875 201.86328125 -2.7421875 C212.10123982 57.11624183 197.4752617 122.8744164 188.64672852 182.11425781 C184.4380437 210.32732517 184.4380437 210.32732517 182.23828125 238.7578125 C182.18353638 240.00473877 182.18353638 240.00473877 182.12768555 241.27685547 C182.03083164 243.60361755 181.94491415 245.93047443 181.86328125 248.2578125 C181.82074219 249.34320313 181.77820313 250.42859375 181.734375 251.546875 C181.40101397 267.68154868 182.76900907 285.61378611 193.86328125 298.2578125 C203.49030745 306.58099285 214.36297797 307.03474898 226.50390625 306.43994141 C250.88975389 304.55750739 272.19043239 290.1691331 289.86328125 274.2578125 C290.71664063 273.48953125 291.57 272.72125 292.44921875 271.9296875 C333.47475035 232.89568656 353.09642126 172.81799954 354.9921875 117.49609375 C355.36742256 92.75559539 353.3096427 63.40197423 335.86328125 44.2578125 C331.81462196 40.85475023 327.60850244 37.63042309 322.86328125 35.2578125 C322.52296875 36.3096875 322.52296875 36.3096875 322.17578125 37.3828125 C318.97734737 44.38890576 314.89058009 47.36393613 307.8984375 50.28125 C300.12145601 52.7834963 291.55401196 53.31189329 283.86328125 50.2578125 C275.8076827 45.93020939 270.13459911 40.40299993 267.30078125 31.48828125 C265.52864496 22.45355071 266.15676652 13.24083897 270.86328125 5.2578125 C277.10362658 -3.69984776 285.9621579 -9.12144425 296.60546875 -11.3046875 C314.74935037 -13.74127592 333.46001565 -10.71641108 348.359375 0.2890625 C374.87134859 21.13467044 384.69288924 51.61770825 388.65409851 84.06414795 C389.0216258 87.91834543 389.04582168 91.76740909 389.06640625 95.63671875 C389.07342056 96.51784836 389.08043488 97.39897797 389.08766174 98.30680847 C389.10511573 101.14469543 389.11151673 103.98237379 389.11328125 106.8203125 C389.11429337 108.27334778 389.11429337 108.27334778 389.11532593 109.7557373 C389.09939014 124.13488321 388.63722094 138.10936696 385.86328125 152.2578125 C385.6916748 153.17755859 385.52006836 154.09730469 385.34326172 155.04492188 C377.06338602 198.76029777 359.10052832 242.2869159 329.86328125 276.2578125 C328.91847304 277.38474829 327.97453436 278.51241339 327.03125 279.640625 C318.11110475 290.2505894 308.80016336 299.68686815 297.86328125 308.2578125 C296.45755859 309.3715625 296.45755859 309.3715625 295.0234375 310.5078125 C265.58099795 333.27136308 228.13285349 348.08046414 190.42578125 343.5703125 C179.84395407 341.97023783 169.82472886 339.24283676 160.86328125 333.2578125 C160.05246094 332.71640625 159.24164063 332.175 158.40625 331.6171875 C141.74217495 319.43270251 135.20562229 299.81264704 131.86328125 280.2578125 C130.08352717 268.75671264 130.76740018 256.86384769 130.86328125 245.2578125 C130.46238281 246.2271875 130.06148437 247.1965625 129.6484375 248.1953125 C120.5164771 269.89705127 108.34449565 289.36994985 91.86328125 306.2578125 C91.02667969 307.16789062 90.19007813 308.07796875 89.328125 309.015625 C70.58151135 328.86498063 44.45084325 343.16607723 16.86328125 344.2578125 C-1.76824325 344.45701215 -19.10754209 340.82653559 -32.8984375 327.51953125 C-33.63707031 326.77316406 -34.37570313 326.02679688 -35.13671875 325.2578125 C-36.07451172 324.37029297 -36.07451172 324.37029297 -37.03125 323.46484375 C-46.71474989 313.5627547 -51.32972605 299.49077808 -54.13671875 286.2578125 C-54.34941406 285.34644531 -54.56210938 284.43507813 -54.78125 283.49609375 C-59.89294182 258.30538226 -57.16559539 230.74331806 -55.0078125 205.32421875 C-54.94733419 204.60747231 -54.88685589 203.89072586 -54.82454491 203.15225983 C-53.53694455 188.13507677 -51.78456008 173.17590129 -50 158.2109375 C-49.85769077 157.01339151 -49.71538155 155.81584553 -49.56875992 154.58201027 C-48.23607534 143.37041662 -46.89735293 132.15958805 -45.52612305 120.95263672 C-37.28678154 75.70254844 -37.28678154 75.70254844 -43.13671875 31.2578125 C-46.03006928 27.60305394 -48.61092885 25.44313843 -53.13671875 24.2578125 C-60.8375785 23.36925176 -66.88905541 26.55958147 -73.13671875 30.7578125 C-88.20596862 42.87873087 -95.57391847 63.83103955 -100.89306641 81.76928711 C-101.27470947 83.0243103 -101.27470947 83.0243103 -101.6640625 84.3046875 C-101.87796631 85.04557617 -102.09187012 85.78646484 -102.31225586 86.54980469 C-102.72036499 87.39526855 -102.72036499 87.39526855 -103.13671875 88.2578125 C-106.28493337 89.30721737 -107.07166785 89.24387776 -110.1484375 88.48046875 C-110.90576172 88.29677734 -111.66308594 88.11308594 -112.44335938 87.92382812 C-113.62188477 87.62508789 -113.62188477 87.62508789 -114.82421875 87.3203125 C-115.62150391 87.12501953 -116.41878906 86.92972656 -117.24023438 86.72851562 C-119.20752264 86.24552868 -121.17236929 85.7526162 -123.13671875 85.2578125 C-122.69930815 78.27866274 -121.46853555 72.05274824 -119.19921875 65.4453125 C-118.73841919 64.09614746 -118.73841919 64.09614746 -118.26831055 62.71972656 C-108.01528779 33.65055045 -91.65279924 7.08917481 -63.41796875 -7.109375 C-43.29613778 -15.8330802 -17.17011261 -13.99976275 0 0 Z " fill="#FFFFFF" transform="translate(123.13671875,89.7421875)"/>
</svg>
