<?xml version="1.0" encoding="UTF-8"?>
<svg version="1.1" xmlns="http://www.w3.org/2000/svg" width="512" height="512">
<path d="M0 0 C4.05996279 1.68339921 7.11274368 4.5114639 10.375 7.375 C11.63271772 8.46625508 12.89053292 9.55739782 14.1484375 10.6484375 C14.7887793 11.2062793 15.42912109 11.76412109 16.08886719 12.33886719 C19.04546008 14.90870087 22.02308668 17.45376755 25 20 C26.16678172 20.99986575 27.33344806 21.99986617 28.5 23 C29.0775 23.495 29.655 23.99 30.25 24.5 C60 50 89.75 75.5 119.5 101 C120.0784668 101.49564453 120.65693359 101.99128906 121.25292969 102.50195312 C122.41056762 103.49458397 123.56747837 104.48806355 124.72363281 105.48242188 C127.77278418 108.10286703 130.83600209 110.70410441 133.921875 113.28125 C134.56253906 113.82007812 135.20320313 114.35890625 135.86328125 114.9140625 C137.09045408 115.94559908 138.32201606 116.97194414 139.55859375 117.9921875 C142.42715684 120.41274657 144.68538677 122.42694866 146 126 C145.29875 126.82242188 144.5975 127.64484375 143.875 128.4921875 C138.8084816 134.44826099 133.80155643 140.43576523 128.94140625 146.5625 C126.17371197 150.03743206 123.35191616 153.46715285 120.53515625 156.90234375 C117.59651361 160.48906099 114.67314394 164.08814845 111.75 167.6875 C110.92737671 168.70034058 110.92737671 168.70034058 110.08813477 169.73364258 C108.3919409 171.82230749 106.69593658 173.91112617 105 176 C98.47101384 184.04170892 91.93960706 192.08106785 85.375 200.09375 C82.40911811 203.72305284 79.45433168 207.36129332 76.5 211 C72.14671738 216.36172653 67.79009515 221.72038637 63.3984375 227.05078125 C61.46484328 229.42840932 59.55949916 231.82259372 57.6640625 234.23046875 C57.07947266 234.96652344 56.49488281 235.70257813 55.89257812 236.4609375 C54.73021318 237.92513201 53.5750274 239.39505969 52.42773438 240.87109375 C51.89728516 241.53625 51.36683594 242.20140625 50.8203125 242.88671875 C50.34867676 243.48701904 49.87704102 244.08731934 49.39111328 244.70581055 C48 246 48 246 45 246 C43.40942383 244.73413086 43.40942383 244.73413086 41.70703125 242.96484375 C41.08030518 242.32321289 40.4535791 241.68158203 39.80786133 241.02050781 C39.14939209 240.33311523 38.49092285 239.64572266 37.8125 238.9375 C36.46013465 237.55422622 35.1059866 236.1726929 33.75 234.79296875 C33.10160156 234.13216309 32.45320313 233.47135742 31.78515625 232.79052734 C27.47754616 228.46995672 22.87963981 224.6457728 18 221 C17.60844727 221.76328613 17.21689453 222.52657227 16.81347656 223.31298828 C3.63872793 248.96644657 3.63872793 248.96644657 -3 261 C-7.64756593 269.42588242 -12.1023907 277.94207046 -16.5 286.5 C-21.34568826 295.92990973 -26.29563364 305.28894205 -31.41943359 314.5715332 C-36.49101132 323.80385725 -41.29955362 333.17042956 -46.1015625 342.54492188 C-46.41269989 343.15092728 -46.72383728 343.75693268 -47.04440308 344.38130188 C-47.89337157 346.03551214 -48.73997606 347.69093503 -49.58642578 349.34643555 C-51 352 -51 352 -53 355 C-56.94572 353.34165391 -59.93393315 350.65267971 -63.125 347.875 C-64.28431578 346.88052979 -65.4444808 345.88704878 -66.60546875 344.89453125 C-67.1782959 344.4042041 -67.75112305 343.91387695 -68.34130859 343.40869141 C-74.01415464 338.59086367 -79.77151328 334.07764238 -86 330 C-86.3403125 330.46559326 -86.680625 330.93118652 -87.03125 331.41088867 C-93.93291757 340.84217343 -100.89632231 350.21969592 -108 359.5 C-113.06654406 366.11944954 -118.07435294 372.77502981 -123 379.5 C-128.5866242 387.12740017 -134.29276338 394.65644565 -140.0390625 402.1640625 C-144.42064326 407.89902727 -148.73542958 413.67759563 -153 419.5 C-158.5866242 427.12740017 -164.29276338 434.65644565 -170.0390625 442.1640625 C-174.42064326 447.89902727 -178.73542958 453.67759563 -183 459.5 C-187.92564891 466.22497272 -192.93356856 472.88046245 -198 479.5 C-203.3539086 486.49665907 -208.65105351 493.53068436 -213.875 500.625 C-214.75865234 501.82479492 -214.75865234 501.82479492 -215.66015625 503.04882812 C-217.82903904 506.00335136 -219.96647142 508.94970714 -222 512 C-222.66 512 -223.32 512 -224 512 C-222.37697797 500.26548601 -219.47166376 488.80684472 -216.7421875 477.29296875 C-216.20465127 475.0122283 -215.66749568 472.7313981 -215.13069153 470.45048523 C-213.98221095 465.57347496 -212.83143623 460.69701425 -211.67880249 455.82098389 C-209.85987176 448.12587176 -208.04600154 440.42957235 -206.23364258 432.73291016 C-206.0814736 432.08669818 -205.92930463 431.44048621 -205.77252448 430.77469206 C-205.15360826 428.14629483 -204.53471636 425.51789188 -203.91589934 422.88947129 C-203.13329344 419.5653789 -202.35052356 416.24132528 -201.56738472 412.9173584 C-197.04810996 393.73567055 -192.55159045 374.54881548 -188.08203125 355.35546875 C-187.80853851 354.18104155 -187.53504578 353.00661434 -187.25326538 351.79659843 C-184.89018863 341.64737063 -182.5295177 331.49758383 -180.17010498 321.34750366 C-178.74296726 315.20807853 -177.31525053 309.06878842 -175.88671875 302.9296875 C-175.55648209 301.51040042 -175.55648209 301.51040042 -175.21957397 300.06244087 C-171.87476735 285.6931913 -168.48291305 271.33649432 -165 257 C-156.69862359 261.03383505 -150.27577172 268.51888084 -143.59423828 274.78271484 C-138.80003493 279.27252433 -133.94037762 283.67123876 -129 288 C-124.46254334 272.30023032 -120.57227789 256.4404794 -116.66037273 240.57648659 C-115.72610014 236.79065506 -114.78848635 233.00565131 -113.85113525 229.22058105 C-111.682404 220.46099804 -109.51726471 211.70052949 -107.35281372 202.939888 C-104.58337464 191.73058579 -101.81323786 180.52145866 -99.03785729 169.31362581 C-97.92454898 164.81713915 -96.81357512 160.32008411 -95.70439863 155.82257652 C-95.01750437 153.03932921 -94.32866556 150.25656589 -93.63928986 147.47393227 C-93.16677053 145.56404842 -92.69663664 143.65357491 -92.2265625 141.74308777 C-91.9463324 140.61361221 -91.66610229 139.48413666 -91.37738037 138.32043457 C-91.13406857 137.33537178 -90.89075676 136.35030899 -90.64007187 135.33539581 C-90 133 -90 133 -89 131 C-84.50711332 132.48089561 -81.18376115 134.98986691 -77.5625 137.9375 C-76.31392911 138.93635672 -75.06522754 139.93505011 -73.81640625 140.93359375 C-73.18234863 141.44390137 -72.54829102 141.95420898 -71.89501953 142.47998047 C-69.55178619 144.35951806 -67.19121184 146.21612157 -64.82655334 148.06858826 C-63.13279397 149.39593359 -61.44023549 150.72478577 -59.74829102 152.05444336 C-58.83588402 152.77143654 -58.83588402 152.77143654 -57.90504456 153.50291443 C-57.27637985 153.99695267 -56.64771515 154.49099091 -56 155 C-54.7513116 155.9811319 -53.50261372 156.96225174 -52.25390625 157.94335938 C-48.8359375 160.62890625 -45.41796875 163.31445313 -42 166 C-40.0234005 158.12388655 -38.04982149 150.24701763 -36.07762527 142.36980057 C-35.5637412 140.31745709 -35.04967873 138.26515835 -34.53561401 136.21286011 C-29.74324511 117.07615184 -24.98894049 97.93024419 -20.26461983 78.77662086 C-19.40859377 75.30637641 -18.5521344 71.83623919 -17.69554138 68.36613464 C-17.12441105 66.05227886 -16.55328983 63.73842083 -15.98217773 61.42456055 C-15.69963607 60.27985637 -15.4170944 59.13515219 -15.12599087 57.95576 C-13.41528025 51.02324488 -11.70793898 44.0899093 -10.00274849 37.15603447 C-8.92729767 32.78593171 -7.84897643 28.41654082 -6.76992798 24.04732513 C-6.2614547 21.98566461 -5.75425135 19.92369044 -5.24835205 17.86139679 C-4.55363019 15.02992168 -3.85462257 12.19953865 -3.15454102 9.36938477 C-2.84693769 8.10876709 -2.84693769 8.10876709 -2.53312016 6.82268238 C-1.1140286 1.1140286 -1.1140286 1.1140286 0 0 Z " fill="#FFFFFF" transform="translate(295,0)"/>
</svg>
